<svg width="1239" height="227" viewBox="0 0 1239 227" fill="none" xmlns="http://www.w3.org/2000/svg">
<path d="M0 180.755V16.3774H15.0427V91.7409H108.484V16.3774H123.527V180.755H108.484V105.232H15.0427V180.755H0Z" fill="#072723"/>
<path d="M165.199 226.988C162.358 226.988 159.701 226.718 157.241 226.19C154.781 225.662 152.813 225.061 151.374 224.422L155.236 211.827C160.12 213.325 164.461 213.877 168.262 213.472C172.063 213.067 175.445 211.36 178.397 208.34C181.349 205.32 183.969 200.705 186.281 194.493L190.783 181.971L145.347 57.4785H160.87L197.536 161.9H198.667L235.333 57.4785H250.855L198.581 200.263C196.379 206.204 193.673 211.164 190.463 215.154C187.241 219.143 183.538 222.114 179.32 224.066C175.113 226.018 170.402 227 165.212 227L165.199 226.988Z" fill="#072723"/>
<path d="M269.689 226.986V57.4646H283.6V80.9857H285.285C286.994 77.2906 289.356 73.5095 292.357 69.6302C295.358 65.751 299.343 62.4732 304.3 59.797C309.257 57.1208 315.518 55.7827 323.082 55.7827C333.266 55.7827 342.184 58.4466 349.822 63.7745C357.46 69.1024 363.413 76.5417 367.669 86.0926C371.925 95.6435 374.065 106.766 374.065 119.447C374.065 132.128 371.937 143.336 367.669 152.912C363.401 162.487 357.46 169.951 349.822 175.304C342.184 180.656 333.316 183.332 323.242 183.332C315.788 183.332 309.552 181.994 304.546 179.318C299.528 176.642 295.481 173.339 292.406 169.411C289.319 165.483 286.945 161.64 285.285 157.896H283.993V226.999H269.676L269.689 226.986ZM283.846 119.189C283.846 129.145 285.334 137.959 288.311 145.632C291.287 153.317 295.58 159.332 301.176 163.69C306.773 168.048 313.574 170.233 321.557 170.233C329.54 170.233 336.686 167.975 342.344 163.445C348.002 158.927 352.319 152.814 355.295 145.104C358.272 137.395 359.76 128.752 359.76 119.177C359.76 109.601 358.297 101.168 355.381 93.5688C352.466 85.9698 348.161 79.9422 342.479 75.4737C336.796 71.0052 329.822 68.7709 321.569 68.7709C313.316 68.7709 306.686 70.9192 301.065 75.2282C295.432 79.5371 291.164 85.4788 288.237 93.0409C285.309 100.615 283.858 109.319 283.858 119.165L283.846 119.189Z" fill="#072723"/>
<path d="M446.397 183.32C434.872 183.32 424.896 180.632 416.483 175.255C408.07 169.878 401.564 162.414 396.988 152.863C392.4 143.312 390.113 132.301 390.113 119.84C390.113 107.38 392.4 96.3927 396.988 86.7314C401.576 77.07 407.923 69.5079 416.053 64.0204C424.171 58.533 433.568 55.7954 444.244 55.7954C450.947 55.7954 457.405 57.0107 463.629 59.4414C469.852 61.8721 475.436 65.5918 480.393 70.6005C485.35 75.6091 489.286 81.8946 492.177 89.4689C495.067 97.0433 496.518 105.993 496.518 116.317V123.376H400.014V110.78H481.882C481.882 102.862 480.283 95.7298 477.097 89.3953C473.911 83.0485 469.483 78.0398 463.825 74.3447C458.167 70.6496 451.636 68.8082 444.244 68.8082C436.421 68.8082 429.533 70.8951 423.58 75.069C417.627 79.2429 412.978 84.7549 409.632 91.605C406.287 98.4551 404.577 105.944 404.528 114.083V121.633C404.528 131.429 406.225 139.973 409.632 147.277C413.039 154.582 417.873 160.241 424.146 164.255C430.419 168.27 437.848 170.271 446.421 170.271C452.264 170.271 457.393 169.362 461.821 167.545C466.248 165.729 469.963 163.286 473.001 160.204C476.027 157.123 478.327 153.747 479.877 150.052L493.468 154.471C491.586 159.664 488.523 164.452 484.255 168.834C480 173.217 474.686 176.74 468.327 179.392C461.968 182.044 454.674 183.369 446.409 183.369L446.397 183.32Z" fill="#072723"/>
<path d="M518.883 180.753V57.4635H532.794V76.4056H533.839C536.299 70.1939 540.604 65.1852 546.742 61.355C552.88 57.5249 559.841 55.6221 567.615 55.6221C568.796 55.6221 570.112 55.6466 571.551 55.708C573.002 55.7571 574.207 55.8185 575.167 55.8676V70.3903C574.527 70.2798 573.396 70.1202 571.784 69.9115C570.173 69.7028 568.439 69.5924 566.557 69.5924C560.124 69.5924 554.405 70.9427 549.386 73.6435C544.368 76.3442 540.42 80.0762 537.529 84.8394C534.639 89.6025 533.188 95.0286 533.188 101.13V180.753H518.871H518.883Z" fill="#072723"/>
<path d="M681.054 67.0279C687.487 72.1593 691.939 79.4023 694.436 88.7322C696.921 98.0621 696.884 108.718 694.313 120.699C690.193 140.218 682.222 155.281 670.39 165.9C658.558 176.519 644.917 181.822 629.481 181.822C623.651 181.822 618.165 180.84 613.011 178.864C607.858 176.887 604.094 174.457 601.695 171.547L582.397 181.822L616.099 23.116C616.96 19.0035 616.652 16.0081 615.201 14.1299C613.737 12.2516 611.043 11.2204 607.095 11.0486L602.975 10.7908L603.75 7.19384L634.88 0L615.582 89.6283C620.034 80.2125 625.877 72.81 633.072 67.4207C640.28 62.0315 648.422 59.3307 657.512 59.3307C666.602 59.3307 674.621 61.8965 681.054 67.0402V67.0279ZM679.639 94.7598C678.262 86.7189 675.31 80.5931 670.759 76.3946C666.208 72.1962 660.513 70.1092 653.65 70.1092C644.044 70.1092 635.299 73.5343 627.402 80.3844C619.506 87.2345 614.106 97.4237 611.191 110.94L605.016 139.445C603.639 146.123 603.725 152.2 605.275 157.675C606.812 163.15 609.813 167.472 614.278 170.639C618.731 173.806 624.229 175.39 630.748 175.39C642.58 175.39 652.654 170.467 660.981 160.621C669.295 150.776 675.088 138.07 678.348 122.492C680.574 112.057 681.005 102.801 679.639 94.7598Z" fill="#072723"/>
<path d="M795.542 167.692C796.994 169.583 799.786 170.688 803.906 171.031L807.768 171.289L806.993 174.886L776.121 182.08L783.07 149.72C777.412 160.339 770.549 168.343 762.48 173.732C754.412 179.121 745.666 181.822 736.232 181.822C725.765 181.822 718.176 178.52 713.465 171.94C708.742 165.347 707.758 155.723 710.501 143.054L723.109 82.4464C724.142 78.5057 723.883 75.5595 722.334 73.583C720.796 71.6188 717.955 70.5508 713.847 70.3666L709.985 70.1088L710.76 66.5119L741.89 59.3181L724.4 142.01C722.346 151.942 723.072 159.344 726.589 164.218C730.107 169.092 735.63 171.535 743.182 171.535C749.012 171.535 754.891 170.086 760.808 167.164C766.724 164.255 772.037 159.713 776.76 153.55C781.471 147.387 784.866 139.518 786.92 129.918L796.957 82.4096C797.99 78.4689 797.732 75.5226 796.182 73.5462C794.632 71.582 791.803 70.5139 787.695 70.3298L783.833 70.072L784.608 66.4751L815.739 59.2812L794.644 158.669C793.783 162.782 794.091 165.777 795.542 167.655V167.692Z" fill="#072723"/>
<path d="M847.383 170.136C849.437 172.1 853.472 173.512 859.474 174.371L858.699 177.968H811.357L812.132 174.371C818.306 173.683 822.894 172.321 825.895 170.258C828.896 168.208 830.828 165.127 831.689 161.014L848.416 82.4346C849.277 78.494 849.019 75.5477 847.641 73.5712C846.264 71.607 843.435 70.539 839.155 70.3549L835.292 70.0971L836.067 66.5001L866.94 59.3063L845.587 161.002C844.726 165.115 845.329 168.159 847.383 170.123V170.136ZM860.765 22.8583C858.367 20.4645 857.161 17.641 857.161 14.3878C857.334 10.7909 858.662 7.84458 861.147 5.52438C863.631 3.21646 866.682 2.0625 870.285 2.0625C873.889 2.0625 876.583 3.21646 878.908 5.52438C881.232 7.8323 882.376 10.7909 882.376 14.3878C882.204 17.641 880.962 20.4645 878.649 22.8583C876.337 25.2645 873.459 26.4553 870.027 26.4553C866.251 26.4553 863.164 25.2645 860.765 22.8583Z" fill="#072723"/>
<path d="M900.396 170.135C902.45 172.1 906.485 173.511 912.487 174.371L911.712 177.968H864.37L865.145 174.371C871.32 173.511 875.907 172.1 878.909 170.135C881.91 168.171 883.841 165.127 884.702 161.014L914.037 23.116C914.898 19.0035 914.59 16.0081 913.139 14.1299C911.675 12.2516 908.982 11.2204 905.033 11.0486L900.913 10.7908L901.688 7.19384L933.077 0L898.601 161.014C897.74 165.127 898.342 168.171 900.396 170.135Z" fill="#072723"/>
<path d="M1020.04 167.435C1021.57 169.325 1024.42 170.43 1028.52 170.774L1032.64 171.032L1031.87 174.629L1000.74 181.822L1007.43 150.494C1002.8 160.425 996.876 168.134 989.681 173.61C982.473 179.085 974.244 181.822 964.982 181.822C955.721 181.822 947.873 179.122 941.441 173.732C935.008 168.343 930.592 160.977 928.194 151.648C925.783 142.318 925.783 131.92 928.194 120.442C930.937 107.429 935.61 96.3434 942.216 87.1854C948.821 78.0274 956.582 71.0913 965.499 66.3895C974.417 61.6878 983.506 59.3307 992.768 59.3307C999.287 59.3307 1005.29 60.4847 1010.77 62.7926C1016.26 65.1005 1020.47 68.8325 1023.38 73.964L1034.19 23.116C1035.23 19.0035 1034.97 16.0081 1033.42 14.1299C1031.87 12.2516 1029.13 11.2204 1025.19 11.0486L1021.07 10.7908L1021.84 7.19384L1053.23 0L1019.27 158.706C1018.24 162.647 1018.5 165.556 1020.05 167.435H1020.04ZM995.08 160.756C1002.96 153.906 1008.38 143.717 1011.29 130.201L1017.21 102.985C1018.76 95.9629 1018.76 89.6283 1017.21 83.9813C1015.67 78.3343 1012.71 73.878 1008.33 70.6248C1003.95 67.3716 998.426 65.7512 991.735 65.7512C979.902 65.7512 969.78 70.723 961.379 80.6422C952.978 90.5736 947.135 103.243 943.888 118.649C941.834 128.924 941.478 138.082 942.855 146.123C944.22 154.176 947.185 160.339 951.736 164.611C956.274 168.896 961.981 171.032 968.845 171.032C978.451 171.032 987.196 167.607 995.092 160.756H995.08Z" fill="#072723"/>
<path d="M1061.98 143.177C1063.69 151.819 1067.29 158.461 1072.79 163.077C1078.28 167.705 1085.23 170.013 1093.63 170.013C1102.72 170.013 1111.03 167.57 1118.58 162.696C1126.14 157.822 1131.79 151.611 1135.57 144.073L1138.66 144.846C1134.19 156.496 1127.33 165.483 1118.07 171.805C1108.81 178.139 1098.34 181.307 1086.68 181.307C1077.07 181.307 1068.79 178.778 1061.85 173.732C1054.9 168.687 1050.14 161.272 1047.57 151.525C1044.99 141.777 1045.08 130.299 1047.82 117.115C1050.22 105.808 1054.43 95.8031 1060.43 87.0624C1066.43 78.3341 1073.81 71.5208 1082.56 66.6472C1091.3 61.7735 1100.65 59.3306 1110.6 59.3306C1120.55 59.3306 1128.69 61.3439 1135.04 65.3704C1141.39 69.397 1145.46 75.1791 1147.27 82.7044C1149.06 90.242 1148.25 99.2281 1144.82 109.663H1061.71L1063.25 103.242H1130.92C1134.87 91.4328 1134.7 82.2256 1130.4 75.6333C1126.11 69.041 1118.83 65.751 1108.54 65.751C1097.72 65.751 1088.29 70.0722 1080.23 78.7146C1072.16 87.3571 1066.51 98.7862 1063.25 113.002C1060.68 124.468 1060.25 134.534 1061.96 143.177H1061.98Z" fill="#072723"/>
<path d="M1204.27 71.2624C1209.92 65.3575 1215.84 61.6379 1222.01 60.0911C1228.19 58.5443 1233.85 59.2317 1239 62.1412L1233.86 76.7744C1228.37 73.0056 1222.32 71.9376 1215.72 73.558C1209.11 75.1908 1203.02 79.426 1197.45 86.2639C1191.88 93.114 1187.88 102.186 1185.48 113.48L1175.7 160.989C1174.67 165.273 1175.74 168.477 1178.93 170.613C1182.1 172.762 1187.97 174.002 1196.55 174.333L1195.78 177.93H1141.23L1142 174.333C1148.18 173.474 1152.82 172.062 1155.9 170.098C1158.99 168.134 1160.96 165.089 1161.82 160.977L1178.55 82.3969C1179.41 78.4562 1179.1 75.5099 1177.65 73.5335C1176.18 71.5693 1173.32 70.5013 1169.03 70.3171L1165.16 70.0593L1165.94 66.4624L1197.07 59.2686L1189.6 93.4209C1193.72 84.5206 1198.61 77.1181 1204.27 71.2133V71.2624Z" fill="#072723"/>
</svg>
