<svg width="254" height="50" viewBox="0 0 254 50" fill="none" xmlns="http://www.w3.org/2000/svg">
<path d="M245.617 32.3652V16.7011H248.564V19.1894H248.728C249.013 18.3464 249.516 17.6835 250.237 17.2008C250.964 16.7113 251.787 16.4666 252.705 16.4666C252.895 16.4666 253.119 16.4734 253.378 16.4869C253.643 16.5005 253.85 16.5175 254 16.5379V19.4546C253.878 19.4206 253.66 19.3832 253.347 19.3424C253.035 19.2948 252.722 19.271 252.409 19.271C251.688 19.271 251.046 19.424 250.482 19.7299C249.924 20.029 249.482 20.4472 249.156 20.9843C248.83 21.5146 248.666 22.1196 248.666 22.7995V32.3652H245.617Z" fill="white"/>
<path d="M236.112 32.6815C234.568 32.6815 233.239 32.3518 232.124 31.6923C231.016 31.026 230.159 30.0912 229.554 28.8879C228.956 27.6777 228.657 26.2602 228.657 24.6353C228.657 23.0308 228.956 21.6167 229.554 20.3929C230.159 19.1692 231.003 18.214 232.083 17.5273C233.171 16.8406 234.443 16.4973 235.898 16.4973C236.781 16.4973 237.638 16.6435 238.467 16.9358C239.297 17.2282 240.041 17.6871 240.701 18.3126C241.36 18.938 241.88 19.7505 242.261 20.7499C242.642 21.7425 242.832 22.9492 242.832 24.3702V25.4511H230.38V23.1668H239.844C239.844 22.3646 239.681 21.6541 239.355 21.0354C239.028 20.4099 238.569 19.917 237.978 19.5567C237.393 19.1964 236.707 19.0162 235.918 19.0162C235.061 19.0162 234.313 19.227 233.674 19.6485C233.042 20.0632 232.553 20.6071 232.206 21.2802C231.866 21.9464 231.696 22.6705 231.696 23.4523V25.237C231.696 26.284 231.88 27.1746 232.247 27.9089C232.621 28.6431 233.141 29.204 233.807 29.5915C234.473 29.9722 235.252 30.1626 236.142 30.1626C236.72 30.1626 237.247 30.081 237.723 29.9179C238.199 29.7479 238.61 29.4963 238.957 29.1632C239.304 28.8301 239.569 28.4188 239.752 27.9292L242.638 28.4493C242.407 29.2992 241.993 30.0436 241.394 30.6827C240.803 31.315 240.058 31.8079 239.161 32.1614C238.27 32.5081 237.254 32.6815 236.112 32.6815Z" fill="white"/>
<path d="M215.733 23.0649V32.3654H212.684V11.48H215.692V19.2508H215.886C216.253 18.4078 216.814 17.7381 217.569 17.2418C218.323 16.7455 219.309 16.4974 220.526 16.4974C221.6 16.4974 222.538 16.7183 223.341 17.1603C224.15 17.6022 224.775 18.2616 225.217 19.1387C225.666 20.0089 225.89 21.0967 225.89 22.402V32.3654H222.841V22.7691C222.841 21.6202 222.545 20.7295 221.954 20.0973C221.362 19.4582 220.54 19.1387 219.486 19.1387C218.765 19.1387 218.119 19.2916 217.548 19.5976C216.984 19.9035 216.539 20.3522 216.212 20.9437C215.893 21.5284 215.733 22.2354 215.733 23.0649Z" fill="white"/>
<path d="M203.586 32.6815C202.07 32.6815 200.765 32.3382 199.67 31.6515C198.583 30.9581 197.746 30.0028 197.162 28.7859C196.577 27.5689 196.285 26.1752 196.285 24.6047C196.285 23.0138 196.584 21.6099 197.182 20.3929C197.78 19.1692 198.623 18.214 199.711 17.5273C200.799 16.8406 202.081 16.4973 203.556 16.4973C204.746 16.4973 205.806 16.7183 206.738 17.1602C207.669 17.5953 208.42 18.2072 208.991 18.9958C209.569 19.7845 209.913 20.7057 210.021 21.7595H207.054C206.891 21.0252 206.517 20.3929 205.932 19.8626C205.354 19.3324 204.579 19.0672 203.607 19.0672C202.757 19.0672 202.013 19.2916 201.373 19.7403C200.741 20.1822 200.248 20.8145 199.895 21.6371C199.541 22.4529 199.364 23.4183 199.364 24.5333C199.364 25.6755 199.538 26.6613 199.885 27.4907C200.231 28.3202 200.721 28.9626 201.353 29.4182C201.992 29.8737 202.743 30.1014 203.607 30.1014C204.185 30.1014 204.708 29.996 205.177 29.7853C205.653 29.5677 206.051 29.2584 206.37 28.8573C206.697 28.4561 206.925 27.9734 207.054 27.4092H210.021C209.913 28.4222 209.583 29.3264 209.032 30.1218C208.481 30.9173 207.744 31.5427 206.819 31.9982C205.901 32.4538 204.824 32.6815 203.586 32.6815Z" fill="white"/>
<path d="M183.472 23.0648V32.3654H180.423V16.7013H183.35V19.2508H183.544C183.904 18.4213 184.468 17.7551 185.237 17.252C186.012 16.7489 186.987 16.4973 188.163 16.4973C189.231 16.4973 190.166 16.7217 190.968 17.1704C191.77 17.6123 192.392 18.2718 192.834 19.1488C193.276 20.0258 193.497 21.1102 193.497 22.4019V32.3654H190.448V22.7691C190.448 21.6337 190.152 20.7465 189.56 20.1074C188.969 19.4615 188.157 19.1386 187.123 19.1386C186.416 19.1386 185.787 19.2916 185.237 19.5975C184.693 19.9034 184.261 20.3521 183.941 20.9436C183.629 21.5283 183.472 22.2354 183.472 23.0648Z" fill="white"/>
<path d="M173.865 25.8694V16.7014H176.924V32.3655H173.926V29.6529H173.763C173.403 30.4891 172.825 31.1859 172.029 31.7434C171.241 32.2941 170.258 32.5695 169.082 32.5695C168.076 32.5695 167.185 32.3485 166.41 31.9066C165.642 31.4579 165.037 30.795 164.595 29.918C164.16 29.041 163.942 27.9566 163.942 26.6648V16.7014H166.992V26.2977C166.992 27.3651 167.287 28.2149 167.879 28.8472C168.47 29.4795 169.239 29.7956 170.184 29.7956C170.755 29.7956 171.322 29.6529 171.887 29.3673C172.458 29.0818 172.93 28.65 173.304 28.0722C173.685 27.4943 173.872 26.76 173.865 25.8694Z" fill="white"/>
<path d="M152.749 32.7121C151.757 32.7121 150.859 32.5285 150.057 32.1614C149.255 31.7875 148.619 31.247 148.15 30.5399C147.688 29.8329 147.457 28.966 147.457 27.9394C147.457 27.0556 147.627 26.3282 147.966 25.7571C148.306 25.186 148.765 24.7339 149.343 24.4007C149.921 24.0676 150.567 23.8161 151.281 23.6461C151.995 23.4761 152.722 23.347 153.463 23.2586C154.401 23.1498 155.163 23.0614 155.748 22.9934C156.332 22.9186 156.757 22.7997 157.022 22.6365C157.287 22.4733 157.42 22.2082 157.42 21.8411V21.7697C157.42 20.879 157.168 20.189 156.665 19.6995C156.169 19.21 155.428 18.9652 154.442 18.9652C153.416 18.9652 152.607 19.193 152.015 19.6485C151.43 20.0972 151.026 20.5969 150.801 21.1476L147.936 20.4949C148.276 19.5431 148.772 18.7749 149.425 18.1902C150.084 17.5987 150.842 17.1704 151.699 16.9052C152.556 16.6333 153.456 16.4973 154.401 16.4973C155.027 16.4973 155.69 16.5721 156.39 16.7217C157.097 16.8644 157.756 17.1296 158.368 17.5171C158.987 17.9046 159.494 18.4587 159.888 19.1794C160.282 19.8932 160.479 20.8213 160.479 21.9634V32.3654H157.502V30.2238H157.379C157.182 30.6181 156.886 31.0056 156.492 31.3864C156.098 31.7671 155.591 32.0832 154.972 32.3348C154.354 32.5863 153.613 32.7121 152.749 32.7121ZM153.412 30.2646C154.255 30.2646 154.976 30.098 155.574 29.7649C156.179 29.4317 156.638 28.9966 156.951 28.4595C157.27 27.9156 157.43 27.3344 157.43 26.7157V24.6965C157.321 24.8053 157.111 24.9072 156.798 25.0024C156.492 25.0908 156.142 25.169 155.748 25.237C155.353 25.2982 154.969 25.356 154.595 25.4103C154.221 25.4579 153.908 25.4987 153.657 25.5327C153.065 25.6075 152.525 25.7333 152.035 25.91C151.553 26.0868 151.165 26.3418 150.873 26.6749C150.587 27.0012 150.445 27.4363 150.445 27.9802C150.445 28.7349 150.723 29.306 151.281 29.6935C151.838 30.0742 152.549 30.2646 153.412 30.2646Z" fill="white"/>
<path d="M144.687 11.48V32.3654H141.638V11.48H144.687Z" fill="white"/>
<path d="M131.215 32.3652V16.7011H134.162V19.1894H134.325C134.611 18.3464 135.114 17.6835 135.834 17.2008C136.562 16.7113 137.384 16.4666 138.302 16.4666C138.493 16.4666 138.717 16.4734 138.975 16.4869C139.24 16.5005 139.448 16.5175 139.597 16.5379V19.4546C139.475 19.4206 139.257 19.3832 138.945 19.3424C138.632 19.2948 138.319 19.271 138.006 19.271C137.286 19.271 136.643 19.424 136.079 19.7299C135.522 20.029 135.08 20.4472 134.753 20.9843C134.427 21.5146 134.264 22.1196 134.264 22.7995V32.3652H131.215Z" fill="white"/>
<path d="M121.709 32.6815C120.166 32.6815 118.837 32.3518 117.722 31.6923C116.614 31.026 115.757 30.0912 115.152 28.8879C114.554 27.6777 114.255 26.2602 114.255 24.6353C114.255 23.0308 114.554 21.6167 115.152 20.3929C115.757 19.1692 116.6 18.214 117.681 17.5273C118.769 16.8406 120.04 16.4973 121.495 16.4973C122.379 16.4973 123.236 16.6435 124.065 16.9358C124.895 17.2282 125.639 17.6871 126.298 18.3126C126.958 18.938 127.478 19.7505 127.859 20.7499C128.239 21.7425 128.43 22.9492 128.43 24.3702V25.4511H115.978V23.1668H125.442C125.442 22.3646 125.279 21.6541 124.952 21.0354C124.626 20.4099 124.167 19.917 123.576 19.5567C122.991 19.1964 122.304 19.0162 121.516 19.0162C120.659 19.0162 119.911 19.227 119.272 19.6485C118.64 20.0632 118.15 20.6071 117.804 21.2802C117.464 21.9464 117.294 22.6705 117.294 23.4523V25.237C117.294 26.284 117.477 27.1746 117.844 27.9089C118.218 28.6431 118.738 29.204 119.405 29.5915C120.071 29.9722 120.849 30.1626 121.74 30.1626C122.318 30.1626 122.845 30.081 123.321 29.9179C123.797 29.7479 124.208 29.4963 124.555 29.1632C124.901 28.8301 125.166 28.4188 125.35 27.9292L128.236 28.4493C128.005 29.2992 127.59 30.0436 126.992 30.6827C126.4 31.315 125.656 31.8079 124.759 32.1614C123.868 32.5081 122.852 32.6815 121.709 32.6815Z" fill="white"/>
<path d="M97.8323 38.2394V16.7013H100.81V19.2406H101.065C101.242 18.9142 101.497 18.5369 101.83 18.1086C102.163 17.6803 102.625 17.3064 103.217 16.9868C103.808 16.6605 104.59 16.4973 105.562 16.4973C106.827 16.4973 107.955 16.8169 108.948 17.4559C109.941 18.095 110.719 19.0162 111.283 20.2196C111.854 21.4229 112.14 22.8711 112.14 24.5639C112.14 26.2568 111.858 27.7083 111.294 28.9185C110.729 30.1218 109.954 31.0498 108.968 31.7025C107.983 32.3484 106.857 32.6713 105.593 32.6713C104.641 32.6713 103.863 32.5115 103.258 32.192C102.659 31.8725 102.19 31.4985 101.85 31.0702C101.51 30.6419 101.249 30.2612 101.065 29.9281H100.881V38.2394H97.8323ZM100.82 24.5333C100.82 25.6347 100.98 26.6001 101.3 27.4295C101.619 28.259 102.081 28.9083 102.687 29.3774C103.292 29.8397 104.033 30.0708 104.91 30.0708C105.821 30.0708 106.582 29.8295 107.194 29.3468C107.806 28.8573 108.268 28.1944 108.581 27.3582C108.9 26.5219 109.06 25.5803 109.06 24.5333C109.06 23.4999 108.904 22.5719 108.591 21.7493C108.285 20.9266 107.823 20.2774 107.204 19.8015C106.592 19.3256 105.827 19.0876 104.91 19.0876C104.026 19.0876 103.278 19.3154 102.666 19.7709C102.061 20.2264 101.602 20.862 101.289 21.6779C100.977 22.4937 100.82 23.4455 100.82 24.5333Z" fill="white"/>
<path d="M84.0923 38.2395C83.6368 38.2395 83.2221 38.2022 82.8481 38.1274C82.4742 38.0594 82.1955 37.9846 82.0119 37.903L82.7461 35.4045C83.3036 35.5541 83.7999 35.6187 84.2351 35.5983C84.6702 35.5779 85.0543 35.4147 85.3874 35.1088C85.7274 34.8028 86.0265 34.3031 86.2848 33.6097L86.6622 32.5695L80.9309 16.7014H84.1943L88.1613 28.8574H88.3244L92.2915 16.7014H95.565L89.1097 34.4561C88.8105 35.2719 88.4298 35.962 87.9675 36.5263C87.5052 37.0974 86.9545 37.5257 86.3154 37.8112C85.6764 38.0968 84.9353 38.2395 84.0923 38.2395Z" fill="white"/>
<path d="M61.6941 32.3654V11.48H64.8453V20.5562H75.2574V11.48H78.4188V32.3654H75.2574V23.2586H64.8453V32.3654H61.6941Z" fill="white"/>
<path d="M28.8443 7.9158C28.8443 7.09272 28.5578 6.29958 28.0407 5.66849L27.8052 5.40801C27.1399 4.74276 26.238 4.36887 25.2974 4.36887C24.4745 4.36887 23.6813 4.65536 23.0501 5.17247L22.7896 5.40801C22.1244 6.07313 21.7505 6.97507 21.7505 7.9158C21.7505 8.85653 22.1244 9.75847 22.7896 10.4236L23.0501 10.6591C23.6813 11.1762 24.4745 11.4627 25.2974 11.4627C26.238 11.4627 27.1399 11.0888 27.8052 10.4236L28.0407 10.1631C28.5578 9.53202 28.8443 8.73888 28.8443 7.9158ZM33.1006 7.9158C33.1006 9.72701 32.471 11.4734 31.3327 12.8621L30.8145 13.4329C29.3511 14.8963 27.3669 15.7191 25.2974 15.7191C23.4862 15.7191 21.7398 15.0893 20.3511 13.9511L19.7802 13.4329C18.3167 11.9695 17.4941 9.98528 17.4941 7.9158C17.4941 5.84632 18.3167 3.86208 19.7802 2.39866L20.3511 1.88047C21.7398 0.742264 23.4862 0.112549 25.2974 0.112549C27.3669 0.112549 29.3511 0.935305 30.8145 2.39866L31.3327 2.96949C32.471 4.35823 33.1006 6.10459 33.1006 7.9158Z" fill="white"/>
<path d="M26.2314 6.96567C26.7241 5.98032 27.8777 5.54451 28.8861 5.92653L29.0856 6.01243L37.5983 10.2687C38.3192 10.6292 38.7759 11.3664 38.7759 12.1725C38.7759 12.9785 38.3192 13.7157 37.5983 14.0762L29.0856 18.3325C28.0346 18.8573 26.7569 18.4301 26.2314 17.3792C25.7067 16.3282 26.1338 15.0505 27.1847 14.5251L31.8899 12.1725L27.1847 9.81984L26.9935 9.71177C26.0831 9.13447 25.7396 7.95083 26.2314 6.96567Z" fill="white"/>
<path d="M23.8785 9.33462C24.6619 9.33462 25.2973 8.6994 25.2973 7.91584C25.2973 7.13228 24.6619 6.49707 23.8785 6.49707C23.095 6.49707 22.4597 7.13228 22.4597 7.91584C22.4597 8.6994 23.095 9.33462 23.8785 9.33462Z" fill="white"/>
<path d="M23.8785 7.20644C23.4867 7.20644 23.1691 7.52393 23.1691 7.91583C23.1691 8.30773 23.4867 8.62521 23.8785 8.62521C24.2703 8.62521 24.5879 8.30773 24.5879 7.91583C24.5879 7.52393 24.2703 7.20644 23.8785 7.20644ZM27.4254 7.91583C27.4254 9.87485 25.8372 11.4628 23.8785 11.4628C21.9198 11.4628 20.3315 9.87485 20.3315 7.91583C20.3315 5.95681 21.9198 4.3689 23.8785 4.3689C25.8372 4.3689 27.4254 5.95681 27.4254 7.91583Z" fill="white"/>
<path d="M35.9493 11.582C36.5497 11.3732 37.2182 11.4423 37.7671 11.7815C38.394 12.1694 38.7758 12.8538 38.7758 13.591V24.9412C38.7758 25.7473 38.3191 26.4844 37.5981 26.8449L26.2479 32.52C25.7236 32.7817 25.1186 32.8138 24.5742 32.617L24.347 32.52L12.9968 26.8449C12.2758 26.4844 11.8191 25.7473 11.8191 24.9412V13.591L11.8357 13.3167C11.9175 12.6867 12.2794 12.1208 12.8278 11.7815C13.4548 11.394 14.2382 11.358 14.8977 11.6873L25.2974 16.8858L35.6972 11.6873L35.9493 11.582ZM26.2479 21.1698C25.7236 21.4316 25.1186 21.4636 24.5742 21.2668L24.347 21.1698L16.0754 17.0326V23.6249L25.2974 28.2359L34.5195 23.6249V17.0326L26.2479 21.1698Z" fill="white"/>
<path d="M13.1961 11.6016C14.2045 11.2196 15.3581 11.6554 15.8507 12.6407C16.3426 13.6259 15.9991 14.8095 15.0887 15.3868L14.8975 15.4949L3.54732 21.17C2.49626 21.6948 1.21859 21.2676 0.693146 20.2167C0.168367 19.1657 0.595488 17.888 1.64638 17.3626L12.9966 11.6875L13.1961 11.6016ZM34.7437 12.6407C35.2364 11.6554 36.3899 11.2196 37.3983 11.6016L37.5979 11.6875L48.948 17.3626L49.1393 17.4706C50.0497 18.0479 50.3932 19.2316 49.9013 20.2167C49.4086 21.2021 48.2551 21.6379 47.2466 21.2559L47.0471 21.17L35.6969 15.4949L35.5057 15.3868C34.5953 14.8095 34.2518 13.6259 34.7437 12.6407Z" fill="white"/>
<path d="M13.4318 20.0392C14.5718 19.7546 15.7266 20.4482 16.0116 21.5882C16.2963 22.7283 15.6027 23.883 14.4626 24.1681L3.11245 27.0056C1.9724 27.2902 0.817618 26.5966 0.532608 25.4566C0.247971 24.3165 0.94158 23.1618 2.08162 22.8767L13.4318 20.0392ZM36.9496 19.9976L37.163 20.0392L48.5132 22.8767L48.721 22.9405C49.7361 23.306 50.3291 24.3874 50.0622 25.4566C49.795 26.5255 48.7632 27.2016 47.6957 27.0472L47.4824 27.0056L36.1322 24.1681L35.9243 24.1043C34.9093 23.7387 34.3162 22.6574 34.5832 21.5882C34.8504 20.5193 35.8822 19.8432 36.9496 19.9976Z" fill="white"/>
<path d="M29.0329 29.7407C29.4756 28.7569 30.6006 28.2477 31.646 28.5962C32.6912 28.9446 33.2866 30.0267 33.0509 31.0791L32.9927 31.2897L27.3176 48.3149C27.028 49.184 26.2136 49.7697 25.2976 49.7697C24.3815 49.7697 23.5671 49.184 23.2775 48.3149L17.6024 31.2897L17.5442 31.0791C17.3085 30.0267 17.9039 28.9446 18.9491 28.5962C19.9945 28.2477 21.1195 28.7569 21.5622 29.7407L21.6426 29.9429L25.2976 40.908L28.9526 29.9429L29.0329 29.7407Z" fill="white"/>
<path d="M13.9474 15.7192C15.1227 15.7192 16.0756 16.672 16.0756 17.8474C16.0756 19.0227 15.1227 19.9756 13.9474 19.9756H11.1098C9.9345 19.9756 8.98169 19.0227 8.98169 17.8474C8.98169 16.672 9.9345 15.7192 11.1098 15.7192H13.9474ZM39.4853 15.7192C40.6607 15.7192 41.6135 16.672 41.6135 17.8474C41.6135 19.0227 40.6607 19.9756 39.4853 19.9756H36.6478C35.4724 19.9756 34.5196 19.0227 34.5196 17.8474C34.5196 16.672 35.4724 15.7192 36.6478 15.7192H39.4853Z" fill="white"/>
<path d="M19.6224 21.3943C20.7978 21.3943 21.7506 22.3471 21.7506 23.5224C21.7506 24.6978 20.7978 25.6506 19.6224 25.6506H16.7849C15.6095 25.6506 14.6567 24.6978 14.6567 23.5224C14.6567 22.3471 15.6095 21.3943 16.7849 21.3943H19.6224ZM33.8102 21.3943C34.9855 21.3943 35.9383 22.3471 35.9383 23.5224C35.9383 24.6978 34.9855 25.6506 33.8102 25.6506H30.9726C29.7973 25.6506 28.8445 24.6978 28.8445 23.5224C28.8445 22.3471 29.7973 21.3943 30.9726 21.3943H33.8102Z" fill="white"/>
</svg>
