<svg width="248" height="29" viewBox="0 0 248 29" fill="none" xmlns="http://www.w3.org/2000/svg">
<path d="M15.0441 0.301978C9.40249 -1.31355 3.01457 3.71409 0.777045 11.5318C-1.46061 19.3484 1.29926 26.9943 6.94087 28.6099C12.5825 30.2255 18.9704 25.1977 21.2081 17.3801C23.4456 9.56346 20.6857 1.91748 15.0441 0.301978ZM14.0936 7.64498C13.9601 9.26292 12.5396 10.4664 10.9217 10.3317C9.30384 10.1984 8.10028 8.77771 8.23492 7.1599C8.3684 5.54209 9.78892 4.33852 11.4069 4.47316C13.0247 4.60665 14.2282 6.02716 14.0936 7.64498Z" fill="#4AFC38"/>
<path d="M35.418 6.40908C31.0124 5.1486 26.0254 9.07375 24.2786 15.1773C22.5321 21.2808 24.686 27.2509 29.0916 28.5112C33.4973 29.7729 38.4843 25.8466 40.231 19.743C41.9776 13.6395 39.8237 7.66944 35.418 6.40908ZM34.7692 13.4747C34.6357 15.0926 33.2152 16.296 31.5974 16.1614C29.9795 16.028 28.776 14.6074 28.9105 12.9896C29.0452 11.3718 30.4647 10.1682 32.0825 10.3028C33.7003 10.4363 34.9039 11.8568 34.7692 13.4747Z" fill="#4AFC38"/>
<path d="M53.5996 2.09863H58.1099V22.3545H53.5996V2.09863ZM56.1118 10.0935H71.8309V14.118H56.1118V10.0935ZM69.8053 2.09863H74.3156V22.3545H69.8053V2.09863Z" fill="#4AFC38"/>
<path d="M83.7678 21.3831L76.9888 6.98779H81.9582L88.1702 21.3831H83.7678ZM82.7954 27.2172C81.7867 27.2172 80.8778 27.0907 80.0673 26.8393C79.2568 26.5871 78.4913 26.218 77.7718 25.7323V22.491C78.5285 22.9768 79.2479 23.3281 79.9328 23.5441C80.6168 23.7599 81.3733 23.8678 82.2016 23.8678C82.9396 23.8678 83.5971 23.7012 84.1732 23.3683C84.7492 23.0349 85.2261 22.445 85.6048 21.599L92.0061 6.98779H96.7863L89.1161 23.0582C88.648 24.0661 88.0807 24.8766 87.4144 25.489C86.7481 26.1005 86.0237 26.5419 85.2399 26.8127C84.4567 27.0827 83.6414 27.2172 82.7954 27.2172Z" fill="#4AFC38"/>
<path d="M98.865 6.98756H103.375V11.8757L103.186 12.4695V16.1701L103.375 17.277V26.8108H98.865V6.98756ZM101.809 14.6851C102.115 13.0471 102.65 11.6195 103.416 10.4044C104.182 9.18948 105.145 8.24842 106.306 7.58213C107.467 6.91584 108.76 6.58301 110.182 6.58301C111.694 6.58301 113.022 6.92069 114.166 7.59578C115.308 8.27101 116.204 9.21602 116.852 10.4318C117.5 11.6469 117.825 13.0649 117.825 14.6859C117.825 16.307 117.5 17.6976 116.852 18.9126C116.204 20.1276 115.308 21.0735 114.166 21.7486C113.022 22.4238 111.694 22.7614 110.182 22.7614C108.669 22.7614 107.449 22.4278 106.306 21.7623C105.163 21.096 104.204 20.1549 103.43 18.94C102.656 17.725 102.114 16.3062 101.809 14.6851ZM113.261 14.6851C113.261 13.7851 113.076 12.9883 112.707 12.2947C112.338 11.6017 111.829 11.0611 111.181 10.6743C110.534 10.2876 109.786 10.0935 108.94 10.0935C108.094 10.0935 107.292 10.2869 106.535 10.6743C105.779 11.0619 105.117 11.6017 104.55 12.2947C104.54 12.3076 104.529 12.3205 104.519 12.3333C103.413 13.7029 103.415 15.6818 104.533 17.0409C104.539 17.0482 104.544 17.0547 104.55 17.062C105.117 17.7468 105.779 18.2818 106.535 18.6693C107.292 19.0568 108.092 19.2502 108.94 19.2502C109.786 19.2502 110.534 19.0568 111.181 18.6693C111.829 18.2825 112.338 17.7468 112.707 17.062C113.076 16.3778 113.261 15.5858 113.261 14.6851Z" fill="#4AFC38"/>
<path d="M129.411 22.7606C127.593 22.7606 125.968 22.423 124.536 21.7479C123.104 21.0726 121.979 20.1228 121.161 18.8981C120.341 17.6743 119.932 16.2513 119.932 14.6311C119.932 13.0109 120.323 11.6243 121.106 10.4182C121.889 9.21207 122.965 8.27101 124.334 7.59578C125.703 6.92069 127.259 6.58301 129.007 6.58301C130.752 6.58301 132.32 6.97467 133.598 7.75773C134.877 8.54092 135.862 9.64393 136.555 11.066C137.248 12.4888 137.595 14.163 137.595 16.0894H123.552V13.0914H135.165L133.409 14.1719C133.337 13.272 133.117 12.5065 132.748 11.8765C132.378 11.2464 131.879 10.7606 131.249 10.4182C130.62 10.0766 129.881 9.90491 129.035 9.90491C128.116 9.90491 127.319 10.0894 126.644 10.4584C125.969 10.8275 125.446 11.3407 125.077 11.9981C124.708 12.6556 124.525 13.425 124.525 14.3072C124.525 15.37 124.758 16.2788 125.227 17.0353C125.695 17.7918 126.379 18.3679 127.28 18.7635C128.18 19.1599 129.269 19.3573 130.547 19.3573C131.699 19.3573 132.861 19.1914 134.031 18.8578C135.201 18.525 136.255 18.0522 137.191 17.4397V20.4644C136.183 21.1847 135.007 21.7471 133.666 22.1523C132.325 22.5576 130.907 22.7597 129.412 22.7597L129.411 22.7606Z" fill="#4AFC38"/>
<path d="M140.728 6.98783H145.238V22.3556H140.728V6.98783ZM152.719 6.82589V10.7149C152.251 10.607 151.784 10.5257 151.315 10.4717C150.847 10.4177 150.405 10.3903 149.991 10.3903C149.091 10.3903 148.28 10.5796 147.561 10.9575C146.84 11.3354 146.273 11.921 145.858 12.713C145.445 13.5059 145.238 14.5049 145.238 15.711L144.292 14.5766C144.401 13.4785 144.599 12.448 144.887 11.4845C145.174 10.5216 145.576 9.67483 146.089 8.94562C146.602 8.21654 147.238 7.64047 147.993 7.21742C148.75 6.79449 149.65 6.58252 150.694 6.58252C151.036 6.58252 151.383 6.60511 151.734 6.65028C152.085 6.69533 152.411 6.75417 152.719 6.82589Z" fill="#4AFC38"/>
<path d="M154.124 15.7384H158.77C158.878 16.4232 159.179 17.021 159.674 17.5343C160.17 18.0476 160.836 18.4439 161.674 18.7227C162.511 19.0023 163.479 19.1416 164.578 19.1416C166.18 19.1416 167.445 18.912 168.373 18.4527C169.299 17.9936 169.763 17.3497 169.763 16.5215C169.763 15.8737 169.497 15.3735 168.966 15.0229C168.435 14.6717 167.449 14.4154 166.008 14.2535L161.931 13.7943C159.301 13.5067 157.396 12.8895 156.217 11.9444C155.038 10.9993 154.448 9.68042 154.448 7.98756C154.448 6.65498 154.84 5.52058 155.623 4.58437C156.406 3.64817 157.509 2.93274 158.932 2.4372C160.353 1.94255 162.029 1.69434 163.955 1.69434C165.882 1.69434 167.492 1.9691 168.952 2.51773C170.41 3.06725 171.572 3.8327 172.435 4.81319C173.3 5.79457 173.769 6.94263 173.84 8.25671H169.195C169.104 7.6629 168.839 7.1449 168.397 6.70334C167.956 6.26268 167.348 5.92015 166.575 5.67691C165.8 5.43354 164.89 5.31192 163.846 5.31192C162.388 5.31192 161.226 5.52785 160.362 5.96048C159.498 6.3931 159.066 7.00465 159.066 7.79741C159.066 8.40985 159.323 8.8828 159.835 9.2155C160.348 9.5491 161.253 9.79642 162.55 9.95837L166.79 10.4715C168.663 10.6698 170.152 10.9896 171.26 11.4303C172.367 11.8719 173.16 12.4616 173.637 13.1996C174.114 13.9385 174.352 14.8738 174.352 16.0084C174.352 17.3587 173.942 18.543 173.124 19.5598C172.305 20.5775 171.156 21.3654 169.68 21.9229C168.203 22.4805 166.475 22.76 164.495 22.76C162.514 22.76 160.704 22.4667 159.174 21.8826C157.643 21.2977 156.437 20.4783 155.555 19.4244C154.672 18.3715 154.195 17.1419 154.123 15.7375L154.124 15.7384Z" fill="#4AFC38"/>
<path d="M197.365 19.8974H195.878L200.687 6.98779H205.197L199.255 22.3556H194.637L189.505 9.09464H191.125L185.913 22.3556H181.294L175.352 6.98779H179.916L184.75 19.8974H183.211L188.127 6.98779H192.528L197.364 19.8974H197.365Z" fill="#4AFC38"/>
<path d="M222.077 14.6854C221.788 16.3057 221.263 17.7237 220.497 18.9395C219.733 20.1544 218.769 21.0964 217.608 21.7618C216.446 22.4282 215.145 22.7609 213.705 22.7609C212.264 22.7609 210.886 22.4234 209.734 21.7481C208.583 21.073 207.687 20.1279 207.046 18.9121C206.407 17.6972 206.088 16.288 206.088 14.6854C206.088 13.0829 206.407 11.6472 207.046 10.4314C207.685 9.21643 208.581 8.27052 209.734 7.5953C210.886 6.9202 212.209 6.58252 213.705 6.58252C215.2 6.58252 216.446 6.91611 217.608 7.58164C218.769 8.24793 219.736 9.18899 220.511 10.4039C221.286 11.619 221.808 13.0474 222.077 14.6854ZM210.653 14.6854C210.653 15.5862 210.838 16.3782 211.206 17.0623C211.575 17.7471 212.083 18.282 212.733 18.6696C213.38 19.0572 214.128 19.2505 214.974 19.2505C215.82 19.2505 216.616 19.0572 217.364 18.6696C218.111 18.2828 218.773 17.7471 219.35 17.0623C219.355 17.0557 219.361 17.0485 219.366 17.0413C220.497 15.6877 220.5 13.6985 219.38 12.3336C219.37 12.3207 219.36 12.3078 219.348 12.295C218.772 11.602 218.111 11.0614 217.363 10.6747C216.616 10.2879 215.819 10.0938 214.972 10.0938C214.126 10.0938 213.38 10.2871 212.731 10.6747C212.083 11.0622 211.574 11.602 211.205 12.295C210.836 12.9887 210.651 13.7846 210.651 14.6854H210.653ZM225.396 22.3556H220.889L220.885 16.7109V12.6284L220.889 6.98783H225.396" fill="#4AFC38"/>
<path d="M228.856 6.98756H233.368V11.8757L233.177 12.4695V16.1701L233.368 17.277V26.8108H228.856V6.98756ZM231.8 14.6851C232.107 13.0471 232.641 11.6195 233.407 10.4044C234.173 9.18948 235.135 8.24842 236.298 7.58213C237.459 6.91584 238.75 6.58301 240.173 6.58301C241.686 6.58301 243.013 6.92069 244.156 7.59578C245.3 8.27101 246.196 9.21602 246.843 10.4318C247.491 11.6469 247.815 13.0649 247.815 14.6859C247.815 16.307 247.492 17.6976 246.843 18.9126C246.196 20.1276 245.299 21.0735 244.156 21.7486C243.013 22.4238 241.686 22.7614 240.173 22.7614C238.66 22.7614 237.441 22.4278 236.298 21.7623C235.154 21.096 234.194 20.1549 233.421 18.94C232.646 17.725 232.107 16.3062 231.8 14.6851ZM243.252 14.6851C243.252 13.7851 243.068 12.9883 242.699 12.2947C242.33 11.6017 241.821 11.0611 241.173 10.6743C240.524 10.2876 239.778 10.0935 238.932 10.0935C238.086 10.0935 237.284 10.2869 236.527 10.6743C235.772 11.0619 235.109 11.6017 234.543 12.2947C234.533 12.3076 234.521 12.3205 234.511 12.3333C233.406 13.7029 233.407 15.6818 234.526 17.0409C234.531 17.0482 234.536 17.0547 234.543 17.062C235.109 17.7468 235.772 18.2818 236.527 18.6693C237.284 19.0568 238.086 19.2502 238.932 19.2502C239.778 19.2502 240.524 19.0568 241.173 18.6693C241.821 18.2825 242.33 17.7468 242.699 17.062C243.068 16.3778 243.252 15.5858 243.252 14.6851Z" fill="#4AFC38"/>
</svg>
