<svg width="247" height="35" viewBox="0 0 247 35" fill="none" xmlns="http://www.w3.org/2000/svg">
<mask id="mask0_4167_243" style="mask-type:luminance" maskUnits="userSpaceOnUse" x="0" y="0" width="247" height="35">
<path d="M246.15 0H0V34.5096H246.15V0Z" fill="white"/>
</mask>
<g mask="url(#mask0_4167_243)">
<path d="M0 26.846V0.0358887H3.25517V26.846H0Z" fill="white"/>
<path d="M57.6384 7.69917V34.5093H54.5754V7.69917H57.6384ZM74.7431 22.5757C73.8122 24.0951 72.587 25.2483 71.0675 26.041C69.548 26.8338 67.9445 27.2302 66.2628 27.2302C64.5812 27.2302 63.1098 26.8578 61.7044 26.1191C60.299 25.3804 59.1639 24.2633 58.2931 22.7678C57.4222 21.2724 56.9898 19.4406 56.9898 17.2725C56.9898 15.1044 57.4282 13.3086 58.3111 11.8132C59.1939 10.3177 60.3471 9.20063 61.7765 8.46191C63.2058 7.72319 64.7373 7.35083 66.3709 7.35083C68.0045 7.35083 69.6441 7.7352 71.1396 8.49795C72.635 9.26069 73.8422 10.3898 74.7611 11.8672C75.68 13.3507 76.1424 15.1104 76.1424 17.1524C76.1424 19.1944 75.674 21.0502 74.7431 22.5697V22.5757ZM72.0044 13.675C71.2897 12.702 70.3528 11.9753 69.1877 11.4949C68.0225 11.0084 66.7793 10.7682 65.452 10.7682C64.1247 10.7682 62.8755 11.0144 61.6984 11.5129C60.5212 12.0114 59.5723 12.7501 58.8456 13.7351C58.1189 14.72 57.7525 15.8972 57.7525 17.2785C57.7525 18.6598 58.0889 19.873 58.7675 20.84C59.4462 21.8129 60.335 22.5336 61.4461 23.0021C62.5572 23.4765 63.7644 23.7108 65.0677 23.7108C66.3709 23.7108 67.7102 23.4585 68.9354 22.942C70.1606 22.4315 71.1576 21.6808 71.9203 20.6838C72.6891 19.6868 73.0675 18.5157 73.0675 17.1584C73.0675 15.8011 72.7071 14.6419 71.9924 13.675H72.0044Z" fill="white"/>
<path d="M95.0425 25.7771C93.1686 26.7741 91.1927 27.2726 89.1267 27.2726C87.2108 27.2726 85.4091 26.8702 83.7274 26.0654C82.0398 25.2606 80.6885 24.1075 79.6675 22.6C78.6465 21.0926 78.136 19.3569 78.136 17.393C78.136 15.2489 78.6585 13.4171 79.7035 11.8976C80.7485 10.3781 82.1119 9.24302 83.7815 8.48628C85.4511 7.73555 87.2469 7.35718 89.1627 7.35718C91.0786 7.35718 92.7362 7.70552 94.3698 8.4082C96.0034 9.11089 97.3187 10.1439 98.3156 11.5132C99.3126 12.8766 99.8111 14.5101 99.8111 16.396C99.8111 16.9065 99.7751 17.429 99.697 17.9635H79.2831V16.8164H96.9403C96.7121 14.9005 95.8232 13.4351 94.2797 12.4141C92.7362 11.3931 90.9405 10.8826 88.8985 10.8826C87.5171 10.8826 86.2078 11.1289 84.9706 11.6273C83.7334 12.1258 82.7305 12.8645 81.9617 13.8495C81.193 14.8345 80.8146 16.0116 80.8146 17.393C80.8146 18.6181 81.205 19.7112 81.9797 20.6661C82.7605 21.6211 83.7815 22.3658 85.0427 22.8883C86.3039 23.4108 87.6553 23.6751 89.0847 23.6751C90.6161 23.6751 92.0876 23.3508 93.4869 22.6961C94.8923 22.0475 96.0634 21.0565 97.0124 19.7292L99.6549 21.3388C98.4538 23.3027 96.9163 24.7862 95.0425 25.7831V25.7771Z" fill="white"/>
<path d="M103.102 11.8314C103.967 10.3239 105.108 9.18881 106.514 8.42006C107.919 7.65131 109.427 7.27294 111.03 7.27294C112.634 7.27294 114.105 7.65732 115.511 8.42006C116.916 9.18881 118.051 10.3239 118.922 11.8314C119.787 13.3389 120.225 15.1526 120.225 17.2727C120.225 19.3927 119.781 21.1284 118.886 22.6359C117.991 24.1434 116.82 25.2845 115.36 26.0652C113.907 26.846 112.375 27.2304 110.766 27.2304C109.156 27.2304 107.745 26.858 106.382 26.1193C105.018 25.3806 103.913 24.2575 103.066 22.75C102.226 21.2425 101.805 19.4168 101.805 17.2727C101.805 15.1286 102.238 13.3389 103.108 11.8314H103.102ZM105.901 20.7561C106.592 21.729 107.493 22.4557 108.604 22.9362C109.715 23.4227 110.91 23.6629 112.183 23.6629C113.457 23.6629 114.616 23.4227 115.727 22.9362C116.838 22.4497 117.739 21.723 118.429 20.7561C119.12 19.7831 119.462 18.624 119.462 17.2727C119.462 15.9214 119.12 14.7202 118.429 13.7472C117.739 12.7743 116.838 12.0416 115.727 11.5431C114.616 11.0446 113.433 10.7984 112.183 10.7984C110.934 10.7984 109.715 11.0446 108.604 11.5431C107.493 12.0416 106.592 12.7743 105.901 13.7472C105.21 14.7202 104.868 15.8913 104.868 17.2727C104.868 18.654 105.21 19.7891 105.901 20.7561ZM119.456 26.846V0.0358887H122.712V26.846H119.456Z" fill="white"/>
<path d="M50.9296 12.6124C50.1548 11.195 49.0978 9.98783 47.8666 9.08095C46.6354 8.17406 45.2601 7.51942 43.8307 7.17108C43.4763 7.06898 43.116 7.00893 42.7556 6.94887C42.3953 6.8828 42.0349 6.84677 41.6746 6.82875C41.3142 6.79872 40.9539 6.79872 40.5995 6.81674L40.065 6.83476C39.8668 6.85277 39.6446 6.88881 39.4404 6.91884C39.02 6.9849 38.5936 7.04496 38.2452 7.1891C37.8909 7.32123 37.5005 7.43534 37.1822 7.5975L36.2333 8.08998C35.945 8.27016 35.6747 8.46835 35.3984 8.65453C34.3414 9.4473 33.4225 10.2941 32.6177 11.201C31.837 12.1379 31.1043 13.0688 30.4736 14.0778C30.1673 14.5823 29.8611 15.0868 29.5788 15.6033L29.1824 16.3961L28.9962 16.7985L28.9662 16.8705L28.9362 16.7985L28.744 16.4021L28.3476 15.6093C28.0653 15.0928 27.759 14.5883 27.4527 14.0838C26.8281 13.0748 26.0894 12.1499 25.3086 11.207C24.5038 10.2941 23.5849 9.45931 22.5279 8.66054C22.2516 8.47435 21.9814 8.27016 21.6931 8.08998L20.7442 7.5975C20.4319 7.42934 20.0415 7.32123 19.6871 7.1891C19.3388 7.04496 18.9124 6.9849 18.492 6.91884C18.2878 6.88881 18.0656 6.85277 17.8674 6.83476L17.3328 6.81674C16.9785 6.79872 16.6181 6.79872 16.2578 6.82875C15.8974 6.84677 15.5371 6.8768 15.1767 6.94887C14.8164 7.00893 14.456 7.06898 14.1017 7.17108C12.6723 7.51942 11.297 8.17406 10.0658 9.08095C8.83457 9.98783 7.77754 11.195 7.00278 12.6124C6.24004 14.0298 5.81963 15.6814 5.80762 17.321C5.81362 18.9606 6.24004 20.6122 6.99678 22.0356C7.77153 23.4529 8.82856 24.6601 10.0598 25.567C11.291 26.4739 12.6663 27.1285 14.0957 27.4769C14.45 27.579 14.8104 27.639 15.1707 27.6991C15.5311 27.7651 15.8914 27.8012 16.2518 27.8192C16.6121 27.8492 16.9725 27.8492 17.3268 27.8312L17.8614 27.8132C18.0596 27.7952 18.2818 27.7591 18.486 27.7291C18.9064 27.663 19.3328 27.603 19.6811 27.4589C20.0355 27.3267 20.4259 27.2126 20.7442 27.0505L21.6931 26.558C21.9814 26.3778 22.2516 26.1796 22.5279 25.9934C23.5849 25.2006 24.5038 24.3538 25.3086 23.4469C26.0894 22.51 26.8221 21.5791 27.4527 20.5701C27.759 20.0656 28.0653 19.5612 28.3476 19.0447L28.744 18.2519L28.9301 17.8495L28.9602 17.7774L28.9902 17.8495L29.1824 18.2459L29.5788 19.0386C29.8611 19.5552 30.1673 20.0596 30.4736 20.5641C31.0983 21.5731 31.837 22.498 32.6177 23.4409C33.4225 24.3538 34.3414 25.1886 35.3984 25.9874C35.6747 26.1736 35.945 26.3778 36.2333 26.558L37.1822 27.0505C37.4945 27.2186 37.8849 27.3267 38.2392 27.4589C38.5876 27.603 39.014 27.663 39.4344 27.7291C39.6386 27.7591 39.8608 27.7952 40.059 27.8132L40.5935 27.8312C40.9478 27.8492 41.3082 27.8492 41.6686 27.8192C42.0289 27.8012 42.3893 27.7712 42.7496 27.6991C43.11 27.639 43.4703 27.579 43.8247 27.4769C45.254 27.1285 46.6294 26.4739 47.8606 25.567C49.0918 24.6601 50.1488 23.4529 50.9236 22.0356C51.6863 20.6182 52.1067 18.9666 52.1187 17.327C52.1127 15.6874 51.6863 14.0358 50.9296 12.6124ZM28.5578 17.5312L28.2815 17.8495L27.723 18.4741C27.3446 18.8885 26.9542 19.2909 26.5638 19.6873C25.7711 20.48 24.9423 21.2308 24.0774 21.9335C23.2186 22.6482 22.2997 23.2788 21.3448 23.8253C20.3898 24.3718 19.3388 24.7622 18.2818 24.8463C16.1257 24.9664 13.8915 24.2577 12.2099 22.9004C10.5162 21.5551 9.40512 19.4771 9.42915 17.321C9.40512 15.1649 10.5162 13.0868 12.2099 11.7415C13.8915 10.3782 16.1257 9.67552 18.2818 9.79564C19.3388 9.87972 20.3898 10.2701 21.3448 10.8166C22.3057 11.3572 23.2246 11.9938 24.0834 12.7025C24.9483 13.4052 25.7831 14.1559 26.5698 14.9487C26.9662 15.345 27.3506 15.7474 27.729 16.1618L28.2875 16.7865L28.5638 17.1048L28.6959 17.2669L28.738 17.315L28.6959 17.363L28.5638 17.5252L28.5578 17.5312ZM45.7345 22.9064C44.0529 24.2697 41.8187 24.9724 39.6626 24.8523C38.6056 24.7682 37.5545 24.3778 36.5996 23.8313C35.6387 23.2908 34.7198 22.6542 33.8609 21.9455C32.9961 21.2428 32.1613 20.4921 31.3745 19.6993C30.9781 19.3029 30.5938 18.9005 30.2154 18.4861L29.6569 17.8615L29.3806 17.5432L29.2485 17.381L29.2064 17.333L29.2485 17.2849L29.3806 17.1228L29.6569 16.8045L30.2154 16.1799C30.5938 15.7655 30.9841 15.3631 31.3745 14.9667C32.1673 14.1739 32.9961 13.4232 33.8609 12.7205C34.7198 12.0058 35.6387 11.3752 36.5936 10.8286C37.5485 10.2821 38.5996 9.89174 39.6566 9.80765C41.8127 9.68754 44.0469 10.3962 45.7285 11.7535C47.4222 13.0989 48.5332 15.1769 48.5092 17.333C48.5332 19.4891 47.4222 21.5671 45.7285 22.9124L45.7345 22.9064Z" fill="white"/>
<path d="M127.534 26.846V0.0358887H133.852V10.2999H147.45V0.0358887H153.768V26.846H147.45V14.3959H133.852V26.846H127.534Z" fill="white"/>
<path d="M164.074 14.8224L154.999 0.0360351L162.927 0L172.002 14.8224H164.074ZM171.389 26.8462V14.324L180.506 0.0360351H188.434L177.521 17.0026V26.8462H171.395H171.389Z" fill="white"/>
<path d="M190.422 0.0358887H203.598C206.511 0.0358887 208.992 0.492334 211.046 1.41724C213.1 2.33613 214.643 3.54931 215.682 5.05678C216.715 6.56425 217.232 8.16181 217.232 9.84344C217.232 11.5251 216.715 13.1226 215.682 14.6301C214.649 16.1376 213.106 17.3508 211.046 18.2697C208.992 19.1885 206.505 19.645 203.598 19.645H196.74V26.846H190.422V0.0358887ZM207.604 12.7323C208.715 12.4139 209.544 11.9995 210.091 11.489C210.637 10.9785 210.914 10.432 210.914 9.84344C210.914 9.25487 210.637 8.70834 210.091 8.19784C209.544 7.68734 208.709 7.27294 207.604 6.95463C206.493 6.63632 205.16 6.47416 203.604 6.47416H196.746V13.2127H203.604C205.16 13.2127 206.493 13.0506 207.604 12.7323Z" fill="white"/>
<path d="M246.15 26.846H219.226V0.0358887H246.15V6.43212H225.544V10.2639H244.006V14.3598H225.544V20.4498H246.15V26.846Z" fill="white"/>
</g>
</svg>
