<svg width="124" height="68" viewBox="0 0 124 68" fill="none" xmlns="http://www.w3.org/2000/svg">
<mask id="mask0_4167_203" style="mask-type:luminance" maskUnits="userSpaceOnUse" x="0" y="0" width="124" height="68">
<path d="M124 0.696777H0.619141V67.3034H124V0.696777Z" fill="white"/>
</mask>
<g mask="url(#mask0_4167_203)">
<path d="M113.403 29.2809L98.7608 28.2277C98.6084 28.2169 98.4488 28.1092 98.3741 27.9661L95.0904 21.6819C94.9079 21.3319 94.3888 21.3319 94.4528 21.6819L95.6058 27.9869C95.6303 28.1192 95.5598 28.2235 95.4312 28.2457L89.2958 29.2845C88.9551 29.3419 89.1334 29.8452 89.5144 29.9026L96.3815 30.9414C96.5259 30.963 96.6698 31.0672 96.7394 31.1995L100.034 37.5044C100.216 37.8545 100.735 37.8545 100.672 37.5044L99.5228 31.2204C99.497 31.078 99.5804 30.9694 99.7248 30.9586L113.624 29.9056C114.012 29.8761 113.811 29.3104 113.403 29.2809Z" fill="#002823"/>
<path d="M47.9312 24.5675C48.4208 25.957 49.9799 27.0834 51.4126 27.0834C52.8452 27.0834 53.6086 25.957 53.1191 24.5675L53.1148 24.5559C52.6252 23.1665 51.0661 22.04 49.6334 22.04C48.2008 22.04 47.4374 23.1665 47.9269 24.5559L47.9312 24.5675Z" fill="#002823"/>
<path d="M119.172 28.3649C118.671 26.9438 117.651 25.7369 116.388 24.9109C117.997 21.6402 118.457 18.5097 117.536 15.6925C113.531 3.44769 85.2228 1.71815 54.3083 11.8294C50.5667 13.0529 46.9624 14.3964 43.5177 15.8298H40.9586C39.6869 15.8298 38.521 16.2144 37.5793 16.903C36.4601 16.2337 35.1906 15.8298 33.8952 15.8298H18.3179C16.4339 15.8298 14.7668 16.6579 13.7446 18.1027C12.7095 19.5656 12.4845 21.449 13.1271 23.2698L16.1577 31.8649C7.81057 39.0045 3.63554 46.3519 5.58359 52.3089C9.58828 64.5537 37.8964 66.2833 68.8116 56.172C79.5195 52.6698 89.1326 48.2058 96.9615 43.3586H108.92C110.804 43.3586 112.471 42.5305 113.493 41.0864C114.528 39.6242 114.754 37.7408 114.112 35.92L113.95 35.4606L114.685 35.4046C116.36 35.2773 117.819 34.4392 118.689 33.105C119.578 31.7428 119.753 30.0146 119.172 28.3649ZM64.5093 14.5444C86.2515 7.43367 106 8.16114 108.619 16.1691C109.035 17.4385 108.985 18.8166 108.536 20.2622C107.357 17.6679 104.636 15.829 101.817 15.829H86.2393C85.0518 15.829 83.9519 16.159 83.0441 16.7643C82.0656 16.1812 80.9565 15.829 79.8237 15.829H73.3324C72.1615 15.829 71.0803 16.1842 70.2119 16.8318C69.202 16.1979 68.0324 15.829 66.8471 15.829H62.9502C61.836 15.829 60.8059 16.1554 59.9605 16.7448C59.7304 16.6191 59.4925 16.5148 59.251 16.4134C60.9583 15.76 62.7108 15.1332 64.5093 14.5444ZM40.9586 19.5239H56.5352C57.9679 19.5239 59.5264 20.6504 60.0166 22.0398L61.7958 27.0833C62.2852 28.4728 61.5219 29.5993 60.0885 29.5993H52.2998C50.8671 29.5993 50.103 30.7257 50.5926 32.1151L51.4803 34.6318C51.9705 36.0213 53.529 37.1478 54.9617 37.1478C56.3944 37.1478 57.1585 36.0213 56.6683 34.6318C56.1787 33.2424 56.9422 32.1159 58.3747 32.1159H60.9756C62.4082 32.1159 63.9666 33.2424 64.4562 34.6318L65.3439 37.1485C65.8335 38.538 65.07 39.6644 63.6367 39.6644H48.06C46.6275 39.6644 45.069 38.538 44.5788 37.1485L39.2506 22.0413C38.7611 20.6517 39.5245 19.5254 40.9579 19.5254L40.9586 19.5239ZM28.0201 39.663H25.4194C23.9867 39.663 22.4282 38.5367 21.9388 37.1471L16.6107 22.0391C16.1211 20.6496 16.8845 19.5231 18.3179 19.5231H33.8952C35.3279 19.5231 36.8864 20.6496 37.3759 22.0391L42.7039 37.1471C43.1941 38.5367 42.43 39.663 40.9975 39.663H38.3966C36.964 39.663 35.4056 38.5367 34.916 37.1471L30.4758 24.5558C29.9862 23.1663 28.4271 22.0398 26.995 22.0398C25.5631 22.0398 24.7983 23.1663 25.2878 24.5558L29.7282 37.1471C30.2176 38.5367 29.4535 39.663 28.0201 39.663ZM73.9945 43.5455C53.174 50.3551 34.1921 49.972 30.3198 42.895C31.2291 42.5104 32.0162 41.9008 32.5926 41.0856C32.6739 40.9706 32.7501 40.8534 32.8212 40.7342C34.2216 42.335 36.2868 43.3579 38.3959 43.3579H40.9967C42.2677 43.3579 43.4343 42.9733 44.376 42.2846C45.4953 42.9539 46.7647 43.3579 48.06 43.3579H63.6367C64.8242 43.3579 65.9241 43.028 66.8319 42.4226C67.8104 43.0057 68.9195 43.3579 70.0523 43.3579H73.9492C74.2058 43.3579 74.456 43.3342 74.7033 43.3004C74.3842 43.4125 74.1304 43.501 73.9945 43.5455ZM86.9265 39.663H80.4354C79.3606 39.663 78.1918 38.8184 77.8237 37.776L77.1589 35.8891C76.9137 35.1947 76.1345 34.6311 75.4178 34.6311C74.7011 34.6311 74.3194 35.1939 74.5645 35.8891L75.2302 37.776C75.5975 38.8184 75.0247 39.663 73.9499 39.663H70.0531C68.9792 39.663 67.8096 38.8184 67.4423 37.776L61.6714 21.4116C61.3041 20.3693 61.8769 19.5246 62.9517 19.5246H66.8484C67.9232 19.5246 69.092 20.3693 69.4601 21.4116L72.7912 30.8572C73.0363 31.5523 73.8155 32.1151 74.5315 32.1151C75.2474 32.1151 75.6298 31.5523 75.3847 30.8572L72.0536 21.4116C71.6863 20.3693 72.2593 19.5246 73.3339 19.5246H79.825C80.8998 19.5246 82.0686 20.3693 82.4366 21.4116C82.5804 21.8199 82.584 22.2167 82.4466 22.5438L79.692 29.0968C79.1688 30.3411 80.7107 32.1159 82.3137 32.1159H84.2654C85.3394 32.1159 86.5088 32.9605 86.8769 34.0029L88.2074 37.7768C88.5748 38.8191 88.0011 39.663 86.9265 39.663ZM114.406 31.7197L108.861 32.1396L110.626 37.1463C111.116 38.5359 110.352 39.6623 108.92 39.6623H93.3429C91.9102 39.6623 90.3511 38.5359 89.8615 37.1463L84.5334 22.0391C84.0432 20.6496 84.8073 19.5231 86.24 19.5231H101.817C103.25 19.5231 104.808 20.6496 105.299 22.0391L107.064 27.0458L112.906 27.4657C114.094 27.5512 115.29 28.4656 115.687 29.5921C116.085 30.7192 115.534 31.6336 114.406 31.7197Z" fill="#002823"/>
<path d="M31.5926 64.4279C16.2799 64.4279 6.49638 60.3018 4.04584 52.8086C2.13875 46.9766 5.26788 39.7953 12.8574 32.5874C13.6798 31.8068 13.9658 30.6156 13.5892 29.5467L11.5872 23.8701C10.7555 21.5144 11.0603 19.0595 12.4225 17.1344C13.7718 15.2282 15.9506 14.1348 18.4012 14.1348H33.9462C34.8303 14.1348 35.7253 14.2829 36.6066 14.5746C36.9006 14.6717 37.2054 14.7206 37.5109 14.7206C37.8336 14.7206 38.1557 14.666 38.4648 14.5574C39.2634 14.2764 40.1145 14.1348 40.9959 14.1348H42.6362C43.0094 14.1348 43.3788 14.0622 43.7246 13.9213C47.0039 12.5806 50.3875 11.3377 53.7798 10.2286C66.9001 5.93705 80.3021 3.57422 91.5168 3.57422C106.83 3.57422 116.612 7.70038 119.063 15.1929C119.843 17.5787 119.807 20.1709 118.956 22.8967C118.676 23.7939 118.852 24.7701 119.427 25.5133C119.975 26.2228 120.399 26.9928 120.683 27.8014C121.445 29.9608 121.202 32.2403 120.018 34.0561C119.396 35.0085 118.573 35.7647 117.571 36.3046C116.716 36.7646 116.152 37.6252 116.07 38.5927C115.962 39.8608 115.533 41.0325 114.796 42.0741C113.447 43.9804 111.268 45.0738 108.818 45.0738H98.1799C97.6573 45.0738 97.1447 45.2161 96.6968 45.4857C88.75 50.2688 79.2872 54.5186 69.3312 57.775C56.2101 62.0665 42.8081 64.4301 31.5941 64.4301L31.5926 64.4279Z" fill="#002823"/>
<path d="M91.5204 5.30529C105.255 5.30529 115.172 8.85852 117.419 15.7299C118.338 18.5414 117.88 21.6655 116.274 24.9291C117.535 25.7535 118.552 26.9576 119.051 28.3758C119.632 30.0221 119.456 31.7465 118.569 33.1058C117.7 34.4378 116.244 35.2739 114.573 35.4011L113.839 35.4565L114.001 35.9144C114.641 37.7317 114.416 39.6106 113.383 41.07C112.363 42.5112 110.7 43.3371 108.82 43.3371H96.8866C89.0735 48.1742 79.4804 52.6289 68.7942 56.124C55.2915 60.5406 42.2861 62.6927 31.5955 62.6927C17.8605 62.6927 7.94404 59.1395 5.69694 52.268C3.7532 46.3239 7.9196 38.9917 16.2496 31.8665L13.2254 23.2893C12.5842 21.472 12.8085 19.5923 13.8414 18.1331C14.8615 16.6918 16.5249 15.8651 18.4054 15.8651H33.9504C35.2435 15.8651 36.5101 16.2683 37.6272 16.9361C38.5668 16.249 39.7305 15.8651 40.9994 15.8651H43.5534C46.9916 14.4347 50.588 13.094 54.3217 11.8726C67.8244 7.45607 80.8298 5.30385 91.5204 5.30385M59.9624 16.7801C60.8063 16.1921 61.8336 15.8666 62.9464 15.8666H66.8353C68.0185 15.8666 69.186 16.2346 70.1931 16.8671C71.0592 16.2209 72.1389 15.8666 73.3071 15.8666H79.7846C80.9153 15.8666 82.0223 16.2173 82.9985 16.7996C83.9042 16.1965 85.002 15.8666 86.1865 15.8666H101.732C104.545 15.8666 107.26 17.701 108.437 20.2903C108.884 18.8476 108.934 17.4725 108.52 16.2059C107.111 11.9 100.739 9.70316 91.7676 9.70316C84.089 9.70316 74.5068 11.3119 64.5005 14.5848C62.7049 15.1721 60.9573 15.7976 59.2536 16.4495C59.4945 16.5509 59.733 16.6543 59.9624 16.7801ZM93.2751 39.6517H108.82C110.25 39.6517 111.013 38.5273 110.523 37.1407L108.761 32.144L114.295 31.7249C115.421 31.6394 115.97 30.7272 115.574 29.603C115.177 28.4787 113.984 27.5664 112.797 27.4809L106.968 27.0618L105.206 22.0651C104.717 20.6785 103.162 19.5542 101.732 19.5542H86.1873C84.7576 19.5542 83.9948 20.6785 84.4843 22.0651L89.8009 37.1414C90.2898 38.5281 91.8453 39.6517 93.2751 39.6517ZM74.5025 32.1188C73.788 32.1188 73.0101 31.5567 72.7658 30.8637L69.4419 21.4375C69.0753 20.3974 67.9086 19.5542 66.836 19.5542H62.9471C61.8752 19.5542 61.3031 20.3974 61.6697 21.4375L67.429 37.7683C67.7956 38.8084 68.9623 39.6517 70.0348 39.6517H73.9239C74.9964 39.6517 75.5685 38.8084 75.2019 37.7683L74.5377 35.8849C74.2933 35.1919 74.6742 34.6298 75.3896 34.6298C76.1048 34.6298 76.8827 35.1919 77.127 35.8849L77.7912 37.7683C78.1578 38.8084 79.3245 39.6517 80.3971 39.6517H86.8746C87.9471 39.6517 88.5192 38.8084 88.1526 37.7683L86.8249 34.0022C86.4576 32.9621 85.2909 32.1188 84.2191 32.1188H82.271C80.6708 32.1188 79.1326 30.3476 79.6544 29.1062L82.4033 22.5669C82.5399 22.2406 82.5364 21.8444 82.3933 21.4369C82.0267 20.3967 80.86 19.5535 79.7875 19.5535H73.3099C72.2374 19.5535 71.6652 20.3967 72.0318 21.4369L75.3558 30.863C75.6009 31.5567 75.2192 32.1182 74.504 32.1182M48.0865 39.6517H63.6314C65.0612 39.6517 65.824 38.5273 65.3351 37.1407L64.4495 34.6298C63.9607 33.2432 62.405 32.1188 60.9761 32.1188H58.3803C56.9505 32.1188 56.1885 33.2432 56.6774 34.6298C57.1668 36.0172 56.4035 37.1407 54.9744 37.1407C53.5453 37.1407 51.9898 36.0164 51.5002 34.6298L50.6146 32.1188C50.1258 30.7322 50.8885 29.6087 52.3183 29.6087H60.0905C61.5202 29.6087 62.2829 28.4844 61.7941 27.0984L60.0192 22.0651C59.5298 20.6785 57.9749 19.5542 56.5451 19.5542H41.0001C39.5703 19.5542 38.8076 20.6785 39.2964 22.0651L44.6129 37.1414C45.1025 38.5281 46.6567 39.6517 48.0865 39.6517ZM25.4918 39.6517H28.0868C29.5166 39.6517 30.2792 38.5273 29.7904 37.1414L25.3587 24.576C24.8699 23.1894 25.6326 22.0658 27.0624 22.0658C28.4921 22.0658 30.047 23.1901 30.5359 24.576L34.9675 37.1414C35.4564 38.5281 37.0119 39.6517 38.441 39.6517H41.0367C42.4665 39.6517 43.2293 38.5273 42.7397 37.1414L37.4232 22.0651C36.9343 20.6785 35.3787 19.555 33.9496 19.555H18.4047C16.9749 19.555 16.2122 20.6792 16.701 22.0651L22.0183 37.1414C22.5071 38.5281 24.0627 39.6517 25.4918 39.6517ZM46.7134 48.405C54.3885 48.405 63.9635 46.7976 73.967 43.5255C74.1021 43.4809 74.3565 43.3925 74.675 43.281C74.4285 43.3141 74.1783 43.3386 73.9224 43.3386H70.0335C68.9026 43.3386 67.7956 42.987 66.8195 42.4056C65.9137 43.0086 64.8161 43.3386 63.6307 43.3386H48.0857C46.7926 43.3386 45.5259 42.9354 44.4089 42.2676C43.4686 42.9547 42.3048 43.3386 41.0367 43.3386H38.441C36.3363 43.3386 34.2753 42.3178 32.8779 40.7206C32.8067 40.8399 32.7305 40.957 32.65 41.0713C32.0749 41.8843 31.2899 42.4932 30.382 42.8763C32.3862 46.5389 38.4474 48.405 46.7134 48.405ZM94.61 21.4462C94.7545 21.4462 94.9292 21.5332 95.0204 21.7078L98.297 27.9791C98.371 28.1214 98.5306 28.2292 98.683 28.2399L113.295 29.291C113.703 29.3204 113.902 29.8854 113.515 29.9142L99.6448 30.9651C99.5003 30.9759 99.4169 31.0838 99.4435 31.2261L100.59 37.4972C100.622 37.672 100.509 37.759 100.364 37.759C100.22 37.759 100.045 37.672 99.9538 37.4972L96.6665 31.2053C96.5975 31.073 96.4538 30.9695 96.3094 30.9471L89.4566 29.9106C89.0763 29.853 88.8988 29.3505 89.2388 29.2931L95.3612 28.2565C95.4899 28.235 95.5603 28.1307 95.5358 27.9984L94.3857 21.7064C94.3541 21.5317 94.4669 21.4447 94.6115 21.4447M49.6571 22.0644C51.0868 22.0644 52.6425 23.1886 53.1313 24.5754L53.1355 24.5868C53.6244 25.9735 52.8618 27.0978 51.4327 27.0978C50.0036 27.0978 48.4474 25.9735 47.9585 24.5868L47.9542 24.5754C47.4653 23.1886 48.2281 22.0644 49.6571 22.0644ZM91.5204 0.696777C80.011 0.696777 66.2911 3.11065 52.8891 7.49417C49.4285 8.62635 45.9853 9.89079 42.6398 11.258H40.9994C39.7888 11.258 38.6149 11.4571 37.5151 11.8439C36.3484 11.4571 35.1457 11.258 33.9504 11.258H18.4054C15.0095 11.258 11.9746 12.7942 10.0797 15.4727C8.1712 18.1697 7.73414 21.5785 8.87927 24.8254L10.8812 30.503C2.41757 38.5403 -0.973209 46.7021 1.31631 53.7029C4.18522 62.4735 14.9384 67.3034 31.5955 67.3034C43.1048 67.3034 56.8247 64.8896 70.2268 60.5061C80.41 57.1756 90.0439 52.8454 98.182 47.9471H108.82C112.216 47.9471 115.25 46.4109 117.145 43.7332C118.184 42.2646 118.788 40.5847 118.936 38.8343C120.338 38.0795 121.538 36.989 122.429 35.6246C124.106 33.0533 124.459 29.853 123.398 26.8433C123.008 25.7391 122.433 24.6946 121.703 23.7523C122.738 20.4398 122.771 17.2712 121.799 14.2973C118.931 5.52669 108.177 0.696777 91.5204 0.696777ZM90.1115 24.1627H90.1474L90.1863 24.3754L90.1115 24.1627Z" fill="#EBFEF9"/>
<g style="mix-blend-mode:darken">
<path d="M123.398 26.844C123.008 25.7398 122.433 24.6954 121.703 23.7529C122.738 20.4406 122.771 17.2718 121.799 14.298C118.931 5.52669 108.177 0.696777 91.5204 0.696777C80.0102 0.696777 66.2911 3.11065 52.8891 7.49417C49.4285 8.62635 45.9853 9.89079 42.6398 11.258H40.9994C39.7888 11.258 38.6149 11.4571 37.5151 11.8439C36.3484 11.4571 35.1457 11.258 33.9504 11.258H18.4054C15.0095 11.258 11.9746 12.7942 10.0797 15.4727C8.1712 18.1697 7.73414 21.5785 8.87927 24.8254L10.8812 30.503C2.41757 38.5403 -0.973209 46.7021 1.31631 53.7029C4.18522 62.4735 14.9384 67.3034 31.5955 67.3034C43.1048 67.3034 56.8247 64.8896 70.2268 60.5061C80.41 57.1756 90.0439 52.8454 98.182 47.9471H108.82C112.216 47.9471 115.25 46.4109 117.145 43.7332C118.184 42.2646 118.788 40.584 118.936 38.8343C120.338 38.0795 121.538 36.989 122.429 35.6246C124.106 33.0527 124.459 29.853 123.398 26.844Z" fill="url(#paint0_linear_4167_203)"/>
</g>
</g>
<defs>
<linearGradient id="paint0_linear_4167_203" x1="0.619142" y1="34.0002" x2="124" y2="34.0002" gradientUnits="userSpaceOnUse">
<stop stop-color="#85CBFF"/>
<stop offset="0.092" stop-color="#7797F3"/>
<stop offset="0.188" stop-color="#DA67ED"/>
<stop offset="0.257" stop-color="#94E0FE"/>
<stop offset="0.343" stop-color="#94FEE3"/>
<stop offset="0.466" stop-color="#F09DD2"/>
<stop offset="0.664" stop-color="#B27FFF"/>
<stop offset="0.796" stop-color="#7A74F3"/>
<stop offset="1" stop-color="#94FEE3"/>
</linearGradient>
</defs>
</svg>
