<svg width="136" height="48" viewBox="0 0 136 48" fill="none" xmlns="http://www.w3.org/2000/svg">
<mask id="mask0_4167_181" style="mask-type:luminance" maskUnits="userSpaceOnUse" x="0" y="0" width="48" height="48">
<path d="M47.6 0H0V47.6H47.6V0Z" fill="white"/>
</mask>
<g mask="url(#mask0_4167_181)">
<path d="M47.6 23.8C47.6 36.9 36.9 47.6 23.8 47.6C10.7 47.6 0 36.9 0 23.8C0 10.7 10.7 0 23.8 0C36.9 0 47.6 10.7 47.6 23.8Z" fill="url(#paint0_linear_4167_181)"/>
<path fill-rule="evenodd" clip-rule="evenodd" d="M23.7999 10.8999C16.6999 10.8999 10.8999 16.6999 10.8999 23.7999C10.8999 24.4999 10.9999 25.1999 11.0999 25.7999C11.1999 26.2999 11.3999 27.1999 11.8999 27.4999C12.4999 27.8999 13.1999 27.5999 13.7999 27.2999C14.2999 27.0999 15.5999 26.4999 16.1999 26.1999C16.2999 26.0999 16.6999 25.9999 17.0999 26.1999C17.5999 26.3999 17.6999 26.8999 17.6999 27.1999C17.6999 27.4999 17.4999 27.8999 17.0999 27.9999C16.7999 28.0999 14.9999 28.9999 14.0999 29.3999C13.8999 29.4999 13.4999 29.6999 13.2999 30.2999C13.0999 30.8999 13.3999 31.3999 13.4999 31.5999C13.5999 31.6999 13.7999 31.9999 14.0999 32.0999C14.4999 32.1999 14.7999 32.1999 15.0999 32.0999C15.2999 31.9999 19.5999 29.9999 21.6999 28.9999C21.7999 28.8999 22.1999 28.7999 22.5999 28.9999C23.0999 29.1999 23.1999 29.6999 23.1999 29.9999C23.1999 30.2999 22.9999 30.6999 22.5999 30.8999C22.2999 30.9999 19.4999 32.3999 18.0999 32.9999C17.8999 33.0999 17.3999 33.4999 17.2999 34.1999C17.2999 34.9999 17.7999 35.3999 18.0999 35.4999C18.2999 35.5999 18.7999 35.6999 19.2999 35.4999C19.7999 35.2999 24.8999 32.8999 27.3999 31.6999C27.4999 31.5999 27.8999 31.4999 28.2999 31.6999C28.6999 31.8999 28.8999 32.2999 28.8999 32.5999C28.8999 32.8999 28.8999 33.0999 28.3999 33.4999C27.9999 33.8999 27.3999 34.1999 25.2999 35.0999C24.5999 35.3999 24.0999 35.5999 24.1999 35.9999C24.2999 36.2999 24.4999 36.3999 25.0999 36.3999C25.7999 36.3999 28.8999 36.0999 31.8999 33.5999C34.5999 31.1999 36.2999 27.7999 36.2999 23.8999C36.2999 22.4999 36.0999 21.0999 35.5999 19.7999C35.7999 19.7999 35.6999 19.7999 35.4999 19.7999C34.7999 19.7999 34.2999 19.1999 34.2999 18.5999C34.2999 18.0999 34.5999 17.6999 34.9999 17.4999C32.7999 13.5999 28.5999 10.8999 23.7999 10.8999ZM28.5999 18.9999C28.5999 19.6999 27.9999 20.1999 27.3999 20.1999C26.6999 20.1999 26.1999 19.5999 26.1999 18.9999C26.1999 18.2999 26.7999 17.7999 27.3999 17.7999C27.9999 17.7999 28.5999 18.3999 28.5999 18.9999Z" fill="white"/>
</g>
<path d="M66.2999 37.2001C64.1999 37.2001 62.3999 36.8001 60.7999 36.0001C59.2999 35.2001 58.0999 34.0001 57.1999 32.5001C56.3999 31.0001 55.8999 29.2001 55.8999 27.2001C55.8999 25.1001 56.2999 23.3001 57.1999 21.8001C58.0999 20.3001 59.2999 19.1001 60.7999 18.3001C62.3999 17.5001 64.1999 17.1001 66.1999 17.1001C68.2999 17.1001 70.0999 17.5001 71.5999 18.3001C73.0999 19.1001 74.2999 20.3001 75.1999 21.8001C75.9999 23.3001 76.4999 25.1001 76.4999 27.2001C76.4999 29.2001 76.0999 31.0001 75.1999 32.6001C74.3999 34.1001 73.1999 35.3001 71.5999 36.1001C70.1999 36.7001 68.3999 37.2001 66.2999 37.2001ZM66.2999 33.0001C67.9999 33.0001 69.3999 32.5001 70.2999 31.4001C71.1999 30.3001 71.6999 28.9001 71.6999 27.1001C71.6999 25.2001 71.1999 23.8001 70.2999 22.8001C69.3999 21.8001 67.9999 21.2001 66.2999 21.2001C64.5999 21.2001 63.1999 21.7001 62.1999 22.8001C61.2999 23.8001 60.7999 25.3001 60.7999 27.1001C60.7999 29.0001 61.2999 30.4001 62.1999 31.5001C63.1999 32.4001 64.5999 33.0001 66.2999 33.0001Z" fill="white"/>
<path d="M79.7 36.8001V9.6001H84.5V24.8001H84.6L92.7999 17.3001H98.6L90.2 24.9001L99.2999 36.7001H93.6L86.7999 27.9001L84.5 29.8001V36.8001H79.7Z" fill="white"/>
<path d="M107.2 36.8001C105.9 36.8001 104.9 36.5001 104.2 35.8001C103.5 35.2001 103.2 34.2001 103.2 32.9001V21.1001H99.8V17.4001H103.3V11.6001H108V17.4001H112.7V21.1001H108.1V33.0001H113.2V36.8001H107.2Z" fill="white"/>
<path d="M125 37.2001C122.9 37.2001 121.1 36.8001 119.5 36.0001C118 35.2001 116.8 34.0001 115.9 32.5001C115.1 31.0001 114.6 29.2001 114.6 27.2001C114.6 25.1001 115 23.3001 115.9 21.8001C116.8 20.3001 118 19.1001 119.5 18.3001C121.1 17.5001 122.9 17.1001 124.9 17.1001C127 17.1001 128.8 17.5001 130.3 18.3001C131.8 19.1001 133 20.3001 133.9 21.8001C134.7 23.3001 135.2 25.1001 135.2 27.2001C135.2 29.2001 134.8 31.0001 133.9 32.6001C133.1 34.1001 131.9 35.3001 130.3 36.1001C128.7 36.9001 127.1 37.2001 125 37.2001ZM125 33.0001C126.7 33.0001 128.1 32.5001 129 31.4001C129.9 30.3001 130.4 28.9001 130.4 27.1001C130.4 25.2001 129.9 23.8001 129 22.8001C128.1 21.8001 126.7 21.2001 125 21.2001C123.3 21.2001 121.9 21.7001 120.9 22.8001C120 23.8001 119.5 25.3001 119.5 27.1001C119.5 29.0001 120 30.4001 120.9 31.5001C121.9 32.4001 123.2 33.0001 125 33.0001Z" fill="white"/>
<defs>
<linearGradient id="paint0_linear_4167_181" x1="23.8024" y1="-0.0054" x2="23.8024" y2="47.6054" gradientUnits="userSpaceOnUse">
<stop stop-color="#6246F5"/>
<stop offset="0.493" stop-color="#5166EE"/>
<stop offset="1" stop-color="#56B9F9"/>
</linearGradient>
</defs>
</svg>
