<svg width="249" height="29" viewBox="0 0 249 29" fill="none" xmlns="http://www.w3.org/2000/svg">
<g filter="url(#filter0_ii_4167_222)">
<path d="M4.67967 28.4373V0H21.3509L25.4452 3.98123V12.1469L21.3509 16.1281H17.7158L21.518 12.4313V5.56539L19.7216 3.81892H8.60611V12.3092H15.0406L16.837 10.5627V5.56539L15.7945 4.54997H19.3873L20.7662 5.84977V12.1469L16.6719 16.1281H8.6068V24.6184L4.67967 28.4373ZM0 3.81892L3.92782 0V28.4373H0V3.81892Z" fill="white" fill-opacity="0.2"/>
<path d="M4.67967 28.4373V0H21.3509L25.4452 3.98123V12.1469L21.3509 16.1281H17.7158L21.518 12.4313V5.56539L19.7216 3.81892H8.60611V12.3092H15.0406L16.837 10.5627V5.56539L15.7945 4.54997H19.3873L20.7662 5.84977V12.1469L16.6719 16.1281H8.6068V24.6184L4.67967 28.4373ZM0 3.81892L3.92782 0V28.4373H0V3.81892Z" fill="url(#paint0_linear_4167_222)" fill-opacity="0.8"/>
<path d="M32.5849 22.5876V3.98123L36.6792 0H49.2562L53.3504 3.98123V24.4561L49.2562 28.4373H45.621L49.4226 24.7405V5.56539L47.6262 3.81892H38.3092L36.5128 5.56539V22.8719L37.5566 23.8874H33.9222L32.5849 22.5876ZM31.9996 0H35.6347L31.8324 3.69685V22.8719L33.6288 24.6184H42.9472L44.7436 22.8719V5.56539L43.6998 4.54997H47.2926L48.6715 5.84977V24.4561L44.5772 28.4373H31.9996L27.9053 24.4561V3.98123L31.9996 0Z" fill="white" fill-opacity="0.2"/>
<path d="M32.5849 22.5876V3.98123L36.6792 0H49.2562L53.3504 3.98123V24.4561L49.2562 28.4373H45.621L49.4226 24.7405V5.56539L47.6262 3.81892H38.3092L36.5128 5.56539V22.8719L37.5566 23.8874H33.9222L32.5849 22.5876ZM31.9996 0H35.6347L31.8324 3.69685V22.8719L33.6288 24.6184H42.9472L44.7436 22.8719V5.56539L43.6998 4.54997H47.2926L48.6715 5.84977V24.4561L44.5772 28.4373H31.9996L27.9053 24.4561V3.98123L31.9996 0Z" fill="url(#paint1_linear_4167_222)" fill-opacity="0.8"/>
<path d="M56.957 24.4561V3.98123L61.0513 0H64.6857L60.8842 3.69685V22.8719L62.6806 24.6184H78.4744L82.4022 28.4373H61.0513L56.957 24.4561ZM61.636 22.5876V3.98123L65.7317 0H82.4029L78.4751 3.81892H67.3602L65.5638 5.56539V22.8719L66.6084 23.8874H62.9733L61.636 22.5876Z" fill="white" fill-opacity="0.2"/>
<path d="M56.957 24.4561V3.98123L61.0513 0H64.6857L60.8842 3.69685V22.8719L62.6806 24.6184H78.4744L82.4022 28.4373H61.0513L56.957 24.4561ZM61.636 22.5876V3.98123L65.7317 0H82.4029L78.4751 3.81892H67.3602L65.5638 5.56539V22.8719L66.6084 23.8874H62.9733L61.636 22.5876Z" fill="url(#paint2_linear_4167_222)" fill-opacity="0.8"/>
<path d="M92.9054 0V12.3092H105.649L109.744 16.2904V24.6184L105.817 28.4373V17.8746L104.02 16.1281H92.9054V24.6184L88.9783 28.4373V0H92.9054ZM84.2986 28.4373V3.81892L88.2264 0V28.4373H84.2986ZM104.814 0H108.741V12.1469L107.613 13.2435L105.941 11.5782H104.814V0ZM100.092 16.8592H103.685L105.064 18.159V28.4373H101.137V17.8746L100.092 16.8592ZM100.134 10.5627V3.81892L104.062 0V11.5782H99.0895L100.134 10.5627Z" fill="white" fill-opacity="0.2"/>
<path d="M92.9054 0V12.3092H105.649L109.744 16.2904V24.6184L105.817 28.4373V17.8746L104.02 16.1281H92.9054V24.6184L88.9783 28.4373V0H92.9054ZM84.2986 28.4373V3.81892L88.2264 0V28.4373H84.2986ZM104.814 0H108.741V12.1469L107.613 13.2435L105.941 11.5782H104.814V0ZM100.092 16.8592H103.685L105.064 18.159V28.4373H101.137V17.8746L100.092 16.8592ZM100.134 10.5627V3.81892L104.062 0V11.5782H99.0895L100.134 10.5627Z" fill="url(#paint3_linear_4167_222)" fill-opacity="0.8"/>
<path d="M113.061 16.2904L117.156 12.3092H131.612V16.1281H118.785L116.988 17.8746V22.8719L118.785 24.6184H134.579L138.506 28.4373H117.156L113.061 24.4561V16.2904ZM121.835 0H138.506L134.579 3.81892H123.464L121.668 5.56539V11.5782H117.74V3.98123L121.835 0ZM113.061 15.275V3.98123L117.156 0H120.791L116.988 3.69685V11.5782H116.863L113.061 15.275ZM117.74 22.5876V18.1583L119.077 16.8585H122.713L121.668 17.8739V22.8712L122.713 23.8867H119.077L117.74 22.5876Z" fill="white" fill-opacity="0.2"/>
<path d="M113.061 16.2904L117.156 12.3092H131.612V16.1281H118.785L116.988 17.8746V22.8719L118.785 24.6184H134.579L138.506 28.4373H117.156L113.061 24.4561V16.2904ZM121.835 0H138.506L134.579 3.81892H123.464L121.668 5.56539V11.5782H117.74V3.98123L121.835 0ZM113.061 15.275V3.98123L117.156 0H120.791L116.988 3.69685V11.5782H116.863L113.061 15.275ZM117.74 22.5876V18.1583L119.077 16.8585H122.713L121.668 17.8739V22.8712L122.713 23.8867H119.077L117.74 22.5876Z" fill="url(#paint4_linear_4167_222)" fill-opacity="0.8"/>
<path d="M137.773 0H151.687L155.781 3.98123V28.4373H151.854V5.56539L150.057 3.81892H141.7L137.773 0ZM149.722 4.54997L151.101 5.84977V28.4373L147.174 24.6184V5.56539L146.13 4.54997H149.722ZM152.731 0H161.255L165.182 3.81892H157.578L156.491 4.83435V3.69685L152.731 0Z" fill="white" fill-opacity="0.2"/>
<path d="M137.773 0H151.687L155.781 3.98123V28.4373H151.854V5.56539L150.057 3.81892H141.7L137.773 0ZM149.722 4.54997L151.101 5.84977V28.4373L147.174 24.6184V5.56539L146.13 4.54997H149.722ZM152.731 0H161.255L165.182 3.81892H157.578L156.491 4.83435V3.69685L152.731 0Z" fill="url(#paint5_linear_4167_222)" fill-opacity="0.8"/>
<path d="M171.481 28.4373V0H188.152L192.247 3.98123V12.1469L188.152 16.1281H184.517L188.32 12.4313V5.56539L186.523 3.81892H175.409V12.3092H181.844L183.64 10.5627V5.56539L182.595 4.54997H186.189L187.568 5.84977V12.1469L183.473 16.1281H175.409V24.6184L171.481 28.4373ZM166.802 3.81892L170.729 0V28.4373H166.802V3.81892Z" fill="white" fill-opacity="0.2"/>
<path d="M171.481 28.4373V0H188.152L192.247 3.98123V12.1469L188.152 16.1281H184.517L188.32 12.4313V5.56539L186.523 3.81892H175.409V12.3092H181.844L183.64 10.5627V5.56539L182.595 4.54997H186.189L187.568 5.84977V12.1469L183.473 16.1281H175.409V24.6184L171.481 28.4373ZM166.802 3.81892L170.729 0V28.4373H166.802V3.81892Z" fill="url(#paint6_linear_4167_222)" fill-opacity="0.8"/>
<path d="M199.554 0H215.222L219.317 3.98123V12.1469L218.188 13.2435L216.518 11.5782H215.389V5.56539L213.593 3.81892H203.481V12.3092H216.225L220.319 16.2904V24.6184L216.392 28.4373V17.8746L214.596 16.1281H203.481V24.6184L199.554 28.4373V0ZM194.874 28.4373V3.81892L198.802 0V28.4373H194.874ZM214.261 16.8592L215.64 18.159V28.4373H211.712V17.8746L210.668 16.8592H214.261ZM209.665 4.54997H213.3L214.637 5.84977V11.5782H209.665L210.709 10.5627V5.56539L209.665 4.54997Z" fill="white" fill-opacity="0.2"/>
<path d="M199.554 0H215.222L219.317 3.98123V12.1469L218.188 13.2435L216.518 11.5782H215.389V5.56539L213.593 3.81892H203.481V12.3092H216.225L220.319 16.2904V24.6184L216.392 28.4373V17.8746L214.596 16.1281H203.481V24.6184L199.554 28.4373V0ZM194.874 28.4373V3.81892L198.802 0V28.4373H194.874ZM214.261 16.8592L215.64 18.159V28.4373H211.712V17.8746L210.668 16.8592H214.261ZM209.665 4.54997H213.3L214.637 5.84977V11.5782H209.665L210.709 10.5627V5.56539L209.665 4.54997Z" fill="url(#paint7_linear_4167_222)" fill-opacity="0.8"/>
<path d="M228.234 22.5876V3.98123L232.329 0H244.905L249 3.98123V24.4561L244.905 28.4373H241.27L245.072 24.7405V5.56539L243.276 3.81892H233.959L232.161 5.56539V22.8719L233.206 23.8874H229.571L228.234 22.5876ZM227.649 0H231.284L227.482 3.69685V22.8719L229.279 24.6184H238.596L240.393 22.8719V5.56539L239.348 4.54997H242.941L244.32 5.84977V24.4561L240.226 28.4373H227.649L223.555 24.4561V3.98123L227.649 0Z" fill="white" fill-opacity="0.2"/>
<path d="M228.234 22.5876V3.98123L232.329 0H244.905L249 3.98123V24.4561L244.905 28.4373H241.27L245.072 24.7405V5.56539L243.276 3.81892H233.959L232.161 5.56539V22.8719L233.206 23.8874H229.571L228.234 22.5876ZM227.649 0H231.284L227.482 3.69685V22.8719L229.279 24.6184H238.596L240.393 22.8719V5.56539L239.348 4.54997H242.941L244.32 5.84977V24.4561L240.226 28.4373H227.649L223.555 24.4561V3.98123L227.649 0Z" fill="url(#paint8_linear_4167_222)" fill-opacity="0.8"/>
</g>
<defs>
<filter id="filter0_ii_4167_222" x="0" y="0" width="249" height="30.4373" filterUnits="userSpaceOnUse" color-interpolation-filters="sRGB">
<feFlood flood-opacity="0" result="BackgroundImageFix"/>
<feBlend mode="normal" in="SourceGraphic" in2="BackgroundImageFix" result="shape"/>
<feColorMatrix in="SourceAlpha" type="matrix" values="0 0 0 0 0 0 0 0 0 0 0 0 0 0 0 0 0 0 127 0" result="hardAlpha"/>
<feOffset dy="2"/>
<feGaussianBlur stdDeviation="1"/>
<feComposite in2="hardAlpha" operator="arithmetic" k2="-1" k3="1"/>
<feColorMatrix type="matrix" values="0 0 0 0 1 0 0 0 0 1 0 0 0 0 1 0 0 0 1 0"/>
<feBlend mode="normal" in2="shape" result="effect1_innerShadow_4167_222"/>
<feColorMatrix in="SourceAlpha" type="matrix" values="0 0 0 0 0 0 0 0 0 0 0 0 0 0 0 0 0 0 127 0" result="hardAlpha"/>
<feOffset dy="2"/>
<feGaussianBlur stdDeviation="1"/>
<feComposite in2="hardAlpha" operator="arithmetic" k2="-1" k3="1"/>
<feColorMatrix type="matrix" values="0 0 0 0 1 0 0 0 0 1 0 0 0 0 1 0 0 0 0.3 0"/>
<feBlend mode="normal" in2="effect1_innerShadow_4167_222" result="effect2_innerShadow_4167_222"/>
</filter>
<linearGradient id="paint0_linear_4167_222" x1="-3.66183e-10" y1="2.77437" x2="294.777" y2="5.20195" gradientUnits="userSpaceOnUse">
<stop offset="0.025" stop-color="#8B8B8B"/>
<stop offset="0.445" stop-color="#E0E0E0"/>
<stop offset="0.81" stop-color="#797979"/>
<stop offset="1" stop-color="#2A2A2A"/>
</linearGradient>
<linearGradient id="paint1_linear_4167_222" x1="-6.33545e-05" y1="2.77437" x2="294.777" y2="5.20195" gradientUnits="userSpaceOnUse">
<stop offset="0.025" stop-color="#8B8B8B"/>
<stop offset="0.445" stop-color="#E0E0E0"/>
<stop offset="0.81" stop-color="#797979"/>
<stop offset="1" stop-color="#2A2A2A"/>
</linearGradient>
<linearGradient id="paint2_linear_4167_222" x1="-0.000155277" y1="2.77437" x2="294.777" y2="5.20195" gradientUnits="userSpaceOnUse">
<stop offset="0.025" stop-color="#8B8B8B"/>
<stop offset="0.445" stop-color="#E0E0E0"/>
<stop offset="0.81" stop-color="#797979"/>
<stop offset="1" stop-color="#2A2A2A"/>
</linearGradient>
<linearGradient id="paint3_linear_4167_222" x1="-6.35852e-05" y1="2.77437" x2="294.777" y2="5.20195" gradientUnits="userSpaceOnUse">
<stop offset="0.025" stop-color="#8B8B8B"/>
<stop offset="0.445" stop-color="#E0E0E0"/>
<stop offset="0.81" stop-color="#797979"/>
<stop offset="1" stop-color="#2A2A2A"/>
</linearGradient>
<linearGradient id="paint4_linear_4167_222" x1="2.10339e-05" y1="2.77437" x2="294.777" y2="5.20195" gradientUnits="userSpaceOnUse">
<stop offset="0.025" stop-color="#8B8B8B"/>
<stop offset="0.445" stop-color="#E0E0E0"/>
<stop offset="0.81" stop-color="#797979"/>
<stop offset="1" stop-color="#2A2A2A"/>
</linearGradient>
<linearGradient id="paint5_linear_4167_222" x1="-0.000154103" y1="2.77437" x2="294.777" y2="5.20195" gradientUnits="userSpaceOnUse">
<stop offset="0.025" stop-color="#8B8B8B"/>
<stop offset="0.445" stop-color="#E0E0E0"/>
<stop offset="0.81" stop-color="#797979"/>
<stop offset="1" stop-color="#2A2A2A"/>
</linearGradient>
<linearGradient id="paint6_linear_4167_222" x1="4.28342e-05" y1="2.77438" x2="294.777" y2="5.20195" gradientUnits="userSpaceOnUse">
<stop offset="0.025" stop-color="#8B8B8B"/>
<stop offset="0.445" stop-color="#E0E0E0"/>
<stop offset="0.81" stop-color="#797979"/>
<stop offset="1" stop-color="#2A2A2A"/>
</linearGradient>
<linearGradient id="paint7_linear_4167_222" x1="0.000115146" y1="2.77437" x2="294.777" y2="5.20195" gradientUnits="userSpaceOnUse">
<stop offset="0.025" stop-color="#8B8B8B"/>
<stop offset="0.445" stop-color="#E0E0E0"/>
<stop offset="0.81" stop-color="#797979"/>
<stop offset="1" stop-color="#2A2A2A"/>
</linearGradient>
<linearGradient id="paint8_linear_4167_222" x1="-0.000175209" y1="2.77437" x2="294.777" y2="5.20195" gradientUnits="userSpaceOnUse">
<stop offset="0.025" stop-color="#8B8B8B"/>
<stop offset="0.445" stop-color="#E0E0E0"/>
<stop offset="0.81" stop-color="#797979"/>
<stop offset="1" stop-color="#2A2A2A"/>
</linearGradient>
</defs>
</svg>
