<svg width="188" height="35" viewBox="0 0 188 35" fill="none" xmlns="http://www.w3.org/2000/svg">
<mask id="mask0_4167_288" style="mask-type:luminance" maskUnits="userSpaceOnUse" x="0" y="0" width="188" height="35">
<path d="M188 0.0788574H0V34.7105H188V0.0788574Z" fill="white"/>
</mask>
<g mask="url(#mask0_4167_288)">
<path d="M7.01023 33.3248C9.22569 33.3248 11.0217 31.5949 11.0217 29.4611C11.0217 27.3271 9.22569 25.5972 7.01023 25.5972C4.79477 25.5972 2.99878 27.3271 2.99878 29.4611C2.99878 31.5949 4.79477 33.3248 7.01023 33.3248Z" fill="white"/>
<path d="M58.6748 2.85542C58.8628 2.57248 58.9709 2.23749 58.9709 1.87759C58.9709 0.877123 58.1272 0.0645185 57.0885 0.0645185H38.8854C37.3697 0.0645185 36.049 0.874857 35.3675 2.06998L27.5561 15.11C27.2341 15.7325 26.5667 16.1602 25.7959 16.1602C25.0909 16.1602 24.4729 15.8027 24.1251 15.2639L16.0975 1.88212C15.3878 0.791097 14.1282 0.0622559 12.6923 0.0622559H1.88235C0.84365 0.0645186 0 0.877123 0 1.87759C0 2.23749 0.1081 2.57248 0.2961 2.85542L14.5418 26.6289C15.1645 27.72 16.2573 28.4465 17.5944 28.4465C18.7647 28.4465 19.7964 27.8807 20.4097 27.016L24.1227 20.8389C24.4682 20.3002 25.0886 19.9425 25.7936 19.9425C26.5644 19.9425 27.2295 20.3682 27.5514 20.9906L34.5967 32.7426C35.1419 33.8564 36.3192 34.6282 37.6822 34.6282C39.0452 34.6282 40.1568 33.8857 40.7866 32.7042L58.6748 2.85542Z" fill="white"/>
<path d="M76.8028 12.1539C78.7322 9.99903 81.5827 8.6296 84.7693 8.6296C90.5668 8.6296 95.2668 13.143 95.2926 18.7203H95.3091V33.3697C95.3091 33.6979 95.0318 33.9649 94.691 33.9649H89.8195C89.4787 33.9649 89.2014 33.6979 89.2014 33.3697V20.1281C89.1873 17.0589 86.6023 14.5736 83.411 14.5736C81.7942 14.5736 80.3302 15.2119 79.2797 16.2417L79.1951 16.3324C77.8039 17.6722 76.9861 19.2998 76.8052 20.8163V33.3674C76.8052 33.6957 76.5279 33.9628 76.1871 33.9628H71.3156C70.9748 33.9628 70.6975 33.6957 70.6975 33.3674V0.657563C70.6975 0.329349 70.9748 0.0622559 71.3156 0.0622559H76.1871C76.5279 0.0622559 76.8052 0.329349 76.8052 0.657563V12.1539H76.8028Z" fill="white"/>
<path d="M126.157 9.29969C123.633 9.42192 121.527 10.2866 120.663 11.4681V11.4749C118.404 9.71844 115.561 8.66138 112.463 8.66138C105.164 8.66138 99.2283 14.4922 99.2283 21.6608C99.2283 28.8293 105.167 34.6599 112.463 34.6599C115.563 34.6599 118.409 33.6006 120.667 31.842C121.532 32.994 123.652 33.827 126.18 33.9424C126.479 33.9244 126.77 33.6934 126.77 33.3584V9.89499C126.77 9.56452 126.474 9.31327 126.157 9.30195V9.29969ZM113.126 28.9696C109.04 28.9696 105.726 25.6965 105.726 21.6608C105.726 17.6248 109.04 14.3518 113.126 14.3518C117.213 14.3518 120.526 17.6248 120.526 21.6608C120.526 25.6965 117.213 28.9696 113.126 28.9696Z" fill="white"/>
<path d="M187.387 9.29969C184.862 9.42192 182.757 10.2866 181.891 11.4681V11.4749C179.635 9.71844 176.79 8.66138 173.693 8.66138C166.394 8.66138 160.458 14.4922 160.458 21.6608C160.458 28.8293 166.396 34.6599 173.693 34.6599C176.792 34.6599 179.639 33.6006 181.896 31.842C182.761 32.994 184.879 33.827 187.41 33.9424C187.728 33.9063 188 33.6798 188 33.3584V9.89499C188 9.56452 187.704 9.31327 187.387 9.30195V9.29969ZM174.356 28.9696C170.269 28.9696 166.955 25.6965 166.955 21.6608C166.955 17.6248 170.269 14.3518 174.356 14.3518C178.442 14.3518 181.755 17.6248 181.755 21.6608C181.755 25.6965 178.442 28.9696 174.356 28.9696Z" fill="white"/>
<path d="M156.519 18.7449C156.508 13.1564 151.801 8.62939 145.996 8.62939C142.809 8.62939 139.961 9.99881 138.03 12.1537V12.1288C137.162 10.5896 135.059 9.46688 132.542 9.30618C132.225 9.31296 131.929 9.56196 131.922 9.89015V33.3695C131.922 33.6976 132.199 33.9647 132.54 33.9647H137.411C137.752 33.9647 138.03 33.6976 138.03 33.3695V20.8183C138.21 19.3017 139.028 17.6743 140.419 16.3343L140.504 16.2439C141.555 15.2139 143.019 14.5756 144.635 14.5756C147.827 14.5756 150.412 17.061 150.426 20.1303V33.3717C150.426 33.7 150.703 33.9671 151.044 33.9671H155.915C156.256 33.9671 156.533 33.7 156.533 33.3717V18.7449H156.517H156.519Z" fill="white"/>
</g>
</svg>
