<svg width="45" height="45" viewBox="0 0 45 45" fill="none" xmlns="http://www.w3.org/2000/svg">
<circle cx="22.5" cy="22.5" r="22.5" fill="#072723"/>
<path d="M35.0002 27.7769C34.8865 28.2183 34.7021 28.6137 34.3326 28.9077C33.7107 29.4032 32.8074 29.4151 32.1849 28.9181C32.0643 28.8222 31.9506 28.7152 31.8418 28.6061C28.8026 25.5599 25.7634 22.5136 22.7264 19.4653C22.6577 19.3965 22.6023 19.3145 22.4331 19.1887C22.3853 19.2749 22.3534 19.3771 22.2869 19.4445C19.222 22.5227 16.1531 25.5967 13.0869 28.6742C12.5455 29.2177 11.9188 29.4269 11.1749 29.1885C10.0754 28.8361 9.63663 27.4162 10.3416 26.4988C10.4207 26.3959 10.5073 26.2966 10.5988 26.2048C14.1205 22.6728 17.6421 19.1415 21.1652 15.6108C21.8238 14.9506 22.6418 14.8157 23.3842 15.2543C23.5638 15.3599 23.7232 15.5087 23.8716 15.6574C27.2983 19.0879 30.7201 22.5241 34.1496 25.9525C34.5357 26.339 34.8844 26.7351 34.9995 27.2876V27.7776L35.0002 27.7769Z" fill="#D1EFE8"/>
</svg>
