<svg width="35" height="35" viewBox="0 0 35 35" fill="none" xmlns="http://www.w3.org/2000/svg">
<circle cx="17.5" cy="17.5" r="17.5" fill="#072723"/>
<path d="M27.2225 21.6043C27.1341 21.9475 26.9907 22.2551 26.7033 22.4838C26.2196 22.8692 25.5171 22.8784 25.0329 22.4919C24.9391 22.4173 24.8506 22.334 24.766 22.2492C22.4022 19.8799 20.0384 17.5106 17.6762 15.1397C17.6229 15.0862 17.5797 15.0224 17.4482 14.9246C17.411 14.9916 17.3862 15.071 17.3344 15.1235C14.9507 17.5176 12.5637 19.9085 10.1789 22.3021C9.75775 22.7249 9.27033 22.8876 8.69178 22.7021C7.83663 22.4281 7.49533 21.3237 8.04368 20.6102C8.10515 20.5302 8.17255 20.4529 8.24372 20.3815C10.9828 17.6344 13.7218 14.8878 16.462 12.1417C16.9742 11.6282 17.6105 11.5233 18.1879 11.8644C18.3276 11.9466 18.4516 12.0623 18.567 12.178C21.2322 14.8462 23.8936 17.5187 26.5609 20.1853C26.8613 20.4858 27.1325 20.794 27.222 21.2237V21.6048L27.2225 21.6043Z" fill="#D1EFE8"/>
</svg>
