<svg width="32" height="32" viewBox="0 0 32 32" fill="none" xmlns="http://www.w3.org/2000/svg">
<path d="M3 21.2813C3 20.5703 3 19.8592 3 19.1481C3.01493 19.0409 3.03257 18.9344 3.04478 18.8265C3.13706 18.0293 3.19066 17.2246 3.32704 16.4348C3.86713 13.296 5.10811 10.4382 6.86543 7.79542C6.92649 7.70383 7.02555 7.61901 7.12597 7.57355C8.73198 6.83874 10.4099 6.33189 12.1455 6.00825C12.286 5.98247 12.3654 6.01436 12.4271 6.14327C12.5879 6.47845 12.7752 6.8021 12.9177 7.14406C12.9991 7.34015 13.0995 7.37407 13.2976 7.35508C14.0711 7.27976 14.8473 7.17052 15.6222 7.17663C16.6596 7.18545 17.697 7.28587 18.7338 7.35847C18.9082 7.37068 19.0018 7.34286 19.0764 7.16713C19.2243 6.8177 19.4096 6.48388 19.5717 6.14056C19.6335 6.00961 19.7163 5.98382 19.8553 6.00961C21.5672 6.32375 23.22 6.82788 24.8057 7.5437C24.9421 7.60544 25.0771 7.71807 25.1606 7.84224C28.1039 12.2301 29.3897 17.0488 28.8977 22.3228C28.8889 22.4171 28.8285 22.5359 28.7539 22.5902C26.8412 23.9892 24.7575 25.0511 22.4954 25.7622C22.3278 25.8151 22.2498 25.7703 22.1677 25.638C21.859 25.1434 21.5407 24.6542 21.2341 24.1582C21.1153 23.9668 21.0183 23.7619 20.9125 23.5652C21.65 23.2103 22.3597 22.869 23.0789 22.523C22.7688 22.0826 22.6107 22.0318 22.2138 22.2041C19.3349 23.4532 16.3522 23.8298 13.2583 23.2659C12.022 23.0407 10.8319 22.6689 9.68189 22.1641C9.58147 22.12 9.43898 22.0697 9.35756 22.1091C9.19744 22.1858 9.06716 22.3242 8.85547 22.4911C9.63507 22.8677 10.3495 23.213 11.1217 23.5862C10.6637 24.3061 10.2179 25.0022 9.77756 25.7011C9.68596 25.8463 9.57943 25.7839 9.46816 25.7486C7.23385 25.0389 5.16849 23.9953 3.27819 22.6092C3.18659 22.542 3.12009 22.3995 3.10245 22.2828C3.05157 21.9524 3.03189 21.6158 3 21.2813ZM22.703 16.8561C22.6358 16.5359 22.6019 16.2034 22.4961 15.8967C21.9383 14.2785 20.0752 13.7479 18.8579 14.8491C17.7215 15.8771 17.7092 17.8454 18.8328 18.8923C19.7373 19.735 21.042 19.7086 21.9051 18.8231C22.4343 18.2803 22.6589 17.6147 22.703 16.8568V16.8561ZM14.0874 16.8446C13.9795 16.449 13.9212 16.0318 13.7549 15.662C13.0948 14.1944 11.3259 13.8103 10.1975 14.8674C9.08956 15.9056 9.06988 17.7945 10.1562 18.857C11.047 19.7282 12.3674 19.7221 13.2454 18.8367C13.7868 18.2912 14.0148 17.6188 14.0867 16.8439L14.0874 16.8446Z" fill="#072723"/>
</svg>
