<svg width="26" height="20" viewBox="0 0 26 20" fill="none" xmlns="http://www.w3.org/2000/svg">
<path d="M0 15.2813C0 14.5703 0 13.8592 0 13.1481C0.014927 13.0409 0.0325681 12.9344 0.0447811 12.8265C0.137057 12.0293 0.190659 11.2246 0.327038 10.4348C0.867126 7.29604 2.10811 4.43819 3.86543 1.79542C3.92649 1.70383 4.02555 1.61901 4.12597 1.57355C5.73198 0.838736 7.40992 0.331895 9.14553 0.00824914C9.28598 -0.0175339 9.36536 0.0143557 9.42711 0.143271C9.58791 0.478451 9.77518 0.802096 9.91766 1.14406C9.99908 1.34015 10.0995 1.37407 10.2976 1.35508C11.0711 1.27976 11.8473 1.17052 12.6222 1.17663C13.6596 1.18545 14.697 1.28587 15.7338 1.35847C15.9082 1.37068 16.0018 1.34286 16.0764 1.16713C16.2243 0.817702 16.4096 0.483879 16.5717 0.140557C16.6335 0.00960615 16.7163 -0.0161769 16.8553 0.00960615C18.5672 0.323753 20.22 0.82788 21.8057 1.5437C21.9421 1.60544 22.0771 1.71807 22.1606 1.84224C25.1039 6.23011 26.3897 11.0488 25.8977 16.3228C25.8889 16.4171 25.8285 16.5359 25.7539 16.5902C23.8412 17.9892 21.7575 19.0511 19.4954 19.7622C19.3278 19.8151 19.2498 19.7703 19.1677 19.638C18.859 19.1434 18.5407 18.6542 18.2341 18.1582C18.1153 17.9668 18.0183 17.7619 17.9125 17.5652C18.65 17.2103 19.3597 16.869 20.0789 16.523C19.7688 16.0826 19.6107 16.0318 19.2138 16.2041C16.3349 17.4532 13.3522 17.8298 10.2583 17.2659C9.02204 17.0407 7.83195 16.6689 6.68189 16.1641C6.58147 16.12 6.43898 16.0697 6.35756 16.1091C6.19744 16.1858 6.06716 16.3242 5.85547 16.4911C6.63507 16.8677 7.34953 17.213 8.12167 17.5862C7.66368 18.3061 7.2179 19.0022 6.77756 19.7011C6.68596 19.8463 6.57943 19.7839 6.46816 19.7486C4.23385 19.0389 2.16849 17.9953 0.278186 16.6092C0.186588 16.542 0.120095 16.3995 0.102454 16.2828C0.0515661 15.9524 0.0318896 15.6158 0 15.2813ZM19.703 10.8561C19.6358 10.5359 19.6019 10.2034 19.4961 9.89674C18.9383 8.27851 17.0752 7.74792 15.8579 8.84913C14.7215 9.87706 14.7092 11.8454 15.8328 12.8923C16.7373 13.735 18.042 13.7086 18.9051 12.8231C19.4343 12.2803 19.6589 11.6147 19.703 10.8568V10.8561ZM11.0874 10.8446C10.9795 10.449 10.9212 10.0318 10.7549 9.66197C10.0948 8.19437 8.3259 7.81034 7.19755 8.86745C6.08956 9.90556 6.06988 11.7945 7.15616 12.857C8.04703 13.7282 9.3674 13.7221 10.2454 12.8367C10.7868 12.2912 11.0148 11.6188 11.0867 10.8439L11.0874 10.8446Z" fill="#D1EFE8"/>
</svg>
