<svg width="313" height="105" viewBox="0 0 313 105" fill="none" xmlns="http://www.w3.org/2000/svg">
<rect width="313" height="105" rx="15" fill="#072723"/>
<mask id="mask0_6010_92" style="mask-type:luminance" maskUnits="userSpaceOnUse" x="62" y="36" width="188" height="35">
<path d="M250 36.0789H62V70.7105H250V36.0789Z" fill="white"/>
</mask>
<g mask="url(#mask0_6010_92)">
<path d="M69.0102 69.3248C71.2257 69.3248 73.0217 67.5949 73.0217 65.4611C73.0217 63.3271 71.2257 61.5972 69.0102 61.5972C66.7948 61.5972 64.9988 63.3271 64.9988 65.4611C64.9988 67.5949 66.7948 69.3248 69.0102 69.3248Z" fill="white"/>
<path d="M120.675 38.8554C120.863 38.5725 120.971 38.2375 120.971 37.8776C120.971 36.8771 120.127 36.0645 119.089 36.0645H100.885C99.3697 36.0645 98.049 36.8749 97.3675 38.07L89.5561 51.11C89.2341 51.7325 88.5667 52.1602 87.7959 52.1602C87.0909 52.1602 86.4729 51.8027 86.1251 51.2639L78.0975 37.8821C77.3878 36.7911 76.1282 36.0623 74.6923 36.0623H63.8823C62.8436 36.0645 62 36.8771 62 37.8776C62 38.2375 62.1081 38.5725 62.2961 38.8554L76.5418 62.6289C77.1645 63.72 78.2573 64.4465 79.5944 64.4465C80.7647 64.4465 81.7964 63.8807 82.4097 63.016L86.1227 56.8389C86.4682 56.3002 87.0886 55.9425 87.7936 55.9425C88.5644 55.9425 89.2295 56.3682 89.5514 56.9906L96.5967 68.7426C97.1419 69.8564 98.3192 70.6282 99.6822 70.6282C101.045 70.6282 102.157 69.8857 102.787 68.7042L120.675 38.8554Z" fill="white"/>
<path d="M138.803 48.1539C140.732 45.999 143.583 44.6296 146.769 44.6296C152.567 44.6296 157.267 49.143 157.293 54.7203H157.309V69.3697C157.309 69.6979 157.032 69.9649 156.691 69.9649H151.819C151.479 69.9649 151.201 69.6979 151.201 69.3697V56.1281C151.187 53.0589 148.602 50.5736 145.411 50.5736C143.794 50.5736 142.33 51.2119 141.28 52.2417L141.195 52.3324C139.804 53.6722 138.986 55.2998 138.805 56.8163V69.3674C138.805 69.6957 138.528 69.9628 138.187 69.9628H133.316C132.975 69.9628 132.698 69.6957 132.698 69.3674V36.6576C132.698 36.3293 132.975 36.0623 133.316 36.0623H138.187C138.528 36.0623 138.805 36.3293 138.805 36.6576V48.1539H138.803Z" fill="white"/>
<path d="M188.157 45.2997C185.633 45.4219 183.527 46.2866 182.663 47.4681V47.4749C180.404 45.7184 177.561 44.6614 174.463 44.6614C167.164 44.6614 161.228 50.4922 161.228 57.6608C161.228 64.8293 167.167 70.6599 174.463 70.6599C177.563 70.6599 180.409 69.6006 182.667 67.842C183.532 68.994 185.652 69.827 188.18 69.9424C188.479 69.9244 188.77 69.6934 188.77 69.3584V45.895C188.77 45.5645 188.474 45.3133 188.157 45.302V45.2997ZM175.126 64.9696C171.04 64.9696 167.726 61.6965 167.726 57.6608C167.726 53.6248 171.04 50.3518 175.126 50.3518C179.213 50.3518 182.526 53.6248 182.526 57.6608C182.526 61.6965 179.213 64.9696 175.126 64.9696Z" fill="white"/>
<path d="M249.387 45.2997C246.862 45.4219 244.757 46.2866 243.891 47.4681V47.4749C241.635 45.7184 238.79 44.6614 235.693 44.6614C228.394 44.6614 222.458 50.4922 222.458 57.6608C222.458 64.8293 228.396 70.6599 235.693 70.6599C238.792 70.6599 241.639 69.6006 243.896 67.842C244.761 68.994 246.879 69.827 249.41 69.9424C249.728 69.9063 250 69.6798 250 69.3584V45.895C250 45.5645 249.704 45.3133 249.387 45.302V45.2997ZM236.356 64.9696C232.269 64.9696 228.955 61.6965 228.955 57.6608C228.955 53.6248 232.269 50.3518 236.356 50.3518C240.442 50.3518 243.755 53.6248 243.755 57.6608C243.755 61.6965 240.442 64.9696 236.356 64.9696Z" fill="white"/>
<path d="M218.519 54.7449C218.508 49.1564 213.801 44.6294 207.996 44.6294C204.809 44.6294 201.961 45.9988 200.03 48.1537V48.1288C199.162 46.5896 197.059 45.4669 194.542 45.3062C194.225 45.313 193.929 45.562 193.922 45.8902V69.3695C193.922 69.6976 194.199 69.9647 194.54 69.9647H199.411C199.752 69.9647 200.03 69.6976 200.03 69.3695V56.8183C200.21 55.3017 201.028 53.6743 202.419 52.3343L202.504 52.2439C203.555 51.2139 205.019 50.5756 206.635 50.5756C209.827 50.5756 212.412 53.061 212.426 56.1303V69.3717C212.426 69.7 212.703 69.9671 213.044 69.9671H217.915C218.256 69.9671 218.533 69.7 218.533 69.3717V54.7449H218.517H218.519Z" fill="white"/>
</g>
</svg>
