<svg width="310" height="105" viewBox="0 0 310 105" fill="none" xmlns="http://www.w3.org/2000/svg">
<rect width="310" height="105" rx="15" fill="#072723"/>
<path d="M46.0441 39.302C40.4025 37.6864 34.0146 42.7141 31.777 50.5318C29.5394 58.3484 32.2993 65.9943 37.9409 67.6099C43.5825 69.2255 49.9704 64.1977 52.2081 56.3801C54.4456 48.5635 51.6857 40.9175 46.0441 39.302ZM45.0936 46.645C44.9601 48.2629 43.5396 49.4664 41.9217 49.3317C40.3038 49.1984 39.1003 47.7777 39.2349 46.1599C39.3684 44.5421 40.7889 43.3385 42.4069 43.4732C44.0247 43.6066 45.2282 45.0272 45.0936 46.645Z" fill="#4AFC38"/>
<path d="M66.418 45.4091C62.0124 44.1486 57.0254 48.0737 55.2786 54.1773C53.5321 60.2808 55.686 66.2509 60.0916 67.5112C64.4973 68.7729 69.4843 64.8466 71.231 58.743C72.9776 52.6395 70.8237 46.6694 66.418 45.4091ZM65.7692 52.4747C65.6357 54.0926 64.2152 55.296 62.5974 55.1614C60.9795 55.028 59.776 53.6074 59.9105 51.9896C60.0452 50.3718 61.4647 49.1682 63.0825 49.3028C64.7003 49.4363 65.9039 50.8568 65.7692 52.4747Z" fill="#4AFC38"/>
<path d="M84.5996 41.0986H89.1099V61.3545H84.5996V41.0986ZM87.1118 49.0935H102.831V53.118H87.1118V49.0935ZM100.805 41.0986H105.316V61.3545H100.805V41.0986Z" fill="#4AFC38"/>
<path d="M114.768 60.3831L107.989 45.9878H112.958L119.17 60.3831H114.768ZM113.795 66.2172C112.787 66.2172 111.878 66.0907 111.067 65.8393C110.257 65.5871 109.491 65.218 108.772 64.7323V61.491C109.528 61.9768 110.248 62.3281 110.933 62.5441C111.617 62.7599 112.373 62.8678 113.202 62.8678C113.94 62.8678 114.597 62.7012 115.173 62.3683C115.749 62.0349 116.226 61.445 116.605 60.599L123.006 45.9878H127.786L120.116 62.0582C119.648 63.0661 119.081 63.8766 118.414 64.489C117.748 65.1005 117.024 65.5419 116.24 65.8127C115.457 66.0827 114.641 66.2172 113.795 66.2172Z" fill="#4AFC38"/>
<path d="M129.865 45.9876H134.375V50.8757L134.186 51.4695V55.1701L134.375 56.277V65.8108H129.865V45.9876ZM132.809 53.6851C133.115 52.0471 133.65 50.6195 134.416 49.4044C135.182 48.1895 136.145 47.2484 137.306 46.5821C138.467 45.9158 139.76 45.583 141.182 45.583C142.694 45.583 144.022 45.9207 145.166 46.5958C146.308 47.271 147.204 48.216 147.852 49.4318C148.5 50.6469 148.825 52.0649 148.825 53.6859C148.825 55.307 148.5 56.6976 147.852 57.9126C147.204 59.1276 146.308 60.0735 145.166 60.7486C144.022 61.4238 142.694 61.7614 141.182 61.7614C139.669 61.7614 138.449 61.4278 137.306 60.7623C136.163 60.096 135.204 59.1549 134.43 57.94C133.656 56.725 133.114 55.3062 132.809 53.6851ZM144.261 53.6851C144.261 52.7851 144.076 51.9883 143.707 51.2947C143.338 50.6017 142.829 50.0611 142.181 49.6743C141.534 49.2876 140.786 49.0935 139.94 49.0935C139.094 49.0935 138.292 49.2869 137.535 49.6743C136.779 50.0619 136.117 50.6017 135.55 51.2947C135.54 51.3076 135.529 51.3205 135.519 51.3333C134.413 52.7029 134.415 54.6818 135.533 56.0409C135.539 56.0482 135.544 56.0547 135.55 56.062C136.117 56.7468 136.779 57.2818 137.535 57.6693C138.292 58.0568 139.092 58.2502 139.94 58.2502C140.786 58.2502 141.534 58.0568 142.181 57.6693C142.829 57.2825 143.338 56.7468 143.707 56.062C144.076 55.3778 144.261 54.5858 144.261 53.6851Z" fill="#4AFC38"/>
<path d="M160.411 61.7606C158.593 61.7606 156.968 61.423 155.536 60.7479C154.104 60.0726 152.979 59.1228 152.161 57.8981C151.341 56.6743 150.932 55.2513 150.932 53.6311C150.932 52.0109 151.323 50.6243 152.106 49.4182C152.889 48.2121 153.965 47.271 155.334 46.5958C156.703 45.9207 158.259 45.583 160.007 45.583C161.752 45.583 163.32 45.9747 164.598 46.7577C165.877 47.5409 166.862 48.6439 167.555 50.066C168.248 51.4888 168.595 53.163 168.595 55.0894H154.552V52.0914H166.165L164.409 53.1719C164.337 52.272 164.117 51.5065 163.748 50.8765C163.378 50.2464 162.879 49.7606 162.249 49.4182C161.62 49.0766 160.881 48.9049 160.035 48.9049C159.116 48.9049 158.319 49.0894 157.644 49.4584C156.969 49.8275 156.446 50.3407 156.077 50.9981C155.708 51.6556 155.525 52.425 155.525 53.3072C155.525 54.37 155.758 55.2788 156.227 56.0353C156.695 56.7918 157.379 57.3679 158.28 57.7635C159.18 58.1599 160.269 58.3573 161.547 58.3573C162.699 58.3573 163.861 58.1914 165.031 57.8578C166.201 57.525 167.255 57.0522 168.191 56.4397V59.4644C167.183 60.1847 166.007 60.7471 164.666 61.1523C163.325 61.5576 161.907 61.7597 160.412 61.7597L160.411 61.7606Z" fill="#4AFC38"/>
<path d="M171.728 45.9878H176.238V61.3556H171.728V45.9878ZM183.719 45.8259V49.7149C183.251 49.607 182.784 49.5257 182.315 49.4717C181.847 49.4177 181.405 49.3903 180.991 49.3903C180.091 49.3903 179.28 49.5796 178.561 49.9575C177.84 50.3354 177.273 50.921 176.858 51.713C176.445 52.5059 176.238 53.5049 176.238 54.711L175.292 53.5766C175.401 52.4785 175.599 51.448 175.887 50.4845C176.174 49.5216 176.576 48.6748 177.089 47.9456C177.602 47.2165 178.238 46.6405 178.993 46.2174C179.75 45.7945 180.65 45.5825 181.694 45.5825C182.036 45.5825 182.383 45.6051 182.734 45.6503C183.085 45.6953 183.411 45.7542 183.719 45.8259Z" fill="#4AFC38"/>
<path d="M185.124 54.7384H189.77C189.878 55.4232 190.179 56.021 190.674 56.5343C191.17 57.0476 191.836 57.4439 192.674 57.7227C193.511 58.0023 194.479 58.1416 195.578 58.1416C197.18 58.1416 198.445 57.912 199.373 57.4527C200.299 56.9936 200.763 56.3497 200.763 55.5215C200.763 54.8737 200.497 54.3735 199.966 54.0229C199.435 53.6717 198.449 53.4154 197.008 53.2535L192.931 52.7943C190.301 52.5067 188.396 51.8895 187.217 50.9444C186.038 49.9993 185.448 48.6804 185.448 46.9876C185.448 45.655 185.84 44.5206 186.623 43.5844C187.406 42.6482 188.509 41.9327 189.932 41.4372C191.353 40.9426 193.029 40.6943 194.955 40.6943C196.882 40.6943 198.492 40.9691 199.952 41.5177C201.41 42.0673 202.572 42.8327 203.435 43.8132C204.3 44.7946 204.769 45.9426 204.84 47.2567H200.195C200.104 46.6629 199.839 46.1449 199.397 45.7033C198.956 45.2627 198.348 44.9202 197.575 44.6769C196.8 44.4335 195.89 44.3119 194.846 44.3119C193.388 44.3119 192.226 44.5279 191.362 44.9605C190.498 45.3931 190.066 46.0046 190.066 46.7974C190.066 47.4099 190.323 47.8828 190.835 48.2155C191.348 48.5491 192.253 48.7964 193.55 48.9584L197.79 49.4715C199.663 49.6698 201.152 49.9896 202.26 50.4303C203.367 50.8719 204.16 51.4616 204.637 52.1996C205.114 52.9385 205.352 53.8738 205.352 55.0084C205.352 56.3587 204.942 57.543 204.124 58.5598C203.305 59.5775 202.156 60.3654 200.68 60.9229C199.203 61.4805 197.475 61.76 195.495 61.76C193.514 61.76 191.704 61.4667 190.174 60.8826C188.643 60.2977 187.437 59.4783 186.555 58.4244C185.672 57.3715 185.195 56.1419 185.123 54.7375L185.124 54.7384Z" fill="#4AFC38"/>
<path d="M228.365 58.8974H226.878L231.687 45.9878H236.197L230.255 61.3556H225.637L220.505 48.0946H222.125L216.913 61.3556H212.294L206.352 45.9878H210.916L215.75 58.8974H214.211L219.127 45.9878H223.528L228.364 58.8974H228.365Z" fill="#4AFC38"/>
<path d="M253.077 53.6854C252.788 55.3057 252.263 56.7237 251.497 57.9395C250.733 59.1544 249.769 60.0964 248.608 60.7618C247.446 61.4282 246.145 61.7609 244.705 61.7609C243.264 61.7609 241.886 61.4234 240.734 60.7481C239.583 60.073 238.687 59.1279 238.046 57.9121C237.407 56.6972 237.088 55.288 237.088 53.6854C237.088 52.0829 237.407 50.6472 238.046 49.4314C238.685 48.2164 239.581 47.2705 240.734 46.5953C241.886 45.9202 243.209 45.5825 244.705 45.5825C246.2 45.5825 247.446 45.9161 248.608 46.5816C249.769 47.2479 250.736 48.189 251.511 49.4039C252.286 50.619 252.808 52.0474 253.077 53.6854ZM241.653 53.6854C241.653 54.5862 241.838 55.3782 242.206 56.0623C242.575 56.7471 243.083 57.282 243.733 57.6696C244.38 58.0572 245.128 58.2505 245.974 58.2505C246.82 58.2505 247.616 58.0572 248.364 57.6696C249.111 57.2828 249.773 56.7471 250.35 56.0623C250.355 56.0557 250.361 56.0485 250.366 56.0413C251.497 54.6877 251.5 52.6985 250.38 51.3336C250.37 51.3207 250.36 51.3078 250.348 51.295C249.772 50.602 249.111 50.0614 248.363 49.6747C247.616 49.2879 246.819 49.0938 245.972 49.0938C245.126 49.0938 244.38 49.2871 243.731 49.6747C243.083 50.0622 242.574 50.602 242.205 51.295C241.836 51.9887 241.651 52.7846 241.651 53.6854H241.653ZM256.396 61.3556H251.889L251.885 55.7109V51.6284L251.889 45.9878H256.396" fill="#4AFC38"/>
<path d="M259.856 45.9876H264.368V50.8757L264.177 51.4695V55.1701L264.368 56.277V65.8108H259.856V45.9876ZM262.8 53.6851C263.107 52.0471 263.641 50.6195 264.407 49.4044C265.173 48.1895 266.135 47.2484 267.298 46.5821C268.459 45.9158 269.75 45.583 271.173 45.583C272.686 45.583 274.013 45.9207 275.156 46.5958C276.3 47.271 277.196 48.216 277.843 49.4318C278.491 50.6469 278.815 52.0649 278.815 53.6859C278.815 55.307 278.492 56.6976 277.843 57.9126C277.196 59.1276 276.299 60.0735 275.156 60.7486C274.013 61.4238 272.686 61.7614 271.173 61.7614C269.66 61.7614 268.441 61.4278 267.298 60.7623C266.154 60.096 265.194 59.1549 264.421 57.94C263.646 56.725 263.107 55.3062 262.8 53.6851ZM274.252 53.6851C274.252 52.7851 274.068 51.9883 273.699 51.2947C273.33 50.6017 272.821 50.0611 272.173 49.6743C271.524 49.2876 270.778 49.0935 269.932 49.0935C269.086 49.0935 268.284 49.2869 267.527 49.6743C266.772 50.0619 266.109 50.6017 265.543 51.2947C265.533 51.3076 265.521 51.3205 265.511 51.3333C264.406 52.7029 264.407 54.6818 265.526 56.0409C265.531 56.0482 265.536 56.0547 265.543 56.062C266.109 56.7468 266.772 57.2818 267.527 57.6693C268.284 58.0568 269.086 58.2502 269.932 58.2502C270.778 58.2502 271.524 58.0568 272.173 57.6693C272.821 57.2825 273.33 56.7468 273.699 56.062C274.068 55.3778 274.252 54.5858 274.252 53.6851Z" fill="#4AFC38"/>
</svg>
