<svg width="310" height="105" viewBox="0 0 310 105" fill="none" xmlns="http://www.w3.org/2000/svg">
<rect width="310" height="105" rx="15" fill="#072723"/>
<path d="M273.617 60.3652V44.7011H276.564V47.1894H276.728C277.013 46.3464 277.516 45.6835 278.237 45.2008C278.964 44.7113 279.787 44.4666 280.705 44.4666C280.895 44.4666 281.119 44.4734 281.378 44.4869C281.643 44.5005 281.85 44.5175 282 44.5379V47.4546C281.878 47.4206 281.66 47.3832 281.347 47.3424C281.035 47.2948 280.722 47.271 280.409 47.271C279.688 47.271 279.046 47.424 278.482 47.7299C277.924 48.029 277.482 48.4472 277.156 48.9843C276.83 49.5146 276.666 50.1196 276.666 50.7995V60.3652H273.617Z" fill="white"/>
<path d="M264.112 60.6815C262.568 60.6815 261.239 60.3518 260.124 59.6923C259.016 59.026 258.159 58.0912 257.554 56.8879C256.956 55.6777 256.657 54.2602 256.657 52.6353C256.657 51.0308 256.956 49.6167 257.554 48.3929C258.159 47.1692 259.003 46.214 260.083 45.5273C261.171 44.8406 262.443 44.4973 263.898 44.4973C264.781 44.4973 265.638 44.6435 266.467 44.9358C267.297 45.2282 268.041 45.6871 268.701 46.3126C269.36 46.938 269.88 47.7505 270.261 48.7499C270.642 49.7425 270.832 50.9492 270.832 52.3702V53.4511H258.38V51.1668H267.844C267.844 50.3646 267.681 49.6541 267.355 49.0354C267.028 48.4099 266.569 47.917 265.978 47.5567C265.393 47.1964 264.707 47.0162 263.918 47.0162C263.061 47.0162 262.313 47.227 261.674 47.6485C261.042 48.0632 260.553 48.6071 260.206 49.2802C259.866 49.9464 259.696 50.6705 259.696 51.4523V53.237C259.696 54.284 259.88 55.1746 260.247 55.9089C260.621 56.6431 261.141 57.204 261.807 57.5915C262.473 57.9722 263.252 58.1626 264.142 58.1626C264.72 58.1626 265.247 58.081 265.723 57.9179C266.199 57.7479 266.61 57.4963 266.957 57.1632C267.304 56.8301 267.569 56.4188 267.752 55.9292L270.638 56.4493C270.407 57.2992 269.993 58.0436 269.394 58.6827C268.803 59.315 268.058 59.8079 267.161 60.1614C266.27 60.5081 265.254 60.6815 264.112 60.6815Z" fill="white"/>
<path d="M243.733 51.0649V60.3654H240.684V39.48H243.692V47.2508H243.886C244.253 46.4078 244.814 45.7381 245.569 45.2418C246.323 44.7455 247.309 44.4974 248.526 44.4974C249.6 44.4974 250.538 44.7183 251.341 45.1603C252.15 45.6022 252.775 46.2616 253.217 47.1387C253.666 48.0089 253.89 49.0967 253.89 50.402V60.3654H250.841V50.7691C250.841 49.6202 250.545 48.7295 249.954 48.0973C249.362 47.4582 248.54 47.1387 247.486 47.1387C246.765 47.1387 246.119 47.2916 245.548 47.5976C244.984 47.9035 244.539 48.3522 244.212 48.9437C243.893 49.5284 243.733 50.2354 243.733 51.0649Z" fill="white"/>
<path d="M231.586 60.6815C230.07 60.6815 228.765 60.3382 227.67 59.6515C226.583 58.9581 225.746 58.0028 225.162 56.7859C224.577 55.5689 224.285 54.1752 224.285 52.6047C224.285 51.0138 224.584 49.6099 225.182 48.3929C225.78 47.1692 226.623 46.214 227.711 45.5273C228.799 44.8406 230.081 44.4973 231.556 44.4973C232.746 44.4973 233.806 44.7183 234.738 45.1602C235.669 45.5953 236.42 46.2072 236.991 46.9958C237.569 47.7845 237.913 48.7057 238.021 49.7595H235.054C234.891 49.0252 234.517 48.3929 233.932 47.8626C233.354 47.3324 232.579 47.0672 231.607 47.0672C230.757 47.0672 230.013 47.2916 229.373 47.7403C228.741 48.1822 228.248 48.8145 227.895 49.6371C227.541 50.4529 227.364 51.4183 227.364 52.5333C227.364 53.6755 227.538 54.6613 227.885 55.4907C228.231 56.3202 228.721 56.9626 229.353 57.4182C229.992 57.8737 230.743 58.1014 231.607 58.1014C232.185 58.1014 232.708 57.996 233.177 57.7853C233.653 57.5677 234.051 57.2584 234.37 56.8573C234.697 56.4561 234.925 55.9734 235.054 55.4092H238.021C237.913 56.4222 237.583 57.3264 237.032 58.1218C236.481 58.9173 235.744 59.5427 234.819 59.9982C233.901 60.4538 232.824 60.6815 231.586 60.6815Z" fill="white"/>
<path d="M211.472 51.0648V60.3654H208.423V44.7013H211.35V47.2508H211.544C211.904 46.4213 212.468 45.7551 213.237 45.252C214.012 44.7489 214.987 44.4973 216.163 44.4973C217.231 44.4973 218.166 44.7217 218.968 45.1704C219.77 45.6123 220.392 46.2718 220.834 47.1488C221.276 48.0258 221.497 49.1102 221.497 50.4019V60.3654H218.448V50.7691C218.448 49.6337 218.152 48.7465 217.56 48.1074C216.969 47.4615 216.157 47.1386 215.123 47.1386C214.416 47.1386 213.787 47.2916 213.237 47.5975C212.693 47.9034 212.261 48.3521 211.941 48.9436C211.629 49.5283 211.472 50.2354 211.472 51.0648Z" fill="white"/>
<path d="M201.865 53.8694V44.7014H204.924V60.3655H201.926V57.6529H201.763C201.403 58.4891 200.825 59.1859 200.029 59.7434C199.241 60.2941 198.258 60.5695 197.082 60.5695C196.076 60.5695 195.185 60.3485 194.41 59.9066C193.642 59.4579 193.037 58.795 192.595 57.918C192.16 57.041 191.942 55.9566 191.942 54.6648V44.7014H194.992V54.2977C194.992 55.3651 195.287 56.2149 195.879 56.8472C196.47 57.4795 197.239 57.7956 198.184 57.7956C198.755 57.7956 199.322 57.6529 199.887 57.3673C200.458 57.0818 200.93 56.65 201.304 56.0722C201.685 55.4943 201.872 54.76 201.865 53.8694Z" fill="white"/>
<path d="M180.749 60.7121C179.757 60.7121 178.859 60.5285 178.057 60.1614C177.255 59.7875 176.619 59.247 176.15 58.5399C175.688 57.8329 175.457 56.966 175.457 55.9394C175.457 55.0556 175.627 54.3282 175.966 53.7571C176.306 53.186 176.765 52.7339 177.343 52.4007C177.921 52.0676 178.567 51.8161 179.281 51.6461C179.995 51.4761 180.722 51.347 181.463 51.2586C182.401 51.1498 183.163 51.0614 183.748 50.9934C184.332 50.9186 184.757 50.7997 185.022 50.6365C185.287 50.4733 185.42 50.2082 185.42 49.8411V49.7697C185.42 48.879 185.168 48.189 184.665 47.6995C184.169 47.21 183.428 46.9652 182.442 46.9652C181.416 46.9652 180.607 47.193 180.015 47.6485C179.43 48.0972 179.026 48.5969 178.801 49.1476L175.936 48.4949C176.276 47.5431 176.772 46.7749 177.425 46.1902C178.084 45.5987 178.842 45.1704 179.699 44.9052C180.556 44.6333 181.456 44.4973 182.401 44.4973C183.027 44.4973 183.69 44.5721 184.39 44.7217C185.097 44.8644 185.756 45.1296 186.368 45.5171C186.987 45.9046 187.494 46.4587 187.888 47.1794C188.282 47.8932 188.479 48.8213 188.479 49.9634V60.3654H185.502V58.2238H185.379C185.182 58.6181 184.886 59.0056 184.492 59.3864C184.098 59.7671 183.591 60.0832 182.972 60.3348C182.354 60.5863 181.613 60.7121 180.749 60.7121ZM181.412 58.2646C182.255 58.2646 182.976 58.098 183.574 57.7649C184.179 57.4317 184.638 56.9966 184.951 56.4595C185.27 55.9156 185.43 55.3344 185.43 54.7157V52.6965C185.321 52.8053 185.111 52.9072 184.798 53.0024C184.492 53.0908 184.142 53.169 183.748 53.237C183.353 53.2982 182.969 53.356 182.595 53.4103C182.221 53.4579 181.908 53.4987 181.657 53.5327C181.065 53.6075 180.525 53.7333 180.035 53.91C179.553 54.0868 179.165 54.3418 178.873 54.6749C178.587 55.0012 178.445 55.4363 178.445 55.9802C178.445 56.7349 178.723 57.306 179.281 57.6935C179.838 58.0742 180.549 58.2646 181.412 58.2646Z" fill="white"/>
<path d="M172.687 39.48V60.3654H169.638V39.48H172.687Z" fill="white"/>
<path d="M159.215 60.3652V44.7011H162.162V47.1894H162.325C162.611 46.3464 163.114 45.6835 163.834 45.2008C164.562 44.7113 165.384 44.4666 166.302 44.4666C166.493 44.4666 166.717 44.4734 166.975 44.4869C167.24 44.5005 167.448 44.5175 167.597 44.5379V47.4546C167.475 47.4206 167.257 47.3832 166.945 47.3424C166.632 47.2948 166.319 47.271 166.006 47.271C165.286 47.271 164.643 47.424 164.079 47.7299C163.522 48.029 163.08 48.4472 162.753 48.9843C162.427 49.5146 162.264 50.1196 162.264 50.7995V60.3652H159.215Z" fill="white"/>
<path d="M149.709 60.6815C148.166 60.6815 146.837 60.3518 145.722 59.6923C144.614 59.026 143.757 58.0912 143.152 56.8879C142.554 55.6777 142.255 54.2602 142.255 52.6353C142.255 51.0308 142.554 49.6167 143.152 48.3929C143.757 47.1692 144.6 46.214 145.681 45.5273C146.769 44.8406 148.04 44.4973 149.495 44.4973C150.379 44.4973 151.236 44.6435 152.065 44.9358C152.895 45.2282 153.639 45.6871 154.298 46.3126C154.958 46.938 155.478 47.7505 155.859 48.7499C156.239 49.7425 156.43 50.9492 156.43 52.3702V53.4511H143.978V51.1668H153.442C153.442 50.3646 153.279 49.6541 152.952 49.0354C152.626 48.4099 152.167 47.917 151.576 47.5567C150.991 47.1964 150.304 47.0162 149.516 47.0162C148.659 47.0162 147.911 47.227 147.272 47.6485C146.64 48.0632 146.15 48.6071 145.804 49.2802C145.464 49.9464 145.294 50.6705 145.294 51.4523V53.237C145.294 54.284 145.477 55.1746 145.844 55.9089C146.218 56.6431 146.738 57.204 147.405 57.5915C148.071 57.9722 148.849 58.1626 149.74 58.1626C150.318 58.1626 150.845 58.081 151.321 57.9179C151.797 57.7479 152.208 57.4963 152.555 57.1632C152.901 56.8301 153.166 56.4188 153.35 55.9292L156.236 56.4493C156.005 57.2992 155.59 58.0436 154.992 58.6827C154.4 59.315 153.656 59.8079 152.759 60.1614C151.868 60.5081 150.852 60.6815 149.709 60.6815Z" fill="white"/>
<path d="M125.832 66.2394V44.7013H128.81V47.2406H129.065C129.242 46.9142 129.497 46.5369 129.83 46.1086C130.163 45.6803 130.625 45.3064 131.217 44.9868C131.808 44.6605 132.59 44.4973 133.562 44.4973C134.827 44.4973 135.955 44.8169 136.948 45.4559C137.941 46.095 138.719 47.0162 139.283 48.2196C139.854 49.4229 140.14 50.8711 140.14 52.5639C140.14 54.2568 139.858 55.7083 139.294 56.9185C138.729 58.1218 137.954 59.0498 136.968 59.7025C135.983 60.3484 134.857 60.6713 133.593 60.6713C132.641 60.6713 131.863 60.5115 131.258 60.192C130.659 59.8725 130.19 59.4985 129.85 59.0702C129.51 58.6419 129.249 58.2612 129.065 57.9281H128.881V66.2394H125.832ZM128.82 52.5333C128.82 53.6347 128.98 54.6001 129.3 55.4295C129.619 56.259 130.081 56.9083 130.687 57.3774C131.292 57.8397 132.033 58.0708 132.91 58.0708C133.821 58.0708 134.582 57.8295 135.194 57.3468C135.806 56.8573 136.268 56.1944 136.581 55.3582C136.9 54.5219 137.06 53.5803 137.06 52.5333C137.06 51.4999 136.904 50.5719 136.591 49.7493C136.285 48.9266 135.823 48.2774 135.204 47.8015C134.592 47.3256 133.827 47.0876 132.91 47.0876C132.026 47.0876 131.278 47.3154 130.666 47.7709C130.061 48.2264 129.602 48.862 129.289 49.6779C128.977 50.4937 128.82 51.4455 128.82 52.5333Z" fill="white"/>
<path d="M112.092 66.2395C111.637 66.2395 111.222 66.2022 110.848 66.1274C110.474 66.0594 110.195 65.9846 110.012 65.903L110.746 63.4045C111.304 63.5541 111.8 63.6187 112.235 63.5983C112.67 63.5779 113.054 63.4147 113.387 63.1088C113.727 62.8028 114.026 62.3031 114.285 61.6097L114.662 60.5695L108.931 44.7014H112.194L116.161 56.8574H116.324L120.291 44.7014H123.565L117.11 62.4561C116.811 63.2719 116.43 63.962 115.968 64.5263C115.505 65.0974 114.955 65.5257 114.315 65.8112C113.676 66.0968 112.935 66.2395 112.092 66.2395Z" fill="white"/>
<path d="M89.6941 60.3654V39.48H92.8453V48.5562H103.257V39.48H106.419V60.3654H103.257V51.2586H92.8453V60.3654H89.6941Z" fill="white"/>
<path d="M56.8443 35.9158C56.8443 35.0927 56.5578 34.2996 56.0407 33.6685L55.8052 33.408C55.1399 32.7428 54.238 32.3689 53.2974 32.3689C52.4745 32.3689 51.6813 32.6554 51.0501 33.1725L50.7896 33.408C50.1244 34.0731 49.7505 34.9751 49.7505 35.9158C49.7505 36.8565 50.1244 37.7585 50.7896 38.4236L51.0501 38.6591C51.6813 39.1762 52.4745 39.4627 53.2974 39.4627C54.238 39.4627 55.1399 39.0888 55.8052 38.4236L56.0407 38.1631C56.5578 37.532 56.8443 36.7389 56.8443 35.9158ZM61.1006 35.9158C61.1006 37.727 60.471 39.4734 59.3327 40.8621L58.8145 41.4329C57.3511 42.8963 55.3669 43.7191 53.2974 43.7191C51.4862 43.7191 49.7398 43.0893 48.3511 41.9511L47.7802 41.4329C46.3167 39.9695 45.4941 37.9853 45.4941 35.9158C45.4941 33.8463 46.3167 31.8621 47.7802 30.3987L48.3511 29.8805C49.7398 28.7423 51.4862 28.1125 53.2974 28.1125C55.3669 28.1125 57.3511 28.9353 58.8145 30.3987L59.3327 30.9695C60.471 32.3582 61.1006 34.1046 61.1006 35.9158Z" fill="white"/>
<path d="M54.2314 34.9657C54.7241 33.9803 55.8777 33.5445 56.8861 33.9265L57.0856 34.0124L65.5983 38.2687C66.3192 38.6292 66.7759 39.3664 66.7759 40.1725C66.7759 40.9785 66.3192 41.7157 65.5983 42.0762L57.0856 46.3325C56.0346 46.8573 54.7569 46.4301 54.2314 45.3792C53.7067 44.3282 54.1338 43.0505 55.1847 42.5251L59.8899 40.1725L55.1847 37.8198L54.9935 37.7118C54.0831 37.1345 53.7396 35.9508 54.2314 34.9657Z" fill="white"/>
<path d="M51.8785 37.3346C52.6619 37.3346 53.2973 36.6994 53.2973 35.9158C53.2973 35.1323 52.6619 34.4971 51.8785 34.4971C51.095 34.4971 50.4597 35.1323 50.4597 35.9158C50.4597 36.6994 51.095 37.3346 51.8785 37.3346Z" fill="white"/>
<path d="M51.8785 35.2064C51.4867 35.2064 51.1691 35.5239 51.1691 35.9158C51.1691 36.3077 51.4867 36.6252 51.8785 36.6252C52.2703 36.6252 52.5879 36.3077 52.5879 35.9158C52.5879 35.5239 52.2703 35.2064 51.8785 35.2064ZM55.4254 35.9158C55.4254 37.8748 53.8372 39.4628 51.8785 39.4628C49.9198 39.4628 48.3315 37.8748 48.3315 35.9158C48.3315 33.9568 49.9198 32.3689 51.8785 32.3689C53.8372 32.3689 55.4254 33.9568 55.4254 35.9158Z" fill="white"/>
<path d="M63.9493 39.582C64.5497 39.3732 65.2182 39.4423 65.7671 39.7815C66.394 40.1694 66.7758 40.8538 66.7758 41.591V52.9412C66.7758 53.7473 66.3191 54.4844 65.5981 54.8449L54.2479 60.52C53.7236 60.7817 53.1186 60.8138 52.5742 60.617L52.347 60.52L40.9968 54.8449C40.2758 54.4844 39.8191 53.7473 39.8191 52.9412V41.591L39.8357 41.3167C39.9175 40.6867 40.2794 40.1208 40.8278 39.7815C41.4548 39.394 42.2382 39.358 42.8977 39.6873L53.2974 44.8858L63.6972 39.6873L63.9493 39.582ZM54.2479 49.1698C53.7236 49.4316 53.1186 49.4636 52.5742 49.2668L52.347 49.1698L44.0754 45.0326V51.6249L53.2974 56.2359L62.5195 51.6249V45.0326L54.2479 49.1698Z" fill="white"/>
<path d="M41.1961 39.6016C42.2045 39.2196 43.3581 39.6554 43.8507 40.6407C44.3426 41.6259 43.9991 42.8095 43.0887 43.3868L42.8975 43.4949L31.5473 49.17C30.4963 49.6948 29.2186 49.2676 28.6931 48.2167C28.1684 47.1657 28.5955 45.888 29.6464 45.3626L40.9966 39.6875L41.1961 39.6016ZM62.7437 40.6407C63.2364 39.6554 64.3899 39.2196 65.3983 39.6016L65.5979 39.6875L76.948 45.3626L77.1393 45.4706C78.0497 46.0479 78.3932 47.2316 77.9013 48.2167C77.4086 49.2021 76.2551 49.6379 75.2466 49.2559L75.0471 49.17L63.6969 43.4949L63.5057 43.3868C62.5953 42.8095 62.2518 41.6259 62.7437 40.6407Z" fill="white"/>
<path d="M41.4318 48.0392C42.5718 47.7546 43.7266 48.4482 44.0116 49.5882C44.2963 50.7283 43.6027 51.883 42.4626 52.1681L31.1124 55.0056C29.9724 55.2902 28.8176 54.5966 28.5326 53.4566C28.248 52.3165 28.9416 51.1618 30.0816 50.8767L41.4318 48.0392ZM64.9496 47.9976L65.163 48.0392L76.5132 50.8767L76.721 50.9405C77.7361 51.306 78.3291 52.3874 78.0622 53.4566C77.795 54.5255 76.7632 55.2016 75.6957 55.0472L75.4824 55.0056L64.1322 52.1681L63.9243 52.1043C62.9093 51.7387 62.3162 50.6574 62.5832 49.5882C62.8504 48.5193 63.8822 47.8432 64.9496 47.9976Z" fill="white"/>
<path d="M57.0329 57.7407C57.4756 56.7569 58.6006 56.2477 59.646 56.5962C60.6912 56.9446 61.2866 58.0267 61.0509 59.0791L60.9927 59.2897L55.3176 76.3149C55.028 77.184 54.2136 77.7697 53.2976 77.7697C52.3815 77.7697 51.5671 77.184 51.2775 76.3149L45.6024 59.2897L45.5442 59.0791C45.3085 58.0267 45.9039 56.9446 46.9491 56.5962C47.9945 56.2477 49.1195 56.7569 49.5622 57.7407L49.6426 57.9429L53.2976 68.908L56.9526 57.9429L57.0329 57.7407Z" fill="white"/>
<path d="M41.9474 43.7192C43.1227 43.7192 44.0756 44.672 44.0756 45.8474C44.0756 47.0227 43.1227 47.9756 41.9474 47.9756H39.1098C37.9345 47.9756 36.9817 47.0227 36.9817 45.8474C36.9817 44.672 37.9345 43.7192 39.1098 43.7192H41.9474ZM67.4853 43.7192C68.6607 43.7192 69.6135 44.672 69.6135 45.8474C69.6135 47.0227 68.6607 47.9756 67.4853 47.9756H64.6478C63.4724 47.9756 62.5196 47.0227 62.5196 45.8474C62.5196 44.672 63.4724 43.7192 64.6478 43.7192H67.4853Z" fill="white"/>
<path d="M47.6224 49.3943C48.7978 49.3943 49.7506 50.3471 49.7506 51.5224C49.7506 52.6978 48.7978 53.6506 47.6224 53.6506H44.7849C43.6095 53.6506 42.6567 52.6978 42.6567 51.5224C42.6567 50.3471 43.6095 49.3943 44.7849 49.3943H47.6224ZM61.8102 49.3943C62.9855 49.3943 63.9383 50.3471 63.9383 51.5224C63.9383 52.6978 62.9855 53.6506 61.8102 53.6506H58.9726C57.7973 53.6506 56.8445 52.6978 56.8445 51.5224C56.8445 50.3471 57.7973 49.3943 58.9726 49.3943H61.8102Z" fill="white"/>
</svg>
