<svg width="313" height="105" viewBox="0 0 313 105" fill="none" xmlns="http://www.w3.org/2000/svg">
<rect width="313" height="105" rx="15" fill="#072723"/>
<mask id="mask0_4167_241" style="mask-type:luminance" maskUnits="userSpaceOnUse" x="33" y="36" width="247" height="35">
<path d="M279.15 36H33V70.5096H279.15V36Z" fill="white"/>
</mask>
<g mask="url(#mask0_4167_241)">
<path d="M33 62.846V36.0359H36.2552V62.846H33Z" fill="white"/>
<path d="M90.6384 43.6992V70.5093H87.5754V43.6992H90.6384ZM107.743 58.5757C106.812 60.0951 105.587 61.2483 104.068 62.041C102.548 62.8338 100.944 63.2302 99.2628 63.2302C97.5812 63.2302 96.1098 62.8578 94.7044 62.1191C93.299 61.3804 92.1639 60.2633 91.2931 58.7678C90.4222 57.2724 89.9898 55.4406 89.9898 53.2725C89.9898 51.1044 90.4282 49.3086 91.3111 47.8132C92.1939 46.3177 93.3471 45.2006 94.7765 44.4619C96.2058 43.7232 97.7373 43.3508 99.3709 43.3508C101.005 43.3508 102.644 43.7352 104.14 44.4979C105.635 45.2607 106.842 46.3898 107.761 47.8672C108.68 49.3507 109.142 51.1104 109.142 53.1524C109.142 55.1944 108.674 57.0502 107.743 58.5697V58.5757ZM105.004 49.675C104.29 48.702 103.353 47.9753 102.188 47.4949C101.023 47.0084 99.7793 46.7682 98.452 46.7682C97.1247 46.7682 95.8755 47.0144 94.6984 47.5129C93.5212 48.0114 92.5723 48.7501 91.8456 49.7351C91.1189 50.72 90.7525 51.8972 90.7525 53.2785C90.7525 54.6598 91.0889 55.873 91.7675 56.84C92.4462 57.8129 93.335 58.5336 94.4461 59.0021C95.5572 59.4765 96.7644 59.7108 98.0677 59.7108C99.3709 59.7108 100.71 59.4585 101.935 58.942C103.161 58.4315 104.158 57.6808 104.92 56.6838C105.689 55.6868 106.067 54.5157 106.067 53.1584C106.067 51.8011 105.707 50.6419 104.992 49.675H105.004Z" fill="white"/>
<path d="M128.042 61.7771C126.169 62.7741 124.193 63.2726 122.127 63.2726C120.211 63.2726 118.409 62.8702 116.727 62.0654C115.04 61.2606 113.688 60.1075 112.667 58.6C111.646 57.0926 111.136 55.3569 111.136 53.393C111.136 51.2489 111.658 49.4171 112.704 47.8976C113.749 46.3781 115.112 45.243 116.781 44.4863C118.451 43.7355 120.247 43.3572 122.163 43.3572C124.079 43.3572 125.736 43.7055 127.37 44.4082C129.003 45.1109 130.319 46.1439 131.316 47.5132C132.313 48.8766 132.811 50.5101 132.811 52.396C132.811 52.9065 132.775 53.429 132.697 53.9635H112.283V52.8164H129.94C129.712 50.9005 128.823 49.4351 127.28 48.4141C125.736 47.3931 123.94 46.8826 121.898 46.8826C120.517 46.8826 119.208 47.1289 117.971 47.6273C116.733 48.1258 115.73 48.8645 114.962 49.8495C114.193 50.8345 113.815 52.0116 113.815 53.393C113.815 54.6181 114.205 55.7112 114.98 56.6661C115.76 57.6211 116.781 58.3658 118.043 58.8883C119.304 59.4108 120.655 59.6751 122.085 59.6751C123.616 59.6751 125.088 59.3508 126.487 58.6961C127.892 58.0475 129.063 57.0565 130.012 55.7292L132.655 57.3388C131.454 59.3027 129.916 60.7862 128.042 61.7831V61.7771Z" fill="white"/>
<path d="M136.102 47.8314C136.967 46.3239 138.108 45.1888 139.514 44.4201C140.919 43.6513 142.427 43.2729 144.03 43.2729C145.634 43.2729 147.105 43.6573 148.511 44.4201C149.916 45.1888 151.051 46.3239 151.922 47.8314C152.787 49.3389 153.225 51.1526 153.225 53.2727C153.225 55.3927 152.781 57.1284 151.886 58.6359C150.991 60.1434 149.82 61.2845 148.36 62.0652C146.907 62.846 145.375 63.2304 143.766 63.2304C142.156 63.2304 140.745 62.858 139.382 62.1193C138.018 61.3806 136.913 60.2575 136.066 58.75C135.226 57.2425 134.805 55.4168 134.805 53.2727C134.805 51.1286 135.238 49.3389 136.108 47.8314H136.102ZM138.901 56.7561C139.592 57.729 140.493 58.4557 141.604 58.9362C142.715 59.4227 143.91 59.6629 145.183 59.6629C146.457 59.6629 147.616 59.4227 148.727 58.9362C149.838 58.4497 150.739 57.723 151.429 56.7561C152.12 55.7831 152.462 54.624 152.462 53.2727C152.462 51.9214 152.12 50.7202 151.429 49.7472C150.739 48.7743 149.838 48.0416 148.727 47.5431C147.616 47.0446 146.433 46.7984 145.183 46.7984C143.934 46.7984 142.715 47.0446 141.604 47.5431C140.493 48.0416 139.592 48.7743 138.901 49.7472C138.21 50.7202 137.868 51.8913 137.868 53.2727C137.868 54.654 138.21 55.7891 138.901 56.7561ZM152.456 62.846V36.0359H155.712V62.846H152.456Z" fill="white"/>
<path d="M83.9296 48.6124C83.1548 47.195 82.0978 45.9878 80.8666 45.0809C79.6354 44.1741 78.2601 43.5194 76.8307 43.1711C76.4763 43.069 76.116 43.0089 75.7556 42.9489C75.3953 42.8828 75.0349 42.8468 74.6746 42.8288C74.3142 42.7987 73.9539 42.7987 73.5995 42.8167L73.065 42.8348C72.8668 42.8528 72.6446 42.8888 72.4404 42.9188C72.02 42.9849 71.5936 43.045 71.2452 43.1891C70.8909 43.3212 70.5005 43.4353 70.1822 43.5975L69.2333 44.09C68.945 44.2702 68.6747 44.4683 68.3984 44.6545C67.3414 45.4473 66.4225 46.2941 65.6177 47.201C64.837 48.1379 64.1043 49.0688 63.4736 50.0778C63.1673 50.5823 62.8611 51.0868 62.5788 51.6033L62.1824 52.3961L61.9962 52.7985L61.9662 52.8705L61.9362 52.7985L61.744 52.4021L61.3476 51.6093C61.0653 51.0928 60.759 50.5883 60.4527 50.0838C59.8281 49.0748 59.0894 48.1499 58.3086 47.207C57.5038 46.2941 56.5849 45.4593 55.5279 44.6605C55.2516 44.4744 54.9814 44.2702 54.6931 44.09L53.7442 43.5975C53.4319 43.4293 53.0415 43.3212 52.6871 43.1891C52.3388 43.045 51.9124 42.9849 51.492 42.9188C51.2878 42.8888 51.0656 42.8528 50.8674 42.8348L50.3328 42.8167C49.9785 42.7987 49.6181 42.7987 49.2578 42.8288C48.8974 42.8468 48.5371 42.8768 48.1767 42.9489C47.8164 43.0089 47.456 43.069 47.1017 43.1711C45.6723 43.5194 44.297 44.1741 43.0658 45.0809C41.8346 45.9878 40.7775 47.195 40.0028 48.6124C39.24 50.0298 38.8196 51.6814 38.8076 53.321C38.8136 54.9606 39.24 56.6122 39.9968 58.0356C40.7715 59.4529 41.8286 60.6601 43.0598 61.567C44.291 62.4739 45.6663 63.1285 47.0957 63.4769C47.45 63.579 47.8104 63.639 48.1707 63.6991C48.5311 63.7651 48.8914 63.8012 49.2518 63.8192C49.6121 63.8492 49.9725 63.8492 50.3268 63.8312L50.8614 63.8132C51.0596 63.7952 51.2818 63.7591 51.486 63.7291C51.9064 63.663 52.3328 63.603 52.6811 63.4589C53.0355 63.3267 53.4259 63.2126 53.7442 63.0505L54.6931 62.558C54.9814 62.3778 55.2516 62.1796 55.5279 61.9934C56.5849 61.2006 57.5038 60.3538 58.3086 59.4469C59.0894 58.51 59.8221 57.5791 60.4527 56.5701C60.759 56.0656 61.0653 55.5612 61.3476 55.0447L61.744 54.2519L61.9301 53.8495L61.9602 53.7774L61.9902 53.8495L62.1824 54.2459L62.5788 55.0386C62.8611 55.5552 63.1673 56.0596 63.4736 56.5641C64.0983 57.5731 64.837 58.498 65.6177 59.4409C66.4225 60.3538 67.3414 61.1886 68.3984 61.9874C68.6747 62.1736 68.945 62.3778 69.2333 62.558L70.1822 63.0505C70.4945 63.2186 70.8849 63.3267 71.2392 63.4589C71.5876 63.603 72.014 63.663 72.4344 63.7291C72.6386 63.7591 72.8608 63.7952 73.059 63.8132L73.5935 63.8312C73.9478 63.8492 74.3082 63.8492 74.6686 63.8192C75.0289 63.8012 75.3893 63.7712 75.7496 63.6991C76.11 63.639 76.4703 63.579 76.8247 63.4769C78.254 63.1285 79.6294 62.4739 80.8606 61.567C82.0918 60.6601 83.1488 59.4529 83.9236 58.0356C84.6863 56.6182 85.1067 54.9666 85.1187 53.327C85.1127 51.6874 84.6863 50.0358 83.9296 48.6124ZM61.5578 53.5312L61.2815 53.8495L60.723 54.4741C60.3446 54.8885 59.9542 55.2909 59.5638 55.6873C58.7711 56.48 57.9423 57.2308 57.0774 57.9335C56.2186 58.6482 55.2997 59.2788 54.3448 59.8253C53.3898 60.3718 52.3388 60.7622 51.2818 60.8463C49.1257 60.9664 46.8915 60.2577 45.2099 58.9004C43.5162 57.5551 42.4051 55.4771 42.4291 53.321C42.4051 51.1649 43.5162 49.0868 45.2099 47.7415C46.8915 46.3782 49.1257 45.6755 51.2818 45.7956C52.3388 45.8797 53.3898 46.2701 54.3448 46.8166C55.3057 47.3572 56.2246 47.9938 57.0834 48.7025C57.9483 49.4052 58.7831 50.1559 59.5698 50.9487C59.9662 51.345 60.3506 51.7474 60.729 52.1618L61.2875 52.7865L61.5638 53.1048L61.6959 53.2669L61.738 53.315L61.6959 53.363L61.5638 53.5252L61.5578 53.5312ZM78.7345 58.9064C77.0529 60.2697 74.8187 60.9724 72.6626 60.8523C71.6056 60.7682 70.5545 60.3778 69.5996 59.8313C68.6387 59.2908 67.7198 58.6542 66.8609 57.9455C65.9961 57.2428 65.1613 56.4921 64.3745 55.6993C63.9781 55.3029 63.5938 54.9005 63.2154 54.4861L62.6569 53.8615L62.3806 53.5432L62.2485 53.381L62.2064 53.333L62.2485 53.2849L62.3806 53.1228L62.6569 52.8045L63.2154 52.1799C63.5938 51.7655 63.9841 51.3631 64.3745 50.9667C65.1673 50.1739 65.9961 49.4232 66.8609 48.7205C67.7198 48.0058 68.6387 47.3752 69.5936 46.8286C70.5485 46.2821 71.5996 45.8917 72.6566 45.8077C74.8127 45.6875 77.0469 46.3962 78.7285 47.7535C80.4222 49.0989 81.5332 51.1769 81.5092 53.333C81.5332 55.4891 80.4222 57.5671 78.7285 58.9124L78.7345 58.9064Z" fill="white"/>
<path d="M160.534 62.846V36.0359H166.852V46.2999H180.45V36.0359H186.768V62.846H180.45V50.3959H166.852V62.846H160.534Z" fill="white"/>
<path d="M197.074 50.8224L187.999 36.036L195.927 36L205.002 50.8224H197.074ZM204.389 62.8462V50.324L213.506 36.036H221.434L210.521 53.0026V62.8462H204.395H204.389Z" fill="white"/>
<path d="M223.422 36.0359H236.598C239.511 36.0359 241.992 36.4923 244.046 37.4172C246.1 38.3361 247.643 39.5493 248.682 41.0568C249.715 42.5643 250.232 44.1618 250.232 45.8434C250.232 47.5251 249.715 49.1226 248.682 50.6301C247.649 52.1376 246.106 53.3508 244.046 54.2697C241.992 55.1885 239.505 55.645 236.598 55.645H229.74V62.846H223.422V36.0359ZM240.604 48.7323C241.715 48.4139 242.544 47.9995 243.091 47.489C243.637 46.9785 243.914 46.432 243.914 45.8434C243.914 45.2549 243.637 44.7083 243.091 44.1978C242.544 43.6873 241.709 43.2729 240.604 42.9546C239.493 42.6363 238.16 42.4742 236.604 42.4742H229.746V49.2127H236.604C238.16 49.2127 239.493 49.0506 240.604 48.7323Z" fill="white"/>
<path d="M279.15 62.846H252.226V36.0359H279.15V42.4321H258.544V46.2639H277.006V50.3598H258.544V56.4498H279.15V62.846Z" fill="white"/>
</g>
</svg>
