<svg width="310" height="105" viewBox="0 0 310 105" fill="none" xmlns="http://www.w3.org/2000/svg">
<rect width="310" height="105" rx="15" fill="#072723"/>
<mask id="mask0_4167_201" style="mask-type:luminance" maskUnits="userSpaceOnUse" x="93" y="19" width="124" height="68">
<path d="M217 19.6968H93.6191V86.3034H217V19.6968Z" fill="white"/>
</mask>
<g mask="url(#mask0_4167_201)">
<path d="M206.403 48.2809L191.761 47.2277C191.608 47.2169 191.449 47.1092 191.374 46.9661L188.09 40.6819C187.908 40.3319 187.389 40.3319 187.453 40.6819L188.606 46.9869C188.63 47.1192 188.56 47.2235 188.431 47.2457L182.296 48.2845C181.955 48.3419 182.133 48.8452 182.514 48.9026L189.381 49.9414C189.526 49.963 189.67 50.0672 189.739 50.1995L193.034 56.5044C193.216 56.8545 193.735 56.8545 193.672 56.5044L192.523 50.2204C192.497 50.078 192.58 49.9694 192.725 49.9586L206.624 48.9056C207.012 48.8761 206.811 48.3104 206.403 48.2809Z" fill="#002823"/>
<path d="M140.931 43.5675C141.421 44.957 142.98 46.0834 144.413 46.0834C145.845 46.0834 146.609 44.957 146.119 43.5675L146.115 43.5559C145.625 42.1665 144.066 41.04 142.633 41.04C141.201 41.04 140.437 42.1665 140.927 43.5559L140.931 43.5675Z" fill="#002823"/>
<path d="M212.172 47.3649C211.671 45.9438 210.651 44.7369 209.388 43.9109C210.997 40.6402 211.457 37.5097 210.536 34.6925C206.531 22.4477 178.223 20.7181 147.308 30.8294C143.567 32.0529 139.962 33.3964 136.518 34.8298H133.959C132.687 34.8298 131.521 35.2144 130.579 35.903C129.46 35.2337 128.191 34.8298 126.895 34.8298H111.318C109.434 34.8298 107.767 35.6579 106.745 37.1027C105.709 38.5656 105.484 40.449 106.127 42.2698L109.158 50.8649C100.811 58.0045 96.6355 65.3519 98.5836 71.3089C102.588 83.5537 130.896 85.2833 161.812 75.172C172.52 71.6698 182.133 67.2058 189.962 62.3586H201.92C203.804 62.3586 205.471 61.5305 206.493 60.0864C207.528 58.6242 207.754 56.7408 207.112 54.92L206.95 54.4606L207.685 54.4046C209.36 54.2773 210.819 53.4392 211.689 52.105C212.578 50.7428 212.753 49.0146 212.172 47.3649ZM157.509 33.5444C179.251 26.4337 199 27.1611 201.619 35.1691C202.035 36.4385 201.985 37.8166 201.536 39.2622C200.357 36.6679 197.636 34.829 194.817 34.829H179.239C178.052 34.829 176.952 35.159 176.044 35.7643C175.066 35.1812 173.957 34.829 172.824 34.829H166.332C165.161 34.829 164.08 35.1842 163.212 35.8318C162.202 35.1979 161.032 34.829 159.847 34.829H155.95C154.836 34.829 153.806 35.1554 152.961 35.7448C152.73 35.6191 152.493 35.5148 152.251 35.4134C153.958 34.76 155.711 34.1332 157.509 33.5444ZM133.959 38.5239H149.535C150.968 38.5239 152.526 39.6504 153.017 41.0398L154.796 46.0833C155.285 47.4728 154.522 48.5993 153.089 48.5993H145.3C143.867 48.5993 143.103 49.7257 143.593 51.1151L144.48 53.6318C144.971 55.0213 146.529 56.1478 147.962 56.1478C149.394 56.1478 150.158 55.0213 149.668 53.6318C149.179 52.2424 149.942 51.1159 151.375 51.1159H153.976C155.408 51.1159 156.967 52.2424 157.456 53.6318L158.344 56.1485C158.833 57.538 158.07 58.6644 156.637 58.6644H141.06C139.627 58.6644 138.069 57.538 137.579 56.1485L132.251 41.0413C131.761 39.6517 132.525 38.5254 133.958 38.5254L133.959 38.5239ZM121.02 58.663H118.419C116.987 58.663 115.428 57.5367 114.939 56.1471L109.611 41.0391C109.121 39.6496 109.885 38.5231 111.318 38.5231H126.895C128.328 38.5231 129.886 39.6496 130.376 41.0391L135.704 56.1471C136.194 57.5367 135.43 58.663 133.997 58.663H131.397C129.964 58.663 128.406 57.5367 127.916 56.1471L123.476 43.5558C122.986 42.1663 121.427 41.0398 119.995 41.0398C118.563 41.0398 117.798 42.1663 118.288 43.5558L122.728 56.1471C123.218 57.5367 122.453 58.663 121.02 58.663ZM166.995 62.5455C146.174 69.3551 127.192 68.972 123.32 61.895C124.229 61.5104 125.016 60.9008 125.593 60.0856C125.674 59.9706 125.75 59.8534 125.821 59.7342C127.222 61.335 129.287 62.3579 131.396 62.3579H133.997C135.268 62.3579 136.434 61.9733 137.376 61.2846C138.495 61.9539 139.765 62.3579 141.06 62.3579H156.637C157.824 62.3579 158.924 62.028 159.832 61.4226C160.81 62.0057 161.919 62.3579 163.052 62.3579H166.949C167.206 62.3579 167.456 62.3342 167.703 62.3004C167.384 62.4125 167.13 62.501 166.995 62.5455ZM179.926 58.663H173.435C172.361 58.663 171.192 57.8184 170.824 56.776L170.159 54.8891C169.914 54.1947 169.134 53.6311 168.418 53.6311C167.701 53.6311 167.319 54.1939 167.565 54.8891L168.23 56.776C168.597 57.8184 168.025 58.663 166.95 58.663H163.053C161.979 58.663 160.81 57.8184 160.442 56.776L154.671 40.4116C154.304 39.3693 154.877 38.5246 155.952 38.5246H159.848C160.923 38.5246 162.092 39.3693 162.46 40.4116L165.791 49.8572C166.036 50.5523 166.815 51.1151 167.532 51.1151C168.247 51.1151 168.63 50.5523 168.385 49.8572L165.054 40.4116C164.686 39.3693 165.259 38.5246 166.334 38.5246H172.825C173.9 38.5246 175.069 39.3693 175.437 40.4116C175.58 40.8199 175.584 41.2167 175.447 41.5438L172.692 48.0968C172.169 49.3411 173.711 51.1159 175.314 51.1159H177.265C178.339 51.1159 179.509 51.9605 179.877 53.0029L181.207 56.7768C181.575 57.8191 181.001 58.663 179.926 58.663ZM207.406 50.7197L201.861 51.1396L203.626 56.1463C204.116 57.5359 203.352 58.6623 201.92 58.6623H186.343C184.91 58.6623 183.351 57.5359 182.862 56.1463L177.533 41.0391C177.043 39.6496 177.807 38.5231 179.24 38.5231H194.817C196.25 38.5231 197.808 39.6496 198.299 41.0391L200.064 46.0458L205.906 46.4657C207.094 46.5512 208.29 47.4656 208.687 48.5921C209.085 49.7192 208.534 50.6336 207.406 50.7197Z" fill="#002823"/>
<path d="M124.593 83.4279C109.28 83.4279 99.4964 79.3018 97.0458 71.8086C95.1388 65.9766 98.2679 58.7953 105.857 51.5874C106.68 50.8068 106.966 49.6156 106.589 48.5467L104.587 42.8701C103.756 40.5144 104.06 38.0595 105.423 36.1344C106.772 34.2282 108.951 33.1348 111.401 33.1348H126.946C127.83 33.1348 128.725 33.2829 129.607 33.5746C129.901 33.6717 130.205 33.7206 130.511 33.7206C130.834 33.7206 131.156 33.666 131.465 33.5574C132.263 33.2764 133.115 33.1348 133.996 33.1348H135.636C136.009 33.1348 136.379 33.0622 136.725 32.9213C140.004 31.5806 143.388 30.3377 146.78 29.2286C159.9 24.937 173.302 22.5742 184.517 22.5742C199.83 22.5742 209.612 26.7004 212.063 34.1929C212.843 36.5787 212.807 39.1709 211.956 41.8967C211.676 42.7939 211.852 43.7701 212.427 44.5133C212.975 45.2228 213.399 45.9928 213.683 46.8014C214.445 48.9608 214.202 51.2403 213.018 53.0561C212.396 54.0085 211.573 54.7647 210.571 55.3046C209.716 55.7646 209.152 56.6252 209.07 57.5927C208.962 58.8608 208.533 60.0325 207.796 61.0741C206.447 62.9804 204.268 64.0738 201.818 64.0738H191.18C190.657 64.0738 190.145 64.2161 189.697 64.4857C181.75 69.2688 172.287 73.5186 162.331 76.775C149.21 81.0665 135.808 83.4301 124.594 83.4301L124.593 83.4279Z" fill="#002823"/>
<path d="M184.52 24.3053C198.255 24.3053 208.172 27.8585 210.419 34.7299C211.338 37.5414 210.88 40.6655 209.274 43.9291C210.535 44.7535 211.552 45.9576 212.051 47.3758C212.632 49.0221 212.456 50.7465 211.569 52.1058C210.7 53.4378 209.244 54.2739 207.573 54.4011L206.839 54.4565L207.001 54.9144C207.641 56.7317 207.416 58.6106 206.383 60.07C205.363 61.5112 203.7 62.3371 201.82 62.3371H189.887C182.074 67.1742 172.48 71.6289 161.794 75.124C148.291 79.5406 135.286 81.6927 124.595 81.6927C110.861 81.6927 100.944 78.1395 98.6969 71.268C96.7532 65.3239 100.92 57.9917 109.25 50.8665L106.225 42.2893C105.584 40.472 105.808 38.5923 106.841 37.1331C107.862 35.6918 109.525 34.8651 111.405 34.8651H126.95C128.244 34.8651 129.51 35.2683 130.627 35.9361C131.567 35.249 132.731 34.8651 133.999 34.8651H136.553C139.992 33.4347 143.588 32.094 147.322 30.8726C160.824 26.4561 173.83 24.3039 184.52 24.3039M152.962 35.7801C153.806 35.1921 154.834 34.8666 155.946 34.8666H159.835C161.019 34.8666 162.186 35.2346 163.193 35.8671C164.059 35.2209 165.139 34.8666 166.307 34.8666H172.785C173.915 34.8666 175.022 35.2173 175.998 35.7996C176.904 35.1965 178.002 34.8666 179.187 34.8666H194.732C197.545 34.8666 200.26 36.701 201.437 39.2903C201.884 37.8476 201.934 36.4725 201.52 35.2059C200.111 30.9 193.739 28.7032 184.768 28.7032C177.089 28.7032 167.507 30.3119 157.5 33.5848C155.705 34.1721 153.957 34.7976 152.254 35.4495C152.494 35.5509 152.733 35.6543 152.962 35.7801ZM186.275 58.6517H201.82C203.25 58.6517 204.013 57.5273 203.523 56.1407L201.761 51.144L207.295 50.7249C208.421 50.6394 208.97 49.7272 208.574 48.603C208.177 47.4787 206.984 46.5664 205.797 46.4809L199.968 46.0618L198.206 41.0651C197.717 39.6785 196.162 38.5542 194.732 38.5542H179.187C177.758 38.5542 176.995 39.6785 177.484 41.0651L182.801 56.1414C183.29 57.5281 184.845 58.6517 186.275 58.6517ZM167.503 51.1188C166.788 51.1188 166.01 50.5567 165.766 49.8637L162.442 40.4375C162.075 39.3974 160.909 38.5542 159.836 38.5542H155.947C154.875 38.5542 154.303 39.3974 154.67 40.4375L160.429 56.7683C160.796 57.8084 161.962 58.6517 163.035 58.6517H166.924C167.996 58.6517 168.569 57.8084 168.202 56.7683L167.538 54.8849C167.293 54.1919 167.674 53.6298 168.39 53.6298C169.105 53.6298 169.883 54.1919 170.127 54.8849L170.791 56.7683C171.158 57.8084 172.324 58.6517 173.397 58.6517H179.875C180.947 58.6517 181.519 57.8084 181.153 56.7683L179.825 53.0022C179.458 51.9621 178.291 51.1188 177.219 51.1188H175.271C173.671 51.1188 172.133 49.3476 172.654 48.1062L175.403 41.5669C175.54 41.2406 175.536 40.8444 175.393 40.4369C175.027 39.3967 173.86 38.5535 172.787 38.5535H166.31C165.237 38.5535 164.665 39.3967 165.032 40.4369L168.356 49.863C168.601 50.5567 168.219 51.1182 167.504 51.1182M141.086 58.6517H156.631C158.061 58.6517 158.824 57.5273 158.335 56.1407L157.449 53.6298C156.961 52.2432 155.405 51.1188 153.976 51.1188H151.38C149.95 51.1188 149.189 52.2432 149.677 53.6298C150.167 55.0172 149.404 56.1407 147.974 56.1407C146.545 56.1407 144.99 55.0164 144.5 53.6298L143.615 51.1188C143.126 49.7322 143.888 48.6087 145.318 48.6087H153.09C154.52 48.6087 155.283 47.4844 154.794 46.0984L153.019 41.0651C152.53 39.6785 150.975 38.5542 149.545 38.5542H134C132.57 38.5542 131.808 39.6785 132.296 41.0651L137.613 56.1414C138.103 57.5281 139.657 58.6517 141.086 58.6517ZM118.492 58.6517H121.087C122.517 58.6517 123.279 57.5273 122.79 56.1414L118.359 43.576C117.87 42.1894 118.633 41.0658 120.062 41.0658C121.492 41.0658 123.047 42.1901 123.536 43.576L127.968 56.1414C128.456 57.5281 130.012 58.6517 131.441 58.6517H134.037C135.466 58.6517 136.229 57.5273 135.74 56.1414L130.423 41.0651C129.934 39.6785 128.379 38.555 126.95 38.555H111.405C109.975 38.555 109.212 39.6792 109.701 41.0651L115.018 56.1414C115.507 57.5281 117.063 58.6517 118.492 58.6517ZM139.713 67.405C147.389 67.405 156.964 65.7976 166.967 62.5255C167.102 62.4809 167.357 62.3925 167.675 62.281C167.428 62.3141 167.178 62.3386 166.922 62.3386H163.033C161.903 62.3386 160.796 61.987 159.819 61.4056C158.914 62.0086 157.816 62.3386 156.631 62.3386H141.086C139.793 62.3386 138.526 61.9354 137.409 61.2676C136.469 61.9547 135.305 62.3386 134.037 62.3386H131.441C129.336 62.3386 127.275 61.3178 125.878 59.7206C125.807 59.8399 125.73 59.957 125.65 60.0713C125.075 60.8843 124.29 61.4932 123.382 61.8763C125.386 65.5389 131.447 67.405 139.713 67.405ZM187.61 40.4462C187.755 40.4462 187.929 40.5332 188.02 40.7078L191.297 46.9791C191.371 47.1214 191.531 47.2292 191.683 47.2399L206.295 48.291C206.703 48.3204 206.902 48.8854 206.515 48.9142L192.645 49.9651C192.5 49.9759 192.417 50.0838 192.444 50.2261L193.59 56.4972C193.622 56.672 193.509 56.759 193.364 56.759C193.22 56.759 193.045 56.672 192.954 56.4972L189.667 50.2053C189.598 50.073 189.454 49.9695 189.309 49.9471L182.457 48.9106C182.076 48.853 181.899 48.3505 182.239 48.2931L188.361 47.2565C188.49 47.235 188.56 47.1307 188.536 46.9984L187.386 40.7064C187.354 40.5317 187.467 40.4447 187.611 40.4447M142.657 41.0644C144.087 41.0644 145.643 42.1886 146.131 43.5754L146.136 43.5868C146.624 44.9735 145.862 46.0978 144.433 46.0978C143.004 46.0978 141.447 44.9735 140.958 43.5868L140.954 43.5754C140.465 42.1886 141.228 41.0644 142.657 41.0644ZM184.52 19.6968C173.011 19.6968 159.291 22.1107 145.889 26.4942C142.428 27.6263 138.985 28.8908 135.64 30.258H133.999C132.789 30.258 131.615 30.4571 130.515 30.8439C129.348 30.4571 128.146 30.258 126.95 30.258H111.405C108.01 30.258 104.975 31.7942 103.08 34.4727C101.171 37.1697 100.734 40.5785 101.879 43.8254L103.881 49.503C95.4176 57.5403 92.0268 65.7021 94.3163 72.7029C97.1852 81.4735 107.938 86.3034 124.595 86.3034C136.105 86.3034 149.825 83.8896 163.227 79.5061C173.41 76.1756 183.044 71.8454 191.182 66.9471H201.82C205.216 66.9471 208.25 65.4109 210.145 62.7332C211.184 61.2646 211.788 59.5847 211.936 57.8343C213.338 57.0795 214.538 55.989 215.429 54.6246C217.106 52.0533 217.459 48.853 216.398 45.8433C216.008 44.7391 215.433 43.6946 214.703 42.7523C215.738 39.4398 215.771 36.2712 214.799 33.2973C211.931 24.5267 201.177 19.6968 184.52 19.6968ZM183.112 43.1627H183.147L183.186 43.3754L183.112 43.1627Z" fill="#EBFEF9"/>
<g style="mix-blend-mode:darken">
<path d="M216.398 45.844C216.008 44.7398 215.433 43.6954 214.703 42.7529C215.738 39.4406 215.771 36.2718 214.799 33.298C211.931 24.5267 201.177 19.6968 184.52 19.6968C173.01 19.6968 159.291 22.1107 145.889 26.4942C142.428 27.6263 138.985 28.8908 135.64 30.258H133.999C132.789 30.258 131.615 30.4571 130.515 30.8439C129.348 30.4571 128.146 30.258 126.95 30.258H111.405C108.01 30.258 104.975 31.7942 103.08 34.4727C101.171 37.1697 100.734 40.5785 101.879 43.8254L103.881 49.503C95.4176 57.5403 92.0268 65.7021 94.3163 72.7029C97.1852 81.4735 107.938 86.3034 124.595 86.3034C136.105 86.3034 149.825 83.8896 163.227 79.5061C173.41 76.1756 183.044 71.8454 191.182 66.9471H201.82C205.216 66.9471 208.25 65.4109 210.145 62.7332C211.184 61.2646 211.788 59.584 211.936 57.8343C213.338 57.0795 214.538 55.989 215.429 54.6246C217.106 52.0527 217.459 48.853 216.398 45.844Z" fill="url(#paint0_linear_4167_201)"/>
</g>
</g>
<defs>
<linearGradient id="paint0_linear_4167_201" x1="93.6191" y1="53.0002" x2="217" y2="53.0002" gradientUnits="userSpaceOnUse">
<stop stop-color="#85CBFF"/>
<stop offset="0.092" stop-color="#7797F3"/>
<stop offset="0.188" stop-color="#DA67ED"/>
<stop offset="0.257" stop-color="#94E0FE"/>
<stop offset="0.343" stop-color="#94FEE3"/>
<stop offset="0.466" stop-color="#F09DD2"/>
<stop offset="0.664" stop-color="#B27FFF"/>
<stop offset="0.796" stop-color="#7A74F3"/>
<stop offset="1" stop-color="#94FEE3"/>
</linearGradient>
</defs>
</svg>
