<svg width="313" height="105" viewBox="0 0 313 105" fill="none" xmlns="http://www.w3.org/2000/svg">
<rect width="313" height="105" rx="15" fill="#072723"/>
<mask id="mask0_4167_178" style="mask-type:luminance" maskUnits="userSpaceOnUse" x="88" y="29" width="48" height="48">
<path d="M135.6 29H88V76.6H135.6V29Z" fill="white"/>
</mask>
<g mask="url(#mask0_4167_178)">
<path d="M135.6 52.8C135.6 65.9 124.9 76.6 111.8 76.6C98.7 76.6 88 65.9 88 52.8C88 39.7 98.7 29 111.8 29C124.9 29 135.6 39.7 135.6 52.8Z" fill="url(#paint0_linear_4167_178)"/>
<path fill-rule="evenodd" clip-rule="evenodd" d="M111.8 39.8999C104.7 39.8999 98.8999 45.6999 98.8999 52.7999C98.8999 53.4999 98.9999 54.1999 99.0999 54.7999C99.1999 55.2999 99.3999 56.1999 99.8999 56.4999C100.5 56.8999 101.2 56.5999 101.8 56.2999C102.3 56.0999 103.6 55.4999 104.2 55.1999C104.3 55.0999 104.7 54.9999 105.1 55.1999C105.6 55.3999 105.7 55.8999 105.7 56.1999C105.7 56.4999 105.5 56.8999 105.1 56.9999C104.8 57.0999 103 57.9999 102.1 58.3999C101.9 58.4999 101.5 58.6999 101.3 59.2999C101.1 59.8999 101.4 60.3999 101.5 60.5999C101.6 60.6999 101.8 60.9999 102.1 61.0999C102.5 61.1999 102.8 61.1999 103.1 61.0999C103.3 60.9999 107.6 58.9999 109.7 57.9999C109.8 57.8999 110.2 57.7999 110.6 57.9999C111.1 58.1999 111.2 58.6999 111.2 58.9999C111.2 59.2999 111 59.6999 110.6 59.8999C110.3 59.9999 107.5 61.3999 106.1 61.9999C105.9 62.0999 105.4 62.4999 105.3 63.1999C105.3 63.9999 105.8 64.3999 106.1 64.4999C106.3 64.5999 106.8 64.6999 107.3 64.4999C107.8 64.2999 112.9 61.8999 115.4 60.6999C115.5 60.5999 115.9 60.4999 116.3 60.6999C116.7 60.8999 116.9 61.2999 116.9 61.5999C116.9 61.8999 116.9 62.0999 116.4 62.4999C116 62.8999 115.4 63.1999 113.3 64.0999C112.6 64.3999 112.1 64.5999 112.2 64.9999C112.3 65.2999 112.5 65.3999 113.1 65.3999C113.8 65.3999 116.9 65.0999 119.9 62.5999C122.6 60.1999 124.3 56.7999 124.3 52.8999C124.3 51.4999 124.1 50.0999 123.6 48.7999C123.8 48.7999 123.7 48.7999 123.5 48.7999C122.8 48.7999 122.3 48.1999 122.3 47.5999C122.3 47.0999 122.6 46.6999 123 46.4999C120.8 42.5999 116.6 39.8999 111.8 39.8999ZM116.6 47.9999C116.6 48.6999 116 49.1999 115.4 49.1999C114.7 49.1999 114.2 48.5999 114.2 47.9999C114.2 47.2999 114.8 46.7999 115.4 46.7999C116 46.7999 116.6 47.3999 116.6 47.9999Z" fill="white"/>
</g>
<path d="M154.3 66.2001C152.2 66.2001 150.4 65.8001 148.8 65.0001C147.3 64.2001 146.1 63.0001 145.2 61.5001C144.4 60.0001 143.9 58.2001 143.9 56.2001C143.9 54.1001 144.3 52.3001 145.2 50.8001C146.1 49.3001 147.3 48.1001 148.8 47.3001C150.4 46.5001 152.2 46.1001 154.2 46.1001C156.3 46.1001 158.1 46.5001 159.6 47.3001C161.1 48.1001 162.3 49.3001 163.2 50.8001C164 52.3001 164.5 54.1001 164.5 56.2001C164.5 58.2001 164.1 60.0001 163.2 61.6001C162.4 63.1001 161.2 64.3001 159.6 65.1001C158.2 65.7001 156.4 66.2001 154.3 66.2001ZM154.3 62.0001C156 62.0001 157.4 61.5001 158.3 60.4001C159.2 59.3001 159.7 57.9001 159.7 56.1001C159.7 54.2001 159.2 52.8001 158.3 51.8001C157.4 50.8001 156 50.2001 154.3 50.2001C152.6 50.2001 151.2 50.7001 150.2 51.8001C149.3 52.8001 148.8 54.3001 148.8 56.1001C148.8 58.0001 149.3 59.4001 150.2 60.5001C151.2 61.4001 152.6 62.0001 154.3 62.0001Z" fill="white"/>
<path d="M167.7 65.8001V38.6001H172.5V53.8001H172.6L180.8 46.3001H186.6L178.2 53.9001L187.3 65.7001H181.6L174.8 56.9001L172.5 58.8001V65.8001H167.7Z" fill="white"/>
<path d="M195.2 65.8001C193.9 65.8001 192.9 65.5001 192.2 64.8001C191.5 64.2001 191.2 63.2001 191.2 61.9001V50.1001H187.8V46.4001H191.3V40.6001H196V46.4001H200.7V50.1001H196.1V62.0001H201.2V65.8001H195.2Z" fill="white"/>
<path d="M213 66.2001C210.9 66.2001 209.1 65.8001 207.5 65.0001C206 64.2001 204.8 63.0001 203.9 61.5001C203.1 60.0001 202.6 58.2001 202.6 56.2001C202.6 54.1001 203 52.3001 203.9 50.8001C204.8 49.3001 206 48.1001 207.5 47.3001C209.1 46.5001 210.9 46.1001 212.9 46.1001C215 46.1001 216.8 46.5001 218.3 47.3001C219.8 48.1001 221 49.3001 221.9 50.8001C222.7 52.3001 223.2 54.1001 223.2 56.2001C223.2 58.2001 222.8 60.0001 221.9 61.6001C221.1 63.1001 219.9 64.3001 218.3 65.1001C216.7 65.9001 215.1 66.2001 213 66.2001ZM213 62.0001C214.7 62.0001 216.1 61.5001 217 60.4001C217.9 59.3001 218.4 57.9001 218.4 56.1001C218.4 54.2001 217.9 52.8001 217 51.8001C216.1 50.8001 214.7 50.2001 213 50.2001C211.3 50.2001 209.9 50.7001 208.9 51.8001C208 52.8001 207.5 54.3001 207.5 56.1001C207.5 58.0001 208 59.4001 208.9 60.5001C209.9 61.4001 211.2 62.0001 213 62.0001Z" fill="white"/>
<defs>
<linearGradient id="paint0_linear_4167_178" x1="111.802" y1="28.9946" x2="111.802" y2="76.6054" gradientUnits="userSpaceOnUse">
<stop stop-color="#6246F5"/>
<stop offset="0.493" stop-color="#5166EE"/>
<stop offset="1" stop-color="#56B9F9"/>
</linearGradient>
</defs>
</svg>
