<svg width="311" height="105" viewBox="0 0 311 105" fill="none" xmlns="http://www.w3.org/2000/svg">
<rect width="311" height="105" rx="15" fill="#072723"/>
<g filter="url(#filter0_ii_4167_219)">
<path d="M35.6797 67.4373V39H52.3509L56.4452 42.9812V51.1469L52.3509 55.1281H48.7158L52.518 51.4313V44.5654L50.7216 42.8189H39.6061V51.3092H46.0406L47.837 49.5627V44.5654L46.7945 43.55H50.3873L51.7662 44.8498V51.1469L47.6719 55.1281H39.6068V63.6184L35.6797 67.4373ZM31 42.8189L34.9278 39V67.4373H31V42.8189Z" fill="white" fill-opacity="0.2"/>
<path d="M35.6797 67.4373V39H52.3509L56.4452 42.9812V51.1469L52.3509 55.1281H48.7158L52.518 51.4313V44.5654L50.7216 42.8189H39.6061V51.3092H46.0406L47.837 49.5627V44.5654L46.7945 43.55H50.3873L51.7662 44.8498V51.1469L47.6719 55.1281H39.6068V63.6184L35.6797 67.4373ZM31 42.8189L34.9278 39V67.4373H31V42.8189Z" fill="url(#paint0_linear_4167_219)" fill-opacity="0.8"/>
<path d="M63.5849 61.5876V42.9812L67.6792 39H80.2562L84.3504 42.9812V63.4561L80.2562 67.4373H76.621L80.4226 63.7405V44.5654L78.6262 42.8189H69.3092L67.5128 44.5654V61.8719L68.5566 62.8874H64.9222L63.5849 61.5876ZM62.9996 39H66.6347L62.8324 42.6969V61.8719L64.6288 63.6184H73.9472L75.7436 61.8719V44.5654L74.6998 43.55H78.2926L79.6715 44.8498V63.4561L75.5772 67.4373H62.9996L58.9053 63.4561V42.9812L62.9996 39Z" fill="white" fill-opacity="0.2"/>
<path d="M63.5849 61.5876V42.9812L67.6792 39H80.2562L84.3504 42.9812V63.4561L80.2562 67.4373H76.621L80.4226 63.7405V44.5654L78.6262 42.8189H69.3092L67.5128 44.5654V61.8719L68.5566 62.8874H64.9222L63.5849 61.5876ZM62.9996 39H66.6347L62.8324 42.6969V61.8719L64.6288 63.6184H73.9472L75.7436 61.8719V44.5654L74.6998 43.55H78.2926L79.6715 44.8498V63.4561L75.5772 67.4373H62.9996L58.9053 63.4561V42.9812L62.9996 39Z" fill="url(#paint1_linear_4167_219)" fill-opacity="0.8"/>
<path d="M87.957 63.4561V42.9812L92.0513 39H95.6857L91.8842 42.6969V61.8719L93.6806 63.6184H109.474L113.402 67.4373H92.0513L87.957 63.4561ZM92.636 61.5876V42.9812L96.7317 39H113.403L109.475 42.8189H98.3602L96.5638 44.5654V61.8719L97.6084 62.8874H93.9733L92.636 61.5876Z" fill="white" fill-opacity="0.2"/>
<path d="M87.957 63.4561V42.9812L92.0513 39H95.6857L91.8842 42.6969V61.8719L93.6806 63.6184H109.474L113.402 67.4373H92.0513L87.957 63.4561ZM92.636 61.5876V42.9812L96.7317 39H113.403L109.475 42.8189H98.3602L96.5638 44.5654V61.8719L97.6084 62.8874H93.9733L92.636 61.5876Z" fill="url(#paint2_linear_4167_219)" fill-opacity="0.8"/>
<path d="M123.905 39V51.3092H136.649L140.744 55.2904V63.6184L136.817 67.4373V56.8746L135.02 55.1281H123.905V63.6184L119.978 67.4373V39H123.905ZM115.299 67.4373V42.8189L119.226 39V67.4373H115.299ZM135.814 39H139.741V51.1469L138.613 52.2435L136.941 50.5782H135.814V39ZM131.092 55.8592H134.685L136.064 57.159V67.4373H132.137V56.8746L131.092 55.8592ZM131.134 49.5627V42.8189L135.062 39V50.5782H130.089L131.134 49.5627Z" fill="white" fill-opacity="0.2"/>
<path d="M123.905 39V51.3092H136.649L140.744 55.2904V63.6184L136.817 67.4373V56.8746L135.02 55.1281H123.905V63.6184L119.978 67.4373V39H123.905ZM115.299 67.4373V42.8189L119.226 39V67.4373H115.299ZM135.814 39H139.741V51.1469L138.613 52.2435L136.941 50.5782H135.814V39ZM131.092 55.8592H134.685L136.064 57.159V67.4373H132.137V56.8746L131.092 55.8592ZM131.134 49.5627V42.8189L135.062 39V50.5782H130.089L131.134 49.5627Z" fill="url(#paint3_linear_4167_219)" fill-opacity="0.8"/>
<path d="M144.061 55.2904L148.156 51.3092H162.612V55.1281H149.785L147.988 56.8746V61.8719L149.785 63.6184H165.579L169.506 67.4373H148.156L144.061 63.4561V55.2904ZM152.835 39H169.506L165.579 42.8189H154.464L152.668 44.5654V50.5782H148.74V42.9812L152.835 39ZM144.061 54.275V42.9812L148.156 39H151.791L147.988 42.6969V50.5782H147.863L144.061 54.275ZM148.74 61.5876V57.1583L150.077 55.8585H153.713L152.668 56.8739V61.8712L153.713 62.8867H150.077L148.74 61.5876Z" fill="white" fill-opacity="0.2"/>
<path d="M144.061 55.2904L148.156 51.3092H162.612V55.1281H149.785L147.988 56.8746V61.8719L149.785 63.6184H165.579L169.506 67.4373H148.156L144.061 63.4561V55.2904ZM152.835 39H169.506L165.579 42.8189H154.464L152.668 44.5654V50.5782H148.74V42.9812L152.835 39ZM144.061 54.275V42.9812L148.156 39H151.791L147.988 42.6969V50.5782H147.863L144.061 54.275ZM148.74 61.5876V57.1583L150.077 55.8585H153.713L152.668 56.8739V61.8712L153.713 62.8867H150.077L148.74 61.5876Z" fill="url(#paint4_linear_4167_219)" fill-opacity="0.8"/>
<path d="M168.773 39H182.687L186.781 42.9812V67.4373H182.854V44.5654L181.057 42.8189H172.7L168.773 39ZM180.722 43.55L182.101 44.8498V67.4373L178.174 63.6184V44.5654L177.13 43.55H180.722ZM183.731 39H192.255L196.182 42.8189H188.578L187.491 43.8343V42.6969L183.731 39Z" fill="white" fill-opacity="0.2"/>
<path d="M168.773 39H182.687L186.781 42.9812V67.4373H182.854V44.5654L181.057 42.8189H172.7L168.773 39ZM180.722 43.55L182.101 44.8498V67.4373L178.174 63.6184V44.5654L177.13 43.55H180.722ZM183.731 39H192.255L196.182 42.8189H188.578L187.491 43.8343V42.6969L183.731 39Z" fill="url(#paint5_linear_4167_219)" fill-opacity="0.8"/>
<path d="M202.481 67.4373V39H219.152L223.247 42.9812V51.1469L219.152 55.1281H215.517L219.32 51.4313V44.5654L217.523 42.8189H206.409V51.3092H212.844L214.64 49.5627V44.5654L213.595 43.55H217.189L218.568 44.8498V51.1469L214.473 55.1281H206.409V63.6184L202.481 67.4373ZM197.802 42.8189L201.729 39V67.4373H197.802V42.8189Z" fill="white" fill-opacity="0.2"/>
<path d="M202.481 67.4373V39H219.152L223.247 42.9812V51.1469L219.152 55.1281H215.517L219.32 51.4313V44.5654L217.523 42.8189H206.409V51.3092H212.844L214.64 49.5627V44.5654L213.595 43.55H217.189L218.568 44.8498V51.1469L214.473 55.1281H206.409V63.6184L202.481 67.4373ZM197.802 42.8189L201.729 39V67.4373H197.802V42.8189Z" fill="url(#paint6_linear_4167_219)" fill-opacity="0.8"/>
<path d="M230.554 39H246.222L250.317 42.9812V51.1469L249.188 52.2435L247.518 50.5782H246.389V44.5654L244.593 42.8189H234.481V51.3092H247.225L251.319 55.2904V63.6184L247.392 67.4373V56.8746L245.596 55.1281H234.481V63.6184L230.554 67.4373V39ZM225.874 67.4373V42.8189L229.802 39V67.4373H225.874ZM245.261 55.8592L246.64 57.159V67.4373H242.712V56.8746L241.668 55.8592H245.261ZM240.665 43.55H244.3L245.637 44.8498V50.5782H240.665L241.709 49.5627V44.5654L240.665 43.55Z" fill="white" fill-opacity="0.2"/>
<path d="M230.554 39H246.222L250.317 42.9812V51.1469L249.188 52.2435L247.518 50.5782H246.389V44.5654L244.593 42.8189H234.481V51.3092H247.225L251.319 55.2904V63.6184L247.392 67.4373V56.8746L245.596 55.1281H234.481V63.6184L230.554 67.4373V39ZM225.874 67.4373V42.8189L229.802 39V67.4373H225.874ZM245.261 55.8592L246.64 57.159V67.4373H242.712V56.8746L241.668 55.8592H245.261ZM240.665 43.55H244.3L245.637 44.8498V50.5782H240.665L241.709 49.5627V44.5654L240.665 43.55Z" fill="url(#paint7_linear_4167_219)" fill-opacity="0.8"/>
<path d="M259.234 61.5876V42.9812L263.329 39H275.905L280 42.9812V63.4561L275.905 67.4373H272.27L276.072 63.7405V44.5654L274.276 42.8189H264.959L263.161 44.5654V61.8719L264.206 62.8874H260.571L259.234 61.5876ZM258.649 39H262.284L258.482 42.6969V61.8719L260.279 63.6184H269.596L271.393 61.8719V44.5654L270.348 43.55H273.941L275.32 44.8498V63.4561L271.226 67.4373H258.649L254.555 63.4561V42.9812L258.649 39Z" fill="white" fill-opacity="0.2"/>
<path d="M259.234 61.5876V42.9812L263.329 39H275.905L280 42.9812V63.4561L275.905 67.4373H272.27L276.072 63.7405V44.5654L274.276 42.8189H264.959L263.161 44.5654V61.8719L264.206 62.8874H260.571L259.234 61.5876ZM258.649 39H262.284L258.482 42.6969V61.8719L260.279 63.6184H269.596L271.393 61.8719V44.5654L270.348 43.55H273.941L275.32 44.8498V63.4561L271.226 67.4373H258.649L254.555 63.4561V42.9812L258.649 39Z" fill="url(#paint8_linear_4167_219)" fill-opacity="0.8"/>
</g>
<defs>
<filter id="filter0_ii_4167_219" x="31" y="39" width="249" height="30.4373" filterUnits="userSpaceOnUse" color-interpolation-filters="sRGB">
<feFlood flood-opacity="0" result="BackgroundImageFix"/>
<feBlend mode="normal" in="SourceGraphic" in2="BackgroundImageFix" result="shape"/>
<feColorMatrix in="SourceAlpha" type="matrix" values="0 0 0 0 0 0 0 0 0 0 0 0 0 0 0 0 0 0 127 0" result="hardAlpha"/>
<feOffset dy="2"/>
<feGaussianBlur stdDeviation="1"/>
<feComposite in2="hardAlpha" operator="arithmetic" k2="-1" k3="1"/>
<feColorMatrix type="matrix" values="0 0 0 0 1 0 0 0 0 1 0 0 0 0 1 0 0 0 1 0"/>
<feBlend mode="normal" in2="shape" result="effect1_innerShadow_4167_219"/>
<feColorMatrix in="SourceAlpha" type="matrix" values="0 0 0 0 0 0 0 0 0 0 0 0 0 0 0 0 0 0 127 0" result="hardAlpha"/>
<feOffset dy="2"/>
<feGaussianBlur stdDeviation="1"/>
<feComposite in2="hardAlpha" operator="arithmetic" k2="-1" k3="1"/>
<feColorMatrix type="matrix" values="0 0 0 0 1 0 0 0 0 1 0 0 0 0 1 0 0 0 0.3 0"/>
<feBlend mode="normal" in2="effect1_innerShadow_4167_219" result="effect2_innerShadow_4167_219"/>
</filter>
<linearGradient id="paint0_linear_4167_219" x1="31" y1="41.7744" x2="325.777" y2="44.2019" gradientUnits="userSpaceOnUse">
<stop offset="0.025" stop-color="#8B8B8B"/>
<stop offset="0.445" stop-color="#E0E0E0"/>
<stop offset="0.81" stop-color="#797979"/>
<stop offset="1" stop-color="#2A2A2A"/>
</linearGradient>
<linearGradient id="paint1_linear_4167_219" x1="30.9999" y1="41.7744" x2="325.777" y2="44.2019" gradientUnits="userSpaceOnUse">
<stop offset="0.025" stop-color="#8B8B8B"/>
<stop offset="0.445" stop-color="#E0E0E0"/>
<stop offset="0.81" stop-color="#797979"/>
<stop offset="1" stop-color="#2A2A2A"/>
</linearGradient>
<linearGradient id="paint2_linear_4167_219" x1="30.9998" y1="41.7744" x2="325.777" y2="44.2019" gradientUnits="userSpaceOnUse">
<stop offset="0.025" stop-color="#8B8B8B"/>
<stop offset="0.445" stop-color="#E0E0E0"/>
<stop offset="0.81" stop-color="#797979"/>
<stop offset="1" stop-color="#2A2A2A"/>
</linearGradient>
<linearGradient id="paint3_linear_4167_219" x1="30.9999" y1="41.7744" x2="325.777" y2="44.2019" gradientUnits="userSpaceOnUse">
<stop offset="0.025" stop-color="#8B8B8B"/>
<stop offset="0.445" stop-color="#E0E0E0"/>
<stop offset="0.81" stop-color="#797979"/>
<stop offset="1" stop-color="#2A2A2A"/>
</linearGradient>
<linearGradient id="paint4_linear_4167_219" x1="31" y1="41.7744" x2="325.777" y2="44.2019" gradientUnits="userSpaceOnUse">
<stop offset="0.025" stop-color="#8B8B8B"/>
<stop offset="0.445" stop-color="#E0E0E0"/>
<stop offset="0.81" stop-color="#797979"/>
<stop offset="1" stop-color="#2A2A2A"/>
</linearGradient>
<linearGradient id="paint5_linear_4167_219" x1="30.9998" y1="41.7744" x2="325.777" y2="44.202" gradientUnits="userSpaceOnUse">
<stop offset="0.025" stop-color="#8B8B8B"/>
<stop offset="0.445" stop-color="#E0E0E0"/>
<stop offset="0.81" stop-color="#797979"/>
<stop offset="1" stop-color="#2A2A2A"/>
</linearGradient>
<linearGradient id="paint6_linear_4167_219" x1="31" y1="41.7744" x2="325.777" y2="44.202" gradientUnits="userSpaceOnUse">
<stop offset="0.025" stop-color="#8B8B8B"/>
<stop offset="0.445" stop-color="#E0E0E0"/>
<stop offset="0.81" stop-color="#797979"/>
<stop offset="1" stop-color="#2A2A2A"/>
</linearGradient>
<linearGradient id="paint7_linear_4167_219" x1="31.0001" y1="41.7744" x2="325.777" y2="44.2019" gradientUnits="userSpaceOnUse">
<stop offset="0.025" stop-color="#8B8B8B"/>
<stop offset="0.445" stop-color="#E0E0E0"/>
<stop offset="0.81" stop-color="#797979"/>
<stop offset="1" stop-color="#2A2A2A"/>
</linearGradient>
<linearGradient id="paint8_linear_4167_219" x1="30.9998" y1="41.7744" x2="325.777" y2="44.2019" gradientUnits="userSpaceOnUse">
<stop offset="0.025" stop-color="#8B8B8B"/>
<stop offset="0.445" stop-color="#E0E0E0"/>
<stop offset="0.81" stop-color="#797979"/>
<stop offset="1" stop-color="#2A2A2A"/>
</linearGradient>
</defs>
</svg>
