<svg width="37" height="33" viewBox="0 0 37 33" fill="none" xmlns="http://www.w3.org/2000/svg">
<path d="M18.2918 16.3366C19.0295 17.605 19.7192 18.7849 20.4045 19.9691C22.149 22.9827 23.8396 26.0311 25.6554 29.0011C26.7743 30.8319 25.4648 32.5538 23.6054 32.5C19.271 32.3751 14.9294 32.4448 10.5907 32.471C9.41656 32.4782 8.61633 31.9871 8.04599 30.9976C5.558 26.6821 3.07437 22.3623 0.552922 18.0671C-0.142551 16.8829 -0.213844 15.7975 0.525278 14.606C1.49283 13.044 2.39927 11.4442 3.28535 9.83426C3.91389 8.69218 4.83343 8.17491 6.12544 8.20251C7.45818 8.23157 8.79093 8.21995 10.1251 8.20251C10.9355 8.19234 11.6863 8.28679 12.1403 9.06997C12.5986 9.86332 12.2523 10.555 11.8522 11.2437C9.87197 14.6525 7.89467 18.0628 5.92174 21.4759C4.9571 23.1454 5.69331 24.4183 7.6095 24.4125C8.91897 24.4096 10.2284 24.3674 11.535 24.4226C12.9827 24.4837 13.959 23.8967 14.6486 22.6224C15.6715 20.7305 16.7845 18.8852 17.8597 17.0224C17.9761 16.8204 18.1071 16.6272 18.2918 16.3351L18.2918 16.3366Z" fill="black"/>
<path d="M18.2728 16.6562C15.9987 12.7229 13.7974 8.91301 11.596 5.10463C11.3181 4.62368 11.0184 4.1529 10.7652 3.65742C9.98681 2.139 10.9005 0.526145 12.5941 0.515973C17.1511 0.488366 21.708 0.50435 26.2664 0.513068C27.4289 0.515974 28.104 1.23958 28.638 2.16952C30.4931 5.3996 32.3583 8.62241 34.2178 11.8496C34.8696 12.9815 35.5098 14.1207 36.1762 15.2424C36.7334 16.1811 36.7538 17.1008 36.2009 18.0496C35.1664 19.8267 34.1407 21.6081 33.1237 23.3953C32.5926 24.3282 31.7764 24.7641 30.7331 24.7772C29.1822 24.796 27.6297 24.8048 26.0787 24.7772C24.4492 24.7466 23.7391 23.4186 24.567 21.9946C26.5327 18.6062 28.4998 15.2177 30.4654 11.8278C30.5746 11.6389 30.6822 11.45 30.7841 11.2567C31.5188 9.85603 30.835 8.62386 29.2549 8.58172C27.7054 8.54104 26.1529 8.5701 24.6019 8.57591C23.5209 8.58027 22.7047 9.02635 22.159 9.98535C21.0227 11.9833 19.8617 13.9666 18.7093 15.9544C18.5915 16.1578 18.462 16.354 18.2728 16.6591L18.2728 16.6562Z" fill="black"/>
</svg>
