<svg width="649" height="208" viewBox="0 0 649 208" fill="none" xmlns="http://www.w3.org/2000/svg">
<g clip-path="url(#clip0_4167_129)">
<rect y="0.969971" width="648.5" height="206.94" rx="24" fill="#D1EFE8"/>
<path d="M62.7987 54.7955C62.7987 57.8287 62.2439 60.4366 61.1341 62.6191C60.0244 64.7923 58.5032 66.4661 56.5704 67.6406C54.6468 68.8058 52.4598 69.3884 50.0091 69.3884C47.5492 69.3884 45.3529 68.8058 43.4201 67.6406C41.4965 66.4661 39.9799 64.7876 38.8702 62.6052C37.7605 60.4227 37.2056 57.8195 37.2056 54.7955C37.2056 51.7622 37.7605 49.1589 38.8702 46.9857C39.9799 44.8033 41.4965 43.1294 43.4201 41.9642C45.3529 40.7897 47.5492 40.2025 50.0091 40.2025C52.4598 40.2025 54.6468 40.7897 56.5704 41.9642C58.5032 43.1294 60.0244 44.8033 61.1341 46.9857C62.2439 49.1589 62.7987 51.7622 62.7987 54.7955ZM58.554 54.7955C58.554 52.4835 58.1795 50.5369 57.4304 48.9555C56.6906 47.3649 55.6733 46.1627 54.3787 45.3489C53.0932 44.5258 51.6367 44.1143 50.0091 44.1143C48.3722 44.1143 46.9111 44.5258 45.6257 45.3489C44.3402 46.1627 43.323 47.3649 42.5739 48.9555C41.8341 50.5369 41.4642 52.4835 41.4642 54.7955C41.4642 57.1074 41.8341 59.0587 42.5739 60.6493C43.323 62.2306 44.3402 63.4329 45.6257 64.2559C46.9111 65.0697 48.3722 65.4766 50.0091 65.4766C51.6367 65.4766 53.0932 65.0697 54.3787 64.2559C55.6733 63.4329 56.6906 62.2306 57.4304 60.6493C58.1795 59.0587 58.554 57.1074 58.554 54.7955ZM69.9575 56.3491V69H65.8099V47.6932H69.791V51.1611H70.0546C70.5447 50.0329 71.3123 49.1266 72.3573 48.4422C73.4115 47.7579 74.7386 47.4157 76.3384 47.4157C77.7903 47.4157 79.0619 47.7209 80.1531 48.3313C81.2444 48.9324 82.0905 49.8294 82.6916 51.0224C83.2927 52.2153 83.5933 53.6903 83.5933 55.4474V69H79.4457V55.9468C79.4457 54.4024 79.0434 53.1956 78.2388 52.3263C77.4343 51.4478 76.3292 51.0085 74.9235 51.0085C73.9618 51.0085 73.1063 51.2166 72.3573 51.6327C71.6175 52.0489 71.0302 52.6592 70.5956 53.4638C70.1702 54.2591 69.9575 55.2209 69.9575 56.3491ZM87.4887 69V40.5909H91.6363V51.1472H91.886C92.1265 50.7033 92.4733 50.1901 92.9264 49.6075C93.3795 49.0249 94.0084 48.5162 94.8129 48.0816C95.6175 47.6377 96.681 47.4157 98.0034 47.4157C99.7235 47.4157 101.259 47.8504 102.609 48.7197C103.959 49.589 105.018 50.842 105.785 52.4789C106.562 54.1157 106.951 56.0855 106.951 58.3882C106.951 60.6909 106.567 62.6653 105.799 64.3114C105.032 65.9482 103.977 67.2106 102.637 68.0983C101.296 68.9769 99.7651 69.4161 98.045 69.4161C96.7504 69.4161 95.6915 69.1988 94.8684 68.7642C94.0546 68.3295 93.4165 67.8209 92.9542 67.2383C92.4918 66.6557 92.1357 66.1378 91.886 65.6847H91.5392V69H87.4887ZM91.5531 58.3466C91.5531 59.8447 91.7704 61.1579 92.2051 62.2861C92.6397 63.4144 93.2686 64.2975 94.0916 64.9356C94.9147 65.5645 95.9227 65.8789 97.1156 65.8789C98.3548 65.8789 99.3906 65.5506 100.223 64.894C101.055 64.2282 101.684 63.3265 102.109 62.189C102.544 61.0516 102.761 59.7707 102.761 58.3466C102.761 56.9409 102.549 55.6786 102.123 54.5596C101.707 53.4407 101.078 52.5575 100.237 51.9102C99.4045 51.2628 98.3641 50.9391 97.1156 50.9391C95.9134 50.9391 94.8962 51.2489 94.0639 51.8685C93.2408 52.4881 92.6166 53.3528 92.1912 54.4625C91.7658 55.5723 91.5531 56.867 91.5531 58.3466ZM118.583 69.43C116.585 69.43 114.842 68.9723 113.353 68.0567C111.864 67.1412 110.709 65.8604 109.885 64.2143C109.062 62.5682 108.651 60.6447 108.651 58.4437C108.651 56.2335 109.062 54.3007 109.885 52.6454C110.709 50.99 111.864 49.7046 113.353 48.789C114.842 47.8735 116.585 47.4157 118.583 47.4157C120.58 47.4157 122.324 47.8735 123.813 48.789C125.301 49.7046 126.457 50.99 127.28 52.6454C128.104 54.3007 128.515 56.2335 128.515 58.4437C128.515 60.6447 128.104 62.5682 127.28 64.2143C126.457 65.8604 125.301 67.1412 123.813 68.0567C122.324 68.9723 120.58 69.43 118.583 69.43ZM118.597 65.9482C119.892 65.9482 120.964 65.6061 121.815 64.9217C122.666 64.2374 123.295 63.3265 123.702 62.189C124.118 61.0516 124.326 59.7985 124.326 58.4298C124.326 57.0704 124.118 55.822 123.702 54.6845C123.295 53.5378 122.666 52.6176 121.815 51.924C120.964 51.2304 119.892 50.8837 118.597 50.8837C117.293 50.8837 116.211 51.2304 115.351 51.924C114.5 52.6176 113.867 53.5378 113.45 54.6845C113.044 55.822 112.84 57.0704 112.84 58.4298C112.84 59.7985 113.044 61.0516 113.45 62.189C113.867 63.3265 114.5 64.2374 115.351 64.9217C116.211 65.6061 117.293 65.9482 118.597 65.9482ZM137.345 69.4716C135.995 69.4716 134.774 69.2219 133.683 68.7226C132.592 68.2139 131.727 67.4787 131.089 66.517C130.46 65.5552 130.146 64.3761 130.146 62.9797C130.146 61.7775 130.377 60.788 130.84 60.0112C131.302 59.2344 131.926 58.6194 132.712 58.1663C133.498 57.7131 134.377 57.371 135.348 57.1398C136.319 56.9086 137.308 56.7329 138.316 56.6126C139.593 56.4647 140.628 56.3445 141.424 56.252C142.219 56.1502 142.797 55.9884 143.158 55.7665C143.518 55.5445 143.699 55.1839 143.699 54.6845V54.5874C143.699 53.3759 143.356 52.4373 142.672 51.7714C141.997 51.1056 140.989 50.7727 139.648 50.7727C138.252 50.7727 137.151 51.0825 136.347 51.7021C135.551 52.3124 135.001 52.9921 134.696 53.7412L130.798 52.8534C131.26 51.5587 131.935 50.5137 132.823 49.7184C133.72 48.9139 134.751 48.3313 135.917 47.9706C137.082 47.6007 138.307 47.4157 139.593 47.4157C140.443 47.4157 141.345 47.5175 142.297 47.7209C143.259 47.9151 144.156 48.2758 144.989 48.8029C145.83 49.33 146.519 50.0837 147.055 51.064C147.592 52.035 147.86 53.2973 147.86 54.8509V69H143.809V66.087H143.643C143.375 66.6233 142.973 67.1504 142.436 67.6683C141.9 68.1862 141.211 68.6162 140.369 68.9584C139.528 69.3006 138.52 69.4716 137.345 69.4716ZM138.247 66.1424C139.394 66.1424 140.374 65.9159 141.188 65.4627C142.011 65.0096 142.635 64.4177 143.06 63.6872C143.495 62.9473 143.712 62.1567 143.712 61.3151V58.5685C143.564 58.7165 143.278 58.8552 142.852 58.9847C142.436 59.1049 141.96 59.2113 141.424 59.3037C140.887 59.387 140.365 59.4656 139.856 59.5396C139.347 59.6043 138.922 59.6598 138.58 59.706C137.775 59.8077 137.04 59.9788 136.374 60.2193C135.718 60.4597 135.191 60.8065 134.793 61.2596C134.405 61.7035 134.21 62.2954 134.21 63.0352C134.21 64.0617 134.589 64.8385 135.348 65.3656C136.106 65.8835 137.073 66.1424 138.247 66.1424ZM151.384 69V47.6932H155.393V51.0779H155.615C156.004 49.9311 156.688 49.0295 157.668 48.3729C158.658 47.7071 159.777 47.3741 161.025 47.3741C161.284 47.3741 161.589 47.3834 161.941 47.4019C162.301 47.4204 162.583 47.4435 162.787 47.4712V51.4385C162.62 51.3923 162.324 51.3414 161.899 51.2859C161.474 51.2212 161.048 51.1888 160.623 51.1888C159.643 51.1888 158.769 51.3969 158.001 51.8131C157.243 52.22 156.642 52.7887 156.198 53.5193C155.754 54.2406 155.532 55.0636 155.532 55.9884V69H151.384ZM171.589 69.4161C169.869 69.4161 168.334 68.9769 166.984 68.0983C165.643 67.2106 164.589 65.9482 163.821 64.3114C163.063 62.6653 162.684 60.6909 162.684 58.3882C162.684 56.0855 163.068 54.1157 163.835 52.4789C164.612 50.842 165.675 49.589 167.026 48.7197C168.376 47.8504 169.906 47.4157 171.617 47.4157C172.94 47.4157 174.003 47.6377 174.808 48.0816C175.621 48.5162 176.25 49.0249 176.694 49.6075C177.147 50.1901 177.499 50.7033 177.748 51.1472H177.998V40.5909H182.146V69H178.095V65.6847H177.748C177.499 66.1378 177.138 66.6557 176.666 67.2383C176.204 67.8209 175.566 68.3295 174.752 68.7642C173.938 69.1988 172.884 69.4161 171.589 69.4161ZM172.505 65.8789C173.698 65.8789 174.706 65.5645 175.529 64.9356C176.361 64.2975 176.99 63.4144 177.415 62.2861C177.85 61.1579 178.067 59.8447 178.067 58.3466C178.067 56.867 177.855 55.5723 177.429 54.4625C177.004 53.3528 176.38 52.4881 175.557 51.8685C174.734 51.2489 173.716 50.9391 172.505 50.9391C171.256 50.9391 170.216 51.2628 169.384 51.9102C168.552 52.5575 167.923 53.4407 167.497 54.5596C167.081 55.6786 166.873 56.9409 166.873 58.3466C166.873 59.7707 167.086 61.0516 167.511 62.189C167.937 63.3265 168.565 64.2282 169.398 64.894C170.239 65.5506 171.275 65.8789 172.505 65.8789ZM186.065 69V47.6932H190.213V69H186.065ZM188.16 44.4056C187.439 44.4056 186.819 44.1652 186.301 43.6843C185.793 43.1941 185.538 42.6115 185.538 41.9365C185.538 41.2521 185.793 40.6695 186.301 40.1886C186.819 39.6985 187.439 39.4534 188.16 39.4534C188.881 39.4534 189.496 39.6985 190.005 40.1886C190.523 40.6695 190.782 41.2521 190.782 41.9365C190.782 42.6115 190.523 43.1941 190.005 43.6843C189.496 44.1652 188.881 44.4056 188.16 44.4056ZM197.941 56.3491V69H193.793V47.6932H197.774V51.1611H198.038C198.528 50.0329 199.295 49.1266 200.34 48.4422C201.395 47.7579 202.722 47.4157 204.321 47.4157C205.773 47.4157 207.045 47.7209 208.136 48.3313C209.227 48.9324 210.074 49.8294 210.675 51.0224C211.276 52.2153 211.576 53.6903 211.576 55.4474V69H207.429V55.9468C207.429 54.4024 207.026 53.1956 206.222 52.3263C205.417 51.4478 204.312 51.0085 202.907 51.0085C201.945 51.0085 201.089 51.2166 200.34 51.6327C199.6 52.0489 199.013 52.6592 198.579 53.4638C198.153 54.2591 197.941 55.2209 197.941 56.3491ZM224.072 77.4339C222.38 77.4339 220.923 77.212 219.703 76.7681C218.491 76.3242 217.502 75.737 216.734 75.0064C215.967 74.2758 215.393 73.4759 215.014 72.6066L218.579 71.1362C218.829 71.5431 219.162 71.9732 219.578 72.4263C220.003 72.8887 220.577 73.2817 221.298 73.6054C222.028 73.9291 222.967 74.0909 224.114 74.0909C225.686 74.0909 226.985 73.7071 228.012 72.9395C229.038 72.1812 229.551 70.9698 229.551 69.3052V65.1159H229.288C229.038 65.5691 228.678 66.0731 228.206 66.628C227.744 67.1828 227.105 67.6637 226.292 68.0706C225.478 68.4775 224.419 68.681 223.115 68.681C221.432 68.681 219.915 68.2879 218.565 67.5019C217.224 66.7066 216.161 65.5367 215.375 63.9923C214.598 62.4387 214.209 60.5291 214.209 58.2634C214.209 55.9977 214.593 54.0556 215.361 52.4373C216.138 50.8189 217.201 49.5797 218.551 48.7197C219.901 47.8504 221.432 47.4157 223.143 47.4157C224.465 47.4157 225.533 47.6377 226.347 48.0816C227.161 48.5162 227.794 49.0249 228.248 49.6075C228.71 50.1901 229.066 50.7033 229.316 51.1472H229.621V47.6932H233.685V69.4716C233.685 71.3027 233.26 72.8054 232.409 73.9799C231.558 75.1544 230.407 76.0237 228.955 76.5878C227.512 77.1519 225.885 77.4339 224.072 77.4339ZM224.031 65.2408C225.224 65.2408 226.232 64.9634 227.055 64.4085C227.887 63.8444 228.516 63.0398 228.941 61.9948C229.376 60.9406 229.593 59.6783 229.593 58.2079C229.593 56.7745 229.38 55.5122 228.955 54.4209C228.53 53.3297 227.905 52.4789 227.082 51.8685C226.259 51.2489 225.242 50.9391 224.031 50.9391C222.782 50.9391 221.742 51.2628 220.909 51.9102C220.077 52.5483 219.448 53.4175 219.023 54.518C218.607 55.6185 218.399 56.8485 218.399 58.2079C218.399 59.6043 218.611 60.8296 219.037 61.8839C219.462 62.9381 220.091 63.7611 220.923 64.353C221.765 64.9449 222.801 65.2408 224.031 65.2408Z" fill="#072723"/>
<path d="M44.1264 177L75.0568 115.778V115.281H39.1548V104.273H88.6932V115.53L57.7983 177H44.1264ZM123.474 178.385C117.627 178.385 112.608 176.905 108.417 173.946C104.251 170.963 101.043 166.666 98.7937 161.055C96.5683 155.421 95.4556 148.638 95.4556 140.707C95.4793 132.777 96.6038 126.029 98.8292 120.466C101.078 114.879 104.286 110.617 108.453 107.682C112.643 104.746 117.65 103.278 123.474 103.278C129.298 103.278 134.305 104.746 138.495 107.682C142.686 110.617 145.894 114.879 148.119 120.466C150.368 126.053 151.493 132.8 151.493 140.707C151.493 148.662 150.368 155.456 148.119 161.091C145.894 166.702 142.686 170.987 138.495 173.946C134.329 176.905 129.322 178.385 123.474 178.385ZM123.474 167.27C128.02 167.27 131.606 165.033 134.234 160.558C136.886 156.06 138.211 149.443 138.211 140.707C138.211 134.931 137.608 130.078 136.4 126.148C135.193 122.218 133.488 119.259 131.287 117.27C129.085 115.258 126.481 114.251 123.474 114.251C118.952 114.251 115.377 116.5 112.75 120.999C110.122 125.473 108.796 132.043 108.772 140.707C108.749 146.508 109.329 151.384 110.512 155.338C111.72 159.292 113.424 162.275 115.626 164.287C117.828 166.276 120.444 167.27 123.474 167.27ZM182.882 165.352V116.205H194.033V165.352H182.882ZM163.884 146.354V135.203H213.031V146.354H163.884Z" fill="#072723"/>
<path d="M224.278 158V146.364H226.034V151.42H231.835V146.364H233.597V158H231.835V152.926H226.034V158H224.278ZM237.091 161.273C236.837 161.273 236.606 161.252 236.398 161.21C236.189 161.172 236.034 161.131 235.932 161.085L236.341 159.693C236.652 159.777 236.928 159.813 237.17 159.801C237.413 159.79 237.627 159.699 237.812 159.528C238.002 159.358 238.169 159.08 238.312 158.693L238.523 158.114L235.33 149.273H237.148L239.358 156.045H239.449L241.659 149.273H243.483L239.886 159.165C239.72 159.619 239.508 160.004 239.25 160.318C238.992 160.636 238.686 160.875 238.33 161.034C237.973 161.193 237.561 161.273 237.091 161.273ZM245.08 161.273V149.273H246.739V150.688H246.881C246.979 150.506 247.121 150.295 247.307 150.057C247.492 149.818 247.75 149.61 248.08 149.432C248.409 149.25 248.845 149.159 249.386 149.159C250.091 149.159 250.72 149.337 251.273 149.693C251.826 150.049 252.259 150.562 252.574 151.233C252.892 151.903 253.051 152.71 253.051 153.653C253.051 154.597 252.894 155.405 252.58 156.08C252.265 156.75 251.833 157.267 251.284 157.631C250.735 157.991 250.108 158.17 249.403 158.17C248.873 158.17 248.439 158.081 248.102 157.903C247.769 157.725 247.508 157.517 247.318 157.278C247.129 157.04 246.983 156.828 246.881 156.642H246.778V161.273H245.08ZM246.744 153.636C246.744 154.25 246.833 154.788 247.011 155.25C247.189 155.712 247.447 156.074 247.784 156.335C248.121 156.593 248.534 156.722 249.023 156.722C249.53 156.722 249.955 156.587 250.295 156.318C250.636 156.045 250.894 155.676 251.068 155.21C251.246 154.744 251.335 154.22 251.335 153.636C251.335 153.061 251.248 152.544 251.074 152.085C250.903 151.627 250.646 151.265 250.301 151C249.96 150.735 249.534 150.602 249.023 150.602C248.53 150.602 248.114 150.729 247.773 150.983C247.436 151.237 247.18 151.591 247.006 152.045C246.831 152.5 246.744 153.03 246.744 153.636ZM258.716 158.176C257.856 158.176 257.116 157.992 256.494 157.625C255.877 157.254 255.4 156.733 255.062 156.062C254.729 155.388 254.562 154.598 254.562 153.693C254.562 152.799 254.729 152.011 255.062 151.33C255.4 150.648 255.869 150.116 256.472 149.733C257.078 149.35 257.786 149.159 258.597 149.159C259.089 149.159 259.566 149.241 260.028 149.403C260.491 149.566 260.905 149.822 261.273 150.17C261.64 150.519 261.93 150.972 262.142 151.528C262.354 152.081 262.46 152.754 262.46 153.545V154.148H255.523V152.875H260.795C260.795 152.428 260.705 152.032 260.523 151.688C260.341 151.339 260.085 151.064 259.756 150.864C259.43 150.663 259.047 150.562 258.608 150.562C258.131 150.562 257.714 150.68 257.358 150.915C257.006 151.146 256.733 151.449 256.54 151.824C256.35 152.195 256.256 152.598 256.256 153.034V154.028C256.256 154.612 256.358 155.108 256.562 155.517C256.771 155.926 257.061 156.239 257.432 156.455C257.803 156.667 258.237 156.773 258.733 156.773C259.055 156.773 259.348 156.727 259.614 156.636C259.879 156.542 260.108 156.402 260.301 156.216C260.494 156.03 260.642 155.801 260.744 155.528L262.352 155.818C262.223 156.292 261.992 156.706 261.659 157.062C261.33 157.415 260.915 157.689 260.415 157.886C259.919 158.08 259.352 158.176 258.716 158.176ZM264.345 158V149.273H265.987V150.659H266.078C266.237 150.189 266.518 149.82 266.919 149.551C267.324 149.278 267.783 149.142 268.294 149.142C268.4 149.142 268.525 149.146 268.669 149.153C268.817 149.161 268.932 149.17 269.016 149.182V150.807C268.947 150.788 268.826 150.767 268.652 150.744C268.478 150.718 268.304 150.705 268.129 150.705C267.728 150.705 267.37 150.79 267.055 150.96C266.745 151.127 266.499 151.36 266.317 151.659C266.135 151.955 266.044 152.292 266.044 152.67V158H264.345ZM272.185 146.364V158H270.486V146.364H272.185ZM274.47 158V149.273H276.169V158H274.47ZM275.328 147.926C275.033 147.926 274.779 147.828 274.567 147.631C274.358 147.43 274.254 147.191 274.254 146.915C274.254 146.634 274.358 146.396 274.567 146.199C274.779 145.998 275.033 145.898 275.328 145.898C275.624 145.898 275.875 145.998 276.084 146.199C276.296 146.396 276.402 146.634 276.402 146.915C276.402 147.191 276.296 147.43 276.084 147.631C275.875 147.828 275.624 147.926 275.328 147.926ZM284.347 161.273V156.642H284.244C284.142 156.828 283.994 157.04 283.801 157.278C283.612 157.517 283.35 157.725 283.017 157.903C282.684 158.081 282.252 158.17 281.722 158.17C281.017 158.17 280.388 157.991 279.835 157.631C279.286 157.267 278.854 156.75 278.54 156.08C278.229 155.405 278.074 154.597 278.074 153.653C278.074 152.71 278.231 151.903 278.545 151.233C278.864 150.562 279.299 150.049 279.852 149.693C280.405 149.337 281.032 149.159 281.733 149.159C282.275 149.159 282.71 149.25 283.04 149.432C283.373 149.61 283.631 149.818 283.812 150.057C283.998 150.295 284.142 150.506 284.244 150.688H284.386V149.273H286.045V161.273H284.347ZM282.097 156.722C282.585 156.722 282.998 156.593 283.335 156.335C283.676 156.074 283.934 155.712 284.108 155.25C284.286 154.788 284.375 154.25 284.375 153.636C284.375 153.03 284.288 152.5 284.114 152.045C283.939 151.591 283.684 151.237 283.347 150.983C283.009 150.729 282.593 150.602 282.097 150.602C281.585 150.602 281.159 150.735 280.818 151C280.477 151.265 280.22 151.627 280.045 152.085C279.875 152.544 279.79 153.061 279.79 153.636C279.79 154.22 279.877 154.744 280.051 155.21C280.225 155.676 280.483 156.045 280.824 156.318C281.169 156.587 281.593 156.722 282.097 156.722ZM293.858 154.381V149.273H295.562V158H293.892V156.489H293.801C293.6 156.955 293.278 157.343 292.835 157.653C292.396 157.96 291.848 158.114 291.193 158.114C290.633 158.114 290.136 157.991 289.705 157.744C289.277 157.494 288.939 157.125 288.693 156.636C288.451 156.148 288.33 155.544 288.33 154.824V149.273H290.028V154.619C290.028 155.214 290.193 155.687 290.523 156.04C290.852 156.392 291.28 156.568 291.807 156.568C292.125 156.568 292.441 156.489 292.756 156.33C293.074 156.17 293.337 155.93 293.545 155.608C293.758 155.286 293.862 154.877 293.858 154.381ZM297.845 158V149.273H299.544V158H297.845ZM298.703 147.926C298.408 147.926 298.154 147.828 297.942 147.631C297.733 147.43 297.629 147.191 297.629 146.915C297.629 146.634 297.733 146.396 297.942 146.199C298.154 145.998 298.408 145.898 298.703 145.898C298.999 145.898 299.25 145.998 299.459 146.199C299.671 146.396 299.777 146.634 299.777 146.915C299.777 147.191 299.671 147.43 299.459 147.631C299.25 147.828 298.999 147.926 298.703 147.926ZM305.097 158.17C304.392 158.17 303.763 157.991 303.21 157.631C302.661 157.267 302.229 156.75 301.915 156.08C301.604 155.405 301.449 154.597 301.449 153.653C301.449 152.71 301.606 151.903 301.92 151.233C302.239 150.562 302.674 150.049 303.227 149.693C303.78 149.337 304.407 149.159 305.108 149.159C305.65 149.159 306.085 149.25 306.415 149.432C306.748 149.61 307.006 149.818 307.188 150.057C307.373 150.295 307.517 150.506 307.619 150.688H307.722V146.364H309.42V158H307.761V156.642H307.619C307.517 156.828 307.369 157.04 307.176 157.278C306.987 157.517 306.725 157.725 306.392 157.903C306.059 158.081 305.627 158.17 305.097 158.17ZM305.472 156.722C305.96 156.722 306.373 156.593 306.71 156.335C307.051 156.074 307.309 155.712 307.483 155.25C307.661 154.788 307.75 154.25 307.75 153.636C307.75 153.03 307.663 152.5 307.489 152.045C307.314 151.591 307.059 151.237 306.722 150.983C306.384 150.729 305.968 150.602 305.472 150.602C304.96 150.602 304.534 150.735 304.193 151C303.852 151.265 303.595 151.627 303.42 152.085C303.25 152.544 303.165 153.061 303.165 153.636C303.165 154.22 303.252 154.744 303.426 155.21C303.6 155.676 303.858 156.045 304.199 156.318C304.544 156.587 304.968 156.722 305.472 156.722ZM228.295 168.273V169.636H223.364V168.273H228.295ZM224.716 177V167.261C224.716 166.716 224.835 166.263 225.074 165.903C225.313 165.54 225.629 165.269 226.023 165.091C226.417 164.909 226.845 164.818 227.307 164.818C227.648 164.818 227.939 164.847 228.182 164.903C228.424 164.956 228.604 165.006 228.722 165.051L228.324 166.426C228.244 166.403 228.142 166.377 228.017 166.347C227.892 166.312 227.741 166.295 227.562 166.295C227.15 166.295 226.854 166.398 226.676 166.602C226.502 166.807 226.415 167.102 226.415 167.489V177H224.716ZM233.381 177.176C232.563 177.176 231.848 176.989 231.239 176.614C230.629 176.239 230.155 175.714 229.818 175.04C229.481 174.366 229.312 173.578 229.312 172.676C229.312 171.771 229.481 170.979 229.818 170.301C230.155 169.623 230.629 169.097 231.239 168.722C231.848 168.347 232.563 168.159 233.381 168.159C234.199 168.159 234.913 168.347 235.523 168.722C236.133 169.097 236.606 169.623 236.943 170.301C237.28 170.979 237.449 171.771 237.449 172.676C237.449 173.578 237.28 174.366 236.943 175.04C236.606 175.714 236.133 176.239 235.523 176.614C234.913 176.989 234.199 177.176 233.381 177.176ZM233.386 175.75C233.917 175.75 234.356 175.61 234.705 175.33C235.053 175.049 235.311 174.676 235.477 174.21C235.648 173.744 235.733 173.231 235.733 172.67C235.733 172.114 235.648 171.602 235.477 171.136C235.311 170.667 235.053 170.29 234.705 170.006C234.356 169.722 233.917 169.58 233.386 169.58C232.852 169.58 232.409 169.722 232.057 170.006C231.708 170.29 231.449 170.667 231.278 171.136C231.112 171.602 231.028 172.114 231.028 172.67C231.028 173.231 231.112 173.744 231.278 174.21C231.449 174.676 231.708 175.049 232.057 175.33C232.409 175.61 232.852 175.75 233.386 175.75ZM244.874 173.381V168.273H246.578V177H244.908V175.489H244.817C244.616 175.955 244.294 176.343 243.851 176.653C243.411 176.96 242.864 177.114 242.209 177.114C241.648 177.114 241.152 176.991 240.72 176.744C240.292 176.494 239.955 176.125 239.709 175.636C239.466 175.148 239.345 174.544 239.345 173.824V168.273H241.044V173.619C241.044 174.214 241.209 174.687 241.538 175.04C241.868 175.392 242.296 175.568 242.822 175.568C243.141 175.568 243.457 175.489 243.771 175.33C244.089 175.17 244.353 174.93 244.561 174.608C244.773 174.286 244.877 173.877 244.874 173.381ZM250.56 171.818V177H248.861V168.273H250.491V169.693H250.599C250.8 169.231 251.115 168.86 251.543 168.58C251.974 168.299 252.518 168.159 253.173 168.159C253.768 168.159 254.289 168.284 254.736 168.534C255.183 168.78 255.529 169.148 255.776 169.636C256.022 170.125 256.145 170.729 256.145 171.449V177H254.446V171.653C254.446 171.021 254.281 170.527 253.952 170.17C253.622 169.811 253.17 169.631 252.594 169.631C252.2 169.631 251.849 169.716 251.543 169.886C251.24 170.057 250.999 170.307 250.821 170.636C250.647 170.962 250.56 171.356 250.56 171.818ZM261.69 177.17C260.986 177.17 260.357 176.991 259.804 176.631C259.255 176.267 258.823 175.75 258.509 175.08C258.198 174.405 258.043 173.597 258.043 172.653C258.043 171.71 258.2 170.903 258.514 170.233C258.832 169.562 259.268 169.049 259.821 168.693C260.374 168.337 261.001 168.159 261.702 168.159C262.243 168.159 262.679 168.25 263.009 168.432C263.342 168.61 263.599 168.818 263.781 169.057C263.967 169.295 264.111 169.506 264.213 169.688H264.315V165.364H266.014V177H264.355V175.642H264.213C264.111 175.828 263.963 176.04 263.77 176.278C263.58 176.517 263.319 176.725 262.986 176.903C262.652 177.081 262.221 177.17 261.69 177.17ZM262.065 175.722C262.554 175.722 262.967 175.593 263.304 175.335C263.645 175.074 263.902 174.712 264.077 174.25C264.255 173.788 264.344 173.25 264.344 172.636C264.344 172.03 264.257 171.5 264.082 171.045C263.908 170.591 263.652 170.237 263.315 169.983C262.978 169.729 262.562 169.602 262.065 169.602C261.554 169.602 261.128 169.735 260.787 170C260.446 170.265 260.188 170.627 260.014 171.085C259.844 171.544 259.759 172.061 259.759 172.636C259.759 173.22 259.846 173.744 260.02 174.21C260.194 174.676 260.452 175.045 260.793 175.318C261.137 175.587 261.562 175.722 262.065 175.722ZM272.2 177.176C271.34 177.176 270.6 176.992 269.979 176.625C269.361 176.254 268.884 175.733 268.547 175.062C268.214 174.388 268.047 173.598 268.047 172.693C268.047 171.799 268.214 171.011 268.547 170.33C268.884 169.648 269.354 169.116 269.956 168.733C270.562 168.35 271.27 168.159 272.081 168.159C272.573 168.159 273.051 168.241 273.513 168.403C273.975 168.566 274.39 168.822 274.757 169.17C275.125 169.519 275.414 169.972 275.626 170.528C275.839 171.081 275.945 171.754 275.945 172.545V173.148H269.007V171.875H274.28C274.28 171.428 274.189 171.032 274.007 170.688C273.825 170.339 273.57 170.064 273.24 169.864C272.914 169.663 272.532 169.562 272.092 169.562C271.615 169.562 271.198 169.68 270.842 169.915C270.49 170.146 270.217 170.449 270.024 170.824C269.835 171.195 269.74 171.598 269.74 172.034V173.028C269.74 173.612 269.842 174.108 270.047 174.517C270.255 174.926 270.545 175.239 270.916 175.455C271.287 175.667 271.721 175.773 272.217 175.773C272.539 175.773 272.833 175.727 273.098 175.636C273.363 175.542 273.592 175.402 273.786 175.216C273.979 175.03 274.126 174.801 274.229 174.528L275.837 174.818C275.708 175.292 275.477 175.706 275.143 176.062C274.814 176.415 274.399 176.689 273.899 176.886C273.403 177.08 272.837 177.176 272.2 177.176ZM277.83 177V168.273H279.472V169.659H279.562C279.722 169.189 280.002 168.82 280.403 168.551C280.809 168.278 281.267 168.142 281.778 168.142C281.884 168.142 282.009 168.146 282.153 168.153C282.301 168.161 282.417 168.17 282.5 168.182V169.807C282.432 169.788 282.311 169.767 282.136 169.744C281.962 169.718 281.788 169.705 281.614 169.705C281.212 169.705 280.854 169.79 280.54 169.96C280.229 170.127 279.983 170.36 279.801 170.659C279.619 170.955 279.528 171.292 279.528 171.67V177H277.83ZM290.51 170.403L288.97 170.676C288.906 170.479 288.804 170.292 288.663 170.114C288.527 169.936 288.341 169.79 288.107 169.676C287.872 169.562 287.578 169.506 287.226 169.506C286.745 169.506 286.343 169.614 286.021 169.83C285.699 170.042 285.538 170.316 285.538 170.653C285.538 170.945 285.646 171.18 285.862 171.358C286.078 171.536 286.427 171.682 286.908 171.795L288.294 172.114C289.097 172.299 289.696 172.585 290.089 172.972C290.483 173.358 290.68 173.86 290.68 174.477C290.68 175 290.529 175.466 290.226 175.875C289.927 176.28 289.508 176.598 288.97 176.83C288.436 177.061 287.817 177.176 287.112 177.176C286.135 177.176 285.338 176.968 284.72 176.551C284.103 176.131 283.724 175.534 283.584 174.761L285.226 174.511C285.328 174.939 285.538 175.263 285.857 175.483C286.175 175.699 286.589 175.807 287.101 175.807C287.658 175.807 288.103 175.691 288.436 175.46C288.769 175.225 288.936 174.939 288.936 174.602C288.936 174.33 288.834 174.1 288.629 173.915C288.429 173.729 288.12 173.589 287.703 173.494L286.226 173.17C285.411 172.985 284.809 172.689 284.419 172.284C284.033 171.879 283.839 171.366 283.839 170.744C283.839 170.229 283.983 169.778 284.271 169.392C284.559 169.006 284.957 168.705 285.464 168.489C285.972 168.269 286.554 168.159 287.209 168.159C288.152 168.159 288.894 168.364 289.436 168.773C289.978 169.178 290.336 169.722 290.51 170.403ZM300.169 177.165C299.389 177.165 298.716 177.023 298.152 176.739C297.591 176.455 297.16 176.068 296.857 175.58C296.554 175.087 296.402 174.53 296.402 173.909C296.402 173.436 296.5 173.015 296.697 172.648C296.894 172.277 297.169 171.934 297.521 171.619C297.874 171.305 298.281 170.989 298.743 170.67L300.618 169.347C300.936 169.138 301.184 168.919 301.362 168.688C301.54 168.453 301.629 168.163 301.629 167.818C301.629 167.545 301.512 167.284 301.277 167.034C301.042 166.784 300.728 166.659 300.334 166.659C300.061 166.659 299.821 166.725 299.612 166.858C299.408 166.991 299.247 167.161 299.129 167.369C299.016 167.574 298.959 167.79 298.959 168.017C298.959 168.282 299.031 168.549 299.175 168.818C299.322 169.087 299.512 169.366 299.743 169.653C299.974 169.937 300.216 170.233 300.47 170.54L305.874 177H303.953L299.482 171.744C299.107 171.301 298.758 170.884 298.436 170.494C298.114 170.1 297.853 169.703 297.652 169.301C297.455 168.896 297.357 168.458 297.357 167.989C297.357 167.455 297.478 166.981 297.72 166.568C297.966 166.152 298.309 165.826 298.749 165.591C299.188 165.356 299.703 165.239 300.294 165.239C300.893 165.239 301.406 165.356 301.834 165.591C302.266 165.822 302.597 166.131 302.828 166.517C303.063 166.9 303.18 167.318 303.18 167.773C303.18 168.326 303.042 168.814 302.766 169.239C302.493 169.659 302.116 170.045 301.635 170.398L299.3 172.119C298.845 172.453 298.529 172.782 298.351 173.108C298.177 173.43 298.089 173.682 298.089 173.864C298.089 174.197 298.175 174.506 298.345 174.79C298.519 175.074 298.762 175.301 299.072 175.472C299.387 175.642 299.754 175.727 300.175 175.727C300.607 175.727 301.027 175.634 301.436 175.449C301.849 175.259 302.222 174.989 302.555 174.636C302.893 174.284 303.16 173.862 303.357 173.369C303.554 172.877 303.652 172.326 303.652 171.716H305.186C305.186 172.466 305.101 173.1 304.93 173.619C304.76 174.134 304.554 174.555 304.311 174.881C304.072 175.203 303.847 175.455 303.635 175.636C303.567 175.697 303.502 175.758 303.442 175.818C303.381 175.879 303.317 175.939 303.249 176C302.855 176.398 302.377 176.691 301.817 176.881C301.26 177.07 300.711 177.165 300.169 177.165ZM311.575 177V165.364H313.274V169.688H313.376C313.475 169.506 313.617 169.295 313.803 169.057C313.988 168.818 314.246 168.61 314.575 168.432C314.905 168.25 315.34 168.159 315.882 168.159C316.587 168.159 317.215 168.337 317.768 168.693C318.321 169.049 318.755 169.562 319.07 170.233C319.388 170.903 319.547 171.71 319.547 172.653C319.547 173.597 319.39 174.405 319.075 175.08C318.761 175.75 318.329 176.267 317.78 176.631C317.231 176.991 316.604 177.17 315.899 177.17C315.369 177.17 314.935 177.081 314.598 176.903C314.265 176.725 314.003 176.517 313.814 176.278C313.625 176.04 313.479 175.828 313.376 175.642H313.234V177H311.575ZM313.24 172.636C313.24 173.25 313.329 173.788 313.507 174.25C313.685 174.712 313.943 175.074 314.28 175.335C314.617 175.593 315.03 175.722 315.518 175.722C316.026 175.722 316.45 175.587 316.791 175.318C317.132 175.045 317.39 174.676 317.564 174.21C317.742 173.744 317.831 173.22 317.831 172.636C317.831 172.061 317.744 171.544 317.57 171.085C317.399 170.627 317.142 170.265 316.797 170C316.456 169.735 316.03 169.602 315.518 169.602C315.026 169.602 314.609 169.729 314.268 169.983C313.931 170.237 313.676 170.591 313.501 171.045C313.327 171.5 313.24 172.03 313.24 172.636ZM326.983 173.381V168.273H328.688V177H327.017V175.489H326.926C326.725 175.955 326.403 176.343 325.96 176.653C325.521 176.96 324.973 177.114 324.318 177.114C323.758 177.114 323.261 176.991 322.83 176.744C322.402 176.494 322.064 176.125 321.818 175.636C321.576 175.148 321.455 174.544 321.455 173.824V168.273H323.153V173.619C323.153 174.214 323.318 174.687 323.648 175.04C323.977 175.392 324.405 175.568 324.932 175.568C325.25 175.568 325.566 175.489 325.881 175.33C326.199 175.17 326.462 174.93 326.67 174.608C326.883 174.286 326.987 173.877 326.983 173.381ZM330.97 177V168.273H332.669V177H330.97ZM331.828 166.926C331.533 166.926 331.279 166.828 331.067 166.631C330.858 166.43 330.754 166.191 330.754 165.915C330.754 165.634 330.858 165.396 331.067 165.199C331.279 164.998 331.533 164.898 331.828 164.898C332.124 164.898 332.375 164.998 332.584 165.199C332.796 165.396 332.902 165.634 332.902 165.915C332.902 166.191 332.796 166.43 332.584 166.631C332.375 166.828 332.124 166.926 331.828 166.926ZM336.653 165.364V177H334.955V165.364H336.653ZM342.206 177.17C341.501 177.17 340.873 176.991 340.32 176.631C339.77 176.267 339.339 175.75 339.024 175.08C338.714 174.405 338.558 173.597 338.558 172.653C338.558 171.71 338.715 170.903 339.03 170.233C339.348 169.562 339.784 169.049 340.337 168.693C340.89 168.337 341.517 168.159 342.217 168.159C342.759 168.159 343.195 168.25 343.524 168.432C343.857 168.61 344.115 168.818 344.297 169.057C344.482 169.295 344.626 169.506 344.729 169.688H344.831V165.364H346.53V177H344.871V175.642H344.729C344.626 175.828 344.479 176.04 344.286 176.278C344.096 176.517 343.835 176.725 343.501 176.903C343.168 177.081 342.736 177.17 342.206 177.17ZM342.581 175.722C343.07 175.722 343.482 175.593 343.82 175.335C344.161 175.074 344.418 174.712 344.592 174.25C344.77 173.788 344.859 173.25 344.859 172.636C344.859 172.03 344.772 171.5 344.598 171.045C344.424 170.591 344.168 170.237 343.831 169.983C343.494 169.729 343.077 169.602 342.581 169.602C342.07 169.602 341.643 169.735 341.303 170C340.962 170.265 340.704 170.627 340.53 171.085C340.359 171.544 340.274 172.061 340.274 172.636C340.274 173.22 340.361 173.744 340.536 174.21C340.71 174.676 340.967 175.045 341.308 175.318C341.653 175.587 342.077 175.722 342.581 175.722ZM352.716 177.176C351.856 177.176 351.116 176.992 350.494 176.625C349.877 176.254 349.4 175.733 349.062 175.062C348.729 174.388 348.562 173.598 348.562 172.693C348.562 171.799 348.729 171.011 349.062 170.33C349.4 169.648 349.869 169.116 350.472 168.733C351.078 168.35 351.786 168.159 352.597 168.159C353.089 168.159 353.566 168.241 354.028 168.403C354.491 168.566 354.905 168.822 355.273 169.17C355.64 169.519 355.93 169.972 356.142 170.528C356.354 171.081 356.46 171.754 356.46 172.545V173.148H349.523V171.875H354.795C354.795 171.428 354.705 171.032 354.523 170.688C354.341 170.339 354.085 170.064 353.756 169.864C353.43 169.663 353.047 169.562 352.608 169.562C352.131 169.562 351.714 169.68 351.358 169.915C351.006 170.146 350.733 170.449 350.54 170.824C350.35 171.195 350.256 171.598 350.256 172.034V173.028C350.256 173.612 350.358 174.108 350.562 174.517C350.771 174.926 351.061 175.239 351.432 175.455C351.803 175.667 352.237 175.773 352.733 175.773C353.055 175.773 353.348 175.727 353.614 175.636C353.879 175.542 354.108 175.402 354.301 175.216C354.494 175.03 354.642 174.801 354.744 174.528L356.352 174.818C356.223 175.292 355.992 175.706 355.659 176.062C355.33 176.415 354.915 176.689 354.415 176.886C353.919 177.08 353.352 177.176 352.716 177.176ZM358.345 177V168.273H359.987V169.659H360.078C360.237 169.189 360.518 168.82 360.919 168.551C361.324 168.278 361.783 168.142 362.294 168.142C362.4 168.142 362.525 168.146 362.669 168.153C362.817 168.161 362.932 168.17 363.016 168.182V169.807C362.947 169.788 362.826 169.767 362.652 169.744C362.478 169.718 362.304 169.705 362.129 169.705C361.728 169.705 361.37 169.79 361.055 169.96C360.745 170.127 360.499 170.36 360.317 170.659C360.135 170.955 360.044 171.292 360.044 171.67V177H358.345ZM371.026 170.403L369.486 170.676C369.421 170.479 369.319 170.292 369.179 170.114C369.043 169.936 368.857 169.79 368.622 169.676C368.387 169.562 368.094 169.506 367.741 169.506C367.26 169.506 366.859 169.614 366.537 169.83C366.215 170.042 366.054 170.316 366.054 170.653C366.054 170.945 366.162 171.18 366.378 171.358C366.594 171.536 366.942 171.682 367.423 171.795L368.81 172.114C369.613 172.299 370.211 172.585 370.605 172.972C370.999 173.358 371.196 173.86 371.196 174.477C371.196 175 371.045 175.466 370.741 175.875C370.442 176.28 370.024 176.598 369.486 176.83C368.952 177.061 368.332 177.176 367.628 177.176C366.651 177.176 365.853 176.968 365.236 176.551C364.618 176.131 364.24 175.534 364.099 174.761L365.741 174.511C365.844 174.939 366.054 175.263 366.372 175.483C366.69 175.699 367.105 175.807 367.616 175.807C368.173 175.807 368.618 175.691 368.952 175.46C369.285 175.225 369.452 174.939 369.452 174.602C369.452 174.33 369.349 174.1 369.145 173.915C368.944 173.729 368.635 173.589 368.219 173.494L366.741 173.17C365.927 172.985 365.325 172.689 364.935 172.284C364.548 171.879 364.355 171.366 364.355 170.744C364.355 170.229 364.499 169.778 364.787 169.392C365.075 169.006 365.473 168.705 365.98 168.489C366.488 168.269 367.069 168.159 367.724 168.159C368.668 168.159 369.41 168.364 369.952 168.773C370.493 169.178 370.851 169.722 371.026 170.403Z" fill="black"/>
<path opacity="0.25" d="M693 38.7256C693 160.434 618.409 199.493 578.853 164.962C546.643 136.658 537.037 76.6532 488.44 70.4263C426.845 63.0672 421.194 145.149 380.508 145.149C333.041 145.149 324 76.6532 324 40.9899C324 4.76057 334.172 -44.4889 374.292 -44.4889C421.194 -44.4889 424.02 26.2717 482.789 22.3092C540.992 18.3466 542.123 -55.2444 580.548 -86.379C613.888 -114.117 693 -84.6808 693 38.7256Z" fill="#072723"/>
</g>
<rect x="1" y="1.96997" width="646.5" height="204.94" rx="23" stroke="#072723" stroke-width="2"/>
<defs>
<clipPath id="clip0_4167_129">
<rect y="0.969971" width="648.5" height="206.94" rx="24" fill="white"/>
</clipPath>
</defs>
</svg>
