<svg width="326" height="207" viewBox="0 0 326 207" fill="none" xmlns="http://www.w3.org/2000/svg">
<g clip-path="url(#clip0_4333_1933)">
<rect width="326" height="207" rx="24" fill="#D1EFE8"/>
<path d="M37.3494 102.091C37.3494 104.42 36.9233 106.423 36.071 108.099C35.2188 109.768 34.0504 111.054 32.5661 111.956C31.0888 112.851 29.4091 113.298 27.527 113.298C25.6378 113.298 23.951 112.851 22.4666 111.956C20.9893 111.054 19.8246 109.765 18.9723 108.089C18.12 106.413 17.6939 104.413 17.6939 102.091C17.6939 99.7614 18.12 97.7621 18.9723 96.093C19.8246 94.4169 20.9893 93.1314 22.4666 92.2365C23.951 91.3345 25.6378 90.8835 27.527 90.8835C29.4091 90.8835 31.0888 91.3345 32.5661 92.2365C34.0504 93.1314 35.2188 94.4169 36.071 96.093C36.9233 97.7621 37.3494 99.7614 37.3494 102.091ZM34.0895 102.091C34.0895 100.315 33.8018 98.8203 33.2266 97.6058C32.6584 96.3842 31.8771 95.4609 30.8828 94.8359C29.8956 94.2038 28.777 93.8878 27.527 93.8878C26.2699 93.8878 25.1477 94.2038 24.1605 94.8359C23.1733 95.4609 22.392 96.3842 21.8168 97.6058C21.2486 98.8203 20.9645 100.315 20.9645 102.091C20.9645 103.866 21.2486 105.365 21.8168 106.587C22.392 107.801 23.1733 108.724 24.1605 109.357C25.1477 109.982 26.2699 110.294 27.527 110.294C28.777 110.294 29.8956 109.982 30.8828 109.357C31.8771 108.724 32.6584 107.801 33.2266 106.587C33.8018 105.365 34.0895 103.866 34.0895 102.091ZM42.3833 103.284V113H39.198V96.6364H42.2555V99.2997H42.4579C42.8343 98.4332 43.4238 97.7372 44.2264 97.2116C45.036 96.6861 46.0552 96.4233 47.2839 96.4233C48.399 96.4233 49.3755 96.6577 50.2136 97.1264C51.0517 97.5881 51.7015 98.277 52.1632 99.1932C52.6248 100.109 52.8556 101.242 52.8556 102.592V113H49.6703V102.975C49.6703 101.789 49.3613 100.862 48.7434 100.195C48.1255 99.5199 47.2768 99.1825 46.1973 99.1825C45.4586 99.1825 44.8017 99.3423 44.2264 99.6619C43.6582 99.9815 43.2072 100.45 42.8734 101.068C42.5467 101.679 42.3833 102.418 42.3833 103.284ZM55.3833 113V91.1818H58.5687V99.2891H58.7605C58.9451 98.9482 59.2115 98.554 59.5595 98.1065C59.9075 97.6591 60.3904 97.2685 61.0083 96.9347C61.6262 96.5938 62.443 96.4233 63.4586 96.4233C64.7797 96.4233 65.9586 96.7571 66.9956 97.4247C68.0325 98.0923 68.8457 99.0547 69.4352 100.312C70.0318 101.569 70.3301 103.082 70.3301 104.85C70.3301 106.619 70.0353 108.135 69.4458 109.399C68.8564 110.656 68.0467 111.626 67.0169 112.308C65.987 112.982 64.8116 113.32 63.4906 113.32C62.4963 113.32 61.6831 113.153 61.051 112.819C60.426 112.485 59.9359 112.094 59.5808 111.647C59.2257 111.2 58.9522 110.802 58.7605 110.454H58.4941V113H55.3833ZM58.5048 104.818C58.5048 105.969 58.6717 106.977 59.0055 107.844C59.3393 108.71 59.8223 109.388 60.4544 109.879C61.0865 110.362 61.8606 110.603 62.7768 110.603C63.7285 110.603 64.524 110.351 65.1632 109.847C65.8024 109.335 66.2853 108.643 66.612 107.769C66.9458 106.896 67.1127 105.912 67.1127 104.818C67.1127 103.739 66.9494 102.769 66.6227 101.91C66.3031 101.05 65.8201 100.372 65.1738 99.875C64.5346 99.3778 63.7356 99.1293 62.7768 99.1293C61.8535 99.1293 61.0723 99.3672 60.4331 99.843C59.801 100.319 59.3216 100.983 58.9949 101.835C58.6681 102.687 58.5048 103.682 58.5048 104.818ZM78.7997 113.33C77.2656 113.33 75.9268 112.979 74.7834 112.276C73.6399 111.572 72.7521 110.589 72.12 109.325C71.4879 108.06 71.1719 106.583 71.1719 104.893C71.1719 103.195 71.4879 101.711 72.12 100.44C72.7521 99.1683 73.6399 98.1811 74.7834 97.478C75.9268 96.7749 77.2656 96.4233 78.7997 96.4233C80.3338 96.4233 81.6726 96.7749 82.8161 97.478C83.9595 98.1811 84.8473 99.1683 85.4794 100.44C86.1115 101.711 86.4276 103.195 86.4276 104.893C86.4276 106.583 86.1115 108.06 85.4794 109.325C84.8473 110.589 83.9595 111.572 82.8161 112.276C81.6726 112.979 80.3338 113.33 78.7997 113.33ZM78.8104 110.656C79.8047 110.656 80.6286 110.393 81.282 109.868C81.9354 109.342 82.4183 108.643 82.7308 107.769C83.0504 106.896 83.2102 105.933 83.2102 104.882C83.2102 103.838 83.0504 102.879 82.7308 102.006C82.4183 101.125 81.9354 100.418 81.282 99.8857C80.6286 99.353 79.8047 99.0866 78.8104 99.0866C77.8089 99.0866 76.978 99.353 76.3175 99.8857C75.6641 100.418 75.1776 101.125 74.858 102.006C74.5455 102.879 74.3892 103.838 74.3892 104.882C74.3892 105.933 74.5455 106.896 74.858 107.769C75.1776 108.643 75.6641 109.342 76.3175 109.868C76.978 110.393 77.8089 110.656 78.8104 110.656ZM92.7452 113.362C91.7083 113.362 90.7708 113.17 89.9327 112.787C89.0946 112.396 88.4306 111.832 87.9405 111.093C87.4576 110.354 87.2161 109.449 87.2161 108.376C87.2161 107.453 87.3936 106.693 87.7488 106.097C88.1039 105.5 88.5833 105.028 89.187 104.68C89.7907 104.332 90.4654 104.069 91.2111 103.891C91.9569 103.714 92.7168 103.579 93.4909 103.487C94.4711 103.373 95.2665 103.281 95.8773 103.21C96.4881 103.131 96.932 103.007 97.209 102.837C97.486 102.666 97.6245 102.389 97.6245 102.006V101.931C97.6245 101.001 97.3617 100.28 96.8361 99.7685C96.3176 99.2571 95.5435 99.0014 94.5137 99.0014C93.4412 99.0014 92.5961 99.2393 91.9782 99.7152C91.3674 100.184 90.9448 100.706 90.7104 101.281L87.7168 100.599C88.0719 99.6051 88.5904 98.8026 89.2722 98.1918C89.9611 97.5739 90.753 97.1264 91.6479 96.8494C92.5428 96.5653 93.4838 96.4233 94.4711 96.4233C95.1245 96.4233 95.8169 96.5014 96.5485 96.6577C97.2871 96.8068 97.976 97.0838 98.6152 97.4886C99.2615 97.8935 99.7907 98.4723 100.203 99.2251C100.615 99.9709 100.82 100.94 100.82 102.134V113H97.7097V110.763H97.5819C97.3759 111.175 97.0669 111.58 96.655 111.977C96.2431 112.375 95.714 112.705 95.0676 112.968C94.4213 113.231 93.6472 113.362 92.7452 113.362ZM93.4377 110.805C94.3184 110.805 95.0712 110.631 95.6962 110.283C96.3283 109.935 96.8077 109.481 97.1344 108.92C97.4682 108.352 97.6351 107.744 97.6351 107.098V104.989C97.5215 105.102 97.3013 105.209 96.9746 105.308C96.655 105.401 96.2892 105.482 95.8773 105.553C95.4654 105.617 95.0641 105.678 94.6735 105.734C94.2828 105.784 93.9561 105.827 93.6934 105.862C93.0755 105.94 92.5108 106.072 91.9995 106.256C91.4952 106.441 91.0904 106.707 90.785 107.055C90.4867 107.396 90.3375 107.851 90.3375 108.419C90.3375 109.207 90.6287 109.804 91.2111 110.209C91.7935 110.607 92.5357 110.805 93.4377 110.805ZM103.063 113V96.6364H106.142V99.2358H106.312C106.611 98.3551 107.136 97.6626 107.889 97.1584C108.649 96.647 109.509 96.3913 110.467 96.3913C110.666 96.3913 110.901 96.3984 111.17 96.4126C111.447 96.4268 111.664 96.4446 111.82 96.4659V99.5128C111.692 99.4773 111.465 99.4382 111.138 99.3956C110.812 99.3459 110.485 99.321 110.158 99.321C109.406 99.321 108.734 99.4808 108.145 99.8004C107.563 100.113 107.101 100.55 106.76 101.111C106.419 101.665 106.249 102.297 106.249 103.007V113H103.063ZM118.117 113.32C116.796 113.32 115.617 112.982 114.58 112.308C113.55 111.626 112.74 110.656 112.151 109.399C111.568 108.135 111.277 106.619 111.277 104.85C111.277 103.082 111.572 101.569 112.161 100.312C112.758 99.0547 113.575 98.0923 114.612 97.4247C115.649 96.7571 116.824 96.4233 118.138 96.4233C119.154 96.4233 119.97 96.5938 120.588 96.9347C121.213 97.2685 121.696 97.6591 122.037 98.1065C122.385 98.554 122.655 98.9482 122.847 99.2891H123.039V91.1818H126.224V113H123.113V110.454H122.847C122.655 110.802 122.378 111.2 122.016 111.647C121.661 112.094 121.171 112.485 120.546 112.819C119.921 113.153 119.111 113.32 118.117 113.32ZM118.82 110.603C119.736 110.603 120.51 110.362 121.142 109.879C121.781 109.388 122.264 108.71 122.591 107.844C122.925 106.977 123.092 105.969 123.092 104.818C123.092 103.682 122.928 102.687 122.602 101.835C122.275 100.983 121.796 100.319 121.164 99.843C120.531 99.3672 119.75 99.1293 118.82 99.1293C117.861 99.1293 117.062 99.3778 116.423 99.875C115.784 100.372 115.301 101.05 114.974 101.91C114.654 102.769 114.494 103.739 114.494 104.818C114.494 105.912 114.658 106.896 114.985 107.769C115.311 108.643 115.794 109.335 116.433 109.847C117.08 110.351 117.875 110.603 118.82 110.603ZM128.77 113V96.6364H131.956V113H128.77ZM130.379 94.1115C129.825 94.1115 129.349 93.9268 128.951 93.5575C128.561 93.1811 128.365 92.7337 128.365 92.2152C128.365 91.6896 128.561 91.2422 128.951 90.8729C129.349 90.4964 129.825 90.3082 130.379 90.3082C130.933 90.3082 131.405 90.4964 131.796 90.8729C132.194 91.2422 132.392 91.6896 132.392 92.2152C132.392 92.7337 132.194 93.1811 131.796 93.5575C131.405 93.9268 130.933 94.1115 130.379 94.1115ZM137.426 103.284V113H134.241V96.6364H137.298V99.2997H137.501C137.877 98.4332 138.467 97.7372 139.269 97.2116C140.079 96.6861 141.098 96.4233 142.327 96.4233C143.442 96.4233 144.419 96.6577 145.257 97.1264C146.095 97.5881 146.744 98.277 147.206 99.1932C147.668 100.109 147.899 101.242 147.899 102.592V113H144.713V102.975C144.713 101.789 144.404 100.862 143.786 100.195C143.169 99.5199 142.32 99.1825 141.24 99.1825C140.502 99.1825 139.845 99.3423 139.269 99.6619C138.701 99.9815 138.25 100.45 137.916 101.068C137.59 101.679 137.426 102.418 137.426 103.284ZM157.031 119.477C155.732 119.477 154.613 119.307 153.676 118.966C152.745 118.625 151.985 118.174 151.396 117.613C150.806 117.052 150.366 116.438 150.075 115.77L152.813 114.641C153.004 114.953 153.26 115.283 153.58 115.631C153.906 115.987 154.347 116.288 154.901 116.537C155.462 116.786 156.183 116.91 157.063 116.91C158.271 116.91 159.269 116.615 160.057 116.026C160.845 115.443 161.24 114.513 161.24 113.234V110.017H161.037C160.845 110.365 160.568 110.752 160.206 111.178C159.851 111.604 159.361 111.974 158.736 112.286C158.111 112.599 157.298 112.755 156.296 112.755C155.004 112.755 153.839 112.453 152.802 111.849C151.772 111.239 150.955 110.34 150.352 109.154C149.755 107.961 149.457 106.494 149.457 104.754C149.457 103.014 149.752 101.523 150.341 100.28C150.938 99.0369 151.754 98.0852 152.791 97.4247C153.828 96.7571 155.004 96.4233 156.318 96.4233C157.333 96.4233 158.154 96.5938 158.779 96.9347C159.404 97.2685 159.89 97.6591 160.238 98.1065C160.593 98.554 160.867 98.9482 161.058 99.2891H161.293V96.6364H164.414V113.362C164.414 114.768 164.088 115.923 163.434 116.825C162.781 117.727 161.896 118.394 160.781 118.827C159.673 119.261 158.423 119.477 157.031 119.477ZM156.999 110.113C157.916 110.113 158.69 109.9 159.322 109.474C159.961 109.04 160.444 108.423 160.771 107.62C161.105 106.81 161.271 105.841 161.271 104.712C161.271 103.611 161.108 102.641 160.781 101.803C160.455 100.965 159.975 100.312 159.343 99.843C158.711 99.3672 157.93 99.1293 156.999 99.1293C156.041 99.1293 155.242 99.3778 154.602 99.875C153.963 100.365 153.48 101.033 153.154 101.878C152.834 102.723 152.674 103.668 152.674 104.712C152.674 105.784 152.838 106.725 153.164 107.535C153.491 108.344 153.974 108.977 154.613 109.431C155.259 109.886 156.055 110.113 156.999 110.113Z" fill="#072723"/>
<path d="M22.8448 183L46.0426 137.084V136.711H19.1161V128.455H56.2699V136.897L33.0987 183H22.8448ZM81.8556 184.039C77.4699 184.039 73.7057 182.929 70.5629 180.71C67.4379 178.472 65.032 175.25 63.3453 171.042C61.6762 166.816 60.8417 161.729 60.8417 155.781C60.8595 149.832 61.7029 144.772 63.3719 140.599C65.0587 136.409 67.4646 133.213 70.5896 131.011C73.7323 128.81 77.4877 127.709 81.8556 127.709C86.2235 127.709 89.9788 128.81 93.1215 131.011C96.2643 133.213 98.6702 136.409 100.339 140.599C102.026 144.79 102.869 149.85 102.869 155.781C102.869 161.746 102.026 166.842 100.339 171.068C98.6702 175.276 96.2643 178.49 93.1215 180.71C89.9965 182.929 86.2412 184.039 81.8556 184.039ZM81.8556 175.702C85.2646 175.702 87.9546 174.025 89.9255 170.669C91.9142 167.295 92.9085 162.332 92.9085 155.781C92.9085 151.448 92.4557 147.808 91.5502 144.861C90.6446 141.913 89.3662 139.694 87.7149 138.202C86.0637 136.693 84.1105 135.939 81.8556 135.939C78.4642 135.939 75.7831 137.625 73.8122 140.999C71.8414 144.355 70.847 149.282 70.8293 155.781C70.8115 160.131 71.2465 163.788 72.1343 166.754C73.0399 169.719 74.3183 171.956 75.9695 173.465C77.6208 174.957 79.5828 175.702 81.8556 175.702ZM125.912 174.264V137.403H134.275V174.264H125.912ZM111.663 160.015V151.652H148.523V160.015H111.663Z" fill="#072723"/>
<path d="M162.364 168V159.273H163.681V163.065H168.032V159.273H169.353V168H168.032V164.195H163.681V168H162.364ZM171.974 170.455C171.783 170.455 171.61 170.439 171.454 170.408C171.298 170.379 171.181 170.348 171.104 170.314L171.411 169.27C171.644 169.332 171.852 169.359 172.033 169.351C172.215 169.342 172.376 169.274 172.515 169.146C172.657 169.018 172.782 168.81 172.89 168.52L173.048 168.085L170.653 161.455H172.016L173.674 166.534H173.742L175.4 161.455H176.768L174.07 168.874C173.945 169.214 173.786 169.503 173.593 169.739C173.4 169.977 173.17 170.156 172.903 170.276C172.636 170.395 172.326 170.455 171.974 170.455ZM177.965 170.455V161.455H179.209V162.516H179.316C179.39 162.379 179.496 162.222 179.636 162.043C179.775 161.864 179.968 161.707 180.215 161.574C180.462 161.438 180.789 161.369 181.195 161.369C181.724 161.369 182.195 161.503 182.61 161.77C183.025 162.037 183.35 162.422 183.586 162.925C183.825 163.428 183.944 164.033 183.944 164.74C183.944 165.447 183.826 166.054 183.59 166.56C183.354 167.062 183.031 167.45 182.619 167.723C182.207 167.993 181.736 168.128 181.208 168.128C180.81 168.128 180.485 168.061 180.232 167.928C179.982 167.794 179.786 167.638 179.644 167.459C179.502 167.28 179.393 167.121 179.316 166.982H179.239V170.455H177.965ZM179.214 164.727C179.214 165.187 179.281 165.591 179.414 165.938C179.548 166.284 179.741 166.555 179.994 166.751C180.246 166.945 180.556 167.041 180.923 167.041C181.303 167.041 181.621 166.94 181.877 166.739C182.133 166.534 182.326 166.257 182.457 165.908C182.59 165.558 182.657 165.165 182.657 164.727C182.657 164.295 182.592 163.908 182.461 163.564C182.333 163.22 182.14 162.949 181.881 162.75C181.626 162.551 181.306 162.452 180.923 162.452C180.553 162.452 180.241 162.547 179.985 162.737C179.732 162.928 179.54 163.193 179.41 163.534C179.279 163.875 179.214 164.273 179.214 164.727ZM188.192 168.132C187.548 168.132 186.992 167.994 186.526 167.719C186.063 167.44 185.705 167.05 185.452 166.547C185.202 166.041 185.077 165.449 185.077 164.77C185.077 164.099 185.202 163.509 185.452 162.997C185.705 162.486 186.058 162.087 186.509 161.8C186.964 161.513 187.495 161.369 188.103 161.369C188.472 161.369 188.83 161.43 189.177 161.553C189.523 161.675 189.834 161.866 190.11 162.128C190.386 162.389 190.603 162.729 190.762 163.146C190.921 163.561 191.001 164.065 191.001 164.659V165.111H185.798V164.156H189.752C189.752 163.821 189.684 163.524 189.548 163.266C189.411 163.004 189.219 162.798 188.972 162.648C188.728 162.497 188.441 162.422 188.111 162.422C187.754 162.422 187.441 162.51 187.174 162.686C186.91 162.859 186.705 163.087 186.56 163.368C186.418 163.646 186.347 163.949 186.347 164.276V165.021C186.347 165.459 186.424 165.831 186.577 166.138C186.734 166.445 186.951 166.679 187.229 166.841C187.508 167 187.833 167.08 188.205 167.08C188.447 167.08 188.667 167.045 188.866 166.977C189.065 166.906 189.236 166.801 189.381 166.662C189.526 166.523 189.637 166.351 189.714 166.146L190.92 166.364C190.823 166.719 190.65 167.03 190.4 167.297C190.153 167.561 189.842 167.767 189.467 167.915C189.094 168.06 188.67 168.132 188.192 168.132ZM192.414 168V161.455H193.646V162.494H193.714C193.833 162.142 194.044 161.865 194.345 161.663C194.649 161.459 194.993 161.357 195.376 161.357C195.456 161.357 195.549 161.359 195.657 161.365C195.768 161.371 195.855 161.378 195.917 161.386V162.605C195.866 162.591 195.775 162.575 195.645 162.558C195.514 162.538 195.383 162.528 195.252 162.528C194.951 162.528 194.683 162.592 194.447 162.72C194.214 162.845 194.029 163.02 193.893 163.244C193.757 163.466 193.689 163.719 193.689 164.003V168H192.414ZM198.294 159.273V168H197.02V159.273H198.294ZM200.008 168V161.455H201.282V168H200.008ZM200.652 160.445C200.43 160.445 200.24 160.371 200.081 160.223C199.924 160.072 199.846 159.893 199.846 159.686C199.846 159.476 199.924 159.297 200.081 159.149C200.24 158.999 200.43 158.923 200.652 158.923C200.873 158.923 201.062 158.999 201.218 159.149C201.377 159.297 201.457 159.476 201.457 159.686C201.457 159.893 201.377 160.072 201.218 160.223C201.062 160.371 200.873 160.445 200.652 160.445ZM207.415 170.455V166.982H207.339C207.262 167.121 207.151 167.28 207.006 167.459C206.864 167.638 206.668 167.794 206.418 167.928C206.168 168.061 205.844 168.128 205.447 168.128C204.918 168.128 204.447 167.993 204.032 167.723C203.62 167.45 203.296 167.062 203.06 166.56C202.827 166.054 202.711 165.447 202.711 164.74C202.711 164.033 202.829 163.428 203.065 162.925C203.303 162.422 203.63 162.037 204.045 161.77C204.459 161.503 204.93 161.369 205.455 161.369C205.861 161.369 206.188 161.438 206.435 161.574C206.685 161.707 206.879 161.864 207.015 162.043C207.154 162.222 207.262 162.379 207.339 162.516H207.445V161.455H208.69V170.455H207.415ZM205.728 167.041C206.094 167.041 206.404 166.945 206.657 166.751C206.913 166.555 207.106 166.284 207.236 165.938C207.37 165.591 207.437 165.187 207.437 164.727C207.437 164.273 207.371 163.875 207.241 163.534C207.11 163.193 206.918 162.928 206.665 162.737C206.413 162.547 206.1 162.452 205.728 162.452C205.344 162.452 205.025 162.551 204.769 162.75C204.513 162.949 204.32 163.22 204.19 163.564C204.062 163.908 203.998 164.295 203.998 164.727C203.998 165.165 204.063 165.558 204.194 165.908C204.325 166.257 204.518 166.534 204.773 166.739C205.032 166.94 205.35 167.041 205.728 167.041ZM214.549 165.286V161.455H215.827V168H214.575V166.866H214.506C214.356 167.216 214.114 167.507 213.782 167.74C213.452 167.97 213.042 168.085 212.55 168.085C212.13 168.085 211.758 167.993 211.434 167.808C211.113 167.621 210.86 167.344 210.675 166.977C210.494 166.611 210.403 166.158 210.403 165.618V161.455H211.677V165.464C211.677 165.911 211.8 166.266 212.048 166.53C212.295 166.794 212.616 166.926 213.011 166.926C213.249 166.926 213.486 166.866 213.722 166.747C213.961 166.628 214.158 166.447 214.315 166.206C214.474 165.964 214.552 165.658 214.549 165.286ZM217.539 168V161.455H218.814V168H217.539ZM218.183 160.445C217.961 160.445 217.771 160.371 217.612 160.223C217.456 160.072 217.377 159.893 217.377 159.686C217.377 159.476 217.456 159.297 217.612 159.149C217.771 158.999 217.961 158.923 218.183 158.923C218.404 158.923 218.593 158.999 218.75 159.149C218.909 159.297 218.988 159.476 218.988 159.686C218.988 159.893 218.909 160.072 218.75 160.223C218.593 160.371 218.404 160.445 218.183 160.445ZM222.978 168.128C222.45 168.128 221.978 167.993 221.563 167.723C221.151 167.45 220.827 167.062 220.592 166.56C220.359 166.054 220.242 165.447 220.242 164.74C220.242 164.033 220.36 163.428 220.596 162.925C220.834 162.422 221.161 162.037 221.576 161.77C221.991 161.503 222.461 161.369 222.986 161.369C223.393 161.369 223.719 161.438 223.967 161.574C224.217 161.707 224.41 161.864 224.546 162.043C224.685 162.222 224.793 162.379 224.87 162.516H224.947V159.273H226.221V168H224.977V166.982H224.87C224.793 167.121 224.683 167.28 224.538 167.459C224.396 167.638 224.2 167.794 223.95 167.928C223.7 168.061 223.376 168.128 222.978 168.128ZM223.259 167.041C223.626 167.041 223.935 166.945 224.188 166.751C224.444 166.555 224.637 166.284 224.768 165.938C224.901 165.591 224.968 165.187 224.968 164.727C224.968 164.273 224.903 163.875 224.772 163.534C224.641 163.193 224.45 162.928 224.197 162.737C223.944 162.547 223.631 162.452 223.259 162.452C222.876 162.452 222.556 162.551 222.3 162.75C222.045 162.949 221.852 163.22 221.721 163.564C221.593 163.908 221.529 164.295 221.529 164.727C221.529 165.165 221.594 165.558 221.725 165.908C221.856 166.257 222.049 166.534 222.305 166.739C222.563 166.94 222.881 167.041 223.259 167.041ZM165.377 176.455V177.477H161.678V176.455H165.377ZM162.692 183V175.696C162.692 175.287 162.782 174.947 162.961 174.678C163.14 174.405 163.377 174.202 163.673 174.068C163.968 173.932 164.289 173.864 164.636 173.864C164.891 173.864 165.11 173.885 165.292 173.928C165.474 173.967 165.609 174.004 165.697 174.038L165.398 175.07C165.339 175.053 165.262 175.033 165.168 175.01C165.075 174.984 164.961 174.972 164.827 174.972C164.518 174.972 164.296 175.048 164.163 175.202C164.032 175.355 163.967 175.577 163.967 175.866V183H162.692ZM169.191 183.132C168.577 183.132 168.042 182.991 167.584 182.71C167.127 182.429 166.772 182.036 166.519 181.53C166.266 181.024 166.14 180.433 166.14 179.757C166.14 179.078 166.266 178.484 166.519 177.976C166.772 177.467 167.127 177.072 167.584 176.791C168.042 176.51 168.577 176.369 169.191 176.369C169.805 176.369 170.34 176.51 170.798 176.791C171.255 177.072 171.61 177.467 171.863 177.976C172.116 178.484 172.242 179.078 172.242 179.757C172.242 180.433 172.116 181.024 171.863 181.53C171.61 182.036 171.255 182.429 170.798 182.71C170.34 182.991 169.805 183.132 169.191 183.132ZM169.195 182.062C169.593 182.062 169.923 181.957 170.184 181.747C170.445 181.537 170.638 181.257 170.763 180.908C170.891 180.558 170.955 180.173 170.955 179.753C170.955 179.335 170.891 178.952 170.763 178.602C170.638 178.25 170.445 177.967 170.184 177.754C169.923 177.541 169.593 177.435 169.195 177.435C168.795 177.435 168.462 177.541 168.198 177.754C167.937 177.967 167.742 178.25 167.614 178.602C167.489 178.952 167.427 179.335 167.427 179.753C167.427 180.173 167.489 180.558 167.614 180.908C167.742 181.257 167.937 181.537 168.198 181.747C168.462 181.957 168.795 182.062 169.195 182.062ZM177.811 180.286V176.455H179.089V183H177.836V181.866H177.768C177.618 182.216 177.376 182.507 177.044 182.74C176.714 182.97 176.304 183.085 175.812 183.085C175.392 183.085 175.02 182.993 174.696 182.808C174.375 182.621 174.122 182.344 173.937 181.977C173.755 181.611 173.664 181.158 173.664 180.618V176.455H174.939V180.464C174.939 180.911 175.062 181.266 175.309 181.53C175.556 181.794 175.877 181.926 176.272 181.926C176.511 181.926 176.748 181.866 176.984 181.747C177.223 181.628 177.42 181.447 177.576 181.206C177.735 180.964 177.814 180.658 177.811 180.286ZM182.075 179.114V183H180.801V176.455H182.024V177.52H182.105C182.256 177.173 182.491 176.895 182.812 176.685C183.136 176.474 183.544 176.369 184.035 176.369C184.482 176.369 184.872 176.463 185.207 176.651C185.543 176.835 185.803 177.111 185.987 177.477C186.172 177.844 186.264 178.297 186.264 178.837V183H184.99V178.99C184.99 178.516 184.866 178.145 184.619 177.878C184.372 177.608 184.033 177.473 183.601 177.473C183.305 177.473 183.043 177.537 182.812 177.665C182.585 177.793 182.405 177.98 182.271 178.227C182.141 178.472 182.075 178.767 182.075 179.114ZM190.423 183.128C189.895 183.128 189.423 182.993 189.009 182.723C188.597 182.45 188.273 182.062 188.037 181.56C187.804 181.054 187.687 180.447 187.687 179.74C187.687 179.033 187.805 178.428 188.041 177.925C188.28 177.422 188.607 177.037 189.021 176.77C189.436 176.503 189.906 176.369 190.432 176.369C190.838 176.369 191.165 176.438 191.412 176.574C191.662 176.707 191.855 176.864 191.991 177.043C192.131 177.222 192.239 177.379 192.315 177.516H192.392V174.273H193.666V183H192.422V181.982H192.315C192.239 182.121 192.128 182.28 191.983 182.459C191.841 182.638 191.645 182.794 191.395 182.928C191.145 183.061 190.821 183.128 190.423 183.128ZM190.705 182.041C191.071 182.041 191.381 181.945 191.634 181.751C191.889 181.555 192.082 181.284 192.213 180.938C192.347 180.591 192.413 180.187 192.413 179.727C192.413 179.273 192.348 178.875 192.217 178.534C192.087 178.193 191.895 177.928 191.642 177.737C191.389 177.547 191.077 177.452 190.705 177.452C190.321 177.452 190.001 177.551 189.746 177.75C189.49 177.949 189.297 178.22 189.166 178.564C189.038 178.908 188.974 179.295 188.974 179.727C188.974 180.165 189.04 180.558 189.17 180.908C189.301 181.257 189.494 181.534 189.75 181.739C190.009 181.94 190.327 182.041 190.705 182.041ZM198.306 183.132C197.661 183.132 197.105 182.994 196.64 182.719C196.176 182.44 195.819 182.05 195.566 181.547C195.316 181.041 195.191 180.449 195.191 179.77C195.191 179.099 195.316 178.509 195.566 177.997C195.819 177.486 196.171 177.087 196.622 176.8C197.077 176.513 197.608 176.369 198.216 176.369C198.586 176.369 198.944 176.43 199.29 176.553C199.637 176.675 199.948 176.866 200.223 177.128C200.499 177.389 200.716 177.729 200.875 178.146C201.034 178.561 201.114 179.065 201.114 179.659V180.111H195.911V179.156H199.865C199.865 178.821 199.797 178.524 199.661 178.266C199.524 178.004 199.333 177.798 199.086 177.648C198.841 177.497 198.554 177.422 198.225 177.422C197.867 177.422 197.554 177.51 197.287 177.686C197.023 177.859 196.819 178.087 196.674 178.368C196.532 178.646 196.461 178.949 196.461 179.276V180.021C196.461 180.459 196.537 180.831 196.691 181.138C196.847 181.445 197.064 181.679 197.343 181.841C197.621 182 197.946 182.08 198.319 182.08C198.56 182.08 198.78 182.045 198.979 181.977C199.178 181.906 199.35 181.801 199.495 181.662C199.64 181.523 199.75 181.351 199.827 181.146L201.033 181.364C200.936 181.719 200.763 182.03 200.513 182.297C200.266 182.561 199.955 182.767 199.58 182.915C199.208 183.06 198.783 183.132 198.306 183.132ZM202.528 183V176.455H203.759V177.494H203.827C203.947 177.142 204.157 176.865 204.458 176.663C204.762 176.459 205.106 176.357 205.489 176.357C205.569 176.357 205.663 176.359 205.771 176.365C205.881 176.371 205.968 176.378 206.031 176.386V177.605C205.979 177.591 205.888 177.575 205.758 177.558C205.627 177.538 205.496 177.528 205.366 177.528C205.065 177.528 204.796 177.592 204.56 177.72C204.327 177.845 204.143 178.02 204.006 178.244C203.87 178.466 203.802 178.719 203.802 179.003V183H202.528ZM212.038 178.053L210.883 178.257C210.835 178.109 210.758 177.969 210.653 177.835C210.551 177.702 210.412 177.592 210.235 177.507C210.059 177.422 209.839 177.379 209.575 177.379C209.214 177.379 208.913 177.46 208.671 177.622C208.43 177.781 208.309 177.987 208.309 178.24C208.309 178.459 208.39 178.635 208.552 178.768C208.714 178.902 208.975 179.011 209.336 179.097L210.376 179.335C210.978 179.474 211.427 179.689 211.723 179.979C212.018 180.268 212.166 180.645 212.166 181.108C212.166 181.5 212.052 181.849 211.825 182.156C211.6 182.46 211.287 182.699 210.883 182.872C210.483 183.045 210.018 183.132 209.49 183.132C208.757 183.132 208.159 182.976 207.696 182.663C207.233 182.348 206.948 181.901 206.843 181.321L208.075 181.134C208.152 181.455 208.309 181.697 208.548 181.862C208.787 182.024 209.098 182.105 209.481 182.105C209.899 182.105 210.233 182.018 210.483 181.845C210.733 181.669 210.858 181.455 210.858 181.202C210.858 180.997 210.781 180.825 210.627 180.686C210.477 180.547 210.245 180.442 209.933 180.371L208.825 180.128C208.214 179.989 207.762 179.767 207.47 179.463C207.18 179.159 207.035 178.774 207.035 178.308C207.035 177.922 207.143 177.584 207.359 177.294C207.575 177.004 207.873 176.778 208.254 176.616C208.635 176.452 209.071 176.369 209.562 176.369C210.27 176.369 210.826 176.523 211.233 176.83C211.639 177.134 211.907 177.541 212.038 178.053ZM219.282 183.124C218.697 183.124 218.193 183.017 217.77 182.804C217.349 182.591 217.025 182.301 216.798 181.935C216.571 181.565 216.457 181.148 216.457 180.682C216.457 180.327 216.531 180.011 216.679 179.736C216.826 179.457 217.032 179.2 217.296 178.964C217.561 178.729 217.866 178.491 218.213 178.253L219.619 177.26C219.858 177.104 220.044 176.939 220.177 176.766C220.311 176.589 220.377 176.372 220.377 176.114C220.377 175.909 220.289 175.713 220.113 175.526C219.937 175.338 219.701 175.244 219.406 175.244C219.201 175.244 219.021 175.294 218.865 175.393C218.711 175.493 218.591 175.621 218.502 175.777C218.417 175.93 218.375 176.092 218.375 176.263C218.375 176.462 218.429 176.662 218.537 176.864C218.647 177.065 218.789 177.274 218.963 177.49C219.136 177.703 219.318 177.925 219.508 178.155L223.561 183H222.12L218.767 179.058C218.485 178.726 218.224 178.413 217.983 178.121C217.741 177.825 217.545 177.527 217.395 177.226C217.247 176.922 217.173 176.594 217.173 176.241C217.173 175.841 217.264 175.486 217.446 175.176C217.63 174.864 217.887 174.619 218.217 174.443C218.546 174.267 218.933 174.179 219.376 174.179C219.825 174.179 220.21 174.267 220.531 174.443C220.855 174.616 221.103 174.848 221.277 175.138C221.453 175.425 221.541 175.739 221.541 176.08C221.541 176.494 221.437 176.861 221.23 177.179C221.025 177.494 220.743 177.784 220.382 178.048L218.63 179.339C218.289 179.589 218.052 179.837 217.919 180.081C217.788 180.322 217.723 180.511 217.723 180.648C217.723 180.898 217.787 181.129 217.914 181.342C218.045 181.555 218.227 181.726 218.46 181.854C218.696 181.982 218.971 182.045 219.287 182.045C219.61 182.045 219.926 181.976 220.233 181.837C220.542 181.695 220.822 181.491 221.072 181.227C221.325 180.963 221.525 180.646 221.673 180.277C221.821 179.908 221.895 179.494 221.895 179.037H223.045C223.045 179.599 222.981 180.075 222.853 180.464C222.725 180.851 222.571 181.166 222.389 181.411C222.21 181.652 222.041 181.841 221.882 181.977C221.831 182.023 221.782 182.068 221.737 182.114C221.691 182.159 221.643 182.205 221.592 182.25C221.296 182.548 220.939 182.768 220.518 182.911C220.1 183.053 219.689 183.124 219.282 183.124ZM227.837 183V174.273H229.111V177.516H229.188C229.262 177.379 229.368 177.222 229.507 177.043C229.647 176.864 229.84 176.707 230.087 176.574C230.334 176.438 230.661 176.369 231.067 176.369C231.596 176.369 232.067 176.503 232.482 176.77C232.897 177.037 233.222 177.422 233.458 177.925C233.696 178.428 233.816 179.033 233.816 179.74C233.816 180.447 233.698 181.054 233.462 181.56C233.226 182.062 232.902 182.45 232.49 182.723C232.078 182.993 231.608 183.128 231.08 183.128C230.682 183.128 230.357 183.061 230.104 182.928C229.854 182.794 229.658 182.638 229.516 182.459C229.374 182.28 229.265 182.121 229.188 181.982H229.081V183H227.837ZM229.086 179.727C229.086 180.187 229.152 180.591 229.286 180.938C229.419 181.284 229.613 181.555 229.865 181.751C230.118 181.945 230.428 182.041 230.794 182.041C231.175 182.041 231.493 181.94 231.749 181.739C232.005 181.534 232.198 181.257 232.328 180.908C232.462 180.558 232.529 180.165 232.529 179.727C232.529 179.295 232.463 178.908 232.333 178.564C232.205 178.22 232.012 177.949 231.753 177.75C231.497 177.551 231.178 177.452 230.794 177.452C230.425 177.452 230.113 177.547 229.857 177.737C229.604 177.928 229.412 178.193 229.282 178.534C229.151 178.875 229.086 179.273 229.086 179.727ZM239.393 180.286V176.455H240.671V183H239.418V181.866H239.35C239.2 182.216 238.958 182.507 238.626 182.74C238.296 182.97 237.886 183.085 237.394 183.085C236.974 183.085 236.602 182.993 236.278 182.808C235.957 182.621 235.704 182.344 235.519 181.977C235.337 181.611 235.246 181.158 235.246 180.618V176.455H236.521V180.464C236.521 180.911 236.644 181.266 236.891 181.53C237.138 181.794 237.459 181.926 237.854 181.926C238.093 181.926 238.33 181.866 238.566 181.747C238.805 181.628 239.002 181.447 239.158 181.206C239.317 180.964 239.396 180.658 239.393 180.286ZM242.383 183V176.455H243.657V183H242.383ZM243.027 175.445C242.805 175.445 242.615 175.371 242.456 175.223C242.299 175.072 242.221 174.893 242.221 174.686C242.221 174.476 242.299 174.297 242.456 174.149C242.615 173.999 242.805 173.923 243.027 173.923C243.248 173.923 243.437 173.999 243.593 174.149C243.752 174.297 243.832 174.476 243.832 174.686C243.832 174.893 243.752 175.072 243.593 175.223C243.437 175.371 243.248 175.445 243.027 175.445ZM246.646 174.273V183H245.371V174.273H246.646ZM250.81 183.128C250.282 183.128 249.81 182.993 249.395 182.723C248.983 182.45 248.659 182.062 248.424 181.56C248.191 181.054 248.074 180.447 248.074 179.74C248.074 179.033 248.192 178.428 248.428 177.925C248.667 177.422 248.993 177.037 249.408 176.77C249.823 176.503 250.293 176.369 250.819 176.369C251.225 176.369 251.551 176.438 251.799 176.574C252.049 176.707 252.242 176.864 252.378 177.043C252.517 177.222 252.625 177.379 252.702 177.516H252.779V174.273H254.053V183H252.809V181.982H252.702C252.625 182.121 252.515 182.28 252.37 182.459C252.228 182.638 252.032 182.794 251.782 182.928C251.532 183.061 251.208 183.128 250.81 183.128ZM251.091 182.041C251.458 182.041 251.767 181.945 252.02 181.751C252.276 181.555 252.469 181.284 252.6 180.938C252.733 180.591 252.8 180.187 252.8 179.727C252.8 179.273 252.735 178.875 252.604 178.534C252.473 178.193 252.282 177.928 252.029 177.737C251.776 177.547 251.463 177.452 251.091 177.452C250.708 177.452 250.388 177.551 250.132 177.75C249.877 177.949 249.684 178.22 249.553 178.564C249.425 178.908 249.361 179.295 249.361 179.727C249.361 180.165 249.426 180.558 249.557 180.908C249.688 181.257 249.881 181.534 250.137 181.739C250.395 181.94 250.713 182.041 251.091 182.041ZM258.692 183.132C258.048 183.132 257.492 182.994 257.026 182.719C256.563 182.44 256.205 182.05 255.952 181.547C255.702 181.041 255.577 180.449 255.577 179.77C255.577 179.099 255.702 178.509 255.952 177.997C256.205 177.486 256.558 177.087 257.009 176.8C257.464 176.513 257.995 176.369 258.603 176.369C258.972 176.369 259.33 176.43 259.677 176.553C260.023 176.675 260.334 176.866 260.61 177.128C260.886 177.389 261.103 177.729 261.262 178.146C261.421 178.561 261.501 179.065 261.501 179.659V180.111H256.298V179.156H260.252C260.252 178.821 260.184 178.524 260.048 178.266C259.911 178.004 259.719 177.798 259.472 177.648C259.228 177.497 258.941 177.422 258.611 177.422C258.254 177.422 257.941 177.51 257.674 177.686C257.41 177.859 257.205 178.087 257.06 178.368C256.918 178.646 256.847 178.949 256.847 179.276V180.021C256.847 180.459 256.924 180.831 257.077 181.138C257.234 181.445 257.451 181.679 257.729 181.841C258.008 182 258.333 182.08 258.705 182.08C258.947 182.08 259.167 182.045 259.366 181.977C259.565 181.906 259.736 181.801 259.881 181.662C260.026 181.523 260.137 181.351 260.214 181.146L261.42 181.364C261.323 181.719 261.15 182.03 260.9 182.297C260.653 182.561 260.342 182.767 259.967 182.915C259.594 183.06 259.17 183.132 258.692 183.132ZM262.914 183V176.455H264.146V177.494H264.214C264.333 177.142 264.544 176.865 264.845 176.663C265.149 176.459 265.493 176.357 265.876 176.357C265.956 176.357 266.049 176.359 266.157 176.365C266.268 176.371 266.355 176.378 266.417 176.386V177.605C266.366 177.591 266.275 177.575 266.145 177.558C266.014 177.538 265.883 177.528 265.752 177.528C265.451 177.528 265.183 177.592 264.947 177.72C264.714 177.845 264.529 178.02 264.393 178.244C264.257 178.466 264.189 178.719 264.189 179.003V183H262.914ZM272.425 178.053L271.27 178.257C271.222 178.109 271.145 177.969 271.04 177.835C270.937 177.702 270.798 177.592 270.622 177.507C270.446 177.422 270.226 177.379 269.962 177.379C269.601 177.379 269.3 177.46 269.058 177.622C268.817 177.781 268.696 177.987 268.696 178.24C268.696 178.459 268.777 178.635 268.939 178.768C269.101 178.902 269.362 179.011 269.723 179.097L270.763 179.335C271.365 179.474 271.814 179.689 272.109 179.979C272.405 180.268 272.553 180.645 272.553 181.108C272.553 181.5 272.439 181.849 272.212 182.156C271.987 182.46 271.673 182.699 271.27 182.872C270.869 183.045 270.405 183.132 269.876 183.132C269.143 183.132 268.545 182.976 268.082 182.663C267.619 182.348 267.335 181.901 267.23 181.321L268.462 181.134C268.538 181.455 268.696 181.697 268.935 181.862C269.173 182.024 269.484 182.105 269.868 182.105C270.285 182.105 270.619 182.018 270.869 181.845C271.119 181.669 271.244 181.455 271.244 181.202C271.244 180.997 271.168 180.825 271.014 180.686C270.864 180.547 270.632 180.442 270.32 180.371L269.212 180.128C268.601 179.989 268.149 179.767 267.857 179.463C267.567 179.159 267.422 178.774 267.422 178.308C267.422 177.922 267.53 177.584 267.746 177.294C267.962 177.004 268.26 176.778 268.641 176.616C269.021 176.452 269.457 176.369 269.949 176.369C270.656 176.369 271.213 176.523 271.619 176.83C272.026 177.134 272.294 177.541 272.425 178.053Z" fill="black"/>
<path opacity="0.25" d="M369 27.4796C369 97.4728 326.348 119.936 303.729 100.077C285.311 83.7997 279.818 49.2914 252.029 45.7103C216.809 41.4782 213.577 88.6829 190.312 88.6829C163.17 88.6829 158 49.2914 158 28.7817C158 7.94656 163.816 -20.3764 186.758 -20.3764C213.577 -20.3764 215.193 20.3175 248.798 18.0386C282.08 15.7598 282.726 -26.5618 304.698 -44.4671C323.763 -60.419 369 -43.4904 369 27.4796Z" fill="#072723"/>
</g>
<rect x="1" y="1" width="324" height="205" rx="23" stroke="#072723" stroke-width="2"/>
<defs>
<clipPath id="clip0_4333_1933">
<rect width="326" height="207" rx="24" fill="white"/>
</clipPath>
</defs>
</svg>
