<svg width="648" height="207" viewBox="0 0 648 207" fill="none" xmlns="http://www.w3.org/2000/svg">
<g clip-path="url(#clip0_4167_144)">
<rect width="648" height="207" rx="24" fill="#3FF8CB"/>
<path d="M63.5639 113.994C58.4503 113.994 53.9048 113.118 49.9276 111.366C45.974 109.615 42.849 107.176 40.5526 104.051C38.2562 100.926 37.0369 97.3158 36.8949 93.2202H50.2472C50.3655 95.1851 51.0166 96.9015 52.2003 98.3693C53.384 99.8134 54.9583 100.938 56.9233 101.743C58.8883 102.548 61.09 102.95 63.5284 102.95C66.1326 102.95 68.4408 102.5 70.4531 101.601C72.4654 100.678 74.0398 99.3991 75.1761 97.7656C76.3125 96.1321 76.8688 94.25 76.8452 92.1193C76.8688 89.9176 76.3007 87.9763 75.1406 86.2955C73.9806 84.6146 72.2997 83.3007 70.098 82.3537C67.92 81.4067 65.2921 80.9332 62.2145 80.9332H55.7869V70.777H62.2145C64.7476 70.777 66.9612 70.339 68.8551 69.4631C70.7727 68.5871 72.276 67.3561 73.3651 65.7699C74.4541 64.16 74.9867 62.3016 74.9631 60.1946C74.9867 58.1349 74.5251 56.3475 73.5781 54.8324C72.6548 53.2936 71.3409 52.098 69.6364 51.2457C67.9555 50.3935 65.9787 49.9673 63.706 49.9673C61.4806 49.9673 59.4209 50.3698 57.527 51.1747C55.633 51.9796 54.1061 53.1278 52.946 54.6193C51.786 56.0871 51.1705 57.839 51.0994 59.875H38.4219C38.5166 55.803 39.6884 52.2282 41.9375 49.1506C44.2102 46.0492 47.2405 43.6345 51.0284 41.9062C54.8163 40.1544 59.0658 39.2784 63.777 39.2784C68.6302 39.2784 72.8442 40.1899 76.419 42.0128C80.0175 43.812 82.7992 46.2386 84.7642 49.2926C86.7292 52.3466 87.7116 55.7202 87.7116 59.4134C87.7353 63.509 86.5279 66.9418 84.0895 69.7116C81.6747 72.4815 78.5024 74.2926 74.5724 75.1449V75.7131C79.6861 76.4233 83.6042 78.3172 86.3267 81.3949C89.0729 84.4489 90.4342 88.2486 90.4105 92.794C90.4105 96.866 89.2505 100.512 86.9304 103.732C84.634 106.928 81.4617 109.437 77.4134 111.26C73.3887 113.083 68.7723 113.994 63.5639 113.994ZM127.482 114.385C121.634 114.385 116.615 112.905 112.425 109.946C108.258 106.963 105.051 102.666 102.801 97.0554C100.576 91.4209 99.4634 84.6383 99.4634 76.7074C99.4871 68.7765 100.612 62.0294 102.837 56.4659C105.086 50.8788 108.294 46.6174 112.461 43.6818C116.651 40.7462 121.658 39.2784 127.482 39.2784C133.306 39.2784 138.313 40.7462 142.503 43.6818C146.694 46.6174 149.901 50.8788 152.127 56.4659C154.376 62.053 155.5 68.8002 155.5 76.7074C155.5 84.6619 154.376 91.4564 152.127 97.0909C149.901 102.702 146.694 106.987 142.503 109.946C138.337 112.905 133.329 114.385 127.482 114.385ZM127.482 103.27C132.027 103.27 135.614 101.033 138.242 96.5582C140.893 92.0601 142.219 85.4432 142.219 76.7074C142.219 70.9309 141.615 66.0777 140.408 62.1477C139.201 58.2178 137.496 55.2585 135.294 53.2699C133.093 51.2576 130.489 50.2514 127.482 50.2514C122.96 50.2514 119.385 52.5005 116.757 56.9986C114.13 61.473 112.804 68.0426 112.78 76.7074C112.757 82.5076 113.337 87.3845 114.52 91.3381C115.728 95.2917 117.432 98.2746 119.634 100.287C121.836 102.276 124.452 103.27 127.482 103.27ZM192.181 114.385C186.334 114.385 181.315 112.905 177.124 109.946C172.958 106.963 169.75 102.666 167.501 97.0554C165.275 91.4209 164.163 84.6383 164.163 76.7074C164.186 68.7765 165.311 62.0294 167.536 56.4659C169.785 50.8788 172.993 46.6174 177.16 43.6818C181.35 40.7462 186.357 39.2784 192.181 39.2784C198.005 39.2784 203.012 40.7462 207.202 43.6818C211.393 46.6174 214.601 50.8788 216.826 56.4659C219.075 62.053 220.2 68.8002 220.2 76.7074C220.2 84.6619 219.075 91.4564 216.826 97.0909C214.601 102.702 211.393 106.987 207.202 109.946C203.036 112.905 198.029 114.385 192.181 114.385ZM192.181 103.27C196.727 103.27 200.313 101.033 202.941 96.5582C205.593 92.0601 206.918 85.4432 206.918 76.7074C206.918 70.9309 206.315 66.0777 205.107 62.1477C203.9 58.2178 202.195 55.2585 199.994 53.2699C197.792 51.2576 195.188 50.2514 192.181 50.2514C187.659 50.2514 184.085 52.5005 181.457 56.9986C178.829 61.473 177.503 68.0426 177.479 76.7074C177.456 82.5076 178.036 87.3845 179.219 91.3381C180.427 95.2917 182.131 98.2746 184.333 100.287C186.535 102.276 189.151 103.27 192.181 103.27ZM251.589 101.352V52.2045H262.74V101.352H251.589ZM232.591 82.3537V71.2031H281.738V82.3537H232.591Z" fill="#072723"/>
<path d="M45.9888 168.472C44.6386 168.472 43.4179 168.222 42.3267 167.723C41.2355 167.214 40.3708 166.479 39.7327 165.517C39.1039 164.555 38.7894 163.376 38.7894 161.98C38.7894 160.778 39.0206 159.788 39.483 159.011C39.9454 158.234 40.5696 157.619 41.3557 157.166C42.1417 156.713 43.0203 156.371 43.9913 156.14C44.9623 155.909 45.9518 155.733 46.9598 155.613C48.236 155.465 49.2718 155.344 50.0671 155.252C50.8624 155.15 51.4404 154.988 51.801 154.766C52.1617 154.545 52.342 154.184 52.342 153.684V153.587C52.342 152.376 51.9999 151.437 51.3155 150.771C50.6404 150.106 49.6324 149.773 48.2915 149.773C46.8951 149.773 45.7946 150.082 44.9901 150.702C44.1948 151.312 43.6445 151.992 43.3393 152.741L39.4414 151.853C39.9038 150.559 40.5789 149.514 41.4667 148.718C42.3637 147.914 43.3948 147.331 44.56 146.971C45.7253 146.601 46.9506 146.416 48.236 146.416C49.0868 146.416 49.9885 146.517 50.941 146.721C51.9028 146.915 52.7998 147.276 53.6321 147.803C54.4736 148.33 55.1626 149.084 55.699 150.064C56.2353 151.035 56.5035 152.297 56.5035 153.851V168H52.453V165.087H52.2865C52.0183 165.623 51.6161 166.15 51.0797 166.668C50.5433 167.186 49.8544 167.616 49.0128 167.958C48.1713 168.301 47.1633 168.472 45.9888 168.472ZM46.8905 165.142C48.0372 165.142 49.0175 164.916 49.8313 164.463C50.6543 164.01 51.2785 163.418 51.7039 162.687C52.1386 161.947 52.3559 161.157 52.3559 160.315V157.569C52.2079 157.717 51.9212 157.855 51.4958 157.985C51.0797 158.105 50.6034 158.211 50.0671 158.304C49.5307 158.387 49.0082 158.466 48.4996 158.54C47.991 158.604 47.5656 158.66 47.2234 158.706C46.4188 158.808 45.6836 158.979 45.0178 159.219C44.3612 159.46 43.8341 159.806 43.4364 160.26C43.048 160.704 42.8538 161.295 42.8538 162.035C42.8538 163.062 43.233 163.839 43.9913 164.366C44.7496 164.884 45.716 165.142 46.8905 165.142ZM69.0028 168.43C66.9406 168.43 65.165 167.963 63.6761 167.029C62.1965 166.086 61.059 164.786 60.2637 163.131C59.4684 161.476 59.0707 159.58 59.0707 157.444C59.0707 155.28 59.4776 153.37 60.2914 151.715C61.1052 150.05 62.252 148.751 63.7316 147.817C65.2112 146.883 66.9544 146.416 68.9612 146.416C70.5796 146.416 72.0222 146.716 73.2892 147.317C74.5561 147.909 75.578 148.742 76.3548 149.814C77.1408 150.887 77.6079 152.14 77.7558 153.574H73.7192C73.4972 152.575 72.9886 151.715 72.1933 150.993C71.4072 150.272 70.353 149.911 69.0306 149.911C67.8746 149.911 66.862 150.217 65.9927 150.827C65.1326 151.428 64.4622 152.288 63.9813 153.407C63.5004 154.517 63.26 155.83 63.26 157.347C63.26 158.9 63.4958 160.241 63.9674 161.369C64.4391 162.498 65.1049 163.372 65.9649 163.991C66.8342 164.611 67.8561 164.92 69.0306 164.92C69.8166 164.92 70.5287 164.777 71.1668 164.49C71.8141 164.195 72.3551 163.774 72.7898 163.228C73.2337 162.683 73.5435 162.026 73.7192 161.258H77.7558C77.6079 162.636 77.1593 163.866 76.4103 164.948C75.6612 166.03 74.6578 166.881 73.4001 167.501C72.1517 168.12 70.6859 168.43 69.0028 168.43ZM90.1372 146.693V150.022H78.4989V146.693H90.1372ZM81.6201 141.588H85.7677V161.744C85.7677 162.548 85.8879 163.154 86.1283 163.561C86.3688 163.959 86.6786 164.232 87.0577 164.38C87.4461 164.518 87.8669 164.588 88.32 164.588C88.653 164.588 88.9443 164.564 89.194 164.518C89.4436 164.472 89.6379 164.435 89.7766 164.407L90.5256 167.834C90.2852 167.926 89.943 168.018 89.4991 168.111C89.0552 168.213 88.5004 168.268 87.8345 168.277C86.7433 168.296 85.7261 168.102 84.7828 167.695C83.8395 167.288 83.0766 166.659 82.494 165.808C81.9114 164.957 81.6201 163.889 81.6201 162.604V141.588ZM92.7253 168V146.693H96.8729V168H92.7253ZM94.8199 143.406C94.0986 143.406 93.479 143.165 92.9611 142.684C92.4525 142.194 92.1981 141.612 92.1981 140.936C92.1981 140.252 92.4525 139.67 92.9611 139.189C93.479 138.699 94.0986 138.453 94.8199 138.453C95.5412 138.453 96.1562 138.699 96.6648 139.189C97.1827 139.67 97.4416 140.252 97.4416 140.936C97.4416 141.612 97.1827 142.194 96.6648 142.684C96.1562 143.165 95.5412 143.406 94.8199 143.406ZM118.68 146.693L110.954 168H106.515L98.7743 146.693H103.227L108.623 163.089H108.845L114.227 146.693H118.68ZM129.036 168.43C126.937 168.43 125.129 167.982 123.612 167.084C122.105 166.178 120.94 164.907 120.117 163.27C119.303 161.624 118.896 159.696 118.896 157.485C118.896 155.303 119.303 153.379 120.117 151.715C120.94 150.05 122.087 148.751 123.557 147.817C125.037 146.883 126.766 146.416 128.745 146.416C129.947 146.416 131.112 146.615 132.241 147.012C133.369 147.41 134.381 148.034 135.278 148.885C136.175 149.736 136.883 150.841 137.401 152.2C137.919 153.55 138.178 155.192 138.178 157.125V158.595H121.24V155.488H134.113C134.113 154.397 133.891 153.43 133.447 152.589C133.004 151.738 132.379 151.067 131.575 150.577C130.779 150.087 129.845 149.842 128.773 149.842C127.607 149.842 126.59 150.129 125.721 150.702C124.861 151.266 124.195 152.006 123.723 152.922C123.261 153.828 123.03 154.813 123.03 155.876V158.304C123.03 159.728 123.279 160.939 123.779 161.938C124.287 162.937 124.995 163.7 125.901 164.227C126.808 164.745 127.866 165.004 129.078 165.004C129.864 165.004 130.581 164.893 131.228 164.671C131.875 164.44 132.435 164.097 132.906 163.644C133.378 163.191 133.739 162.632 133.988 161.966L137.914 162.673C137.6 163.829 137.036 164.842 136.222 165.711C135.417 166.571 134.405 167.242 133.184 167.723C131.972 168.194 130.59 168.43 129.036 168.43ZM153.265 155.349V168H149.117V146.693H153.099V150.161H153.362C153.852 149.033 154.62 148.127 155.665 147.442C156.719 146.758 158.046 146.416 159.646 146.416C161.098 146.416 162.369 146.721 163.461 147.331C164.552 147.932 165.398 148.829 165.999 150.022C166.6 151.215 166.901 152.69 166.901 154.447V168H162.753V154.947C162.753 153.402 162.351 152.196 161.546 151.326C160.742 150.448 159.637 150.008 158.231 150.008C157.269 150.008 156.414 150.217 155.665 150.633C154.925 151.049 154.338 151.659 153.903 152.464C153.478 153.259 153.265 154.221 153.265 155.349ZM179.646 168.43C177.547 168.43 175.739 167.982 174.223 167.084C172.715 166.178 171.55 164.907 170.727 163.27C169.913 161.624 169.506 159.696 169.506 157.485C169.506 155.303 169.913 153.379 170.727 151.715C171.55 150.05 172.697 148.751 174.167 147.817C175.647 146.883 177.376 146.416 179.355 146.416C180.557 146.416 181.722 146.615 182.851 147.012C183.979 147.41 184.992 148.034 185.889 148.885C186.786 149.736 187.493 150.841 188.011 152.2C188.529 153.55 188.788 155.192 188.788 157.125V158.595H171.85V155.488H184.723C184.723 154.397 184.501 153.43 184.058 152.589C183.614 151.738 182.989 151.067 182.185 150.577C181.39 150.087 180.456 149.842 179.383 149.842C178.218 149.842 177.2 150.129 176.331 150.702C175.471 151.266 174.805 152.006 174.333 152.922C173.871 153.828 173.64 154.813 173.64 155.876V158.304C173.64 159.728 173.89 160.939 174.389 161.938C174.898 162.937 175.605 163.7 176.511 164.227C177.418 164.745 178.476 165.004 179.688 165.004C180.474 165.004 181.191 164.893 181.838 164.671C182.485 164.44 183.045 164.097 183.517 163.644C183.988 163.191 184.349 162.632 184.598 161.966L188.524 162.673C188.21 163.829 187.646 164.842 186.832 165.711C186.027 166.571 185.015 167.242 183.794 167.723C182.582 168.194 181.2 168.43 179.646 168.43ZM201.336 146.693V150.022H189.697V146.693H201.336ZM192.818 141.588H196.966V161.744C196.966 162.548 197.086 163.154 197.327 163.561C197.567 163.959 197.877 164.232 198.256 164.38C198.644 164.518 199.065 164.588 199.518 164.588C199.851 164.588 200.143 164.564 200.392 164.518C200.642 164.472 200.836 164.435 200.975 164.407L201.724 167.834C201.484 167.926 201.141 168.018 200.697 168.111C200.254 168.213 199.699 168.268 199.033 168.277C197.942 168.296 196.924 168.102 195.981 167.695C195.038 167.288 194.275 166.659 193.692 165.808C193.11 164.957 192.818 163.889 192.818 162.604V141.588ZM208.543 168L202.273 146.693H206.559L210.735 162.34H210.943L215.132 146.693H219.418L223.58 162.271H223.788L227.935 146.693H232.222L225.966 168H221.735L217.407 152.616H217.088L212.76 168H208.543ZM242.484 168.43C240.487 168.43 238.744 167.972 237.255 167.057C235.766 166.141 234.61 164.86 233.787 163.214C232.964 161.568 232.552 159.645 232.552 157.444C232.552 155.233 232.964 153.301 233.787 151.645C234.61 149.99 235.766 148.705 237.255 147.789C238.744 146.874 240.487 146.416 242.484 146.416C244.482 146.416 246.225 146.874 247.714 147.789C249.203 148.705 250.359 149.99 251.182 151.645C252.005 153.301 252.416 155.233 252.416 157.444C252.416 159.645 252.005 161.568 251.182 163.214C250.359 164.86 249.203 166.141 247.714 167.057C246.225 167.972 244.482 168.43 242.484 168.43ZM242.498 164.948C243.793 164.948 244.866 164.606 245.716 163.922C246.567 163.237 247.196 162.327 247.603 161.189C248.019 160.052 248.227 158.798 248.227 157.43C248.227 156.07 248.019 154.822 247.603 153.684C247.196 152.538 246.567 151.618 245.716 150.924C244.866 150.23 243.793 149.884 242.498 149.884C241.194 149.884 240.112 150.23 239.252 150.924C238.401 151.618 237.768 152.538 237.352 153.684C236.945 154.822 236.741 156.07 236.741 157.43C236.741 158.798 236.945 160.052 237.352 161.189C237.768 162.327 238.401 163.237 239.252 163.922C240.112 164.606 241.194 164.948 242.498 164.948ZM255.046 168V146.693H259.055V150.078H259.277C259.665 148.931 260.35 148.029 261.33 147.373C262.319 146.707 263.438 146.374 264.687 146.374C264.946 146.374 265.251 146.383 265.602 146.402C265.963 146.42 266.245 146.443 266.448 146.471V150.439C266.282 150.392 265.986 150.341 265.561 150.286C265.135 150.221 264.71 150.189 264.285 150.189C263.304 150.189 262.43 150.397 261.663 150.813C260.904 151.22 260.303 151.789 259.859 152.519C259.416 153.241 259.194 154.064 259.194 154.988V168H255.046ZM271.852 160.773L271.825 155.71H272.546L281.035 146.693H286.002L276.319 156.958H275.667L271.852 160.773ZM268.038 168V139.591H272.185V168H268.038ZM281.493 168L273.864 157.874L276.721 154.975L286.584 168H281.493Z" fill="#072723"/>
<path d="M309.034 130L306.466 121.273H308.222L309.932 127.682H310.017L311.733 121.273H313.489L315.193 127.653H315.278L316.977 121.273H318.733L316.17 130H314.438L312.665 123.699H312.534L310.761 130H309.034ZM320.345 130V121.273H322.044V130H320.345ZM321.203 119.926C320.908 119.926 320.654 119.828 320.442 119.631C320.233 119.43 320.129 119.191 320.129 118.915C320.129 118.634 320.233 118.396 320.442 118.199C320.654 117.998 320.908 117.898 321.203 117.898C321.499 117.898 321.75 117.998 321.959 118.199C322.171 118.396 322.277 118.634 322.277 118.915C322.277 119.191 322.171 119.43 321.959 119.631C321.75 119.828 321.499 119.926 321.203 119.926ZM328.403 121.273V122.636H323.636V121.273H328.403ZM324.915 119.182H326.614V127.438C326.614 127.767 326.663 128.015 326.761 128.182C326.86 128.345 326.987 128.456 327.142 128.517C327.301 128.574 327.473 128.602 327.659 128.602C327.795 128.602 327.915 128.593 328.017 128.574C328.119 128.555 328.199 128.54 328.256 128.528L328.562 129.932C328.464 129.97 328.324 130.008 328.142 130.045C327.96 130.087 327.733 130.11 327.46 130.114C327.013 130.121 326.597 130.042 326.21 129.875C325.824 129.708 325.511 129.451 325.273 129.102C325.034 128.754 324.915 128.316 324.915 127.79V119.182ZM332.169 124.818V130H330.47V118.364H332.146V122.693H332.254C332.459 122.223 332.771 121.85 333.192 121.574C333.612 121.297 334.161 121.159 334.839 121.159C335.438 121.159 335.961 121.282 336.408 121.528C336.858 121.775 337.207 122.142 337.453 122.631C337.703 123.116 337.828 123.722 337.828 124.449V130H336.129V124.653C336.129 124.013 335.964 123.517 335.635 123.165C335.305 122.809 334.847 122.631 334.26 122.631C333.858 122.631 333.499 122.716 333.18 122.886C332.866 123.057 332.618 123.307 332.436 123.636C332.258 123.962 332.169 124.356 332.169 124.818ZM348.006 130.176C347.161 130.176 346.434 129.985 345.824 129.602C345.218 129.216 344.752 128.684 344.426 128.006C344.1 127.328 343.938 126.551 343.938 125.676C343.938 124.79 344.104 124.008 344.438 123.33C344.771 122.648 345.241 122.116 345.847 121.733C346.453 121.35 347.167 121.159 347.989 121.159C348.652 121.159 349.242 121.282 349.761 121.528C350.28 121.771 350.699 122.112 351.017 122.551C351.339 122.991 351.53 123.504 351.591 124.091H349.938C349.847 123.682 349.638 123.33 349.312 123.034C348.991 122.739 348.559 122.591 348.017 122.591C347.544 122.591 347.129 122.716 346.773 122.966C346.42 123.212 346.146 123.564 345.949 124.023C345.752 124.477 345.653 125.015 345.653 125.636C345.653 126.273 345.75 126.822 345.943 127.284C346.136 127.746 346.409 128.104 346.761 128.358C347.117 128.612 347.536 128.739 348.017 128.739C348.339 128.739 348.631 128.68 348.892 128.562C349.157 128.441 349.379 128.269 349.557 128.045C349.739 127.822 349.866 127.553 349.938 127.239H351.591C351.53 127.803 351.347 128.307 351.04 128.75C350.733 129.193 350.322 129.542 349.807 129.795C349.295 130.049 348.695 130.176 348.006 130.176ZM357.084 130.176C356.266 130.176 355.552 129.989 354.942 129.614C354.332 129.239 353.858 128.714 353.521 128.04C353.184 127.366 353.016 126.578 353.016 125.676C353.016 124.771 353.184 123.979 353.521 123.301C353.858 122.623 354.332 122.097 354.942 121.722C355.552 121.347 356.266 121.159 357.084 121.159C357.902 121.159 358.616 121.347 359.226 121.722C359.836 122.097 360.309 122.623 360.646 123.301C360.983 123.979 361.152 124.771 361.152 125.676C361.152 126.578 360.983 127.366 360.646 128.04C360.309 128.714 359.836 129.239 359.226 129.614C358.616 129.989 357.902 130.176 357.084 130.176ZM357.089 128.75C357.62 128.75 358.059 128.61 358.408 128.33C358.756 128.049 359.014 127.676 359.18 127.21C359.351 126.744 359.436 126.231 359.436 125.67C359.436 125.114 359.351 124.602 359.18 124.136C359.014 123.667 358.756 123.29 358.408 123.006C358.059 122.722 357.62 122.58 357.089 122.58C356.555 122.58 356.112 122.722 355.76 123.006C355.411 123.29 355.152 123.667 354.982 124.136C354.815 124.602 354.732 125.114 354.732 125.67C354.732 126.231 354.815 126.744 354.982 127.21C355.152 127.676 355.411 128.049 355.76 128.33C356.112 128.61 356.555 128.75 357.089 128.75ZM364.747 124.818V130H363.048V121.273H364.679V122.693H364.787C364.988 122.231 365.302 121.86 365.73 121.58C366.162 121.299 366.705 121.159 367.361 121.159C367.955 121.159 368.476 121.284 368.923 121.534C369.37 121.78 369.717 122.148 369.963 122.636C370.209 123.125 370.332 123.729 370.332 124.449V130H368.634V124.653C368.634 124.021 368.469 123.527 368.139 123.17C367.81 122.811 367.357 122.631 366.781 122.631C366.387 122.631 366.037 122.716 365.73 122.886C365.427 123.057 365.187 123.307 365.009 123.636C364.834 123.962 364.747 124.356 364.747 124.818ZM376.685 121.273V122.636H371.918V121.273H376.685ZM373.196 119.182H374.895V127.438C374.895 127.767 374.944 128.015 375.043 128.182C375.141 128.345 375.268 128.456 375.423 128.517C375.582 128.574 375.755 128.602 375.94 128.602C376.077 128.602 376.196 128.593 376.298 128.574C376.401 128.555 376.48 128.54 376.537 128.528L376.844 129.932C376.745 129.97 376.605 130.008 376.423 130.045C376.241 130.087 376.014 130.11 375.741 130.114C375.295 130.121 374.878 130.042 374.491 129.875C374.105 129.708 373.793 129.451 373.554 129.102C373.315 128.754 373.196 128.316 373.196 127.79V119.182ZM382.232 130.176C381.372 130.176 380.631 129.992 380.01 129.625C379.393 129.254 378.915 128.733 378.578 128.062C378.245 127.388 378.078 126.598 378.078 125.693C378.078 124.799 378.245 124.011 378.578 123.33C378.915 122.648 379.385 122.116 379.987 121.733C380.593 121.35 381.302 121.159 382.112 121.159C382.605 121.159 383.082 121.241 383.544 121.403C384.006 121.566 384.421 121.822 384.788 122.17C385.156 122.519 385.446 122.972 385.658 123.528C385.87 124.081 385.976 124.754 385.976 125.545V126.148H379.038V124.875H384.311C384.311 124.428 384.22 124.032 384.038 123.688C383.857 123.339 383.601 123.064 383.271 122.864C382.946 122.663 382.563 122.562 382.124 122.562C381.646 122.562 381.23 122.68 380.874 122.915C380.521 123.146 380.249 123.449 380.055 123.824C379.866 124.195 379.771 124.598 379.771 125.034V126.028C379.771 126.612 379.874 127.108 380.078 127.517C380.286 127.926 380.576 128.239 380.947 128.455C381.319 128.667 381.752 128.773 382.249 128.773C382.571 128.773 382.864 128.727 383.129 128.636C383.394 128.542 383.624 128.402 383.817 128.216C384.01 128.03 384.158 127.801 384.26 127.528L385.868 127.818C385.739 128.292 385.508 128.706 385.175 129.062C384.845 129.415 384.43 129.689 383.93 129.886C383.434 130.08 382.868 130.176 382.232 130.176ZM389.56 124.818V130H387.861V121.273H389.491V122.693H389.599C389.8 122.231 390.115 121.86 390.543 121.58C390.974 121.299 391.518 121.159 392.173 121.159C392.768 121.159 393.289 121.284 393.736 121.534C394.183 121.78 394.529 122.148 394.776 122.636C395.022 123.125 395.145 123.729 395.145 124.449V130H393.446V124.653C393.446 124.021 393.281 123.527 392.952 123.17C392.622 122.811 392.17 122.631 391.594 122.631C391.2 122.631 390.849 122.716 390.543 122.886C390.24 123.057 389.999 123.307 389.821 123.636C389.647 123.962 389.56 124.356 389.56 124.818ZM401.497 121.273V122.636H396.73V121.273H401.497ZM398.009 119.182H399.707V127.438C399.707 127.767 399.757 128.015 399.855 128.182C399.954 128.345 400.08 128.456 400.236 128.517C400.395 128.574 400.567 128.602 400.753 128.602C400.889 128.602 401.009 128.593 401.111 128.574C401.213 128.555 401.293 128.54 401.349 128.528L401.656 129.932C401.558 129.97 401.418 130.008 401.236 130.045C401.054 130.087 400.827 130.11 400.554 130.114C400.107 130.121 399.69 130.042 399.304 129.875C398.918 129.708 398.605 129.451 398.366 129.102C398.128 128.754 398.009 128.316 398.009 127.79V119.182ZM310.818 149.176C309.973 149.176 309.246 148.985 308.636 148.602C308.03 148.216 307.564 147.684 307.239 147.006C306.913 146.328 306.75 145.551 306.75 144.676C306.75 143.79 306.917 143.008 307.25 142.33C307.583 141.648 308.053 141.116 308.659 140.733C309.265 140.35 309.979 140.159 310.801 140.159C311.464 140.159 312.055 140.282 312.574 140.528C313.093 140.771 313.511 141.112 313.83 141.551C314.152 141.991 314.343 142.504 314.403 143.091H312.75C312.659 142.682 312.451 142.33 312.125 142.034C311.803 141.739 311.371 141.591 310.83 141.591C310.356 141.591 309.941 141.716 309.585 141.966C309.233 142.212 308.958 142.564 308.761 143.023C308.564 143.477 308.466 144.015 308.466 144.636C308.466 145.273 308.563 145.822 308.756 146.284C308.949 146.746 309.222 147.104 309.574 147.358C309.93 147.612 310.348 147.739 310.83 147.739C311.152 147.739 311.443 147.68 311.705 147.562C311.97 147.441 312.191 147.269 312.369 147.045C312.551 146.822 312.678 146.553 312.75 146.239H314.403C314.343 146.803 314.159 147.307 313.852 147.75C313.545 148.193 313.134 148.542 312.619 148.795C312.108 149.049 311.508 149.176 310.818 149.176ZM316.22 149V140.273H317.862V141.659H317.953C318.112 141.189 318.393 140.82 318.794 140.551C319.199 140.278 319.658 140.142 320.169 140.142C320.275 140.142 320.4 140.146 320.544 140.153C320.692 140.161 320.807 140.17 320.891 140.182V141.807C320.822 141.788 320.701 141.767 320.527 141.744C320.353 141.718 320.179 141.705 320.004 141.705C319.603 141.705 319.245 141.79 318.93 141.96C318.62 142.127 318.374 142.36 318.192 142.659C318.01 142.955 317.919 143.292 317.919 143.67V149H316.22ZM325.81 149.176C324.95 149.176 324.209 148.992 323.588 148.625C322.971 148.254 322.493 147.733 322.156 147.062C321.823 146.388 321.656 145.598 321.656 144.693C321.656 143.799 321.823 143.011 322.156 142.33C322.493 141.648 322.963 141.116 323.565 140.733C324.171 140.35 324.88 140.159 325.69 140.159C326.183 140.159 326.66 140.241 327.122 140.403C327.584 140.566 327.999 140.822 328.366 141.17C328.734 141.519 329.024 141.972 329.236 142.528C329.448 143.081 329.554 143.754 329.554 144.545V145.148H322.616V143.875H327.889C327.889 143.428 327.798 143.032 327.616 142.688C327.435 142.339 327.179 142.064 326.849 141.864C326.524 141.663 326.141 141.562 325.702 141.562C325.224 141.562 324.808 141.68 324.452 141.915C324.099 142.146 323.827 142.449 323.634 142.824C323.444 143.195 323.349 143.598 323.349 144.034V145.028C323.349 145.612 323.452 146.108 323.656 146.517C323.865 146.926 324.154 147.239 324.526 147.455C324.897 147.667 325.33 147.773 325.827 147.773C326.149 147.773 326.442 147.727 326.707 147.636C326.973 147.542 327.202 147.402 327.395 147.216C327.588 147.03 327.736 146.801 327.838 146.528L329.446 146.818C329.317 147.292 329.086 147.706 328.753 148.062C328.423 148.415 328.009 148.689 327.509 148.886C327.012 149.08 326.446 149.176 325.81 149.176ZM333.979 149.193C333.426 149.193 332.926 149.091 332.479 148.886C332.032 148.678 331.678 148.377 331.416 147.983C331.159 147.589 331.03 147.106 331.03 146.534C331.03 146.042 331.125 145.636 331.314 145.318C331.503 145 331.759 144.748 332.081 144.562C332.403 144.377 332.763 144.237 333.161 144.142C333.558 144.047 333.964 143.975 334.376 143.926C334.899 143.866 335.323 143.816 335.649 143.778C335.975 143.737 336.212 143.67 336.359 143.58C336.507 143.489 336.581 143.341 336.581 143.136V143.097C336.581 142.6 336.441 142.216 336.161 141.943C335.884 141.67 335.471 141.534 334.922 141.534C334.35 141.534 333.899 141.661 333.57 141.915C333.244 142.165 333.018 142.443 332.893 142.75L331.297 142.386C331.486 141.856 331.763 141.428 332.126 141.102C332.494 140.773 332.916 140.534 333.393 140.386C333.871 140.235 334.373 140.159 334.899 140.159C335.248 140.159 335.617 140.201 336.007 140.284C336.401 140.364 336.768 140.511 337.109 140.727C337.454 140.943 337.736 141.252 337.956 141.653C338.176 142.051 338.286 142.568 338.286 143.205V149H336.626V147.807H336.558C336.448 148.027 336.284 148.242 336.064 148.455C335.844 148.667 335.562 148.843 335.217 148.983C334.873 149.123 334.46 149.193 333.979 149.193ZM334.348 147.83C334.818 147.83 335.219 147.737 335.553 147.551C335.89 147.366 336.145 147.123 336.32 146.824C336.498 146.521 336.587 146.197 336.587 145.852V144.727C336.526 144.788 336.409 144.845 336.234 144.898C336.064 144.947 335.869 144.991 335.649 145.028C335.429 145.062 335.215 145.095 335.007 145.125C334.799 145.152 334.625 145.174 334.484 145.193C334.155 145.235 333.854 145.305 333.581 145.403C333.312 145.502 333.096 145.644 332.933 145.83C332.774 146.011 332.695 146.254 332.695 146.557C332.695 146.977 332.85 147.295 333.161 147.511C333.471 147.723 333.867 147.83 334.348 147.83ZM344.622 140.273V141.636H339.855V140.273H344.622ZM341.134 138.182H342.832V146.438C342.832 146.767 342.882 147.015 342.98 147.182C343.079 147.345 343.205 147.456 343.361 147.517C343.52 147.574 343.692 147.602 343.878 147.602C344.014 147.602 344.134 147.593 344.236 147.574C344.338 147.555 344.418 147.54 344.474 147.528L344.781 148.932C344.683 148.97 344.543 149.008 344.361 149.045C344.179 149.087 343.952 149.11 343.679 149.114C343.232 149.121 342.815 149.042 342.429 148.875C342.043 148.708 341.73 148.451 341.491 148.102C341.253 147.754 341.134 147.316 341.134 146.79V138.182ZM350.084 149.176C349.266 149.176 348.552 148.989 347.942 148.614C347.332 148.239 346.858 147.714 346.521 147.04C346.184 146.366 346.016 145.578 346.016 144.676C346.016 143.771 346.184 142.979 346.521 142.301C346.858 141.623 347.332 141.097 347.942 140.722C348.552 140.347 349.266 140.159 350.084 140.159C350.902 140.159 351.616 140.347 352.226 140.722C352.836 141.097 353.309 141.623 353.646 142.301C353.983 142.979 354.152 143.771 354.152 144.676C354.152 145.578 353.983 146.366 353.646 147.04C353.309 147.714 352.836 148.239 352.226 148.614C351.616 148.989 350.902 149.176 350.084 149.176ZM350.089 147.75C350.62 147.75 351.059 147.61 351.408 147.33C351.756 147.049 352.014 146.676 352.18 146.21C352.351 145.744 352.436 145.231 352.436 144.67C352.436 144.114 352.351 143.602 352.18 143.136C352.014 142.667 351.756 142.29 351.408 142.006C351.059 141.722 350.62 141.58 350.089 141.58C349.555 141.58 349.112 141.722 348.76 142.006C348.411 142.29 348.152 142.667 347.982 143.136C347.815 143.602 347.732 144.114 347.732 144.67C347.732 145.231 347.815 145.744 347.982 146.21C348.152 146.676 348.411 147.049 348.76 147.33C349.112 147.61 349.555 147.75 350.089 147.75ZM356.048 149V140.273H357.69V141.659H357.781C357.94 141.189 358.221 140.82 358.622 140.551C359.027 140.278 359.486 140.142 359.997 140.142C360.103 140.142 360.228 140.146 360.372 140.153C360.52 140.161 360.635 140.17 360.719 140.182V141.807C360.651 141.788 360.529 141.767 360.355 141.744C360.181 141.718 360.007 141.705 359.832 141.705C359.431 141.705 359.073 141.79 358.759 141.96C358.448 142.127 358.202 142.36 358.02 142.659C357.838 142.955 357.747 143.292 357.747 143.67V149H356.048ZM368.729 142.403L367.189 142.676C367.125 142.479 367.022 142.292 366.882 142.114C366.746 141.936 366.56 141.79 366.325 141.676C366.09 141.562 365.797 141.506 365.445 141.506C364.964 141.506 364.562 141.614 364.24 141.83C363.918 142.042 363.757 142.316 363.757 142.653C363.757 142.945 363.865 143.18 364.081 143.358C364.297 143.536 364.645 143.682 365.126 143.795L366.513 144.114C367.316 144.299 367.914 144.585 368.308 144.972C368.702 145.358 368.899 145.86 368.899 146.477C368.899 147 368.748 147.466 368.445 147.875C368.145 148.28 367.727 148.598 367.189 148.83C366.655 149.061 366.036 149.176 365.331 149.176C364.354 149.176 363.556 148.968 362.939 148.551C362.321 148.131 361.943 147.534 361.803 146.761L363.445 146.511C363.547 146.939 363.757 147.263 364.075 147.483C364.393 147.699 364.808 147.807 365.32 147.807C365.876 147.807 366.321 147.691 366.655 147.46C366.988 147.225 367.155 146.939 367.155 146.602C367.155 146.33 367.053 146.1 366.848 145.915C366.647 145.729 366.339 145.589 365.922 145.494L364.445 145.17C363.63 144.985 363.028 144.689 362.638 144.284C362.251 143.879 362.058 143.366 362.058 142.744C362.058 142.229 362.202 141.778 362.49 141.392C362.778 141.006 363.176 140.705 363.683 140.489C364.191 140.269 364.772 140.159 365.428 140.159C366.371 140.159 367.113 140.364 367.655 140.773C368.196 141.178 368.554 141.722 368.729 142.403ZM375.199 136.818L371.449 150.75H369.932L373.682 136.818H375.199ZM376.778 149V137.364H378.534V142.92H378.676L383.557 137.364H385.767L381.074 142.602L385.784 149H383.67L379.909 143.801L378.534 145.381V149H376.778ZM396.933 143.182C396.933 144.424 396.706 145.492 396.251 146.386C395.797 147.277 395.174 147.962 394.382 148.443C393.594 148.92 392.698 149.159 391.695 149.159C390.687 149.159 389.787 148.92 388.996 148.443C388.208 147.962 387.587 147.275 387.132 146.381C386.678 145.487 386.45 144.42 386.45 143.182C386.45 141.939 386.678 140.873 387.132 139.983C387.587 139.089 388.208 138.403 388.996 137.926C389.787 137.445 390.687 137.205 391.695 137.205C392.698 137.205 393.594 137.445 394.382 137.926C395.174 138.403 395.797 139.089 396.251 139.983C396.706 140.873 396.933 141.939 396.933 143.182ZM395.195 143.182C395.195 142.235 395.041 141.437 394.734 140.79C394.431 140.138 394.015 139.646 393.484 139.312C392.958 138.975 392.361 138.807 391.695 138.807C391.024 138.807 390.426 138.975 389.899 139.312C389.373 139.646 388.956 140.138 388.649 140.79C388.346 141.437 388.195 142.235 388.195 143.182C388.195 144.129 388.346 144.928 388.649 145.58C388.956 146.227 389.373 146.72 389.899 147.057C390.426 147.39 391.024 147.557 391.695 147.557C392.361 147.557 392.958 147.39 393.484 147.057C394.015 146.72 394.431 146.227 394.734 145.58C395.041 144.928 395.195 144.129 395.195 143.182ZM399.122 149V137.364H400.878V147.489H406.151V149H399.122ZM414.557 142.403L413.017 142.676C412.953 142.479 412.85 142.292 412.71 142.114C412.574 141.936 412.388 141.79 412.153 141.676C411.919 141.562 411.625 141.506 411.273 141.506C410.792 141.506 410.39 141.614 410.068 141.83C409.746 142.042 409.585 142.316 409.585 142.653C409.585 142.945 409.693 143.18 409.909 143.358C410.125 143.536 410.473 143.682 410.955 143.795L412.341 144.114C413.144 144.299 413.742 144.585 414.136 144.972C414.53 145.358 414.727 145.86 414.727 146.477C414.727 147 414.576 147.466 414.273 147.875C413.973 148.28 413.555 148.598 413.017 148.83C412.483 149.061 411.864 149.176 411.159 149.176C410.182 149.176 409.384 148.968 408.767 148.551C408.15 148.131 407.771 147.534 407.631 146.761L409.273 146.511C409.375 146.939 409.585 147.263 409.903 147.483C410.222 147.699 410.636 147.807 411.148 147.807C411.705 147.807 412.15 147.691 412.483 147.46C412.816 147.225 412.983 146.939 412.983 146.602C412.983 146.33 412.881 146.1 412.676 145.915C412.475 145.729 412.167 145.589 411.75 145.494L410.273 145.17C409.458 144.985 408.856 144.689 408.466 144.284C408.08 143.879 407.886 143.366 407.886 142.744C407.886 142.229 408.03 141.778 408.318 141.392C408.606 141.006 409.004 140.705 409.511 140.489C410.019 140.269 410.6 140.159 411.256 140.159C412.199 140.159 412.941 140.364 413.483 140.773C414.025 141.178 414.383 141.722 414.557 142.403ZM421.027 136.818L417.277 150.75H415.76L419.51 136.818H421.027ZM307.142 168V159.273H308.773V160.693H308.881C309.063 160.212 309.36 159.837 309.773 159.568C310.186 159.295 310.68 159.159 311.256 159.159C311.839 159.159 312.328 159.295 312.722 159.568C313.119 159.841 313.413 160.216 313.602 160.693H313.693C313.902 160.227 314.233 159.856 314.688 159.58C315.142 159.299 315.684 159.159 316.312 159.159C317.104 159.159 317.75 159.407 318.25 159.903C318.754 160.4 319.006 161.148 319.006 162.148V168H317.307V162.307C317.307 161.716 317.146 161.288 316.824 161.023C316.502 160.758 316.117 160.625 315.67 160.625C315.117 160.625 314.688 160.795 314.381 161.136C314.074 161.473 313.92 161.907 313.92 162.438V168H312.227V162.199C312.227 161.725 312.08 161.345 311.784 161.057C311.489 160.769 311.104 160.625 310.631 160.625C310.309 160.625 310.011 160.71 309.739 160.881C309.47 161.047 309.252 161.28 309.085 161.58C308.922 161.879 308.841 162.225 308.841 162.619V168H307.142ZM323.822 168.193C323.269 168.193 322.769 168.091 322.322 167.886C321.875 167.678 321.521 167.377 321.26 166.983C321.002 166.589 320.874 166.106 320.874 165.534C320.874 165.042 320.968 164.636 321.158 164.318C321.347 164 321.603 163.748 321.925 163.562C322.247 163.377 322.607 163.237 323.004 163.142C323.402 163.047 323.807 162.975 324.22 162.926C324.743 162.866 325.167 162.816 325.493 162.778C325.819 162.737 326.055 162.67 326.203 162.58C326.351 162.489 326.425 162.341 326.425 162.136V162.097C326.425 161.6 326.285 161.216 326.004 160.943C325.728 160.67 325.315 160.534 324.766 160.534C324.194 160.534 323.743 160.661 323.413 160.915C323.088 161.165 322.862 161.443 322.737 161.75L321.141 161.386C321.33 160.856 321.607 160.428 321.97 160.102C322.338 159.773 322.76 159.534 323.237 159.386C323.714 159.235 324.216 159.159 324.743 159.159C325.091 159.159 325.461 159.201 325.851 159.284C326.245 159.364 326.612 159.511 326.953 159.727C327.298 159.943 327.58 160.252 327.8 160.653C328.019 161.051 328.129 161.568 328.129 162.205V168H326.47V166.807H326.402C326.292 167.027 326.127 167.242 325.908 167.455C325.688 167.667 325.406 167.843 325.061 167.983C324.716 168.123 324.304 168.193 323.822 168.193ZM324.192 166.83C324.661 166.83 325.063 166.737 325.396 166.551C325.733 166.366 325.989 166.123 326.163 165.824C326.341 165.521 326.43 165.197 326.43 164.852V163.727C326.37 163.788 326.252 163.845 326.078 163.898C325.908 163.947 325.713 163.991 325.493 164.028C325.273 164.062 325.059 164.095 324.851 164.125C324.643 164.152 324.468 164.174 324.328 164.193C323.999 164.235 323.697 164.305 323.425 164.403C323.156 164.502 322.94 164.644 322.777 164.83C322.618 165.011 322.538 165.254 322.538 165.557C322.538 165.977 322.694 166.295 323.004 166.511C323.315 166.723 323.711 166.83 324.192 166.83ZM330.392 168V159.273H332.034V160.659H332.125C332.284 160.189 332.564 159.82 332.966 159.551C333.371 159.278 333.83 159.142 334.341 159.142C334.447 159.142 334.572 159.146 334.716 159.153C334.864 159.161 334.979 159.17 335.062 159.182V160.807C334.994 160.788 334.873 160.767 334.699 160.744C334.525 160.718 334.35 160.705 334.176 160.705C333.775 160.705 333.417 160.79 333.102 160.96C332.792 161.127 332.545 161.36 332.364 161.659C332.182 161.955 332.091 162.292 332.091 162.67V168H330.392ZM338.095 165.04L338.084 162.966H338.379L341.857 159.273H343.891L339.925 163.477H339.658L338.095 165.04ZM336.533 168V156.364H338.232V168H336.533ZM342.044 168L338.919 163.852L340.089 162.665L344.129 168H342.044ZM348.841 168.176C347.981 168.176 347.241 167.992 346.619 167.625C346.002 167.254 345.525 166.733 345.188 166.062C344.854 165.388 344.688 164.598 344.688 163.693C344.688 162.799 344.854 162.011 345.188 161.33C345.525 160.648 345.994 160.116 346.597 159.733C347.203 159.35 347.911 159.159 348.722 159.159C349.214 159.159 349.691 159.241 350.153 159.403C350.616 159.566 351.03 159.822 351.398 160.17C351.765 160.519 352.055 160.972 352.267 161.528C352.479 162.081 352.585 162.754 352.585 163.545V164.148H345.648V162.875H350.92C350.92 162.428 350.83 162.032 350.648 161.688C350.466 161.339 350.21 161.064 349.881 160.864C349.555 160.663 349.172 160.562 348.733 160.562C348.256 160.562 347.839 160.68 347.483 160.915C347.131 161.146 346.858 161.449 346.665 161.824C346.475 162.195 346.381 162.598 346.381 163.034V164.028C346.381 164.612 346.483 165.108 346.688 165.517C346.896 165.926 347.186 166.239 347.557 166.455C347.928 166.667 348.362 166.773 348.858 166.773C349.18 166.773 349.473 166.727 349.739 166.636C350.004 166.542 350.233 166.402 350.426 166.216C350.619 166.03 350.767 165.801 350.869 165.528L352.477 165.818C352.348 166.292 352.117 166.706 351.784 167.062C351.455 167.415 351.04 167.689 350.54 167.886C350.044 168.08 349.477 168.176 348.841 168.176ZM358.544 159.273V160.636H353.777V159.273H358.544ZM355.055 157.182H356.754V165.438C356.754 165.767 356.804 166.015 356.902 166.182C357 166.345 357.127 166.456 357.283 166.517C357.442 166.574 357.614 166.602 357.8 166.602C357.936 166.602 358.055 166.593 358.158 166.574C358.26 166.555 358.339 166.54 358.396 166.528L358.703 167.932C358.605 167.97 358.464 168.008 358.283 168.045C358.101 168.087 357.874 168.11 357.601 168.114C357.154 168.121 356.737 168.042 356.351 167.875C355.964 167.708 355.652 167.451 355.413 167.102C355.175 166.754 355.055 166.316 355.055 165.79V157.182ZM364.091 168.176C363.231 168.176 362.491 167.992 361.869 167.625C361.252 167.254 360.775 166.733 360.438 166.062C360.104 165.388 359.938 164.598 359.938 163.693C359.938 162.799 360.104 162.011 360.438 161.33C360.775 160.648 361.244 160.116 361.847 159.733C362.453 159.35 363.161 159.159 363.972 159.159C364.464 159.159 364.941 159.241 365.403 159.403C365.866 159.566 366.28 159.822 366.648 160.17C367.015 160.519 367.305 160.972 367.517 161.528C367.729 162.081 367.835 162.754 367.835 163.545V164.148H360.898V162.875H366.17C366.17 162.428 366.08 162.032 365.898 161.688C365.716 161.339 365.46 161.064 365.131 160.864C364.805 160.663 364.422 160.562 363.983 160.562C363.506 160.562 363.089 160.68 362.733 160.915C362.381 161.146 362.108 161.449 361.915 161.824C361.725 162.195 361.631 162.598 361.631 163.034V164.028C361.631 164.612 361.733 165.108 361.938 165.517C362.146 165.926 362.436 166.239 362.807 166.455C363.178 166.667 363.612 166.773 364.108 166.773C364.43 166.773 364.723 166.727 364.989 166.636C365.254 166.542 365.483 166.402 365.676 166.216C365.869 166.03 366.017 165.801 366.119 165.528L367.727 165.818C367.598 166.292 367.367 166.706 367.034 167.062C366.705 167.415 366.29 167.689 365.79 167.886C365.294 168.08 364.727 168.176 364.091 168.176ZM369.72 168V159.273H371.362V160.659H371.453C371.612 160.189 371.893 159.82 372.294 159.551C372.699 159.278 373.158 159.142 373.669 159.142C373.775 159.142 373.9 159.146 374.044 159.153C374.192 159.161 374.307 159.17 374.391 159.182V160.807C374.322 160.788 374.201 160.767 374.027 160.744C373.853 160.718 373.679 160.705 373.504 160.705C373.103 160.705 372.745 160.79 372.43 160.96C372.12 161.127 371.874 161.36 371.692 161.659C371.51 161.955 371.419 162.292 371.419 162.67V168H369.72ZM382.401 161.403L380.861 161.676C380.796 161.479 380.694 161.292 380.554 161.114C380.418 160.936 380.232 160.79 379.997 160.676C379.762 160.562 379.469 160.506 379.116 160.506C378.635 160.506 378.234 160.614 377.912 160.83C377.59 161.042 377.429 161.316 377.429 161.653C377.429 161.945 377.537 162.18 377.753 162.358C377.969 162.536 378.317 162.682 378.798 162.795L380.185 163.114C380.988 163.299 381.586 163.585 381.98 163.972C382.374 164.358 382.571 164.86 382.571 165.477C382.571 166 382.42 166.466 382.116 166.875C381.817 167.28 381.399 167.598 380.861 167.83C380.327 168.061 379.707 168.176 379.003 168.176C378.026 168.176 377.228 167.968 376.611 167.551C375.993 167.131 375.615 166.534 375.474 165.761L377.116 165.511C377.219 165.939 377.429 166.263 377.747 166.483C378.065 166.699 378.48 166.807 378.991 166.807C379.548 166.807 379.993 166.691 380.327 166.46C380.66 166.225 380.827 165.939 380.827 165.602C380.827 165.33 380.724 165.1 380.52 164.915C380.319 164.729 380.01 164.589 379.594 164.494L378.116 164.17C377.302 163.985 376.7 163.689 376.31 163.284C375.923 162.879 375.73 162.366 375.73 161.744C375.73 161.229 375.874 160.778 376.162 160.392C376.45 160.006 376.848 159.705 377.355 159.489C377.863 159.269 378.444 159.159 379.099 159.159C380.043 159.159 380.785 159.364 381.327 159.773C381.868 160.178 382.226 160.722 382.401 161.403ZM388.871 155.818L385.121 169.75H383.604L387.354 155.818H388.871ZM393.581 168.17C392.876 168.17 392.248 167.991 391.695 167.631C391.145 167.267 390.714 166.75 390.399 166.08C390.089 165.405 389.933 164.597 389.933 163.653C389.933 162.71 390.09 161.903 390.405 161.233C390.723 160.562 391.159 160.049 391.712 159.693C392.265 159.337 392.892 159.159 393.592 159.159C394.134 159.159 394.57 159.25 394.899 159.432C395.232 159.61 395.49 159.818 395.672 160.057C395.857 160.295 396.001 160.506 396.104 160.688H396.206V156.364H397.905V168H396.246V166.642H396.104C396.001 166.828 395.854 167.04 395.661 167.278C395.471 167.517 395.21 167.725 394.876 167.903C394.543 168.081 394.111 168.17 393.581 168.17ZM393.956 166.722C394.445 166.722 394.857 166.593 395.195 166.335C395.536 166.074 395.793 165.712 395.967 165.25C396.145 164.788 396.234 164.25 396.234 163.636C396.234 163.03 396.147 162.5 395.973 162.045C395.799 161.591 395.543 161.237 395.206 160.983C394.869 160.729 394.452 160.602 393.956 160.602C393.445 160.602 393.018 160.735 392.678 161C392.337 161.265 392.079 161.627 391.905 162.085C391.734 162.544 391.649 163.061 391.649 163.636C391.649 164.22 391.736 164.744 391.911 165.21C392.085 165.676 392.342 166.045 392.683 166.318C393.028 166.587 393.452 166.722 393.956 166.722ZM404.091 168.176C403.231 168.176 402.491 167.992 401.869 167.625C401.252 167.254 400.775 166.733 400.438 166.062C400.104 165.388 399.938 164.598 399.938 163.693C399.938 162.799 400.104 162.011 400.438 161.33C400.775 160.648 401.244 160.116 401.847 159.733C402.453 159.35 403.161 159.159 403.972 159.159C404.464 159.159 404.941 159.241 405.403 159.403C405.866 159.566 406.28 159.822 406.648 160.17C407.015 160.519 407.305 160.972 407.517 161.528C407.729 162.081 407.835 162.754 407.835 163.545V164.148H400.898V162.875H406.17C406.17 162.428 406.08 162.032 405.898 161.688C405.716 161.339 405.46 161.064 405.131 160.864C404.805 160.663 404.422 160.562 403.983 160.562C403.506 160.562 403.089 160.68 402.733 160.915C402.381 161.146 402.108 161.449 401.915 161.824C401.725 162.195 401.631 162.598 401.631 163.034V164.028C401.631 164.612 401.733 165.108 401.938 165.517C402.146 165.926 402.436 166.239 402.807 166.455C403.178 166.667 403.612 166.773 404.108 166.773C404.43 166.773 404.723 166.727 404.989 166.636C405.254 166.542 405.483 166.402 405.676 166.216C405.869 166.03 406.017 165.801 406.119 165.528L407.727 165.818C407.598 166.292 407.367 166.706 407.034 167.062C406.705 167.415 406.29 167.689 405.79 167.886C405.294 168.08 404.727 168.176 404.091 168.176ZM416.26 161.403L414.72 161.676C414.656 161.479 414.554 161.292 414.413 161.114C414.277 160.936 414.091 160.79 413.857 160.676C413.622 160.562 413.328 160.506 412.976 160.506C412.495 160.506 412.093 160.614 411.771 160.83C411.449 161.042 411.288 161.316 411.288 161.653C411.288 161.945 411.396 162.18 411.612 162.358C411.828 162.536 412.177 162.682 412.658 162.795L414.044 163.114C414.847 163.299 415.446 163.585 415.839 163.972C416.233 164.358 416.43 164.86 416.43 165.477C416.43 166 416.279 166.466 415.976 166.875C415.677 167.28 415.258 167.598 414.72 167.83C414.186 168.061 413.567 168.176 412.862 168.176C411.885 168.176 411.088 167.968 410.47 167.551C409.853 167.131 409.474 166.534 409.334 165.761L410.976 165.511C411.078 165.939 411.288 166.263 411.607 166.483C411.925 166.699 412.339 166.807 412.851 166.807C413.408 166.807 413.853 166.691 414.186 166.46C414.519 166.225 414.686 165.939 414.686 165.602C414.686 165.33 414.584 165.1 414.379 164.915C414.179 164.729 413.87 164.589 413.453 164.494L411.976 164.17C411.161 163.985 410.559 163.689 410.169 163.284C409.783 162.879 409.589 162.366 409.589 161.744C409.589 161.229 409.733 160.778 410.021 160.392C410.309 160.006 410.707 159.705 411.214 159.489C411.722 159.269 412.304 159.159 412.959 159.159C413.902 159.159 414.644 159.364 415.186 159.773C415.728 160.178 416.086 160.722 416.26 161.403ZM418.298 168V159.273H419.997V168H418.298ZM419.156 157.926C418.861 157.926 418.607 157.828 418.395 157.631C418.187 157.43 418.082 157.191 418.082 156.915C418.082 156.634 418.187 156.396 418.395 156.199C418.607 155.998 418.861 155.898 419.156 155.898C419.452 155.898 419.704 155.998 419.912 156.199C420.124 156.396 420.23 156.634 420.23 156.915C420.23 157.191 420.124 157.43 419.912 157.631C419.704 157.828 419.452 157.926 419.156 157.926ZM425.942 171.455C425.249 171.455 424.652 171.364 424.152 171.182C423.656 171 423.25 170.759 422.936 170.46C422.622 170.161 422.387 169.833 422.232 169.477L423.692 168.875C423.794 169.042 423.93 169.218 424.101 169.403C424.275 169.593 424.51 169.754 424.805 169.886C425.105 170.019 425.489 170.085 425.959 170.085C426.603 170.085 427.135 169.928 427.555 169.614C427.976 169.303 428.186 168.807 428.186 168.125V166.409H428.078C427.976 166.595 427.828 166.801 427.635 167.028C427.446 167.256 427.184 167.453 426.851 167.619C426.518 167.786 426.084 167.869 425.55 167.869C424.86 167.869 424.239 167.708 423.686 167.386C423.137 167.061 422.701 166.581 422.379 165.949C422.061 165.312 421.902 164.53 421.902 163.602C421.902 162.674 422.059 161.879 422.374 161.216C422.692 160.553 423.127 160.045 423.68 159.693C424.233 159.337 424.86 159.159 425.561 159.159C426.103 159.159 426.54 159.25 426.874 159.432C427.207 159.61 427.466 159.818 427.652 160.057C427.841 160.295 427.987 160.506 428.089 160.688H428.214V159.273H429.879V168.193C429.879 168.943 429.705 169.559 429.357 170.04C429.008 170.521 428.536 170.877 427.942 171.108C427.351 171.339 426.684 171.455 425.942 171.455ZM425.925 166.46C426.413 166.46 426.826 166.347 427.163 166.119C427.504 165.888 427.762 165.559 427.936 165.131C428.114 164.699 428.203 164.182 428.203 163.58C428.203 162.992 428.116 162.475 427.942 162.028C427.768 161.581 427.512 161.233 427.175 160.983C426.838 160.729 426.421 160.602 425.925 160.602C425.413 160.602 424.987 160.735 424.646 161C424.305 161.261 424.048 161.617 423.874 162.068C423.703 162.519 423.618 163.023 423.618 163.58C423.618 164.152 423.705 164.653 423.879 165.085C424.054 165.517 424.311 165.854 424.652 166.097C424.997 166.339 425.421 166.46 425.925 166.46ZM433.857 162.818V168H432.158V159.273H433.788V160.693H433.896C434.097 160.231 434.411 159.86 434.839 159.58C435.271 159.299 435.815 159.159 436.47 159.159C437.065 159.159 437.586 159.284 438.033 159.534C438.48 159.78 438.826 160.148 439.072 160.636C439.319 161.125 439.442 161.729 439.442 162.449V168H437.743V162.653C437.743 162.021 437.578 161.527 437.249 161.17C436.919 160.811 436.466 160.631 435.891 160.631C435.497 160.631 435.146 160.716 434.839 160.886C434.536 161.057 434.296 161.307 434.118 161.636C433.944 161.962 433.857 162.356 433.857 162.818ZM445.482 168.176C444.622 168.176 443.881 167.992 443.26 167.625C442.643 167.254 442.165 166.733 441.828 166.062C441.495 165.388 441.328 164.598 441.328 163.693C441.328 162.799 441.495 162.011 441.828 161.33C442.165 160.648 442.635 160.116 443.237 159.733C443.843 159.35 444.552 159.159 445.362 159.159C445.855 159.159 446.332 159.241 446.794 159.403C447.256 159.566 447.671 159.822 448.038 160.17C448.406 160.519 448.696 160.972 448.908 161.528C449.12 162.081 449.226 162.754 449.226 163.545V164.148H442.288V162.875H447.561C447.561 162.428 447.47 162.032 447.288 161.688C447.107 161.339 446.851 161.064 446.521 160.864C446.196 160.663 445.813 160.562 445.374 160.562C444.896 160.562 444.48 160.68 444.124 160.915C443.771 161.146 443.499 161.449 443.305 161.824C443.116 162.195 443.021 162.598 443.021 163.034V164.028C443.021 164.612 443.124 165.108 443.328 165.517C443.536 165.926 443.826 166.239 444.197 166.455C444.569 166.667 445.002 166.773 445.499 166.773C445.821 166.773 446.114 166.727 446.379 166.636C446.644 166.542 446.874 166.402 447.067 166.216C447.26 166.03 447.408 165.801 447.51 165.528L449.118 165.818C448.989 166.292 448.758 166.706 448.425 167.062C448.095 167.415 447.68 167.689 447.18 167.886C446.684 168.08 446.118 168.176 445.482 168.176ZM451.111 168V159.273H452.753V160.659H452.844C453.003 160.189 453.283 159.82 453.685 159.551C454.09 159.278 454.548 159.142 455.06 159.142C455.166 159.142 455.291 159.146 455.435 159.153C455.582 159.161 455.698 159.17 455.781 159.182V160.807C455.713 160.788 455.592 160.767 455.418 160.744C455.243 160.718 455.069 160.705 454.895 160.705C454.493 160.705 454.135 160.79 453.821 160.96C453.51 161.127 453.264 161.36 453.082 161.659C452.901 161.955 452.81 162.292 452.81 162.67V168H451.111ZM463.791 161.403L462.251 161.676C462.187 161.479 462.085 161.292 461.945 161.114C461.808 160.936 461.623 160.79 461.388 160.676C461.153 160.562 460.859 160.506 460.507 160.506C460.026 160.506 459.625 160.614 459.303 160.83C458.981 161.042 458.82 161.316 458.82 161.653C458.82 161.945 458.928 162.18 459.143 162.358C459.359 162.536 459.708 162.682 460.189 162.795L461.575 163.114C462.378 163.299 462.977 163.585 463.371 163.972C463.765 164.358 463.962 164.86 463.962 165.477C463.962 166 463.81 166.466 463.507 166.875C463.208 167.28 462.789 167.598 462.251 167.83C461.717 168.061 461.098 168.176 460.393 168.176C459.416 168.176 458.619 167.968 458.001 167.551C457.384 167.131 457.005 166.534 456.865 165.761L458.507 165.511C458.609 165.939 458.82 166.263 459.138 166.483C459.456 166.699 459.871 166.807 460.382 166.807C460.939 166.807 461.384 166.691 461.717 166.46C462.051 166.225 462.217 165.939 462.217 165.602C462.217 165.33 462.115 165.1 461.911 164.915C461.71 164.729 461.401 164.589 460.984 164.494L459.507 164.17C458.693 163.985 458.09 163.689 457.7 163.284C457.314 162.879 457.121 162.366 457.121 161.744C457.121 161.229 457.265 160.778 457.553 160.392C457.84 160.006 458.238 159.705 458.746 159.489C459.253 159.269 459.835 159.159 460.49 159.159C461.433 159.159 462.176 159.364 462.717 159.773C463.259 160.178 463.617 160.722 463.791 161.403Z" fill="black"/>
<g opacity="0.25">
<path d="M478.168 174.912C476.667 170.966 475.669 166.983 476.158 162.658C477.43 151.428 488.016 142.981 499.23 144.55C501.195 144.827 502.27 144.416 503.374 142.704C509.529 133.181 515.834 123.756 522.086 114.293C522.505 113.655 522.891 112.994 523.313 112.303C508.812 98.9758 504.35 82.6497 508.312 63.6029C507.893 63.3871 507.449 63.109 506.967 62.9075C497.932 59.1247 488.88 55.3821 479.863 51.5422C478.508 50.9661 477.662 51.1301 476.606 52.1359C468.498 59.8391 454.69 59.3888 447.411 51.2417C439.23 42.087 439.708 28.869 448.5 21.2223C455.124 15.4613 462.689 14.1204 470.654 17.4961C478.716 20.9147 482.978 27.3554 483.435 36.2265C483.475 36.9868 484.163 38.0968 484.833 38.3868C493.905 42.2851 503.054 46.0031 512.115 49.9196C513.969 50.7206 514.398 49.6428 515.132 48.542C522.834 37.0356 533.459 29.9563 547.116 27.5455C549.096 27.1945 551.15 27.2328 553.124 26.8467C553.77 26.7201 554.678 25.8634 554.754 25.251C557.17 6.03542 559.515 -13.1945 561.783 -32.4298C561.863 -33.0953 561.259 -34.1546 560.661 -34.5379C549.156 -41.8573 546.868 -56.6738 555.709 -67.0503C563.235 -75.8827 578.583 -75.8787 586.449 -67.0434C595.048 -57.3861 594.233 -44.3708 584.299 -36.1439C582.324 -34.5097 579.66 -33.7259 577.366 -32.4527C576.735 -32.1004 575.902 -31.4511 575.829 -30.8518C573.37 -11.1691 570.992 8.52658 568.606 28.2171C568.595 28.2859 568.651 28.3612 568.51 27.9549C573.345 30.3234 578.069 32.1807 582.319 34.8094C592.898 41.3456 599.704 50.8416 602.815 62.8914C603.315 64.8341 603.993 65.4394 606.072 65.2701C619.552 64.1799 633.041 63.2234 646.53 62.2903C648.008 62.1892 648.797 61.7877 649.36 60.2612C652.385 52.0459 660.039 46.8023 668.76 46.7768C677.242 46.7472 685.264 52.243 688.332 60.1915C691.5 68.3827 689.167 77.6547 682.467 83.522C672.31 92.4194 656.571 89.462 650.199 77.5194C649.866 76.8924 648.826 76.2077 648.166 76.2538C633.82 77.2237 619.484 78.2936 605.147 79.3531C604.928 79.3697 604.717 79.4928 604.344 79.6235C603.406 89.7427 599.747 98.8461 593.118 106.992C596.01 110.282 598.853 113.543 601.724 116.785C605.279 120.803 608.86 124.792 612.403 128.818C613.31 129.843 614.054 130.54 615.727 130.022C625.063 127.138 635.235 131.001 639.82 139.008C644.996 148.038 643.513 158.3 636.021 165.392C635.804 165.598 635.674 165.892 635.498 166.144L631.611 168.73C631.312 168.788 630.989 168.801 630.719 168.918C622.588 172.507 613.532 171.014 607.363 165.061C600.993 158.916 599.219 149.837 602.909 141.448C603.513 140.075 603.143 139.349 602.292 138.409C598.752 134.489 595.264 130.522 591.748 126.579C588.768 123.241 585.769 119.915 582.753 116.556C567.335 126.066 551.459 126.907 535.067 120.03C528.063 130.634 521.157 141.048 514.35 151.527C514.013 152.049 514.289 153.259 514.671 153.926C519.393 162.123 518.881 171.403 513.248 178.358C507.526 185.418 498.554 188.122 489.755 184.761C486.488 183.49 483.741 180.823 480.754 178.799C479.891 177.502 479.031 176.209 478.168 174.912Z" fill="#072723"/>
</g>
</g>
<rect x="1" y="1" width="646" height="205" rx="23" stroke="#072723" stroke-width="2"/>
<defs>
<clipPath id="clip0_4167_144">
<rect width="648" height="207" rx="24" fill="white"/>
</clipPath>
</defs>
</svg>
