<svg width="326" height="207" viewBox="0 0 326 207" fill="none" xmlns="http://www.w3.org/2000/svg">
<g clip-path="url(#clip0_4333_1969)">
<rect width="326" height="207" rx="24" fill="#3FF8CB"/>
<path d="M40.4229 143.746C36.5877 143.746 33.1786 143.089 30.1957 141.775C27.2305 140.461 24.8867 138.632 23.1644 136.288C21.4421 133.945 20.5277 131.237 20.4212 128.165H30.4354C30.5241 129.639 31.0124 130.926 31.9002 132.027C32.788 133.11 33.9688 133.953 35.4425 134.557C36.9162 135.161 38.5675 135.463 40.3963 135.463C42.3494 135.463 44.0806 135.125 45.5898 134.451C47.0991 133.758 48.2798 132.799 49.1321 131.574C49.9844 130.349 50.4016 128.937 50.3839 127.339C50.4016 125.688 49.9755 124.232 49.1055 122.972C48.2354 121.711 46.9748 120.725 45.3235 120.015C43.69 119.305 41.7191 118.95 39.4109 118.95H34.5902V111.333H39.4109C41.3107 111.333 42.9709 111.004 44.3913 110.347C45.8295 109.69 46.957 108.767 47.7738 107.577C48.5906 106.37 48.9901 104.976 48.9723 103.396C48.9901 101.851 48.6438 100.511 47.9336 99.3743C47.2411 98.2202 46.2557 97.3235 44.9773 96.6843C43.7166 96.0451 42.234 95.7255 40.5295 95.7255C38.8604 95.7255 37.3157 96.0273 35.8952 96.631C34.4748 97.2347 33.3295 98.0959 32.4595 99.2145C31.5895 100.315 31.1278 101.629 31.0746 103.156H21.5664C21.6374 100.102 22.5163 97.4212 24.2031 95.1129C25.9077 92.7869 28.1804 90.9759 31.0213 89.6797C33.8622 88.3658 37.0494 87.7088 40.5827 87.7088C44.2227 87.7088 47.3832 88.3924 50.0643 89.7596C52.7631 91.109 54.8494 92.929 56.3232 95.2195C57.7969 97.5099 58.5337 100.04 58.5337 102.81C58.5515 105.882 57.646 108.456 55.8171 110.534C54.006 112.611 51.6268 113.969 48.6793 114.609V115.035C52.5146 115.567 55.4531 116.988 57.495 119.296C59.5547 121.587 60.5756 124.436 60.5579 127.846C60.5579 130.9 59.6879 133.634 57.9478 136.049C56.2255 138.446 53.8462 140.328 50.81 141.695C47.7915 143.062 44.3292 143.746 40.4229 143.746ZM87.8614 144.039C83.4758 144.039 79.7116 142.929 76.5688 140.71C73.4438 138.472 71.0379 135.25 69.3511 131.042C67.6821 126.816 66.8476 121.729 66.8476 115.781C66.8653 109.832 67.7087 104.772 69.3778 100.599C71.0645 96.4091 73.4704 93.2131 76.5954 91.0114C79.7382 88.8097 83.4935 87.7088 87.8614 87.7088C92.2293 87.7088 95.9846 88.8097 99.1274 91.0114C102.27 93.2131 104.676 96.4091 106.345 100.599C108.032 104.79 108.875 109.85 108.875 115.781C108.875 121.746 108.032 126.842 106.345 131.068C104.676 135.276 102.27 138.49 99.1274 140.71C96.0024 142.929 92.2471 144.039 87.8614 144.039ZM87.8614 135.702C91.2705 135.702 93.9605 134.025 95.9314 130.669C97.92 127.295 98.9143 122.332 98.9143 115.781C98.9143 111.448 98.4616 107.808 97.556 104.861C96.6505 101.913 95.3721 99.6939 93.7208 98.2024C92.0695 96.6932 90.1164 95.9386 87.8614 95.9386C84.4701 95.9386 81.789 97.6254 79.8181 100.999C77.8472 104.355 76.8529 109.282 76.8351 115.781C76.8174 120.131 77.2524 123.788 78.1402 126.754C79.0457 129.719 80.3241 131.956 81.9754 133.465C83.6267 134.957 85.5887 135.702 87.8614 135.702ZM135.886 144.039C131.5 144.039 127.736 142.929 124.593 140.71C121.468 138.472 119.062 135.25 117.376 131.042C115.706 126.816 114.872 121.729 114.872 115.781C114.89 109.832 115.733 104.772 117.402 100.599C119.089 96.4091 121.495 93.2131 124.62 91.0114C127.763 88.8097 131.518 87.7088 135.886 87.7088C140.254 87.7088 144.009 88.8097 147.152 91.0114C150.295 93.2131 152.7 96.4091 154.369 100.599C156.056 104.79 156.9 109.85 156.9 115.781C156.9 121.746 156.056 126.842 154.369 131.068C152.7 135.276 150.295 138.49 147.152 140.71C144.027 142.929 140.271 144.039 135.886 144.039ZM135.886 135.702C139.295 135.702 141.985 134.025 143.956 130.669C145.944 127.295 146.939 122.332 146.939 115.781C146.939 111.448 146.486 107.808 145.58 104.861C144.675 101.913 143.396 99.6939 141.745 98.2024C140.094 96.6932 138.141 95.9386 135.886 95.9386C132.494 95.9386 129.813 97.6254 127.843 100.999C125.872 104.355 124.877 109.282 124.86 115.781C124.842 120.131 125.277 123.788 126.165 126.754C127.07 129.719 128.349 131.956 130 133.465C131.651 134.957 133.613 135.702 135.886 135.702ZM179.942 134.264V97.4034H188.305V134.264H179.942ZM165.693 120.015V111.652H202.554V120.015H165.693Z" fill="#072723"/>
<path d="M22.9034 180.362C21.8665 180.362 20.929 180.17 20.0909 179.787C19.2528 179.396 18.5888 178.832 18.0987 178.093C17.6158 177.354 17.3743 176.449 17.3743 175.376C17.3743 174.453 17.5518 173.693 17.907 173.097C18.2621 172.5 18.7415 172.028 19.3452 171.68C19.9489 171.332 20.6236 171.069 21.3693 170.891C22.1151 170.714 22.875 170.579 23.6491 170.487C24.6293 170.373 25.4247 170.281 26.0355 170.21C26.6463 170.131 27.0902 170.007 27.3672 169.837C27.6442 169.666 27.7827 169.389 27.7827 169.006V168.931C27.7827 168.001 27.5199 167.28 26.9943 166.768C26.4759 166.257 25.7017 166.001 24.6719 166.001C23.5994 166.001 22.7543 166.239 22.1364 166.715C21.5256 167.184 21.103 167.706 20.8686 168.281L17.875 167.599C18.2301 166.605 18.7486 165.803 19.4304 165.192C20.1193 164.574 20.9112 164.126 21.8061 163.849C22.701 163.565 23.642 163.423 24.6293 163.423C25.2827 163.423 25.9751 163.501 26.7067 163.658C27.4453 163.807 28.1342 164.084 28.7734 164.489C29.4197 164.893 29.9489 165.472 30.3608 166.225C30.7727 166.971 30.9787 167.94 30.9787 169.134V180H27.8679V177.763H27.7401C27.5341 178.175 27.2251 178.58 26.8132 178.977C26.4013 179.375 25.8722 179.705 25.2259 179.968C24.5795 180.231 23.8054 180.362 22.9034 180.362ZM23.5959 177.805C24.4766 177.805 25.2294 177.631 25.8544 177.283C26.4865 176.935 26.9659 176.481 27.2926 175.92C27.6264 175.352 27.7933 174.744 27.7933 174.098V171.989C27.6797 172.102 27.4595 172.209 27.1328 172.308C26.8132 172.401 26.4474 172.482 26.0355 172.553C25.6236 172.617 25.2223 172.678 24.8317 172.734C24.4411 172.784 24.1143 172.827 23.8516 172.862C23.2337 172.94 22.669 173.072 22.1577 173.256C21.6534 173.441 21.2486 173.707 20.9432 174.055C20.6449 174.396 20.4957 174.851 20.4957 175.419C20.4957 176.207 20.7869 176.804 21.3693 177.209C21.9517 177.607 22.6939 177.805 23.5959 177.805ZM40.1142 180.33C38.5304 180.33 37.1667 179.972 36.0233 179.254C34.8869 178.53 34.0133 177.532 33.4025 176.261C32.7917 174.989 32.4863 173.533 32.4863 171.893C32.4863 170.231 32.7988 168.764 33.4238 167.493C34.0488 166.214 34.9295 165.217 36.0659 164.499C37.2022 163.782 38.541 163.423 40.0822 163.423C41.3251 163.423 42.4331 163.654 43.4061 164.116C44.3791 164.57 45.1639 165.21 45.7605 166.033C46.3642 166.857 46.7228 167.82 46.8365 168.92H43.7363C43.5659 168.153 43.1752 167.493 42.5645 166.939C41.9608 166.385 41.1511 166.108 40.1355 166.108C39.2477 166.108 38.47 166.342 37.8024 166.811C37.1419 167.273 36.627 167.933 36.2576 168.793C35.8883 169.645 35.7037 170.653 35.7037 171.818C35.7037 173.011 35.8848 174.041 36.247 174.908C36.6092 175.774 37.1206 176.445 37.7811 176.921C38.4487 177.397 39.2335 177.635 40.1355 177.635C40.7392 177.635 41.286 177.525 41.7761 177.305C42.2733 177.077 42.6887 176.754 43.0226 176.335C43.3635 175.916 43.6014 175.412 43.7363 174.822H46.8365C46.7228 175.881 46.3784 176.825 45.8031 177.656C45.2278 178.487 44.4572 179.141 43.4913 179.616C42.5325 180.092 41.4068 180.33 40.1142 180.33ZM55.8814 163.636V166.193H46.9432V163.636H55.8814ZM49.3402 159.716H52.5256V175.195C52.5256 175.813 52.6179 176.278 52.8026 176.591C52.9872 176.896 53.2251 177.106 53.5163 177.219C53.8146 177.326 54.1378 177.379 54.4858 177.379C54.7415 177.379 54.9652 177.362 55.157 177.326C55.3487 177.29 55.4979 177.262 55.6044 177.241L56.1797 179.872C55.995 179.943 55.7322 180.014 55.3913 180.085C55.0504 180.163 54.6243 180.206 54.1129 180.213C53.2749 180.227 52.4936 180.078 51.7692 179.766C51.0447 179.453 50.4588 178.97 50.0114 178.317C49.5639 177.663 49.3402 176.843 49.3402 175.856V159.716ZM57.405 180V163.636H60.5904V180H57.405ZM59.0137 161.112C58.4597 161.112 57.9838 160.927 57.5861 160.558C57.1955 160.181 57.0002 159.734 57.0002 159.215C57.0002 158.69 57.1955 158.242 57.5861 157.873C57.9838 157.496 58.4597 157.308 59.0137 157.308C59.5676 157.308 60.04 157.496 60.4306 157.873C60.8283 158.242 61.0272 158.69 61.0272 159.215C61.0272 159.734 60.8283 160.181 60.4306 160.558C60.04 160.927 59.5676 161.112 59.0137 161.112ZM76.8743 163.636L70.9403 180H67.5312L61.5866 163.636H65.0064L69.1506 176.229H69.321L73.4545 163.636H76.8743ZM84.3638 180.33C82.7516 180.33 81.3631 179.986 80.1983 179.297C79.0407 178.601 78.1458 177.624 77.5137 176.367C76.8887 175.103 76.5762 173.622 76.5762 171.925C76.5762 170.249 76.8887 168.771 77.5137 167.493C78.1458 166.214 79.0265 165.217 80.1557 164.499C81.2921 163.782 82.6202 163.423 84.1401 163.423C85.0634 163.423 85.9583 163.576 86.8248 163.881C87.6912 164.187 88.4689 164.666 89.1578 165.32C89.8468 165.973 90.3901 166.822 90.7878 167.866C91.1855 168.903 91.3844 170.163 91.3844 171.648V172.777H78.3766V170.391H88.263C88.263 169.553 88.0925 168.81 87.7516 168.164C87.4107 167.511 86.9313 166.996 86.3134 166.619C85.7026 166.243 84.9853 166.055 84.1614 166.055C83.2665 166.055 82.4853 166.275 81.8176 166.715C81.1571 167.148 80.6458 167.717 80.2836 168.42C79.9284 169.116 79.7509 169.872 79.7509 170.689V172.553C79.7509 173.647 79.9426 174.577 80.3262 175.344C80.7168 176.112 81.2601 176.697 81.9561 177.102C82.6522 177.5 83.4654 177.699 84.3958 177.699C84.9995 177.699 85.5499 177.614 86.0471 177.443C86.5442 177.266 86.9739 177.003 87.3361 176.655C87.6983 176.307 87.9753 175.877 88.1671 175.366L91.182 175.909C90.9405 176.797 90.5073 177.575 89.8823 178.242C89.2644 178.903 88.4867 179.418 87.5492 179.787C86.6188 180.149 85.557 180.33 84.3638 180.33ZM102.044 170.284V180H98.8581V163.636H101.916V166.3H102.118C102.494 165.433 103.084 164.737 103.887 164.212C104.696 163.686 105.715 163.423 106.944 163.423C108.059 163.423 109.036 163.658 109.874 164.126C110.712 164.588 111.362 165.277 111.823 166.193C112.285 167.109 112.516 168.242 112.516 169.592V180H109.33V169.975C109.33 168.789 109.021 167.862 108.404 167.195C107.786 166.52 106.937 166.183 105.857 166.183C105.119 166.183 104.462 166.342 103.887 166.662C103.318 166.982 102.867 167.45 102.534 168.068C102.207 168.679 102.044 169.418 102.044 170.284ZM121.84 180.33C120.228 180.33 118.84 179.986 117.675 179.297C116.517 178.601 115.622 177.624 114.99 176.367C114.365 175.103 114.053 173.622 114.053 171.925C114.053 170.249 114.365 168.771 114.99 167.493C115.622 166.214 116.503 165.217 117.632 164.499C118.769 163.782 120.097 163.423 121.617 163.423C122.54 163.423 123.435 163.576 124.301 163.881C125.168 164.187 125.945 164.666 126.634 165.32C127.323 165.973 127.867 166.822 128.264 167.866C128.662 168.903 128.861 170.163 128.861 171.648V172.777H115.853V170.391H125.74C125.74 169.553 125.569 168.81 125.228 168.164C124.887 167.511 124.408 166.996 123.79 166.619C123.179 166.243 122.462 166.055 121.638 166.055C120.743 166.055 119.962 166.275 119.294 166.715C118.634 167.148 118.122 167.717 117.76 168.42C117.405 169.116 117.227 169.872 117.227 170.689V172.553C117.227 173.647 117.419 174.577 117.803 175.344C118.193 176.112 118.737 176.697 119.433 177.102C120.129 177.5 120.942 177.699 121.872 177.699C122.476 177.699 123.026 177.614 123.524 177.443C124.021 177.266 124.45 177.003 124.813 176.655C125.175 176.307 125.452 175.877 125.644 175.366L128.659 175.909C128.417 176.797 127.984 177.575 127.359 178.242C126.741 178.903 125.963 179.418 125.026 179.787C124.095 180.149 123.034 180.33 121.84 180.33ZM138.034 163.636V166.193H129.096V163.636H138.034ZM131.493 159.716H134.678V175.195C134.678 175.813 134.77 176.278 134.955 176.591C135.14 176.896 135.377 177.106 135.669 177.219C135.967 177.326 136.29 177.379 136.638 177.379C136.894 177.379 137.118 177.362 137.309 177.326C137.501 177.29 137.65 177.262 137.757 177.241L138.332 179.872C138.147 179.943 137.885 180.014 137.544 180.085C137.203 180.163 136.777 180.206 136.265 180.213C135.427 180.227 134.646 180.078 133.922 179.766C133.197 179.453 132.611 178.97 132.164 178.317C131.716 177.663 131.493 176.843 131.493 175.856V159.716ZM143.105 180L138.29 163.636H141.581L144.788 175.653H144.948L148.165 163.636H151.457L154.653 175.6H154.813L157.998 163.636H161.29L156.486 180H153.236L149.912 168.185H149.667L146.344 180H143.105ZM168.708 180.33C167.174 180.33 165.835 179.979 164.692 179.276C163.548 178.572 162.66 177.589 162.028 176.325C161.396 175.06 161.08 173.583 161.08 171.893C161.08 170.195 161.396 168.711 162.028 167.44C162.66 166.168 163.548 165.181 164.692 164.478C165.835 163.775 167.174 163.423 168.708 163.423C170.242 163.423 171.581 163.775 172.724 164.478C173.868 165.181 174.756 166.168 175.388 167.44C176.02 168.711 176.336 170.195 176.336 171.893C176.336 173.583 176.02 175.06 175.388 176.325C174.756 177.589 173.868 178.572 172.724 179.276C171.581 179.979 170.242 180.33 168.708 180.33ZM168.719 177.656C169.713 177.656 170.537 177.393 171.19 176.868C171.844 176.342 172.327 175.643 172.639 174.769C172.959 173.896 173.118 172.933 173.118 171.882C173.118 170.838 172.959 169.879 172.639 169.006C172.327 168.125 171.844 167.418 171.19 166.886C170.537 166.353 169.713 166.087 168.719 166.087C167.717 166.087 166.886 166.353 166.226 166.886C165.572 167.418 165.086 168.125 164.766 169.006C164.454 169.879 164.297 170.838 164.297 171.882C164.297 172.933 164.454 173.896 164.766 174.769C165.086 175.643 165.572 176.342 166.226 176.868C166.886 177.393 167.717 177.656 168.719 177.656ZM177.891 180V163.636H180.97V166.236H181.141C181.439 165.355 181.964 164.663 182.717 164.158C183.477 163.647 184.337 163.391 185.295 163.391C185.494 163.391 185.729 163.398 185.999 163.413C186.276 163.427 186.492 163.445 186.648 163.466V166.513C186.521 166.477 186.293 166.438 185.967 166.396C185.64 166.346 185.313 166.321 184.987 166.321C184.234 166.321 183.563 166.481 182.973 166.8C182.391 167.113 181.929 167.55 181.588 168.111C181.247 168.665 181.077 169.297 181.077 170.007V180H177.891ZM190.335 174.45L190.313 170.561H190.867L197.387 163.636H201.201L193.765 171.52H193.264L190.335 174.45ZM187.405 180V158.182H190.59V180H187.405ZM197.739 180L191.879 172.223L194.074 169.996L201.649 180H197.739Z" fill="#072723"/>
<path d="M221.276 135L219.349 128.455H220.666L221.949 133.261H222.013L223.3 128.455H224.616L225.895 133.24H225.959L227.233 128.455H228.55L226.628 135H225.328L223.999 130.274H223.901L222.571 135H221.276ZM229.759 135V128.455H231.033V135H229.759ZM230.402 127.445C230.181 127.445 229.99 127.371 229.831 127.223C229.675 127.072 229.597 126.893 229.597 126.686C229.597 126.476 229.675 126.297 229.831 126.149C229.99 125.999 230.181 125.923 230.402 125.923C230.624 125.923 230.813 125.999 230.969 126.149C231.128 126.297 231.208 126.476 231.208 126.686C231.208 126.893 231.128 127.072 230.969 127.223C230.813 127.371 230.624 127.445 230.402 127.445ZM235.803 128.455V129.477H232.227V128.455H235.803ZM233.186 126.886H234.46V133.078C234.46 133.325 234.497 133.511 234.571 133.636C234.645 133.759 234.74 133.842 234.857 133.888C234.976 133.93 235.105 133.952 235.244 133.952C235.347 133.952 235.436 133.945 235.513 133.93C235.589 133.916 235.649 133.905 235.692 133.896L235.922 134.949C235.848 134.977 235.743 135.006 235.607 135.034C235.47 135.065 235.3 135.082 235.095 135.085C234.76 135.091 234.447 135.031 234.158 134.906C233.868 134.781 233.634 134.588 233.455 134.327C233.276 134.065 233.186 133.737 233.186 133.342V126.886ZM238.627 131.114V135H237.353V126.273H238.61V129.52H238.691C238.844 129.168 239.078 128.888 239.394 128.68C239.709 128.473 240.121 128.369 240.63 128.369C241.078 128.369 241.471 128.462 241.806 128.646C242.144 128.831 242.405 129.107 242.59 129.473C242.777 129.837 242.871 130.291 242.871 130.837V135H241.597V130.99C241.597 130.51 241.473 130.138 241.226 129.874C240.979 129.607 240.635 129.473 240.195 129.473C239.894 129.473 239.624 129.537 239.385 129.665C239.15 129.793 238.963 129.98 238.827 130.227C238.694 130.472 238.627 130.767 238.627 131.114ZM250.504 135.132C249.871 135.132 249.325 134.989 248.868 134.702C248.413 134.412 248.064 134.013 247.82 133.504C247.575 132.996 247.453 132.413 247.453 131.757C247.453 131.092 247.578 130.506 247.828 129.997C248.078 129.486 248.43 129.087 248.885 128.8C249.339 128.513 249.875 128.369 250.491 128.369C250.989 128.369 251.432 128.462 251.821 128.646C252.21 128.828 252.524 129.084 252.763 129.413C253.004 129.743 253.148 130.128 253.193 130.568H251.953C251.885 130.261 251.729 129.997 251.484 129.776C251.243 129.554 250.919 129.443 250.513 129.443C250.158 129.443 249.847 129.537 249.58 129.724C249.315 129.909 249.109 130.173 248.962 130.517C248.814 130.858 248.74 131.261 248.74 131.727C248.74 132.205 248.813 132.616 248.957 132.963C249.102 133.31 249.307 133.578 249.571 133.768C249.838 133.959 250.152 134.054 250.513 134.054C250.754 134.054 250.973 134.01 251.169 133.922C251.368 133.831 251.534 133.702 251.668 133.534C251.804 133.366 251.899 133.165 251.953 132.929H253.193C253.148 133.352 253.01 133.73 252.78 134.062C252.55 134.395 252.241 134.656 251.855 134.847C251.472 135.037 251.021 135.132 250.504 135.132ZM257.313 135.132C256.699 135.132 256.164 134.991 255.706 134.71C255.249 134.429 254.894 134.036 254.641 133.53C254.388 133.024 254.262 132.433 254.262 131.757C254.262 131.078 254.388 130.484 254.641 129.976C254.894 129.467 255.249 129.072 255.706 128.791C256.164 128.51 256.699 128.369 257.313 128.369C257.926 128.369 258.462 128.51 258.919 128.791C259.377 129.072 259.732 129.467 259.985 129.976C260.238 130.484 260.364 131.078 260.364 131.757C260.364 132.433 260.238 133.024 259.985 133.53C259.732 134.036 259.377 134.429 258.919 134.71C258.462 134.991 257.926 135.132 257.313 135.132ZM257.317 134.062C257.715 134.062 258.044 133.957 258.306 133.747C258.567 133.537 258.76 133.257 258.885 132.908C259.013 132.558 259.077 132.173 259.077 131.753C259.077 131.335 259.013 130.952 258.885 130.602C258.76 130.25 258.567 129.967 258.306 129.754C258.044 129.541 257.715 129.435 257.317 129.435C256.917 129.435 256.584 129.541 256.32 129.754C256.059 129.967 255.864 130.25 255.736 130.602C255.611 130.952 255.549 131.335 255.549 131.753C255.549 132.173 255.611 132.558 255.736 132.908C255.864 133.257 256.059 133.537 256.32 133.747C256.584 133.957 256.917 134.062 257.317 134.062ZM263.06 131.114V135H261.786V128.455H263.009V129.52H263.09C263.241 129.173 263.477 128.895 263.798 128.685C264.121 128.474 264.529 128.369 265.021 128.369C265.467 128.369 265.857 128.463 266.192 128.651C266.528 128.835 266.788 129.111 266.972 129.477C267.157 129.844 267.249 130.297 267.249 130.837V135H265.975V130.99C265.975 130.516 265.852 130.145 265.604 129.878C265.357 129.608 265.018 129.473 264.586 129.473C264.29 129.473 264.028 129.537 263.798 129.665C263.57 129.793 263.39 129.98 263.256 130.227C263.126 130.472 263.06 130.767 263.06 131.114ZM272.013 128.455V129.477H268.438V128.455H272.013ZM269.397 126.886H270.671V133.078C270.671 133.325 270.708 133.511 270.782 133.636C270.856 133.759 270.951 133.842 271.067 133.888C271.187 133.93 271.316 133.952 271.455 133.952C271.558 133.952 271.647 133.945 271.724 133.93C271.8 133.916 271.86 133.905 271.903 133.896L272.133 134.949C272.059 134.977 271.954 135.006 271.817 135.034C271.681 135.065 271.511 135.082 271.306 135.085C270.971 135.091 270.658 135.031 270.369 134.906C270.079 134.781 269.844 134.588 269.665 134.327C269.487 134.065 269.397 133.737 269.397 133.342V126.886ZM276.174 135.132C275.529 135.132 274.973 134.994 274.507 134.719C274.044 134.44 273.686 134.05 273.434 133.547C273.184 133.041 273.059 132.449 273.059 131.77C273.059 131.099 273.184 130.509 273.434 129.997C273.686 129.486 274.039 129.087 274.49 128.8C274.945 128.513 275.476 128.369 276.084 128.369C276.453 128.369 276.811 128.43 277.158 128.553C277.505 128.675 277.816 128.866 278.091 129.128C278.367 129.389 278.584 129.729 278.743 130.146C278.902 130.561 278.982 131.065 278.982 131.659V132.111H273.779V131.156H277.733C277.733 130.821 277.665 130.524 277.529 130.266C277.392 130.004 277.201 129.798 276.953 129.648C276.709 129.497 276.422 129.422 276.093 129.422C275.735 129.422 275.422 129.51 275.155 129.686C274.891 129.859 274.686 130.087 274.542 130.368C274.4 130.646 274.328 130.949 274.328 131.276V132.021C274.328 132.459 274.405 132.831 274.559 133.138C274.715 133.445 274.932 133.679 275.211 133.841C275.489 134 275.814 134.08 276.186 134.08C276.428 134.08 276.648 134.045 276.847 133.977C277.046 133.906 277.218 133.801 277.363 133.662C277.507 133.523 277.618 133.351 277.695 133.146L278.901 133.364C278.804 133.719 278.631 134.03 278.381 134.297C278.134 134.561 277.823 134.767 277.448 134.915C277.076 135.06 276.651 135.132 276.174 135.132ZM281.67 131.114V135H280.396V128.455H281.619V129.52H281.7C281.85 129.173 282.086 128.895 282.407 128.685C282.731 128.474 283.138 128.369 283.63 128.369C284.076 128.369 284.467 128.463 284.802 128.651C285.137 128.835 285.397 129.111 285.582 129.477C285.766 129.844 285.859 130.297 285.859 130.837V135H284.585V130.99C284.585 130.516 284.461 130.145 284.214 129.878C283.967 129.608 283.627 129.473 283.195 129.473C282.9 129.473 282.637 129.537 282.407 129.665C282.18 129.793 281.999 129.98 281.866 130.227C281.735 130.472 281.67 130.767 281.67 131.114ZM290.623 128.455V129.477H287.048V128.455H290.623ZM288.006 126.886H289.281V133.078C289.281 133.325 289.317 133.511 289.391 133.636C289.465 133.759 289.56 133.842 289.677 133.888C289.796 133.93 289.925 133.952 290.065 133.952C290.167 133.952 290.256 133.945 290.333 133.93C290.41 133.916 290.469 133.905 290.512 133.896L290.742 134.949C290.668 134.977 290.563 135.006 290.427 135.034C290.29 135.065 290.12 135.082 289.915 135.085C289.58 135.091 289.268 135.031 288.978 134.906C288.688 134.781 288.454 134.588 288.275 134.327C288.096 134.065 288.006 133.737 288.006 133.342V126.886ZM222.614 150.132C221.98 150.132 221.435 149.989 220.977 149.702C220.523 149.412 220.173 149.013 219.929 148.504C219.685 147.996 219.562 147.413 219.562 146.757C219.562 146.092 219.688 145.506 219.938 144.997C220.188 144.486 220.54 144.087 220.994 143.8C221.449 143.513 221.984 143.369 222.601 143.369C223.098 143.369 223.541 143.462 223.93 143.646C224.32 143.828 224.634 144.084 224.872 144.413C225.114 144.743 225.257 145.128 225.303 145.568H224.062C223.994 145.261 223.838 144.997 223.594 144.776C223.352 144.554 223.028 144.443 222.622 144.443C222.267 144.443 221.956 144.537 221.689 144.724C221.425 144.909 221.219 145.173 221.071 145.517C220.923 145.858 220.849 146.261 220.849 146.727C220.849 147.205 220.922 147.616 221.067 147.963C221.212 148.31 221.416 148.578 221.68 148.768C221.947 148.959 222.261 149.054 222.622 149.054C222.864 149.054 223.082 149.01 223.278 148.922C223.477 148.831 223.643 148.702 223.777 148.534C223.913 148.366 224.009 148.165 224.062 147.929H225.303C225.257 148.352 225.119 148.73 224.889 149.062C224.659 149.395 224.351 149.656 223.964 149.847C223.581 150.037 223.131 150.132 222.614 150.132ZM226.665 150V143.455H227.897V144.494H227.965C228.084 144.142 228.294 143.865 228.596 143.663C228.9 143.459 229.243 143.357 229.627 143.357C229.706 143.357 229.8 143.359 229.908 143.365C230.019 143.371 230.105 143.378 230.168 143.386V144.605C230.117 144.591 230.026 144.575 229.895 144.558C229.765 144.538 229.634 144.528 229.503 144.528C229.202 144.528 228.934 144.592 228.698 144.72C228.465 144.845 228.28 145.02 228.144 145.244C228.007 145.466 227.939 145.719 227.939 146.003V150H226.665ZM233.857 150.132C233.212 150.132 232.657 149.994 232.191 149.719C231.728 149.44 231.37 149.05 231.117 148.547C230.867 148.041 230.742 147.449 230.742 146.77C230.742 146.099 230.867 145.509 231.117 144.997C231.37 144.486 231.722 144.087 232.174 143.8C232.629 143.513 233.16 143.369 233.768 143.369C234.137 143.369 234.495 143.43 234.842 143.553C235.188 143.675 235.499 143.866 235.775 144.128C236.05 144.389 236.268 144.729 236.427 145.146C236.586 145.561 236.665 146.065 236.665 146.659V147.111H231.462V146.156H235.417C235.417 145.821 235.349 145.524 235.212 145.266C235.076 145.004 234.884 144.798 234.637 144.648C234.393 144.497 234.106 144.422 233.776 144.422C233.418 144.422 233.106 144.51 232.839 144.686C232.575 144.859 232.37 145.087 232.225 145.368C232.083 145.646 232.012 145.949 232.012 146.276V147.021C232.012 147.459 232.089 147.831 232.242 148.138C232.398 148.445 232.616 148.679 232.894 148.841C233.173 149 233.498 149.08 233.87 149.08C234.112 149.08 234.332 149.045 234.531 148.977C234.729 148.906 234.901 148.801 235.046 148.662C235.191 148.523 235.302 148.351 235.379 148.146L236.585 148.364C236.488 148.719 236.315 149.03 236.065 149.297C235.817 149.561 235.506 149.767 235.131 149.915C234.759 150.06 234.335 150.132 233.857 150.132ZM239.984 150.145C239.569 150.145 239.194 150.068 238.859 149.915C238.524 149.759 238.258 149.533 238.062 149.237C237.869 148.942 237.772 148.58 237.772 148.151C237.772 147.781 237.843 147.477 237.985 147.239C238.127 147 238.319 146.811 238.561 146.672C238.802 146.533 239.072 146.428 239.37 146.357C239.669 146.286 239.973 146.232 240.282 146.195C240.674 146.149 240.993 146.112 241.237 146.084C241.481 146.053 241.659 146.003 241.77 145.935C241.88 145.866 241.936 145.756 241.936 145.602V145.572C241.936 145.2 241.831 144.912 241.62 144.707C241.413 144.503 241.103 144.401 240.691 144.401C240.262 144.401 239.924 144.496 239.677 144.686C239.433 144.874 239.264 145.082 239.17 145.312L237.973 145.04C238.115 144.642 238.322 144.321 238.595 144.077C238.87 143.83 239.187 143.651 239.545 143.54C239.903 143.426 240.279 143.369 240.674 143.369C240.936 143.369 241.213 143.401 241.505 143.463C241.801 143.523 242.076 143.634 242.332 143.795C242.591 143.957 242.802 144.189 242.967 144.49C243.132 144.788 243.214 145.176 243.214 145.653V150H241.97V149.105H241.919C241.836 149.27 241.713 149.432 241.548 149.591C241.383 149.75 241.172 149.882 240.913 149.987C240.654 150.092 240.345 150.145 239.984 150.145ZM240.261 149.122C240.613 149.122 240.914 149.053 241.164 148.913C241.417 148.774 241.609 148.592 241.74 148.368C241.873 148.141 241.94 147.898 241.94 147.639V146.795C241.895 146.841 241.806 146.884 241.676 146.923C241.548 146.96 241.402 146.993 241.237 147.021C241.072 147.047 240.912 147.071 240.755 147.094C240.599 147.114 240.468 147.131 240.363 147.145C240.116 147.176 239.89 147.229 239.686 147.303C239.484 147.376 239.322 147.483 239.2 147.622C239.081 147.759 239.021 147.94 239.021 148.168C239.021 148.483 239.137 148.722 239.37 148.884C239.603 149.043 239.9 149.122 240.261 149.122ZM247.967 143.455V144.477H244.391V143.455H247.967ZM245.35 141.886H246.624V148.078C246.624 148.325 246.661 148.511 246.735 148.636C246.809 148.759 246.904 148.842 247.021 148.888C247.14 148.93 247.269 148.952 247.408 148.952C247.511 148.952 247.6 148.945 247.677 148.93C247.754 148.916 247.813 148.905 247.856 148.896L248.086 149.949C248.012 149.977 247.907 150.006 247.771 150.034C247.634 150.065 247.464 150.082 247.259 150.085C246.924 150.091 246.612 150.031 246.322 149.906C246.032 149.781 245.798 149.588 245.619 149.327C245.44 149.065 245.35 148.737 245.35 148.342V141.886ZM252.063 150.132C251.449 150.132 250.914 149.991 250.456 149.71C249.999 149.429 249.644 149.036 249.391 148.53C249.138 148.024 249.012 147.433 249.012 146.757C249.012 146.078 249.138 145.484 249.391 144.976C249.644 144.467 249.999 144.072 250.456 143.791C250.914 143.51 251.449 143.369 252.063 143.369C252.676 143.369 253.212 143.51 253.669 143.791C254.127 144.072 254.482 144.467 254.735 144.976C254.988 145.484 255.114 146.078 255.114 146.757C255.114 147.433 254.988 148.024 254.735 148.53C254.482 149.036 254.127 149.429 253.669 149.71C253.212 149.991 252.676 150.132 252.063 150.132ZM252.067 149.062C252.465 149.062 252.794 148.957 253.056 148.747C253.317 148.537 253.51 148.257 253.635 147.908C253.763 147.558 253.827 147.173 253.827 146.753C253.827 146.335 253.763 145.952 253.635 145.602C253.51 145.25 253.317 144.967 253.056 144.754C252.794 144.541 252.465 144.435 252.067 144.435C251.667 144.435 251.334 144.541 251.07 144.754C250.809 144.967 250.614 145.25 250.486 145.602C250.361 145.952 250.299 146.335 250.299 146.753C250.299 147.173 250.361 147.558 250.486 147.908C250.614 148.257 250.809 148.537 251.07 148.747C251.334 148.957 251.667 149.062 252.067 149.062ZM256.536 150V143.455H257.768V144.494H257.836C257.955 144.142 258.165 143.865 258.467 143.663C258.771 143.459 259.114 143.357 259.498 143.357C259.577 143.357 259.671 143.359 259.779 143.365C259.89 143.371 259.977 143.378 260.039 143.386V144.605C259.988 144.591 259.897 144.575 259.766 144.558C259.636 144.538 259.505 144.528 259.374 144.528C259.073 144.528 258.805 144.592 258.569 144.72C258.336 144.845 258.151 145.02 258.015 145.244C257.879 145.466 257.81 145.719 257.81 146.003V150H256.536ZM266.047 145.053L264.892 145.257C264.843 145.109 264.767 144.969 264.662 144.835C264.559 144.702 264.42 144.592 264.244 144.507C264.068 144.422 263.848 144.379 263.583 144.379C263.223 144.379 262.922 144.46 262.68 144.622C262.439 144.781 262.318 144.987 262.318 145.24C262.318 145.459 262.399 145.635 262.561 145.768C262.723 145.902 262.984 146.011 263.345 146.097L264.385 146.335C264.987 146.474 265.436 146.689 265.731 146.979C266.027 147.268 266.174 147.645 266.174 148.108C266.174 148.5 266.061 148.849 265.833 149.156C265.609 149.46 265.295 149.699 264.892 149.872C264.491 150.045 264.027 150.132 263.498 150.132C262.765 150.132 262.167 149.976 261.704 149.663C261.241 149.348 260.957 148.901 260.852 148.321L262.083 148.134C262.16 148.455 262.318 148.697 262.556 148.862C262.795 149.024 263.106 149.105 263.49 149.105C263.907 149.105 264.241 149.018 264.491 148.845C264.741 148.669 264.866 148.455 264.866 148.202C264.866 147.997 264.789 147.825 264.636 147.686C264.485 147.547 264.254 147.442 263.941 147.371L262.833 147.128C262.223 146.989 261.771 146.767 261.478 146.463C261.189 146.159 261.044 145.774 261.044 145.308C261.044 144.922 261.152 144.584 261.368 144.294C261.583 144.004 261.882 143.778 262.262 143.616C262.643 143.452 263.079 143.369 263.571 143.369C264.278 143.369 264.835 143.523 265.241 143.83C265.647 144.134 265.916 144.541 266.047 145.053ZM270.899 140.864L268.087 151.312H266.949L269.761 140.864H270.899ZM272.084 150V141.273H273.401V145.44H273.507L277.168 141.273H278.825L275.305 145.202L278.838 150H277.253L274.432 146.101L273.401 147.286V150H272.084ZM287.2 145.636C287.2 146.568 287.029 147.369 286.689 148.04C286.348 148.707 285.88 149.222 285.287 149.582C284.696 149.94 284.024 150.119 283.271 150.119C282.515 150.119 281.841 149.94 281.247 149.582C280.656 149.222 280.19 148.706 279.849 148.036C279.508 147.365 279.338 146.565 279.338 145.636C279.338 144.705 279.508 143.905 279.849 143.237C280.19 142.567 280.656 142.053 281.247 141.695C281.841 141.334 282.515 141.153 283.271 141.153C284.024 141.153 284.696 141.334 285.287 141.695C285.88 142.053 286.348 142.567 286.689 143.237C287.029 143.905 287.2 144.705 287.2 145.636ZM285.896 145.636C285.896 144.926 285.781 144.328 285.551 143.842C285.324 143.354 285.011 142.984 284.613 142.734C284.218 142.482 283.771 142.355 283.271 142.355C282.768 142.355 282.319 142.482 281.924 142.734C281.529 142.984 281.217 143.354 280.987 143.842C280.76 144.328 280.646 144.926 280.646 145.636C280.646 146.347 280.76 146.946 280.987 147.435C281.217 147.92 281.529 148.29 281.924 148.543C282.319 148.793 282.768 148.918 283.271 148.918C283.771 148.918 284.218 148.793 284.613 148.543C285.011 148.29 285.324 147.92 285.551 147.435C285.781 146.946 285.896 146.347 285.896 145.636ZM288.842 150V141.273H290.158V148.866H294.113V150H288.842ZM300.418 145.053L299.263 145.257C299.214 145.109 299.138 144.969 299.033 144.835C298.93 144.702 298.791 144.592 298.615 144.507C298.439 144.422 298.219 144.379 297.955 144.379C297.594 144.379 297.293 144.46 297.051 144.622C296.81 144.781 296.689 144.987 296.689 145.24C296.689 145.459 296.77 145.635 296.932 145.768C297.094 145.902 297.355 146.011 297.716 146.097L298.756 146.335C299.358 146.474 299.807 146.689 300.102 146.979C300.398 147.268 300.545 147.645 300.545 148.108C300.545 148.5 300.432 148.849 300.205 149.156C299.98 149.46 299.666 149.699 299.263 149.872C298.862 150.045 298.398 150.132 297.869 150.132C297.136 150.132 296.538 149.976 296.075 149.663C295.612 149.348 295.328 148.901 295.223 148.321L296.455 148.134C296.531 148.455 296.689 148.697 296.928 148.862C297.166 149.024 297.477 149.105 297.861 149.105C298.278 149.105 298.612 149.018 298.862 148.845C299.112 148.669 299.237 148.455 299.237 148.202C299.237 147.997 299.161 147.825 299.007 147.686C298.857 147.547 298.625 147.442 298.312 147.371L297.205 147.128C296.594 146.989 296.142 146.767 295.849 146.463C295.56 146.159 295.415 145.774 295.415 145.308C295.415 144.922 295.523 144.584 295.739 144.294C295.955 144.004 296.253 143.778 296.634 143.616C297.014 143.452 297.45 143.369 297.942 143.369C298.649 143.369 299.206 143.523 299.612 143.83C300.018 144.134 300.287 144.541 300.418 145.053ZM305.27 140.864L302.458 151.312H301.32L304.132 140.864H305.27ZM219.857 165V158.455H221.08V159.52H221.161C221.297 159.159 221.52 158.878 221.83 158.676C222.139 158.472 222.51 158.369 222.942 158.369C223.379 158.369 223.746 158.472 224.041 158.676C224.339 158.881 224.56 159.162 224.702 159.52H224.77C224.926 159.17 225.175 158.892 225.516 158.685C225.857 158.474 226.263 158.369 226.734 158.369C227.328 158.369 227.812 158.555 228.188 158.928C228.565 159.3 228.754 159.861 228.754 160.611V165H227.48V160.73C227.48 160.287 227.359 159.966 227.118 159.767C226.876 159.568 226.588 159.469 226.253 159.469C225.838 159.469 225.516 159.597 225.286 159.852C225.055 160.105 224.94 160.43 224.94 160.828V165H223.67V160.649C223.67 160.294 223.56 160.009 223.338 159.793C223.116 159.577 222.828 159.469 222.473 159.469C222.232 159.469 222.009 159.533 221.804 159.661C221.602 159.786 221.439 159.96 221.314 160.185C221.192 160.409 221.131 160.669 221.131 160.964V165H219.857ZM232.367 165.145C231.952 165.145 231.577 165.068 231.242 164.915C230.907 164.759 230.641 164.533 230.445 164.237C230.252 163.942 230.155 163.58 230.155 163.151C230.155 162.781 230.226 162.477 230.368 162.239C230.51 162 230.702 161.811 230.944 161.672C231.185 161.533 231.455 161.428 231.753 161.357C232.051 161.286 232.355 161.232 232.665 161.195C233.057 161.149 233.375 161.112 233.62 161.084C233.864 161.053 234.042 161.003 234.152 160.935C234.263 160.866 234.319 160.756 234.319 160.602V160.572C234.319 160.2 234.213 159.912 234.003 159.707C233.796 159.503 233.486 159.401 233.074 159.401C232.645 159.401 232.307 159.496 232.06 159.686C231.816 159.874 231.647 160.082 231.553 160.312L230.355 160.04C230.498 159.642 230.705 159.321 230.978 159.077C231.253 158.83 231.57 158.651 231.928 158.54C232.286 158.426 232.662 158.369 233.057 158.369C233.319 158.369 233.596 158.401 233.888 158.463C234.184 158.523 234.459 158.634 234.715 158.795C234.973 158.957 235.185 159.189 235.35 159.49C235.515 159.788 235.597 160.176 235.597 160.653V165H234.353V164.105H234.301C234.219 164.27 234.096 164.432 233.931 164.591C233.766 164.75 233.554 164.882 233.296 164.987C233.037 165.092 232.728 165.145 232.367 165.145ZM232.644 164.122C232.996 164.122 233.297 164.053 233.547 163.913C233.8 163.774 233.992 163.592 234.123 163.368C234.256 163.141 234.323 162.898 234.323 162.639V161.795C234.277 161.841 234.189 161.884 234.059 161.923C233.931 161.96 233.784 161.993 233.62 162.021C233.455 162.047 233.294 162.071 233.138 162.094C232.982 162.114 232.851 162.131 232.746 162.145C232.499 162.176 232.273 162.229 232.069 162.303C231.867 162.376 231.705 162.483 231.583 162.622C231.463 162.759 231.404 162.94 231.404 163.168C231.404 163.483 231.52 163.722 231.753 163.884C231.986 164.043 232.283 164.122 232.644 164.122ZM237.294 165V158.455H238.526V159.494H238.594C238.713 159.142 238.923 158.865 239.224 158.663C239.528 158.459 239.872 158.357 240.256 158.357C240.335 158.357 240.429 158.359 240.537 158.365C240.648 158.371 240.734 158.378 240.797 158.386V159.605C240.746 159.591 240.655 159.575 240.524 159.558C240.393 159.538 240.263 159.528 240.132 159.528C239.831 159.528 239.563 159.592 239.327 159.72C239.094 159.845 238.909 160.02 238.773 160.244C238.636 160.466 238.568 160.719 238.568 161.003V165H237.294ZM243.071 162.78L243.063 161.224H243.284L245.892 158.455H247.418L244.444 161.608H244.243L243.071 162.78ZM241.9 165V156.273H243.174V165H241.9ZM246.033 165L243.689 161.889L244.567 160.999L247.597 165H246.033ZM251.131 165.132C250.486 165.132 249.93 164.994 249.464 164.719C249.001 164.44 248.643 164.05 248.391 163.547C248.141 163.041 248.016 162.449 248.016 161.77C248.016 161.099 248.141 160.509 248.391 159.997C248.643 159.486 248.996 159.087 249.447 158.8C249.902 158.513 250.433 158.369 251.041 158.369C251.411 158.369 251.768 158.43 252.115 158.553C252.462 158.675 252.773 158.866 253.048 159.128C253.324 159.389 253.541 159.729 253.7 160.146C253.859 160.561 253.939 161.065 253.939 161.659V162.111H248.736V161.156H252.69C252.69 160.821 252.622 160.524 252.486 160.266C252.349 160.004 252.158 159.798 251.911 159.648C251.666 159.497 251.379 159.422 251.05 159.422C250.692 159.422 250.379 159.51 250.112 159.686C249.848 159.859 249.643 160.087 249.499 160.368C249.357 160.646 249.286 160.949 249.286 161.276V162.021C249.286 162.459 249.362 162.831 249.516 163.138C249.672 163.445 249.889 163.679 250.168 163.841C250.446 164 250.771 164.08 251.143 164.08C251.385 164.08 251.605 164.045 251.804 163.977C252.003 163.906 252.175 163.801 252.32 163.662C252.464 163.523 252.575 163.351 252.652 163.146L253.858 163.364C253.761 163.719 253.588 164.03 253.338 164.297C253.091 164.561 252.78 164.767 252.405 164.915C252.033 165.06 251.608 165.132 251.131 165.132ZM258.408 158.455V159.477H254.833V158.455H258.408ZM255.792 156.886H257.066V163.078C257.066 163.325 257.103 163.511 257.176 163.636C257.25 163.759 257.346 163.842 257.462 163.888C257.581 163.93 257.711 163.952 257.85 163.952C257.952 163.952 258.042 163.945 258.118 163.93C258.195 163.916 258.255 163.905 258.297 163.896L258.527 164.949C258.453 164.977 258.348 165.006 258.212 165.034C258.076 165.065 257.905 165.082 257.701 165.085C257.365 165.091 257.053 165.031 256.763 164.906C256.473 164.781 256.239 164.588 256.06 164.327C255.881 164.065 255.792 163.737 255.792 163.342V156.886ZM262.568 165.132C261.923 165.132 261.368 164.994 260.902 164.719C260.439 164.44 260.081 164.05 259.828 163.547C259.578 163.041 259.453 162.449 259.453 161.77C259.453 161.099 259.578 160.509 259.828 159.997C260.081 159.486 260.433 159.087 260.885 158.8C261.339 158.513 261.871 158.369 262.479 158.369C262.848 158.369 263.206 158.43 263.553 158.553C263.899 158.675 264.21 158.866 264.486 159.128C264.761 159.389 264.979 159.729 265.138 160.146C265.297 160.561 265.376 161.065 265.376 161.659V162.111H260.173V161.156H264.128C264.128 160.821 264.06 160.524 263.923 160.266C263.787 160.004 263.595 159.798 263.348 159.648C263.104 159.497 262.817 159.422 262.487 159.422C262.129 159.422 261.817 159.51 261.55 159.686C261.286 159.859 261.081 160.087 260.936 160.368C260.794 160.646 260.723 160.949 260.723 161.276V162.021C260.723 162.459 260.8 162.831 260.953 163.138C261.109 163.445 261.327 163.679 261.605 163.841C261.884 164 262.209 164.08 262.581 164.08C262.822 164.08 263.043 164.045 263.241 163.977C263.44 163.906 263.612 163.801 263.757 163.662C263.902 163.523 264.013 163.351 264.089 163.146L265.295 163.364C265.199 163.719 265.026 164.03 264.776 164.297C264.528 164.561 264.217 164.767 263.842 164.915C263.47 165.06 263.045 165.132 262.568 165.132ZM266.79 165V158.455H268.022V159.494H268.09C268.209 159.142 268.419 158.865 268.721 158.663C269.025 158.459 269.368 158.357 269.752 158.357C269.831 158.357 269.925 158.359 270.033 158.365C270.144 158.371 270.23 158.378 270.293 158.386V159.605C270.242 159.591 270.151 159.575 270.02 159.558C269.89 159.538 269.759 159.528 269.628 159.528C269.327 159.528 269.059 159.592 268.823 159.72C268.59 159.845 268.405 160.02 268.269 160.244C268.132 160.466 268.064 160.719 268.064 161.003V165H266.79ZM276.3 160.053L275.146 160.257C275.097 160.109 275.021 159.969 274.915 159.835C274.813 159.702 274.674 159.592 274.498 159.507C274.322 159.422 274.102 159.379 273.837 159.379C273.477 159.379 273.175 159.46 272.934 159.622C272.692 159.781 272.572 159.987 272.572 160.24C272.572 160.459 272.653 160.635 272.815 160.768C272.977 160.902 273.238 161.011 273.599 161.097L274.638 161.335C275.241 161.474 275.69 161.689 275.985 161.979C276.281 162.268 276.428 162.645 276.428 163.108C276.428 163.5 276.315 163.849 276.087 164.156C275.863 164.46 275.549 164.699 275.146 164.872C274.745 165.045 274.281 165.132 273.752 165.132C273.019 165.132 272.421 164.976 271.958 164.663C271.495 164.348 271.211 163.901 271.106 163.321L272.337 163.134C272.414 163.455 272.572 163.697 272.81 163.862C273.049 164.024 273.36 164.105 273.744 164.105C274.161 164.105 274.495 164.018 274.745 163.845C274.995 163.669 275.12 163.455 275.12 163.202C275.12 162.997 275.043 162.825 274.89 162.686C274.739 162.547 274.508 162.442 274.195 162.371L273.087 162.128C272.477 161.989 272.025 161.767 271.732 161.463C271.442 161.159 271.298 160.774 271.298 160.308C271.298 159.922 271.406 159.584 271.621 159.294C271.837 159.004 272.136 158.778 272.516 158.616C272.897 158.452 273.333 158.369 273.825 158.369C274.532 158.369 275.089 158.523 275.495 158.83C275.901 159.134 276.17 159.541 276.3 160.053ZM281.153 155.864L278.341 166.312H277.203L280.015 155.864H281.153ZM222.307 180.128C221.778 180.128 221.307 179.993 220.892 179.723C220.48 179.45 220.156 179.062 219.92 178.56C219.688 178.054 219.571 177.447 219.571 176.74C219.571 176.033 219.689 175.428 219.925 174.925C220.163 174.422 220.49 174.037 220.905 173.77C221.32 173.503 221.79 173.369 222.315 173.369C222.722 173.369 223.048 173.438 223.295 173.574C223.545 173.707 223.739 173.864 223.875 174.043C224.014 174.222 224.122 174.379 224.199 174.516H224.276V171.273H225.55V180H224.305V178.982H224.199C224.122 179.121 224.011 179.28 223.866 179.459C223.724 179.638 223.528 179.794 223.278 179.928C223.028 180.061 222.705 180.128 222.307 180.128ZM222.588 179.041C222.955 179.041 223.264 178.945 223.517 178.751C223.773 178.555 223.966 178.284 224.097 177.938C224.23 177.591 224.297 177.187 224.297 176.727C224.297 176.273 224.232 175.875 224.101 175.534C223.97 175.193 223.778 174.928 223.526 174.737C223.273 174.547 222.96 174.452 222.588 174.452C222.205 174.452 221.885 174.551 221.629 174.75C221.374 174.949 221.18 175.22 221.05 175.564C220.922 175.908 220.858 176.295 220.858 176.727C220.858 177.165 220.923 177.558 221.054 177.908C221.185 178.257 221.378 178.534 221.634 178.739C221.892 178.94 222.21 179.041 222.588 179.041ZM230.189 180.132C229.544 180.132 228.989 179.994 228.523 179.719C228.06 179.44 227.702 179.05 227.449 178.547C227.199 178.041 227.074 177.449 227.074 176.77C227.074 176.099 227.199 175.509 227.449 174.997C227.702 174.486 228.054 174.087 228.506 173.8C228.961 173.513 229.492 173.369 230.1 173.369C230.469 173.369 230.827 173.43 231.174 173.553C231.52 173.675 231.831 173.866 232.107 174.128C232.382 174.389 232.6 174.729 232.759 175.146C232.918 175.561 232.998 176.065 232.998 176.659V177.111H227.794V176.156H231.749C231.749 175.821 231.681 175.524 231.544 175.266C231.408 175.004 231.216 174.798 230.969 174.648C230.725 174.497 230.438 174.422 230.108 174.422C229.75 174.422 229.438 174.51 229.171 174.686C228.907 174.859 228.702 175.087 228.557 175.368C228.415 175.646 228.344 175.949 228.344 176.276V177.021C228.344 177.459 228.421 177.831 228.574 178.138C228.73 178.445 228.948 178.679 229.226 178.841C229.505 179 229.83 179.08 230.202 179.08C230.444 179.08 230.664 179.045 230.863 178.977C231.061 178.906 231.233 178.801 231.378 178.662C231.523 178.523 231.634 178.351 231.711 178.146L232.917 178.364C232.82 178.719 232.647 179.03 232.397 179.297C232.15 179.561 231.838 179.767 231.463 179.915C231.091 180.06 230.667 180.132 230.189 180.132ZM239.316 175.053L238.161 175.257C238.113 175.109 238.036 174.969 237.931 174.835C237.829 174.702 237.69 174.592 237.513 174.507C237.337 174.422 237.117 174.379 236.853 174.379C236.492 174.379 236.191 174.46 235.95 174.622C235.708 174.781 235.587 174.987 235.587 175.24C235.587 175.459 235.668 175.635 235.83 175.768C235.992 175.902 236.254 176.011 236.614 176.097L237.654 176.335C238.256 176.474 238.705 176.689 239.001 176.979C239.296 177.268 239.444 177.645 239.444 178.108C239.444 178.5 239.33 178.849 239.103 179.156C238.879 179.46 238.565 179.699 238.161 179.872C237.761 180.045 237.296 180.132 236.768 180.132C236.035 180.132 235.437 179.976 234.974 179.663C234.511 179.348 234.227 178.901 234.121 178.321L235.353 178.134C235.43 178.455 235.587 178.697 235.826 178.862C236.065 179.024 236.376 179.105 236.759 179.105C237.177 179.105 237.511 179.018 237.761 178.845C238.011 178.669 238.136 178.455 238.136 178.202C238.136 177.997 238.059 177.825 237.906 177.686C237.755 177.547 237.523 177.442 237.211 177.371L236.103 177.128C235.492 176.989 235.04 176.767 234.748 176.463C234.458 176.159 234.313 175.774 234.313 175.308C234.313 174.922 234.421 174.584 234.637 174.294C234.853 174.004 235.151 173.778 235.532 173.616C235.913 173.452 236.349 173.369 236.84 173.369C237.548 173.369 238.104 173.523 238.511 173.83C238.917 174.134 239.185 174.541 239.316 175.053ZM240.845 180V173.455H242.119V180H240.845ZM241.488 172.445C241.267 172.445 241.076 172.371 240.917 172.223C240.761 172.072 240.683 171.893 240.683 171.686C240.683 171.476 240.761 171.297 240.917 171.149C241.076 170.999 241.267 170.923 241.488 170.923C241.71 170.923 241.899 170.999 242.055 171.149C242.214 171.297 242.294 171.476 242.294 171.686C242.294 171.893 242.214 172.072 242.055 172.223C241.899 172.371 241.71 172.445 241.488 172.445ZM246.577 182.591C246.058 182.591 245.61 182.523 245.235 182.386C244.863 182.25 244.559 182.07 244.323 181.845C244.087 181.621 243.911 181.375 243.795 181.108L244.89 180.656C244.967 180.781 245.069 180.913 245.197 181.053C245.327 181.195 245.504 181.315 245.725 181.415C245.95 181.514 246.238 181.564 246.59 181.564C247.073 181.564 247.472 181.446 247.788 181.21C248.103 180.977 248.261 180.605 248.261 180.094V178.807H248.18C248.103 178.946 247.992 179.101 247.847 179.271C247.705 179.442 247.509 179.589 247.259 179.714C247.009 179.839 246.684 179.902 246.283 179.902C245.766 179.902 245.3 179.781 244.886 179.54C244.474 179.295 244.147 178.936 243.906 178.462C243.667 177.984 243.548 177.398 243.548 176.702C243.548 176.006 243.665 175.409 243.901 174.912C244.14 174.415 244.467 174.034 244.881 173.77C245.296 173.503 245.766 173.369 246.292 173.369C246.698 173.369 247.026 173.438 247.276 173.574C247.526 173.707 247.721 173.864 247.86 174.043C248.002 174.222 248.112 174.379 248.188 174.516H248.282V173.455H249.531V180.145C249.531 180.707 249.4 181.169 249.138 181.53C248.877 181.891 248.523 182.158 248.077 182.331C247.634 182.504 247.134 182.591 246.577 182.591ZM246.565 178.845C246.931 178.845 247.241 178.76 247.494 178.589C247.749 178.416 247.942 178.169 248.073 177.848C248.207 177.524 248.273 177.136 248.273 176.685C248.273 176.244 248.208 175.857 248.077 175.521C247.947 175.186 247.755 174.925 247.502 174.737C247.249 174.547 246.937 174.452 246.565 174.452C246.181 174.452 245.862 174.551 245.606 174.75C245.35 174.946 245.157 175.213 245.026 175.551C244.898 175.889 244.835 176.267 244.835 176.685C244.835 177.114 244.9 177.49 245.031 177.814C245.161 178.138 245.354 178.391 245.61 178.572C245.869 178.754 246.187 178.845 246.565 178.845ZM252.513 176.114V180H251.239V173.455H252.462V174.52H252.543C252.694 174.173 252.93 173.895 253.251 173.685C253.575 173.474 253.982 173.369 254.474 173.369C254.92 173.369 255.31 173.463 255.646 173.651C255.981 173.835 256.241 174.111 256.425 174.477C256.61 174.844 256.702 175.297 256.702 175.837V180H255.428V175.99C255.428 175.516 255.305 175.145 255.058 174.878C254.81 174.608 254.471 174.473 254.039 174.473C253.744 174.473 253.481 174.537 253.251 174.665C253.023 174.793 252.843 174.98 252.71 175.227C252.579 175.472 252.513 175.767 252.513 176.114ZM261.232 180.132C260.587 180.132 260.032 179.994 259.566 179.719C259.103 179.44 258.745 179.05 258.492 178.547C258.242 178.041 258.117 177.449 258.117 176.77C258.117 176.099 258.242 175.509 258.492 174.997C258.745 174.486 259.097 174.087 259.549 173.8C260.004 173.513 260.535 173.369 261.143 173.369C261.512 173.369 261.87 173.43 262.217 173.553C262.563 173.675 262.874 173.866 263.15 174.128C263.425 174.389 263.643 174.729 263.802 175.146C263.961 175.561 264.04 176.065 264.04 176.659V177.111H258.837V176.156H262.792C262.792 175.821 262.724 175.524 262.587 175.266C262.451 175.004 262.259 174.798 262.012 174.648C261.768 174.497 261.481 174.422 261.151 174.422C260.793 174.422 260.481 174.51 260.214 174.686C259.95 174.859 259.745 175.087 259.6 175.368C259.458 175.646 259.387 175.949 259.387 176.276V177.021C259.387 177.459 259.464 177.831 259.617 178.138C259.773 178.445 259.991 178.679 260.269 178.841C260.548 179 260.873 179.08 261.245 179.08C261.487 179.08 261.707 179.045 261.906 178.977C262.104 178.906 262.276 178.801 262.421 178.662C262.566 178.523 262.677 178.351 262.754 178.146L263.96 178.364C263.863 178.719 263.69 179.03 263.44 179.297C263.192 179.561 262.881 179.767 262.506 179.915C262.134 180.06 261.71 180.132 261.232 180.132ZM265.454 180V173.455H266.686V174.494H266.754C266.873 174.142 267.083 173.865 267.385 173.663C267.689 173.459 268.032 173.357 268.416 173.357C268.495 173.357 268.589 173.359 268.697 173.365C268.808 173.371 268.895 173.378 268.957 173.386V174.605C268.906 174.591 268.815 174.575 268.684 174.558C268.554 174.538 268.423 174.528 268.292 174.528C267.991 174.528 267.723 174.592 267.487 174.72C267.254 174.845 267.069 175.02 266.933 175.244C266.797 175.466 266.728 175.719 266.728 176.003V180H265.454ZM274.964 175.053L273.81 175.257C273.761 175.109 273.685 174.969 273.58 174.835C273.477 174.702 273.338 174.592 273.162 174.507C272.986 174.422 272.766 174.379 272.501 174.379C272.141 174.379 271.839 174.46 271.598 174.622C271.357 174.781 271.236 174.987 271.236 175.24C271.236 175.459 271.317 175.635 271.479 175.768C271.641 175.902 271.902 176.011 272.263 176.097L273.303 176.335C273.905 176.474 274.354 176.689 274.649 176.979C274.945 177.268 275.092 177.645 275.092 178.108C275.092 178.5 274.979 178.849 274.751 179.156C274.527 179.46 274.213 179.699 273.81 179.872C273.409 180.045 272.945 180.132 272.416 180.132C271.683 180.132 271.085 179.976 270.622 179.663C270.159 179.348 269.875 178.901 269.77 178.321L271.001 178.134C271.078 178.455 271.236 178.697 271.474 178.862C271.713 179.024 272.024 179.105 272.408 179.105C272.825 179.105 273.159 179.018 273.409 178.845C273.659 178.669 273.784 178.455 273.784 178.202C273.784 177.997 273.707 177.825 273.554 177.686C273.403 177.547 273.172 177.442 272.859 177.371L271.751 177.128C271.141 176.989 270.689 176.767 270.396 176.463C270.107 176.159 269.962 175.774 269.962 175.308C269.962 174.922 270.07 174.584 270.286 174.294C270.501 174.004 270.8 173.778 271.18 173.616C271.561 173.452 271.997 173.369 272.489 173.369C273.196 173.369 273.753 173.523 274.159 173.83C274.565 174.134 274.834 174.541 274.964 175.053Z" fill="black"/>
<g opacity="0.25">
<path d="M216.669 102.298C215.602 99.493 214.893 96.662 215.24 93.5877C216.145 85.6058 223.669 79.6018 231.64 80.7169C233.037 80.9137 233.801 80.6212 234.585 79.4046C238.961 72.6359 243.442 65.9365 247.886 59.2103C248.183 58.7569 248.458 58.2868 248.758 57.7955C238.45 48.3229 235.28 36.7184 238.095 23.18C237.797 23.0266 237.482 22.829 237.139 22.6857C230.718 19.9969 224.283 17.3367 217.874 14.6074C216.911 14.1979 216.309 14.3145 215.559 15.0294C209.796 20.5047 199.982 20.1847 194.807 14.3938C188.992 7.88667 189.332 -1.50861 195.581 -6.94384C200.29 -11.0387 205.667 -11.9918 211.329 -9.59238C217.059 -7.16246 220.088 -2.58447 220.413 3.72107C220.441 4.26152 220.93 5.05048 221.407 5.25659C227.855 8.02748 234.358 10.6702 240.799 13.454C242.116 14.0234 242.421 13.2573 242.943 12.4748C248.418 4.29618 255.969 -0.73573 265.677 -2.4493C267.085 -2.69881 268.544 -2.67162 269.948 -2.94605C270.407 -3.03599 271.052 -3.64497 271.106 -4.08021C272.823 -17.7385 274.49 -31.4071 276.102 -45.0793C276.159 -45.5524 275.73 -46.3053 275.305 -46.5778C267.127 -51.7804 265.501 -62.3118 271.785 -69.6874C277.134 -75.9654 288.043 -75.9625 293.635 -69.6825C299.747 -62.8181 299.168 -53.567 292.107 -47.7193C290.703 -46.5577 288.809 -46.0007 287.178 -45.0956C286.73 -44.8452 286.138 -44.3837 286.086 -43.9577C284.338 -29.9674 282.648 -15.9678 280.952 -1.97196C280.944 -1.92308 280.984 -1.86955 280.884 -2.1583C284.32 -0.474777 287.679 0.845314 290.699 2.71382C298.219 7.35968 303.057 14.1094 305.268 22.6743C305.623 24.0552 306.105 24.4854 307.583 24.365C317.164 23.5902 326.752 22.9103 336.34 22.247C337.39 22.1752 337.951 21.8898 338.352 20.8047C340.502 14.9654 345.942 11.2383 352.141 11.2202C358.169 11.1991 363.871 15.1055 366.052 20.7552C368.304 26.5775 366.646 33.168 361.884 37.3384C354.664 43.6626 343.477 41.5605 338.948 33.0718C338.711 32.6261 337.972 32.1394 337.503 32.1722C327.306 32.8616 317.116 33.6221 306.925 34.3751C306.769 34.387 306.62 34.4745 306.354 34.5674C305.687 41.7601 303.086 48.2307 298.375 54.0206C300.43 56.3594 302.451 58.677 304.492 60.9817C307.019 63.8375 309.564 66.6729 312.083 69.5342C312.727 70.2634 313.256 70.7582 314.445 70.3904C321.081 68.3401 328.312 71.0859 331.571 76.7772C335.25 83.1957 334.195 90.4904 328.87 95.5308C328.716 95.6773 328.623 95.8866 328.498 96.0654L325.735 97.9035C325.523 97.9448 325.294 97.9538 325.102 98.0376C319.322 100.589 312.885 99.5275 308.5 95.2959C303.973 90.9276 302.711 84.4746 305.335 78.5121C305.764 77.5359 305.5 77.0201 304.896 76.3519C302.379 73.5653 299.9 70.7456 297.401 67.9434C295.283 65.5703 293.152 63.2065 291.008 60.8187C280.048 67.5784 268.764 68.1765 257.113 63.2878C252.134 70.8251 247.226 78.2278 242.387 85.6757C242.147 86.0471 242.344 86.9068 242.615 87.3811C245.972 93.2071 245.607 99.8035 241.604 104.747C237.537 109.765 231.159 111.687 224.905 109.299C222.583 108.395 220.631 106.499 218.507 105.06C217.894 104.139 217.283 103.219 216.669 102.298Z" fill="#072723"/>
</g>
</g>
<rect x="1" y="1" width="324" height="205" rx="23" stroke="#072723" stroke-width="2"/>
<defs>
<clipPath id="clip0_4333_1969">
<rect width="326" height="207" rx="24" fill="white"/>
</clipPath>
</defs>
</svg>
