<svg width="648" height="207" viewBox="0 0 648 207" fill="none" xmlns="http://www.w3.org/2000/svg">
<g clip-path="url(#clip0_6001_93)">
<rect width="648" height="207" rx="24" fill="#3FF8CB"/>
<path d="M38.1211 58.0901V29.681H48.2474C50.4484 29.681 52.2748 30.0602 53.7267 30.8185C55.1878 31.5768 56.2791 32.6264 57.0004 33.9673C57.7217 35.299 58.0824 36.8388 58.0824 38.5866C58.0824 40.3252 57.7171 41.8557 56.9865 43.1781C56.2652 44.4913 55.174 45.5131 53.7128 46.2437C52.2609 46.9743 50.4345 47.3396 48.2335 47.3396H40.5625V43.6497H47.8451C49.2323 43.6497 50.3605 43.4509 51.2298 43.0532C52.1083 42.6556 52.7511 42.0776 53.158 41.3193C53.5649 40.561 53.7683 39.6501 53.7683 38.5866C53.7683 37.5138 53.5602 36.5844 53.1441 35.7984C52.7372 35.0123 52.0945 34.4112 51.2159 33.9951C50.3466 33.5697 49.2045 33.357 47.7896 33.357H42.4074V58.0901H38.1211ZM52.1453 45.2727L59.1644 58.0901H54.2816L47.4012 45.2727H52.1453ZM69.8812 58.5201C67.7819 58.5201 65.974 58.0716 64.4574 57.1746C62.95 56.2683 61.7848 54.9967 60.9617 53.3599C60.1479 51.7138 59.741 49.7856 59.741 47.5754C59.741 45.3929 60.1479 43.4694 60.9617 41.8048C61.7848 40.1402 62.9315 38.8409 64.4019 37.9069C65.8815 36.9728 67.6109 36.5058 69.5899 36.5058C70.7921 36.5058 71.9573 36.7047 73.0855 37.1023C74.2138 37.5 75.2264 38.1242 76.1234 38.975C77.0205 39.8258 77.7279 40.9309 78.2458 42.2903C78.7637 43.6405 79.0226 45.282 79.0226 47.2147V48.6851H62.0853V45.5779H74.9582C74.9582 44.4866 74.7363 43.5203 74.2924 42.6787C73.8485 41.8279 73.2242 41.1575 72.4197 40.6673C71.6244 40.1772 70.6904 39.9321 69.6176 39.9321C68.4524 39.9321 67.4352 40.2188 66.5659 40.7922C65.7058 41.3563 65.04 42.0961 64.5684 43.0116C64.106 43.9179 63.8748 44.9028 63.8748 45.9663V48.3938C63.8748 49.818 64.1245 51.0294 64.6238 52.0282C65.1325 53.0269 65.8399 53.7899 66.7462 54.317C67.6525 54.8349 68.7113 55.0938 69.9228 55.0938C70.7089 55.0938 71.4256 54.9828 72.0729 54.7609C72.7202 54.5297 73.2797 54.1875 73.7514 53.7344C74.223 53.2813 74.5837 52.7218 74.8334 52.0559L78.759 52.7634C78.4446 53.9194 77.8805 54.932 77.0667 55.8013C76.2621 56.6613 75.2495 57.3318 74.0288 57.8127C72.8173 58.2843 71.4348 58.5201 69.8812 58.5201ZM90.5578 66.524C88.8655 66.524 87.409 66.3021 86.1883 65.8582C84.9768 65.4143 83.9873 64.8271 83.2197 64.0965C82.4522 63.3659 81.8788 62.566 81.4997 61.6967L85.0647 60.2263C85.3144 60.6332 85.6473 61.0632 86.0634 61.5164C86.4888 61.9788 87.0622 62.3718 87.7835 62.6955C88.5141 63.0191 89.4527 63.181 90.5994 63.181C92.1716 63.181 93.4709 62.7972 94.4974 62.0296C95.5239 61.2713 96.0371 60.0599 96.0371 58.3953V54.206H95.7736C95.5239 54.6592 95.1632 55.1632 94.6916 55.718C94.2292 56.2729 93.5911 56.7538 92.7773 57.1607C91.9635 57.5676 90.9046 57.771 89.6007 57.771C87.9176 57.771 86.401 57.378 85.0508 56.592C83.7099 55.7966 82.6464 54.6268 81.8603 53.0824C81.0835 51.5288 80.6951 49.6191 80.6951 47.3534C80.6951 45.0877 81.0789 43.1457 81.8464 41.5274C82.6233 39.909 83.6867 38.6698 85.0369 37.8098C86.3871 36.9405 87.9176 36.5058 89.6284 36.5058C90.9509 36.5058 92.019 36.7278 92.8328 37.1717C93.6466 37.6063 94.28 38.1149 94.7332 38.6976C95.1956 39.2802 95.5516 39.7934 95.8013 40.2373H96.1065V36.7833H100.171V58.5617C100.171 60.3928 99.7455 61.8955 98.8947 63.07C98.0439 64.2445 96.8925 65.1138 95.4406 65.6779C93.998 66.242 92.3704 66.524 90.5578 66.524ZM90.5162 54.3309C91.7092 54.3309 92.7172 54.0534 93.5402 53.4986C94.3725 52.9345 95.0014 52.1299 95.4268 51.0849C95.8614 50.0307 96.0787 48.7684 96.0787 47.298C96.0787 45.8646 95.866 44.6022 95.4406 43.511C95.0152 42.4198 94.391 41.569 93.568 40.9586C92.7449 40.339 91.7277 40.0292 90.5162 40.0292C89.2678 40.0292 88.2274 40.3529 87.3951 41.0002C86.5628 41.6383 85.934 42.5076 85.5086 43.6081C85.0924 44.7086 84.8843 45.9385 84.8843 47.298C84.8843 48.6944 85.097 49.9197 85.5224 50.9739C85.9478 52.0282 86.5767 52.8512 87.409 53.4431C88.2505 54.0349 89.2863 54.3309 90.5162 54.3309ZM103.733 58.0901V36.7833H107.881V58.0901H103.733ZM105.828 33.4957C105.107 33.4957 104.487 33.2553 103.969 32.7744C103.461 32.2842 103.206 31.7016 103.206 31.0265C103.206 30.3422 103.461 29.7596 103.969 29.2787C104.487 28.7886 105.107 28.5435 105.828 28.5435C106.549 28.5435 107.164 28.7886 107.673 29.2787C108.191 29.7596 108.45 30.3422 108.45 31.0265C108.45 31.7016 108.191 32.2842 107.673 32.7744C107.164 33.2553 106.549 33.4957 105.828 33.4957ZM120.436 58.5201C118.438 58.5201 116.695 58.0623 115.206 57.1468C113.717 56.2313 112.561 54.9505 111.738 53.3044C110.915 51.6583 110.504 49.7347 110.504 47.5338C110.504 45.3236 110.915 43.3908 111.738 41.7354C112.561 40.0801 113.717 38.7947 115.206 37.8791C116.695 36.9636 118.438 36.5058 120.436 36.5058C122.433 36.5058 124.177 36.9636 125.665 37.8791C127.154 38.7947 128.31 40.0801 129.133 41.7354C129.956 43.3908 130.368 45.3236 130.368 47.5338C130.368 49.7347 129.956 51.6583 129.133 53.3044C128.31 54.9505 127.154 56.2313 125.665 57.1468C124.177 58.0623 122.433 58.5201 120.436 58.5201ZM120.45 55.0383C121.744 55.0383 122.817 54.6962 123.668 54.0118C124.519 53.3275 125.148 52.4166 125.554 51.2791C125.971 50.1416 126.179 48.8886 126.179 47.5199C126.179 46.1605 125.971 44.912 125.554 43.7746C125.148 42.6278 124.519 41.7077 123.668 41.0141C122.817 40.3205 121.744 39.9737 120.45 39.9737C119.146 39.9737 118.064 40.3205 117.204 41.0141C116.353 41.7077 115.719 42.6278 115.303 43.7746C114.896 44.912 114.693 46.1605 114.693 47.5199C114.693 48.8886 114.896 50.1416 115.303 51.2791C115.719 52.4166 116.353 53.3275 117.204 54.0118C118.064 54.6962 119.146 55.0383 120.45 55.0383ZM137.145 45.4392V58.0901H132.998V36.7833H136.979V40.2512H137.242C137.732 39.123 138.5 38.2167 139.545 37.5323C140.599 36.848 141.926 36.5058 143.526 36.5058C144.978 36.5058 146.25 36.811 147.341 37.4214C148.432 38.0225 149.278 38.9195 149.879 40.1125C150.48 41.3054 150.781 42.7804 150.781 44.5375V58.0901H146.633V45.0369C146.633 43.4925 146.231 42.2857 145.427 41.4164C144.622 40.5379 143.517 40.0986 142.111 40.0986C141.149 40.0986 140.294 40.3067 139.545 40.7228C138.805 41.139 138.218 41.7493 137.783 42.5539C137.358 43.3492 137.145 44.3109 137.145 45.4392ZM160.544 58.5617C159.194 58.5617 157.973 58.312 156.882 57.8127C155.791 57.304 154.926 56.5688 154.288 55.6071C153.659 54.6453 153.345 53.4662 153.345 52.0698C153.345 50.8676 153.576 49.8781 154.038 49.1013C154.501 48.3245 155.125 47.7095 155.911 47.2563C156.697 46.8032 157.576 46.461 158.547 46.2298C159.518 45.9987 160.507 45.8229 161.515 45.7027C162.791 45.5548 163.827 45.4345 164.622 45.3421C165.418 45.2403 165.996 45.0785 166.356 44.8566C166.717 44.6346 166.897 44.2739 166.897 43.7746V43.6775C166.897 42.466 166.555 41.5274 165.871 40.8615C165.196 40.1957 164.188 39.8628 162.847 39.8628C161.45 39.8628 160.35 40.1726 159.545 40.7922C158.75 41.4025 158.2 42.0822 157.895 42.8313L153.997 41.9435C154.459 40.6488 155.134 39.6038 156.022 38.8085C156.919 38.004 157.95 37.4214 159.115 37.0607C160.281 36.6908 161.506 36.5058 162.791 36.5058C163.642 36.5058 164.544 36.6076 165.496 36.811C166.458 37.0052 167.355 37.3659 168.187 37.893C169.029 38.4201 169.718 39.1738 170.254 40.1541C170.791 41.1251 171.059 42.3874 171.059 43.941V58.0901H167.008V55.177H166.842C166.574 55.7134 166.171 56.2405 165.635 56.7584C165.099 57.2763 164.41 57.7063 163.568 58.0485C162.727 58.3906 161.719 58.5617 160.544 58.5617ZM161.446 55.2325C162.592 55.2325 163.573 55.006 164.387 54.5528C165.21 54.0997 165.834 53.5078 166.259 52.7773C166.694 52.0374 166.911 51.2468 166.911 50.4052V47.6586C166.763 47.8066 166.477 47.9453 166.051 48.0748C165.635 48.195 165.159 48.3013 164.622 48.3938C164.086 48.4771 163.564 48.5557 163.055 48.6296C162.546 48.6944 162.121 48.7499 161.779 48.7961C160.974 48.8978 160.239 49.0689 159.573 49.3093C158.917 49.5498 158.389 49.8966 157.992 50.3497C157.603 50.7936 157.409 51.3855 157.409 52.1253C157.409 53.1518 157.788 53.9286 158.547 54.4557C159.305 54.9736 160.271 55.2325 161.446 55.2325ZM178.731 29.681V58.0901H174.583V29.681H178.731ZM194.796 45.4392V58.0901H190.648V29.681H194.741V40.2512H195.004C195.504 39.1045 196.266 38.1936 197.293 37.5185C198.319 36.8434 199.66 36.5058 201.316 36.5058C202.777 36.5058 204.053 36.8064 205.144 37.4075C206.245 38.0086 207.096 38.9056 207.697 40.0986C208.307 41.2823 208.612 42.7619 208.612 44.5375V58.0901H204.465V45.0369C204.465 43.474 204.062 42.2626 203.258 41.4025C202.453 40.5332 201.334 40.0986 199.901 40.0986C198.921 40.0986 198.042 40.3067 197.265 40.7228C196.498 41.139 195.892 41.7493 195.448 42.5539C195.013 43.3492 194.796 44.3109 194.796 45.4392ZM225.644 49.2539V36.7833H229.806V58.0901H225.727V54.4002H225.505C225.015 55.5377 224.229 56.4856 223.147 57.2439C222.074 57.993 220.738 58.3675 219.138 58.3675C217.77 58.3675 216.558 58.067 215.504 57.4659C214.459 56.8555 213.636 55.9539 213.035 54.7609C212.443 53.5679 212.147 52.0929 212.147 50.3358V36.7833H216.295V49.8365C216.295 51.2884 216.697 52.4443 217.501 53.3044C218.306 54.1644 219.351 54.5944 220.636 54.5944C221.413 54.5944 222.185 54.4002 222.953 54.0118C223.73 53.6234 224.373 53.0362 224.881 52.2501C225.399 51.4641 225.653 50.4653 225.644 49.2539ZM233.711 58.0901V29.681H237.859V40.2373H238.109C238.349 39.7934 238.696 39.2802 239.149 38.6976C239.602 38.1149 240.231 37.6063 241.036 37.1717C241.84 36.7278 242.904 36.5058 244.226 36.5058C245.946 36.5058 247.481 36.9405 248.832 37.8098C250.182 38.6791 251.241 39.9321 252.008 41.569C252.785 43.2058 253.173 45.1756 253.173 47.4783C253.173 49.781 252.79 51.7554 252.022 53.4015C251.254 55.0383 250.2 56.3006 248.859 57.1884C247.518 58.067 245.988 58.5062 244.268 58.5062C242.973 58.5062 241.914 58.2889 241.091 57.8543C240.277 57.4196 239.639 56.911 239.177 56.3284C238.714 55.7458 238.358 55.2279 238.109 54.7748H237.762V58.0901H233.711ZM237.776 47.4367C237.776 48.9348 237.993 50.248 238.428 51.3762C238.862 52.5044 239.491 53.3876 240.314 54.0257C241.137 54.6545 242.145 54.969 243.338 54.969C244.578 54.969 245.613 54.6407 246.446 53.9841C247.278 53.3182 247.907 52.4166 248.332 51.2791C248.767 50.1416 248.984 48.8608 248.984 47.4367C248.984 46.031 248.771 44.7687 248.346 43.6497C247.93 42.5307 247.301 41.6476 246.459 41.0002C245.627 40.3529 244.587 40.0292 243.338 40.0292C242.136 40.0292 241.119 40.339 240.287 40.9586C239.464 41.5782 238.839 42.4429 238.414 43.5526C237.989 44.6624 237.776 45.957 237.776 47.4367ZM271.797 41.9851L268.038 42.651C267.881 42.1701 267.631 41.7123 267.289 41.2777C266.956 40.843 266.503 40.487 265.929 40.2096C265.356 39.9321 264.639 39.7934 263.779 39.7934C262.605 39.7934 261.624 40.057 260.838 40.5841C260.052 41.102 259.659 41.7724 259.659 42.5955C259.659 43.3076 259.923 43.8809 260.45 44.3156C260.977 44.7502 261.828 45.1062 263.002 45.3837L266.387 46.1605C268.348 46.6136 269.809 47.3118 270.77 48.2551C271.732 49.1984 272.213 50.4237 272.213 51.9311C272.213 53.2073 271.843 54.3447 271.103 55.3435C270.373 56.333 269.351 57.1098 268.038 57.6739C266.734 58.2381 265.222 58.5201 263.502 58.5201C261.116 58.5201 259.169 58.0115 257.662 56.9942C256.154 55.9677 255.23 54.5112 254.887 52.6247L258.896 52.0143C259.146 53.0593 259.659 53.85 260.436 54.3864C261.213 54.9135 262.226 55.177 263.474 55.177C264.833 55.177 265.92 54.895 266.734 54.3309C267.548 53.7575 267.955 53.0593 267.955 52.2363C267.955 51.5704 267.705 51.0109 267.205 50.5578C266.715 50.1047 265.962 49.7625 264.944 49.5313L261.338 48.7406C259.35 48.2875 257.879 47.5661 256.927 46.5766C255.983 45.5871 255.512 44.3341 255.512 42.8174C255.512 41.5597 255.863 40.4592 256.566 39.516C257.269 38.5727 258.24 37.8375 259.479 37.3104C260.718 36.774 262.138 36.5058 263.738 36.5058C266.04 36.5058 267.853 37.0052 269.175 38.004C270.498 38.9935 271.372 40.3205 271.797 41.9851ZM283.111 58.0901V36.7833H287.259V58.0901H283.111ZM285.206 33.4957C284.485 33.4957 283.865 33.2553 283.347 32.7744C282.838 32.2842 282.584 31.7016 282.584 31.0265C282.584 30.3422 282.838 29.7596 283.347 29.2787C283.865 28.7886 284.485 28.5435 285.206 28.5435C285.927 28.5435 286.542 28.7886 287.051 29.2787C287.569 29.7596 287.828 30.3422 287.828 31.0265C287.828 31.7016 287.569 32.2842 287.051 32.7744C286.542 33.2553 285.927 33.4957 285.206 33.4957ZM294.986 45.4392V58.0901H290.839V36.7833H294.82V40.2512H295.083C295.574 39.123 296.341 38.2167 297.386 37.5323C298.44 36.848 299.767 36.5058 301.367 36.5058C302.819 36.5058 304.091 36.811 305.182 37.4214C306.273 38.0225 307.119 38.9195 307.721 40.1125C308.322 41.3054 308.622 42.7804 308.622 44.5375V58.0901H304.475V45.0369C304.475 43.4925 304.072 42.2857 303.268 41.4164C302.463 40.5379 301.358 40.0986 299.952 40.0986C298.991 40.0986 298.135 40.3067 297.386 40.7228C296.646 41.139 296.059 41.7493 295.624 42.5539C295.199 43.3492 294.986 44.3109 294.986 45.4392Z" fill="#072723"/>
<g opacity="0.25">
<path d="M490.51 -116.331C571.206 -140.802 656.577 -95.18 681.157 -14.4511C705.729 66.2553 659.848 152.065 579.109 176.369C498.32 200.697 412.93 154.958 388.557 74.2896C364.16 -6.45398 409.843 -91.8682 490.51 -116.331ZM465.615 150.49C466.353 149.45 466.953 148.492 467.657 147.608C474.127 139.504 480.508 131.32 487.166 123.379C488.828 121.397 489.235 120.154 487.788 117.89C478.444 103.317 471.085 87.7505 464.959 71.5895C463.49 67.7141 462.138 63.795 460.706 59.802L404.126 76.9602C413.314 104.968 435.796 133.828 465.615 150.49ZM613.501 13.4008C613.571 14.0086 613.569 14.3275 613.641 14.6163C619.035 35.3937 622.721 56.436 623.139 77.9628C623.177 80.026 624.219 80.5021 625.941 80.8459C636.89 83.0143 647.447 86.4456 657.66 90.9529C658.29 91.2273 658.968 91.3893 659.757 91.6482C674.428 60.9716 677.928 29.337 670.096 -3.76193L613.501 13.4008ZM609.297 0.0222161L665.922 -17.1496C654.041 -48.9472 633.649 -73.2302 604.573 -90.4854C603.801 -89.3691 603.211 -88.406 602.507 -87.5227C595.985 -79.3207 589.559 -71.0419 582.841 -63.0011C581.236 -61.0767 581.025 -59.9672 582.208 -57.7367C588.564 -45.7211 594.914 -33.6958 600.778 -21.4414C604.091 -14.5311 606.474 -7.18379 609.297 0.0222161ZM456.703 46.3868C450.69 24.6454 447.164 2.56643 446.695 -19.1002C434.002 -23.1659 421.996 -27.015 409.803 -30.9138C395.468 -0.853575 392.013 30.6611 399.839 63.6312L456.696 46.3891L456.703 46.3868ZM609.535 78.5432C609.051 57.5512 605.644 37.4289 600.173 17.5569L543.578 34.7197L558.112 82.6452C574.923 78.5027 591.901 77.0378 609.533 78.5357L609.535 78.5432ZM544.764 86.7093L530.242 38.8212L473.729 55.959C480.364 75.6576 488.634 94.2806 499.841 111.792C513.545 100.767 528.49 92.543 544.749 86.7138L544.764 86.7093ZM469.583 42.4237L526.111 25.2814L511.693 -22.2627C494.745 -18.0052 477.679 -16.6688 460.253 -18.1067C460.748 2.70259 464.218 22.5768 469.591 42.4214L469.583 42.4237ZM539.488 21.2329L596.061 4.07697C589.453 -15.475 581.32 -34.0004 570.174 -51.4162C556.356 -40.3646 541.377 -32.0895 525.097 -26.2214L539.486 21.2254L539.488 21.2329ZM501.838 -103.136L521.171 -39.3822C536.392 -44.8392 550.059 -52.5616 562.52 -62.8095C552.064 -76.71 540.612 -89.075 525.418 -97.3484C518.226 -101.269 510.566 -103.741 501.842 -103.121L501.838 -103.136ZM488.487 -99.0298C482.604 -95.7756 478.427 -91.2336 474.988 -85.9839C467.848 -75.0788 464.356 -62.8377 462.354 -50.1256C461.411 -44.1303 460.932 -38.0629 460.223 -31.8609C476.594 -30.291 492.186 -31.4254 507.802 -35.336L488.489 -99.0223L488.487 -99.0298ZM609.427 92.1922C593.385 90.6042 577.795 91.7707 562.188 95.7113L581.558 159.585C584.937 156.559 588.24 154.062 590.972 151.061C596.815 144.658 600.4 136.898 603.1 128.752C607.007 116.965 608.833 104.804 609.42 92.1945L609.427 92.1922ZM548.822 99.7402C533.559 105.218 519.923 112.857 507.055 123.539C513.789 130.743 519.988 138.012 526.868 144.567C535.048 152.362 544.306 158.785 555.45 161.703C559.425 162.743 563.615 162.959 568.196 163.628L548.822 99.7402ZM533.033 -108.896C549.024 -99.5571 561.448 -86.4658 573.106 -71.4271C579.863 -79.9861 586.269 -88.0874 592.939 -96.5301C573.343 -105.258 553.732 -109.537 533.035 -108.888L533.033 -108.896ZM416.413 -42.9733C426.796 -39.6284 436.625 -36.4668 446.891 -33.1597C448.106 -52.2087 451.327 -69.9219 459.307 -86.5705C441.819 -75.5253 427.823 -61.2096 416.413 -42.9733ZM536.671 168.892C520.861 159.531 508.537 146.581 496.96 131.73C490.24 140.221 483.9 148.245 477.246 156.658C496.726 165.38 516.201 169.456 536.673 168.9L536.671 168.892ZM610.577 146.513C628.013 135.54 641.974 121.3 653.275 103.187C642.963 99.8613 633.232 96.7271 622.993 93.4282C621.674 112.321 618.563 129.968 610.569 146.515L610.577 146.513Z" fill="#072723"/>
</g>
</g>
<rect x="1" y="1" width="646" height="205" rx="23" stroke="#072723" stroke-width="2"/>
<defs>
<clipPath id="clip0_6001_93">
<rect width="648" height="207" rx="24" fill="white"/>
</clipPath>
</defs>
</svg>
