<svg width="326" height="207" viewBox="0 0 326 207" fill="none" xmlns="http://www.w3.org/2000/svg">
<g clip-path="url(#clip0_6001_104)">
<rect width="326" height="207" rx="24" fill="#3FF8CB"/>
<g opacity="0.25">
<path d="M279.905 -51.0727C323.426 -64.2707 369.469 -39.6657 382.725 3.87296C395.978 47.3995 371.233 93.6782 327.689 106.786C284.118 119.907 238.065 95.2389 224.92 51.7326C211.763 8.18598 236.4 -37.8796 279.905 -51.0727ZM266.479 92.8291C266.877 92.2679 267.201 91.7513 267.58 91.2749C271.07 86.904 274.511 82.4905 278.102 78.2077C278.998 77.1386 279.218 76.4685 278.438 75.2469C273.398 67.3877 269.429 58.9923 266.125 50.2764C265.333 48.1863 264.604 46.0726 263.832 43.9191L233.317 53.1729C238.272 68.2779 250.397 83.8428 266.479 92.8291ZM346.237 18.8941C346.275 19.2218 346.274 19.3939 346.312 19.5496C349.221 30.7553 351.209 42.1038 351.435 53.7136C351.455 54.8264 352.018 55.0831 352.946 55.2685C358.851 56.438 364.545 58.2886 370.053 60.7195C370.393 60.8675 370.758 60.9548 371.184 61.0945C379.096 44.5499 380.984 27.4888 376.76 9.63786L346.237 18.8941ZM343.969 11.6787L374.508 2.41761C368.101 -14.7315 357.103 -27.8278 341.422 -37.1339C341.006 -36.5318 340.687 -36.0124 340.308 -35.536C336.79 -31.1125 333.325 -26.6476 329.702 -22.311C328.836 -21.2731 328.722 -20.6748 329.36 -19.4718C332.788 -12.9916 336.213 -6.50606 339.375 0.102959C341.162 3.82983 342.447 7.79238 343.969 11.6787ZM261.673 36.6841C258.43 24.9585 256.528 13.0509 256.275 1.36564C249.43 -0.827082 242.954 -2.90301 236.378 -5.00568C228.647 11.2064 226.784 28.2029 231.005 45.9843L261.669 36.6853L261.673 36.6841ZM344.098 54.0266C343.837 42.7053 341.999 31.8529 339.049 21.1355L308.526 30.3918L316.364 56.239C325.431 54.0048 334.588 53.2147 344.097 54.0226L344.098 54.0266ZM309.166 58.4308L301.333 32.6038L270.855 41.8465C274.434 52.4704 278.893 62.5142 284.938 71.9585C292.329 66.0125 300.389 61.5771 309.158 58.4332L309.166 58.4308ZM268.619 34.5467L299.106 25.3015L291.33 -0.339974C282.189 1.95618 272.985 2.67694 263.587 1.90145C263.854 13.1243 265.726 23.8429 268.623 34.5455L268.619 34.5467ZM306.32 23.1181L336.831 13.8655C333.268 3.32079 328.881 -6.67033 322.87 -16.063C315.417 -10.1027 307.339 -5.63979 298.559 -2.47496L306.319 23.114L306.32 23.1181ZM286.015 -43.9565L296.442 -9.57286C304.65 -12.5159 312.022 -16.6808 318.742 -22.2077C313.103 -29.7045 306.926 -36.3732 298.732 -40.8352C294.853 -42.9495 290.722 -44.2826 286.017 -43.9484L286.015 -43.9565ZM278.814 -41.742C275.642 -39.987 273.389 -37.5373 271.534 -34.7061C267.683 -28.8248 265.8 -22.2229 264.72 -15.367C264.212 -12.1336 263.953 -8.86135 263.571 -5.51646C272.4 -4.66982 280.809 -5.28161 289.231 -7.39068L278.815 -41.738L278.814 -41.742ZM344.04 61.3878C335.388 60.5314 326.98 61.1605 318.563 63.2857L329.01 97.7339C330.832 96.102 332.613 94.7557 334.087 93.137C337.238 89.6837 339.171 85.4983 340.627 81.1052C342.735 74.7482 343.719 68.1898 344.036 61.3891L344.04 61.3878ZM311.354 65.4586C303.123 68.4131 295.769 72.533 288.828 78.294C292.46 82.1793 295.803 86.0994 299.514 89.6347C303.926 93.8387 308.919 97.3024 314.929 98.8762C317.073 99.4376 319.333 99.554 321.803 99.9148L311.354 65.4586ZM302.839 -47.0629C311.463 -42.0264 318.164 -34.966 324.451 -26.8553C328.095 -31.4714 331.55 -35.8406 335.147 -40.3939C324.579 -45.1008 314.003 -47.4088 302.84 -47.0589L302.839 -47.0629ZM239.943 -11.5096C245.543 -9.70565 250.844 -8.00053 256.381 -6.21697C257.036 -16.4904 258.773 -26.0436 263.077 -35.0225C253.646 -29.0655 246.097 -21.3448 239.943 -11.5096ZM304.801 102.754C296.275 97.7052 289.628 90.7209 283.384 82.7115C279.76 87.2907 276.341 91.6182 272.752 96.1558C283.258 100.86 293.761 103.058 304.802 102.758L304.801 102.754ZM344.66 90.6839C354.063 84.7662 361.593 77.0864 367.688 67.3175C362.126 65.524 356.878 63.8336 351.356 62.0545C350.645 72.2437 348.967 81.7611 344.656 90.6851L344.66 90.6839Z" fill="#072723"/>
</g>
<path d="M18.397 83V61.1818H26.174C27.8643 61.1818 29.267 61.473 30.3821 62.0554C31.5043 62.6378 32.3423 63.4439 32.8963 64.4737C33.4503 65.4964 33.7273 66.679 33.7273 68.0213C33.7273 69.3565 33.4467 70.532 32.8857 71.5476C32.3317 72.5561 31.4936 73.3409 30.3714 73.902C29.2564 74.4631 27.8537 74.7436 26.1634 74.7436H20.272V71.9098H25.8651C26.9304 71.9098 27.7969 71.7571 28.4645 71.4517C29.1392 71.1463 29.6328 70.7024 29.9453 70.12C30.2578 69.5376 30.4141 68.8381 30.4141 68.0213C30.4141 67.1974 30.2543 66.4837 29.9347 65.88C29.6222 65.2763 29.1286 64.8146 28.4538 64.495C27.7862 64.1683 26.9091 64.005 25.8224 64.005H21.6889V83H18.397ZM29.1676 73.1562L34.5582 83H30.8082L25.5241 73.1562H29.1676ZM42.3248 83.3303C40.7125 83.3303 39.324 82.9858 38.1593 82.2969C37.0016 81.6009 36.1067 80.6243 35.4746 79.3672C34.8496 78.103 34.5371 76.6222 34.5371 74.9247C34.5371 73.2486 34.8496 71.7713 35.4746 70.4929C36.1067 69.2145 36.9874 68.2166 38.1167 67.4993C39.253 66.782 40.5811 66.4233 42.101 66.4233C43.0243 66.4233 43.9192 66.576 44.7857 66.8814C45.6522 67.1868 46.4299 67.6662 47.1188 68.3196C47.8077 68.973 48.351 69.8217 48.7488 70.8658C49.1465 71.9027 49.3453 73.1634 49.3453 74.6477V75.777H36.3375V73.3906H46.2239C46.2239 72.5526 46.0534 71.8104 45.7125 71.1641C45.3716 70.5107 44.8922 69.9957 44.2743 69.6193C43.6635 69.2429 42.9462 69.0547 42.1223 69.0547C41.2275 69.0547 40.4462 69.2749 39.7786 69.7152C39.1181 70.1484 38.6067 70.7166 38.2445 71.4197C37.8894 72.1158 37.7118 72.8722 37.7118 73.6889V75.5533C37.7118 76.647 37.9036 77.5774 38.2871 78.3445C38.6777 79.1115 39.2211 79.6974 39.9171 80.1023C40.6131 80.5 41.4263 80.6989 42.3567 80.6989C42.9604 80.6989 43.5108 80.6136 44.008 80.4432C44.5051 80.2656 44.9348 80.0028 45.2971 79.6548C45.6593 79.3068 45.9363 78.8771 46.128 78.3658L49.1429 78.9091C48.9015 79.7969 48.4682 80.5746 47.8432 81.2422C47.2253 81.9027 46.4476 82.4176 45.5101 82.7869C44.5797 83.1491 43.5179 83.3303 42.3248 83.3303ZM57.7404 89.4773C56.4407 89.4773 55.3221 89.3068 54.3846 88.9659C53.4542 88.625 52.6942 88.174 52.1048 87.6129C51.5153 87.0518 51.0749 86.4375 50.7837 85.7699L53.5217 84.6406C53.7134 84.9531 53.9691 85.2834 54.2887 85.6314C54.6154 85.9865 55.0558 86.2884 55.6097 86.5369C56.1708 86.7855 56.8917 86.9098 57.7724 86.9098C58.9798 86.9098 59.9776 86.6151 60.766 86.0256C61.5543 85.4432 61.9485 84.5128 61.9485 83.2344V80.017H61.7461C61.5543 80.3651 61.2773 80.7521 60.9151 81.1783C60.56 81.6044 60.07 81.9737 59.445 82.2862C58.82 82.5987 58.0067 82.755 57.0053 82.755C55.7127 82.755 54.5479 82.4531 53.511 81.8494C52.4812 81.2386 51.6644 80.3402 51.0607 79.1541C50.4641 77.9609 50.1658 76.4943 50.1658 74.7543C50.1658 73.0142 50.4606 71.5227 51.0501 70.2798C51.6467 69.0369 52.4634 68.0852 53.5004 67.4247C54.5373 66.7571 55.7127 66.4233 57.0266 66.4233C58.0423 66.4233 58.8626 66.5938 59.4876 66.9347C60.1126 67.2685 60.5991 67.6591 60.9471 68.1065C61.3022 68.554 61.5756 68.9482 61.7674 69.2891H62.0018V66.6364H65.1232V83.3622C65.1232 84.7685 64.7965 85.9226 64.1431 86.8246C63.4897 87.7266 62.6055 88.3942 61.4904 88.8274C60.3825 89.2607 59.1325 89.4773 57.7404 89.4773ZM57.7085 80.1129C58.6246 80.1129 59.3988 79.8999 60.0309 79.4737C60.6701 79.0405 61.1531 78.4226 61.4798 77.62C61.8136 76.8104 61.9805 75.8409 61.9805 74.7116C61.9805 73.6108 61.8171 72.6413 61.4904 71.8033C61.1637 70.9652 60.6843 70.3118 60.0522 69.843C59.4201 69.3672 58.6388 69.1293 57.7085 69.1293C56.7496 69.1293 55.9506 69.3778 55.3114 69.875C54.6722 70.3651 54.1893 71.0327 53.8626 71.8778C53.543 72.723 53.3832 73.6676 53.3832 74.7116C53.3832 75.7841 53.5465 76.7251 53.8732 77.5348C54.1999 78.3445 54.6829 78.9766 55.3221 79.4311C55.9684 79.8857 56.7638 80.1129 57.7085 80.1129ZM67.3952 83V66.6364H70.5806V83H67.3952ZM69.0039 64.1115C68.4499 64.1115 67.9741 63.9268 67.5763 63.5575C67.1857 63.1811 66.9904 62.7337 66.9904 62.2152C66.9904 61.6896 67.1857 61.2422 67.5763 60.8729C67.9741 60.4964 68.4499 60.3082 69.0039 60.3082C69.5579 60.3082 70.0302 60.4964 70.4208 60.8729C70.8185 61.2422 71.0174 61.6896 71.0174 62.2152C71.0174 62.7337 70.8185 63.1811 70.4208 63.5575C70.0302 63.9268 69.5579 64.1115 69.0039 64.1115ZM79.7587 83.3303C78.2246 83.3303 76.8858 82.9787 75.7424 82.2756C74.5989 81.5724 73.7111 80.5888 73.079 79.3246C72.4469 78.0604 72.1309 76.5831 72.1309 74.8928C72.1309 73.1953 72.4469 71.7109 73.079 70.4396C73.7111 69.1683 74.5989 68.1811 75.7424 67.478C76.8858 66.7749 78.2246 66.4233 79.7587 66.4233C81.2928 66.4233 82.6316 66.7749 83.775 67.478C84.9185 68.1811 85.8063 69.1683 86.4384 70.4396C87.0705 71.7109 87.3865 73.1953 87.3865 74.8928C87.3865 76.5831 87.0705 78.0604 86.4384 79.3246C85.8063 80.5888 84.9185 81.5724 83.775 82.2756C82.6316 82.9787 81.2928 83.3303 79.7587 83.3303ZM79.7694 80.6562C80.7637 80.6562 81.5875 80.3935 82.2409 79.8679C82.8944 79.3423 83.3773 78.6428 83.6898 77.7692C84.0094 76.8956 84.1692 75.9332 84.1692 74.8821C84.1692 73.8381 84.0094 72.8793 83.6898 72.0057C83.3773 71.125 82.8944 70.4183 82.2409 69.8857C81.5875 69.353 80.7637 69.0866 79.7694 69.0866C78.7679 69.0866 77.937 69.353 77.2765 69.8857C76.623 70.4183 76.1365 71.125 75.8169 72.0057C75.5044 72.8793 75.3482 73.8381 75.3482 74.8821C75.3482 75.9332 75.5044 76.8956 75.8169 77.7692C76.1365 78.6428 76.623 79.3423 77.2765 79.8679C77.937 80.3935 78.7679 80.6562 79.7694 80.6562ZM92.1275 73.2841V83H88.9421V66.6364H91.9996V69.2997H92.2021C92.5785 68.4332 93.168 67.7372 93.9705 67.2116C94.7802 66.6861 95.7994 66.4233 97.0281 66.4233C98.1431 66.4233 99.1197 66.6577 99.9577 67.1264C100.796 67.5881 101.446 68.277 101.907 69.1932C102.369 70.1094 102.6 71.2422 102.6 72.5916V83H99.4144V72.9751C99.4144 71.7891 99.1055 70.8622 98.4876 70.1946C97.8697 69.5199 97.021 69.1825 95.9414 69.1825C95.2028 69.1825 94.5458 69.3423 93.9705 69.6619C93.4023 69.9815 92.9513 70.4503 92.6175 71.0682C92.2908 71.679 92.1275 72.4176 92.1275 73.2841ZM109.634 83.3622C108.597 83.3622 107.659 83.1705 106.821 82.7869C105.983 82.3963 105.319 81.8317 104.829 81.093C104.346 80.3544 104.105 79.4489 104.105 78.3764C104.105 77.4531 104.282 76.6932 104.637 76.0966C104.993 75.5 105.472 75.0277 106.076 74.6797C106.679 74.3317 107.354 74.0689 108.1 73.8913C108.846 73.7138 109.605 73.5788 110.38 73.4865C111.36 73.3729 112.155 73.2805 112.766 73.2095C113.377 73.1314 113.821 73.0071 114.098 72.8366C114.375 72.6662 114.513 72.3892 114.513 72.0057V71.9311C114.513 71.0007 114.25 70.2798 113.725 69.7685C113.206 69.2571 112.432 69.0014 111.402 69.0014C110.33 69.0014 109.485 69.2393 108.867 69.7152C108.256 70.1839 107.833 70.706 107.599 71.2812L104.605 70.5994C104.961 69.6051 105.479 68.8026 106.161 68.1918C106.85 67.5739 107.642 67.1264 108.537 66.8494C109.431 66.5653 110.373 66.4233 111.36 66.4233C112.013 66.4233 112.706 66.5014 113.437 66.6577C114.176 66.8068 114.865 67.0838 115.504 67.4886C116.15 67.8935 116.679 68.4723 117.091 69.2251C117.503 69.9709 117.709 70.9403 117.709 72.1335V83H114.598V80.7628H114.471C114.265 81.1747 113.956 81.5795 113.544 81.9773C113.132 82.375 112.603 82.7053 111.956 82.968C111.31 83.2308 110.536 83.3622 109.634 83.3622ZM110.326 80.8054C111.207 80.8054 111.96 80.6314 112.585 80.2834C113.217 79.9354 113.696 79.4808 114.023 78.9197C114.357 78.3516 114.524 77.7443 114.524 77.098V74.9886C114.41 75.1023 114.19 75.2088 113.863 75.3082C113.544 75.4006 113.178 75.4822 112.766 75.5533C112.354 75.6172 111.953 75.6776 111.562 75.7344C111.172 75.7841 110.845 75.8267 110.582 75.8622C109.964 75.9403 109.4 76.0717 108.888 76.2564C108.384 76.4411 107.979 76.7074 107.674 77.0554C107.375 77.3963 107.226 77.8509 107.226 78.419C107.226 79.2074 107.517 79.804 108.1 80.2088C108.682 80.6065 109.424 80.8054 110.326 80.8054ZM123.137 61.1818V83H119.952V61.1818H123.137ZM134.547 73.2841V83H131.362V61.1818H134.505V69.2997H134.707C135.091 68.419 135.677 67.7195 136.465 67.201C137.253 66.6825 138.283 66.4233 139.555 66.4233C140.677 66.4233 141.657 66.6541 142.495 67.1158C143.34 67.5774 143.993 68.2663 144.455 69.1825C144.924 70.0916 145.158 71.228 145.158 72.5916V83H141.973V72.9751C141.973 71.7749 141.664 70.8445 141.046 70.1839C140.428 69.5163 139.569 69.1825 138.468 69.1825C137.715 69.1825 137.04 69.3423 136.444 69.6619C135.854 69.9815 135.389 70.4503 135.048 71.0682C134.714 71.679 134.547 72.4176 134.547 73.2841ZM157.775 76.2138V66.6364H160.971V83H157.839V80.1662H157.668C157.292 81.0398 156.688 81.7678 155.857 82.3501C155.033 82.9254 154.007 83.2131 152.778 83.2131C151.727 83.2131 150.797 82.9822 149.987 82.5206C149.184 82.0518 148.552 81.3594 148.091 80.4432C147.636 79.527 147.409 78.3942 147.409 77.0447V66.6364H150.594V76.6612C150.594 77.7763 150.903 78.6641 151.521 79.3246C152.139 79.9851 152.942 80.3153 153.929 80.3153C154.525 80.3153 155.118 80.1662 155.708 79.8679C156.305 79.5696 156.798 79.1186 157.189 78.5149C157.586 77.9112 157.782 77.1442 157.775 76.2138ZM163.506 83V61.1818H166.692V69.2891H166.884C167.068 68.9482 167.335 68.554 167.683 68.1065C168.031 67.6591 168.513 67.2685 169.131 66.9347C169.749 66.5938 170.566 66.4233 171.582 66.4233C172.903 66.4233 174.082 66.7571 175.119 67.4247C176.156 68.0923 176.969 69.0547 177.558 70.3118C178.155 71.5689 178.453 73.0817 178.453 74.8501C178.453 76.6186 178.158 78.1349 177.569 79.3991C176.979 80.6562 176.17 81.6257 175.14 82.3075C174.11 82.9822 172.935 83.3196 171.614 83.3196C170.619 83.3196 169.806 83.1527 169.174 82.8189C168.549 82.4851 168.059 82.0945 167.704 81.647C167.349 81.1996 167.075 80.8018 166.884 80.4538H166.617V83H163.506ZM166.628 74.8182C166.628 75.9687 166.795 76.9773 167.129 77.8438C167.462 78.7102 167.945 79.3885 168.577 79.8786C169.21 80.3615 169.984 80.603 170.9 80.603C171.852 80.603 172.647 80.3509 173.286 79.8466C173.925 79.3352 174.408 78.6428 174.735 77.7692C175.069 76.8956 175.236 75.9119 175.236 74.8182C175.236 73.7386 175.072 72.7692 174.746 71.9098C174.426 71.0504 173.943 70.3722 173.297 69.875C172.658 69.3778 171.859 69.1293 170.9 69.1293C169.977 69.1293 169.195 69.3672 168.556 69.843C167.924 70.3189 167.445 70.983 167.118 71.8352C166.791 72.6875 166.628 73.6818 166.628 74.8182ZM192.292 70.6314L189.405 71.1428C189.284 70.7734 189.093 70.4219 188.83 70.0881C188.574 69.7543 188.226 69.4808 187.786 69.2678C187.345 69.0547 186.795 68.9482 186.134 68.9482C185.232 68.9482 184.48 69.1506 183.876 69.5554C183.272 69.9531 182.97 70.468 182.97 71.1001C182.97 71.647 183.173 72.0874 183.578 72.4212C183.982 72.755 184.636 73.0284 185.538 73.2415L188.137 73.8381C189.643 74.1861 190.765 74.7223 191.504 75.4467C192.242 76.1712 192.612 77.1122 192.612 78.2699C192.612 79.25 192.328 80.1236 191.759 80.8906C191.198 81.6506 190.414 82.2472 189.405 82.6804C188.404 83.1136 187.242 83.3303 185.921 83.3303C184.089 83.3303 182.594 82.9396 181.436 82.1584C180.279 81.37 179.568 80.2514 179.306 78.8026L182.384 78.3338C182.576 79.1364 182.97 79.7436 183.567 80.1555C184.164 80.5604 184.941 80.7628 185.9 80.7628C186.944 80.7628 187.779 80.5462 188.404 80.1129C189.029 79.6726 189.341 79.1364 189.341 78.5043C189.341 77.9929 189.149 77.5632 188.766 77.2152C188.389 76.8672 187.811 76.6044 187.029 76.4268L184.259 75.8196C182.732 75.4716 181.603 74.9176 180.872 74.1577C180.147 73.3977 179.785 72.4354 179.785 71.2706C179.785 70.3047 180.055 69.4595 180.595 68.7351C181.134 68.0107 181.88 67.446 182.832 67.0412C183.784 66.6293 184.874 66.4233 186.102 66.4233C187.871 66.4233 189.263 66.8068 190.279 67.5739C191.294 68.3338 191.965 69.353 192.292 70.6314ZM200.053 83V66.6364H203.239V83H200.053ZM201.662 64.1115C201.108 64.1115 200.632 63.9268 200.235 63.5575C199.844 63.1811 199.649 62.7337 199.649 62.2152C199.649 61.6896 199.844 61.2422 200.235 60.8729C200.632 60.4964 201.108 60.3082 201.662 60.3082C202.216 60.3082 202.688 60.4964 203.079 60.8729C203.477 61.2422 203.676 61.6896 203.676 62.2152C203.676 62.7337 203.477 63.1811 203.079 63.5575C202.688 63.9268 202.216 64.1115 201.662 64.1115ZM208.71 73.2841V83H205.524V66.6364H208.582V69.2997H208.784C209.161 68.4332 209.75 67.7372 210.553 67.2116C211.362 66.6861 212.381 66.4233 213.61 66.4233C214.725 66.4233 215.702 66.6577 216.54 67.1264C217.378 67.5881 218.028 68.277 218.489 69.1932C218.951 70.1094 219.182 71.2422 219.182 72.5916V83H215.996V72.9751C215.996 71.7891 215.688 70.8622 215.07 70.1946C214.452 69.5199 213.603 69.1825 212.523 69.1825C211.785 69.1825 211.128 69.3423 210.553 69.6619C209.984 69.9815 209.533 70.4503 209.2 71.0682C208.873 71.679 208.71 72.4176 208.71 73.2841Z" fill="#072723"/>
</g>
<rect x="1" y="1" width="324" height="205" rx="23" stroke="#072723" stroke-width="2"/>
<defs>
<clipPath id="clip0_6001_104">
<rect width="326" height="207" rx="24" fill="white"/>
</clipPath>
</defs>
</svg>
