<svg width="258" height="40" viewBox="0 0 258 40" fill="none" xmlns="http://www.w3.org/2000/svg">
<path d="M45.5068 16.7345C45.5068 31.7176 36.3078 36.5261 31.4296 32.2751C27.4574 28.7906 26.2727 21.4036 20.2794 20.6371C12.6834 19.7311 11.9865 29.836 6.96887 29.836C1.11502 29.836 0 21.4036 0 17.0132C0 12.5532 1.2544 6.49022 6.2023 6.49022C11.9865 6.49022 12.3349 15.2013 19.5825 14.7135C26.7605 14.2257 26.8999 5.16614 31.6387 1.33326C35.7503 -2.08149 45.5068 1.54232 45.5068 16.7345Z" fill="#072723"/>
<path d="M67.1104 30.6722V1.61195H69.898V14.2257H86.9021V1.61195H89.62V30.7419H86.9021V16.595H69.898V30.7419H67.1104V30.6722Z" fill="#072723"/>
<path d="M96.8674 39.5227L100.631 30.1844L92.4771 10.6018H95.3343L100.7 23.8427C100.979 24.679 101.467 25.7243 102.024 27.0484C102.094 26.8393 102.164 26.6303 102.303 26.4212C102.373 26.2121 102.443 26.0031 102.582 25.794C102.721 25.4455 102.93 25.0971 103 24.7487C103.07 24.4002 103.209 24.1215 103.348 23.773L108.366 10.5322H111.084L99.655 39.453H96.8674V39.5227Z" fill="#072723"/>
<path d="M113.732 39.5227V10.6018H116.31V11.8562C116.31 12.135 116.31 12.3441 116.31 12.6228C116.31 12.9016 116.31 13.1803 116.31 13.4591C116.31 13.5985 116.31 13.7378 116.31 13.8772C116.31 14.0166 116.31 14.156 116.31 14.2953C117.007 13.0409 117.913 11.9956 119.237 11.229C120.492 10.4625 121.886 10.0443 123.488 10.0443C125.37 10.0443 126.973 10.5321 128.367 11.4381C129.76 12.3441 130.806 13.5985 131.572 15.2013C132.339 16.8041 132.687 18.616 132.687 20.637C132.687 22.7277 132.339 24.5396 131.572 26.1424C130.806 27.7453 129.691 28.9997 128.367 29.9753C126.973 30.8813 125.37 31.3691 123.628 31.3691C122.095 31.3691 120.77 31.0206 119.446 30.2541C118.192 29.5572 117.216 28.4422 116.45 27.0484C116.45 27.2575 116.45 27.4665 116.45 27.7453C116.45 27.9543 116.45 28.1634 116.45 28.3725C116.45 28.5118 116.45 28.7209 116.45 28.8603C116.45 28.9997 116.45 29.139 116.45 29.2784V39.5924H113.732V39.5227ZM123.07 29.2087C124.464 29.2087 125.649 28.8603 126.694 28.0937C127.739 27.3271 128.506 26.3515 129.133 25.0274C129.691 23.7033 129.969 22.2399 129.969 20.5673C129.969 18.8948 129.691 17.4313 129.133 16.1769C128.576 14.9225 127.739 13.8772 126.694 13.1803C125.649 12.4834 124.464 12.135 123.07 12.135C121.746 12.135 120.561 12.4834 119.516 13.1803C118.471 13.8772 117.635 14.8529 117.077 16.1769C116.519 17.4313 116.171 18.9645 116.171 20.637C116.171 22.3095 116.45 23.8427 117.077 25.0971C117.635 26.4212 118.471 27.3968 119.516 28.1634C120.561 28.93 121.746 29.2087 123.07 29.2087Z" fill="#072723"/>
<path d="M145.022 31.2994C143.141 31.2994 141.468 30.8812 140.005 30.045C138.541 29.2087 137.426 27.9542 136.66 26.3514C135.893 24.7486 135.475 22.7973 135.475 20.5673C135.475 18.5463 135.893 16.7344 136.729 15.1315C137.566 13.5287 138.681 12.2743 140.075 11.3683C141.468 10.4624 143.071 9.97455 144.813 9.97455C146.695 9.97455 148.298 10.3927 149.692 11.2986C151.016 12.1349 152.061 13.3894 152.758 14.9225C153.455 16.5254 153.803 18.3372 153.803 20.4279V20.9854H138.054C138.054 22.7277 138.332 24.1911 138.96 25.4455C139.587 26.6999 140.353 27.6059 141.399 28.2331C142.444 28.8603 143.698 29.2087 145.022 29.2087C146.625 29.2087 147.949 28.8602 149.064 28.0936C150.11 27.327 150.807 26.1423 151.016 24.6092H153.594C153.385 25.8636 152.967 27.0484 152.2 28.0239C151.504 28.9996 150.528 29.8359 149.273 30.3934C148.158 30.9509 146.695 31.2994 145.022 31.2994ZM151.016 19.0341C151.016 16.9434 150.458 15.271 149.343 14.0166C148.228 12.7622 146.765 12.135 144.813 12.135C142.932 12.135 141.399 12.7621 140.214 14.0862C139.029 15.4103 138.332 17.0131 138.123 19.0341H151.016Z" fill="#072723"/>
<path d="M157.775 30.6722V10.6018H160.354V11.9259C160.354 12.135 160.354 12.3441 160.354 12.5531C160.354 12.7622 160.354 12.9713 160.354 13.1803C160.354 13.3894 160.354 13.6681 160.354 13.8772C160.354 14.0863 160.354 14.365 160.354 14.6438C160.911 13.3197 161.748 12.2047 163.002 11.3684C164.187 10.5321 165.581 10.0443 167.183 10.0443C167.602 10.0443 167.95 10.0443 168.298 10.114V12.6228C167.811 12.5531 167.392 12.5531 167.044 12.5531C165.72 12.5531 164.535 12.8319 163.56 13.4591C162.584 14.0863 161.817 14.9225 161.26 16.0376C160.702 17.1526 160.424 18.4767 160.424 19.9401V30.7419H157.775V30.6722Z" fill="#072723"/>
<path d="M174.71 30.1147L174.571 30.6722H166.417L166.556 30.1147C168.786 29.9056 169.762 29.2087 170.11 27.5362L174.71 5.86299C175.198 3.63295 174.501 3.28451 172.131 3.77233L172.271 3.21481L177.288 1.54228H177.846L172.341 27.6059C171.922 29.2087 172.55 29.9056 174.71 30.1147Z" fill="#072723"/>
<path d="M183.978 30.1147L183.839 30.6723H175.616L175.755 30.1147C177.985 29.9057 178.961 29.2088 179.309 27.5363L182.097 14.2954C182.585 12.0654 181.957 11.717 179.518 12.2048L179.658 11.6472L184.675 9.97466H185.233L181.539 27.5363C181.191 29.2088 181.818 29.9057 183.978 30.1147ZM185.372 2.65738C186.487 2.65738 187.184 3.49364 187.045 4.60866C186.905 5.72368 185.93 6.49026 184.884 6.49026C183.769 6.49026 183.003 5.654 183.142 4.60866C183.212 3.49364 184.187 2.65738 185.372 2.65738Z" fill="#072723"/>
<path d="M198.055 36.526L200.285 26.1424C198.892 29.2087 195.895 31.2994 192.829 31.2994C187.811 31.2994 185.442 26.5605 186.975 19.522C188.02 14.365 192.62 9.97455 198.055 9.97455C200.564 9.97455 202.655 11.0896 203.491 12.7621L205.373 9.97455H205.93L200.216 36.526C199.798 38.3379 201.261 38.6864 202.725 38.9651L202.585 39.5226H193.177L193.317 38.9651C196.104 38.6864 197.707 38.3379 198.055 36.526ZM194.223 29.8358C196.801 29.8358 199.38 27.6058 200.634 24.9576L202.306 17.0132C202.725 14.1559 201.4 11.1593 197.428 11.1593C193.665 11.1593 190.459 14.5741 189.414 19.522C188.16 25.5849 189.972 29.8358 194.223 29.8358Z" fill="#072723"/>
<path d="M234.015 30.1147L233.876 30.6723H225.652L225.792 30.1147C228.022 29.9057 228.997 29.2088 229.346 27.5363L232.133 14.2954C232.621 12.0654 231.994 11.717 229.555 12.2048L229.694 11.6472L234.712 9.97466H235.269L231.576 27.5363C231.227 29.2088 231.855 29.9057 234.015 30.1147ZM235.409 2.65738C236.524 2.65738 237.221 3.49364 237.081 4.60866C236.942 5.72368 235.966 6.49026 234.921 6.49026C233.806 6.49026 233.039 5.654 233.179 4.60866C233.318 3.49364 234.294 2.65738 235.409 2.65738Z" fill="#072723"/>
<path d="M222.377 27.4665L224.258 18.616L226.07 9.97455H225.513L220.495 11.6471L220.356 12.2047C222.725 11.7168 223.352 12.0653 222.934 14.2953L220.565 25.5848C217.916 28.0239 216.105 29.4874 213.805 29.4874C211.017 29.4874 209.554 27.6059 210.251 24.3305L213.317 9.97455H212.76L207.742 11.6471L207.603 12.2047C209.972 11.7168 210.669 12.0653 210.181 14.2953L208.021 24.6092C207.184 28.4421 209.136 31.2296 212.69 31.2296C215.059 31.2296 217.15 29.9056 220.425 26.4212L220.286 27.1181L219.589 30.5327H224.816L224.955 29.9056C222.655 29.8359 222.028 29.2087 222.377 27.4665Z" fill="#072723"/>
<path d="M255.897 9.20808L257.5 1.47261H256.942L251.925 3.14514L251.785 3.70264C254.155 3.21482 254.782 3.56327 254.364 5.79331L252.97 12.4138C252.064 10.9503 250.113 9.97466 247.883 9.97466C242.377 9.97466 237.848 14.3651 236.663 19.8705C235.269 26.5606 237.569 31.2994 242.587 31.2994C245.723 31.2994 248.719 29.1391 250.113 26.0728L249.764 27.815L249.137 30.6722L254.364 30.6025L254.503 30.045C252.343 29.836 251.716 29.1391 252.064 27.4665L255.897 9.20808ZM250.322 24.8881C249.137 27.6059 246.489 29.836 243.911 29.836C239.66 29.836 237.848 25.5849 239.032 19.8705C240.147 14.5044 243.423 11.1594 247.186 11.1594C251.228 11.1594 252.552 14.365 251.995 17.2223L251.785 18.1282L250.322 24.8881Z" fill="#072723"/>
</svg>
