<svg width="258" height="207" viewBox="0 0 258 207" fill="none" xmlns="http://www.w3.org/2000/svg">
<g opacity="0.25">
<path d="M88.1682 174.912C86.6671 170.966 85.6695 166.983 86.1578 162.658C87.4304 151.428 98.0161 142.981 109.23 144.55C111.195 144.827 112.27 144.416 113.374 142.704C119.529 133.181 125.834 123.756 132.086 114.293C132.505 113.655 132.891 112.994 133.313 112.303C118.812 98.9758 114.35 82.6497 118.312 63.6029C117.893 63.3871 117.449 63.109 116.967 62.9075C107.932 59.1247 98.8796 55.3821 89.8633 51.5422C88.508 50.9661 87.6619 51.1301 86.606 52.1359C78.4979 59.8391 64.6904 59.3888 57.4107 51.2417C49.2302 42.087 49.7081 28.869 58.4999 21.2223C65.1242 15.4613 72.6887 14.1204 80.6545 17.4961C88.7162 20.9147 92.9785 27.3554 93.4353 36.2265C93.4747 36.9868 94.1625 38.0968 94.8331 38.3868C103.905 42.2851 113.054 46.0031 122.115 49.9196C123.969 50.7206 124.398 49.6428 125.132 48.542C132.834 37.0356 143.459 29.9563 157.116 27.5455C159.096 27.1945 161.15 27.2328 163.124 26.8467C163.77 26.7201 164.678 25.8634 164.754 25.251C167.17 6.03542 169.515 -13.1945 171.783 -32.4298C171.863 -33.0953 171.259 -34.1546 170.661 -34.5379C159.156 -41.8573 156.868 -56.6738 165.709 -67.0503C173.235 -75.8827 188.583 -75.8787 196.449 -67.0434C205.048 -57.3861 204.233 -44.3708 194.299 -36.1439C192.324 -34.5097 189.66 -33.7259 187.366 -32.4527C186.735 -32.1004 185.902 -31.4511 185.829 -30.8518C183.37 -11.1691 180.992 8.52658 178.606 28.2171C178.595 28.2859 178.651 28.3612 178.51 27.9549C183.345 30.3234 188.069 32.1807 192.319 34.8094C202.898 41.3456 209.704 50.8416 212.815 62.8914C213.315 64.8341 213.993 65.4394 216.072 65.2701C229.552 64.1799 243.041 63.2234 256.53 62.2903C258.008 62.1892 258.797 61.7877 259.36 60.2612C262.385 52.0459 270.039 46.8023 278.76 46.7768C287.242 46.7472 295.264 52.243 298.332 60.1915C301.5 68.3827 299.167 77.6547 292.467 83.522C282.31 92.4194 266.571 89.462 260.199 77.5194C259.866 76.8924 258.826 76.2077 258.166 76.2538C243.82 77.2237 229.484 78.2936 215.147 79.3531C214.928 79.3697 214.717 79.4928 214.344 79.6235C213.406 89.7427 209.747 98.8461 203.118 106.992C206.01 110.282 208.853 113.543 211.724 116.785C215.279 120.803 218.86 124.792 222.403 128.818C223.31 129.843 224.054 130.54 225.727 130.022C235.063 127.138 245.235 131.001 249.82 139.008C254.996 148.038 253.513 158.3 246.021 165.392C245.804 165.598 245.674 165.892 245.498 166.144L241.611 168.73C241.312 168.788 240.989 168.801 240.719 168.918C232.588 172.507 223.532 171.014 217.363 165.061C210.993 158.916 209.219 149.837 212.909 141.448C213.513 140.075 213.143 139.349 212.292 138.409C208.752 134.489 205.264 130.522 201.748 126.579C198.768 123.241 195.769 119.915 192.753 116.556C177.335 126.066 161.459 126.907 145.067 120.03C138.063 130.634 131.157 141.048 124.35 151.527C124.013 152.049 124.289 153.259 124.671 153.926C129.393 162.123 128.881 171.403 123.248 178.358C117.526 185.418 108.554 188.122 99.7552 184.761C96.4881 183.49 93.7414 180.823 90.754 178.799C89.8912 177.502 89.031 176.209 88.1682 174.912Z" fill="#072723"/>
</g>
</svg>
