<svg width="304" height="208" viewBox="0 0 304 208" fill="none" xmlns="http://www.w3.org/2000/svg">
<g opacity="0.25">
<path d="M146.51 -115.421C227.206 -139.892 312.577 -94.2701 337.157 -13.5412C361.729 67.1652 315.848 152.975 235.109 177.279C154.32 201.607 68.93 155.868 44.5566 75.1996C20.1605 -5.54406 65.8433 -90.9583 146.51 -115.421ZM121.615 151.4C122.353 150.36 122.953 149.402 123.657 148.518C130.127 140.414 136.508 132.23 143.166 124.289C144.828 122.307 145.235 121.064 143.788 118.799C134.444 104.227 127.085 88.6604 120.959 72.4994C119.49 68.624 118.138 64.7049 116.706 60.7119L60.1262 77.8701C69.3139 105.878 91.7965 134.738 121.615 151.4ZM269.501 14.3107C269.571 14.9185 269.569 15.2374 269.641 15.5262C275.035 36.3036 278.721 57.3459 279.139 78.8727C279.177 80.936 280.219 81.412 281.941 81.7558C292.89 83.9242 303.447 87.3555 313.66 91.8628C314.29 92.1372 314.968 92.2992 315.757 92.5581C330.428 61.8815 333.928 30.2469 326.096 -2.85202L269.501 14.3107ZM265.297 0.932128L321.922 -16.2397C310.041 -48.0373 289.649 -72.3203 260.573 -89.5755C259.801 -88.4592 259.211 -87.4961 258.507 -86.6128C251.985 -78.4108 245.559 -70.132 238.841 -62.0912C237.236 -60.1668 237.025 -59.0573 238.208 -56.8267C244.564 -44.8112 250.914 -32.7859 256.778 -20.5315C260.091 -13.6212 262.474 -6.27387 265.297 0.932128ZM112.703 47.2967C106.69 25.5553 103.164 3.47634 102.695 -18.1902C90.002 -22.256 77.9957 -26.1051 65.8028 -30.0039C51.4681 0.0563359 48.0134 31.571 55.839 64.5411L112.696 47.299L112.703 47.2967ZM265.535 79.4531C265.051 58.4611 261.644 38.3389 256.173 18.4668L199.578 35.6296L214.112 83.5552C230.923 79.4126 247.901 77.9477 265.533 79.4456L265.535 79.4531ZM200.764 87.6192L186.242 39.7311L129.729 56.8689C136.364 76.5675 144.634 95.1906 155.841 112.702C169.545 101.677 184.49 93.4529 200.749 87.6238L200.764 87.6192ZM125.583 43.3336L182.111 26.1913L167.693 -21.3528C150.745 -17.0953 133.679 -15.7589 116.253 -17.1968C116.748 3.6125 120.218 23.4867 125.591 43.3313L125.583 43.3336ZM195.488 22.1428L252.061 4.98689C245.453 -14.565 237.32 -33.0904 226.174 -50.5063C212.356 -39.4547 197.377 -31.1796 181.097 -25.3114L195.486 22.1354L195.488 22.1428ZM157.838 -102.226L177.171 -38.4723C192.392 -43.9293 206.059 -51.6517 218.52 -61.8995C208.064 -75.8001 196.612 -88.165 181.418 -96.4385C174.226 -100.359 166.566 -102.831 157.842 -102.211L157.838 -102.226ZM144.487 -98.1199C138.604 -94.8657 134.427 -90.3236 130.988 -85.074C123.848 -74.1689 120.356 -61.9278 118.354 -49.2157C117.411 -43.2204 116.932 -37.153 116.223 -30.9509C132.594 -29.3811 148.186 -30.5155 163.802 -34.4261L144.489 -98.1124L144.487 -98.1199ZM265.427 93.1021C249.385 91.5141 233.795 92.6806 218.188 96.6212L237.558 160.494C240.937 157.469 244.24 154.972 246.972 151.971C252.815 145.568 256.4 137.807 259.1 129.662C263.007 117.875 264.833 105.714 265.42 93.1044L265.427 93.1021ZM204.822 100.65C189.559 106.128 175.923 113.767 163.055 124.449C169.789 131.653 175.988 138.922 182.868 145.477C191.048 153.272 200.306 159.694 211.45 162.613C215.425 163.653 219.615 163.869 224.196 164.538L204.822 100.65ZM189.033 -107.986C205.024 -98.6472 217.448 -85.5559 229.106 -70.5172C235.863 -79.0762 242.269 -87.1775 248.939 -95.6202C229.343 -104.348 209.732 -108.627 189.035 -107.978L189.033 -107.986ZM72.413 -42.0634C82.7961 -38.7185 92.6255 -35.5569 102.891 -32.2498C104.106 -51.2988 107.327 -69.012 115.307 -85.6606C97.8194 -74.6153 83.8233 -60.2997 72.413 -42.0634ZM192.671 169.802C176.861 160.441 164.537 147.491 152.96 132.64C146.24 141.131 139.9 149.155 133.246 157.568C152.726 166.29 172.201 170.366 192.673 169.81L192.671 169.802ZM266.577 147.423C284.013 136.45 297.974 122.21 309.275 104.097C298.963 100.771 289.232 97.637 278.993 94.3382C277.674 113.231 274.563 130.878 266.569 147.425L266.577 147.423Z" fill="#072723"/>
</g>
</svg>
